<svg width="16" height="16" viewBox="0 0 16 16" fill="none" xmlns="http://www.w3.org/2000/svg">
<path d="M1.82861 7.96735C1.82861 9.19009 2.19119 10.3854 2.87051 11.4021C3.54983 12.4187 4.51538 13.2111 5.64505 13.6791C6.77472 14.147 8.01779 14.2694 9.21704 14.0309C10.4163 13.7923 11.5178 13.2035 12.3825 12.3389C13.2471 11.4743 13.8359 10.3727 14.0744 9.17346C14.313 7.97421 14.1906 6.73114 13.7226 5.60147C13.2547 4.4718 12.4623 3.50626 11.4456 2.82694C10.429 2.14762 9.23366 1.78503 8.01092 1.78503C6.37127 1.78503 4.79878 2.43638 3.63937 3.59579C2.47996 4.7552 1.82861 6.3277 1.82861 7.96735Z" fill="white"/>
<path d="M8.0108 16C6.42948 16.0021 4.88302 15.5356 3.56671 14.6593C2.25041 13.783 1.22332 12.5362 0.615201 11.0765C0.00708489 9.61679 -0.154775 8.0096 0.150039 6.45793C0.454853 4.90627 1.21265 3.47974 2.32777 2.35855C3.44289 1.23735 4.8653 0.471775 6.41529 0.158532C7.96527 -0.154711 9.57332 -0.00157473 11.0363 0.5986C12.4993 1.19877 13.7516 2.21906 14.6351 3.53059C15.5185 4.84211 15.9935 6.38604 15.9999 7.96734C16.0056 9.02015 15.8033 10.0637 15.4043 11.038C15.0054 12.0123 14.4179 12.8982 13.6754 13.6447C12.933 14.3911 12.0503 14.9835 11.0782 15.3877C10.1061 15.7919 9.06362 16 8.0108 16ZM8.0108 3.63537C7.14971 3.63537 6.30795 3.89071 5.59198 4.36911C4.87601 4.84751 4.31799 5.52746 3.98846 6.32301C3.65894 7.11855 3.57274 7.99394 3.74073 8.83849C3.90872 9.68303 4.32336 10.4588 4.93224 11.0677C5.54112 11.6766 6.31688 12.0912 7.16143 12.2592C8.00597 12.4272 8.88136 12.341 9.6769 12.0114C10.4724 11.6819 11.1524 11.1239 11.6308 10.4079C12.1092 9.69195 12.3645 8.8502 12.3645 7.98911C12.3674 7.41554 12.2569 6.84706 12.0394 6.31632C11.8219 5.78559 11.5017 5.30306 11.0971 4.89647C10.6925 4.48988 10.2116 4.16723 9.68195 3.94708C9.15231 3.72692 8.58438 3.6136 8.0108 3.6136V3.63537Z" fill="url(#paint0_linear_154_7184)"/>
<defs>
<linearGradient id="paint0_linear_154_7184" x1="-4.86664" y1="8.07447" x2="15.9938" y2="8.07447" gradientUnits="userSpaceOnUse">
<stop stop-color="#44D4D4"/>
<stop offset="1" stop-color="#1A6A6A"/>
</linearGradient>
</defs>
</svg>
