<svg width="68" height="76" viewBox="0 0 68 76" fill="none" xmlns="http://www.w3.org/2000/svg">
<g clip-path="url(#clip0_214_4760)">
<path d="M16.9723 35.9464C16.9723 33.6809 17.015 31.4155 16.9552 29.1543C16.919 27.844 17.4202 27.0996 18.6849 26.7683C20.583 26.2692 22.4428 25.6108 24.3537 25.1784C25.3347 24.9633 25.5459 24.5136 25.5032 23.5971C25.4328 22.0545 25.5224 20.5054 25.4712 18.9607C25.4307 17.7882 25.8978 17.1729 27.0729 17.1707C31.7265 17.1621 36.3794 17.1621 41.0316 17.1707C42.017 17.1707 42.5395 17.6634 42.5246 18.7047C42.5075 20.3054 42.5736 21.9103 42.5011 23.5067C42.4563 24.4835 42.693 24.9783 43.7359 25.2085C45.4933 25.5958 47.1846 26.2842 48.9398 26.6629C50.501 27.0028 51.1003 27.7623 51.0725 29.406C50.9766 33.8767 51.0725 38.3517 51.0128 42.8224C50.9958 43.9304 51.3306 44.1994 52.3863 44.18C55.724 44.1133 59.0639 44.1972 62.4101 44.137C63.9031 44.109 64.528 44.7007 64.3509 46.2067C64.1824 47.6288 64.0545 49.0552 63.9436 50.4816C63.8455 51.7617 63.2185 52.4308 61.926 52.2695C60.2049 52.0543 59.2324 52.788 58.857 54.479C58.734 55.0743 58.5111 55.644 58.198 56.1636C57.1018 57.8976 57.0506 59.3908 58.8378 60.7311C59.5608 61.269 59.5096 62.05 58.9978 62.7857C56.9299 65.776 54.3631 68.3814 51.4116 70.4858C50.4676 71.1613 49.6614 71.0652 48.9931 70.1975C47.8841 68.7539 46.6471 68.5645 45.1542 69.5693C44.801 69.8308 44.4025 70.0235 43.9791 70.1372C41.8911 70.5869 40.4345 71.4518 40.7971 74.0099C40.9293 74.9543 40.1807 75.3739 39.2338 75.5417C35.7759 76.1443 32.2412 76.1443 28.7834 75.5417C27.5485 75.3265 27.0132 74.7198 27.1604 73.5538C27.3928 71.7121 26.5525 70.7741 24.8506 70.3954C24.3116 70.2942 23.7951 70.096 23.3257 69.8102C21.6323 68.6893 20.1458 68.5495 18.815 70.3997C18.301 71.1162 17.5353 71.1334 16.7846 70.6149C13.7671 68.5138 11.146 65.8858 9.04494 62.8546C8.43285 61.979 8.49683 61.1334 9.31367 60.5181C10.9452 59.2982 10.8983 57.9213 9.90869 56.3594C9.71238 56.0923 9.56305 55.7932 9.46722 55.4751C9.01295 53.3086 8.1108 51.8047 5.5046 52.2114C4.61312 52.3491 4.18444 51.5509 4.09273 50.7053C3.91571 49.0616 3.73657 47.4179 3.61927 45.7699C3.52117 44.4124 4.37212 44.1262 5.51739 44.1348C8.91057 44.1606 12.3059 44.1069 15.6991 44.1671C16.6929 44.1843 17.0192 43.9326 16.9787 42.8913C16.9062 40.5849 16.9723 38.2549 16.9723 35.9464Z" fill="white"/>
<path d="M55.9074 32.8419C55.9256 32.6221 55.9256 32.4011 55.9074 32.1814C55.3337 28.7735 56.3126 26.3079 59.902 25.3914C60.5994 25.215 60.7039 24.6341 60.8383 24.0166C61.3544 21.635 63.34 20.3591 65.4087 21.0325C67.4775 21.706 68.5204 23.8402 67.7313 25.8905C66.9422 27.9409 64.6964 28.6874 62.5253 27.6633C61.075 26.9748 58.311 28.653 58.3046 30.2451C58.2939 32.5041 58.2427 34.7631 58.328 37.02C58.3643 38.0161 57.9015 38.0527 57.17 38.0484C56.4384 38.0441 55.7922 38.1086 55.8775 36.9726C55.9863 35.6022 55.9074 34.2188 55.9074 32.8419Z" fill="white"/>
<path d="M12.0776 32.7515C12.0776 34.1285 12.0158 35.5118 12.099 36.8845C12.1587 37.8634 11.7812 38.0656 10.894 38.0527C10.0622 38.042 9.61434 37.9817 9.65059 36.9318C9.73804 34.7309 9.61434 32.5213 9.70391 30.3204C9.7487 29.264 9.37548 28.7477 8.44561 28.3475C7.16597 27.7967 6.15292 27.119 4.55551 27.9516C2.78534 28.8746 0.595016 27.4396 0.119417 25.5184C-0.381775 23.496 0.73151 21.5059 2.65097 20.9874C4.57043 20.4689 6.62638 21.6457 7.02307 23.653C7.22568 24.6814 7.66289 25.2925 8.59916 25.669C9.30509 25.9551 9.93426 26.4392 10.6466 26.693C11.8303 27.1233 12.1694 27.9237 12.0947 29.1156C12.0201 30.3075 12.0776 31.5381 12.0776 32.7515Z" fill="white"/>
<path d="M19.4356 20.329C19.4356 19.4491 19.4356 18.567 19.4356 17.6849C19.4422 17.2628 19.3592 16.8442 19.1922 16.4572C19.0253 16.0701 18.7781 15.7235 18.4675 15.4407C18.1568 15.1579 17.7898 14.9454 17.3911 14.8174C16.9923 14.6894 16.571 14.6489 16.1555 14.6987C15.6522 14.7501 15.1438 14.6952 14.6627 14.5375C14.1816 14.3798 13.7384 14.1228 13.3612 13.7828C12.984 13.4427 12.6811 13.0272 12.4719 12.5626C12.2627 12.098 12.1517 11.5945 12.146 11.0843C12.1382 10.5893 12.2315 10.098 12.4202 9.64099C12.6088 9.18399 12.8887 8.77108 13.2425 8.42796C13.5962 8.08484 14.0162 7.81888 14.4763 7.64663C14.9363 7.47439 15.4266 7.39955 15.9166 7.42679C18.0963 7.57309 19.6574 9.38031 19.2842 11.5662C19.1179 12.5472 19.3716 13.1647 20.0776 13.6875C21.5342 14.7632 22.012 16.1724 21.8691 17.9754C21.7589 19.7908 21.7553 21.6112 21.8584 23.4271C21.8925 24.3243 21.5876 24.5717 20.7473 24.5029C20.0349 24.4491 19.3141 24.6319 19.4186 23.4637C19.5081 22.431 19.4356 21.3768 19.4356 20.329Z" fill="white"/>
<path d="M46.1502 19.9676C46.1502 19.1931 46.2312 18.4099 46.1331 17.6505C45.9198 16.0089 46.468 14.7482 47.7583 13.7628C48.5431 13.1626 48.8246 12.4719 48.6796 11.3661C48.3959 9.26843 50.1299 7.43755 52.1623 7.39667C52.6657 7.39675 53.1637 7.50159 53.6251 7.70463C54.0864 7.90767 54.5013 8.20454 54.8438 8.57669C55.1863 8.94883 55.449 9.38825 55.6155 9.86746C55.782 10.3467 55.8487 10.8554 55.8114 11.3618C55.7591 11.8539 55.6103 12.3305 55.3736 12.764C55.137 13.1975 54.8173 13.5792 54.433 13.887C54.0488 14.1947 53.6078 14.4222 53.1356 14.5564C52.6634 14.6906 52.1694 14.7287 51.6825 14.6686C50.1171 14.4771 48.573 15.8433 48.5559 17.4784C48.5324 19.4663 48.4834 21.4585 48.5751 23.4422C48.6284 24.5868 47.995 24.462 47.2549 24.5028C46.4381 24.5459 46.067 24.3544 46.131 23.4271C46.2099 22.2847 46.1502 21.1208 46.1502 19.9676Z" fill="white"/>
<path d="M32.731 11.4478V9.29638C32.731 8.11523 32.8291 7.1105 31.5153 6.2241C29.8241 5.08383 29.9968 2.41173 31.5004 1.00038C33.0466 -0.451848 35.2988 -0.312002 36.7341 1.3274C38.0692 2.85493 37.9605 5.25595 36.3076 6.43064C35.3969 7.07608 35.2263 7.75594 35.2412 8.73485C35.2881 10.7185 35.19 12.7064 35.2817 14.6879C35.3329 15.7895 34.8851 15.9551 33.9445 15.9422C33.0637 15.9422 32.6393 15.7486 32.7161 14.7525C32.795 13.6595 32.731 12.5515 32.731 11.4478Z" fill="white"/>
<path d="M9.69972 41.7381C9.48645 40.7506 9.81702 40.3956 10.8685 40.3892C11.9199 40.3827 12.131 40.785 12.1182 41.7403C12.1054 42.6288 11.9178 43.0032 10.9388 42.986C10.0026 42.9709 9.431 42.8397 9.69972 41.7381Z" fill="white"/>
<path d="M58.2683 41.5789C58.4965 42.6417 58.1617 42.9881 57.1145 42.9924C56.0673 42.9967 55.8541 42.6008 55.8669 41.6456C55.8669 40.757 56.0801 40.3655 57.0463 40.4021C57.9484 40.4365 58.633 40.4731 58.2683 41.5789Z" fill="white"/>
<path d="M10.3971 46.6456C11.7642 46.6456 13.368 46.1981 14.4344 46.7703C15.5434 47.3663 15.1318 49.2187 15.5007 50.4967C17.5417 57.5405 22.0866 62.1597 28.9966 64.0508C35.8619 65.9398 42.1023 64.2487 47.3189 59.281C50.614 56.1614 52.5121 52.2393 53.0155 47.6976C53.1136 46.8198 53.3972 46.5875 54.2141 46.6047C56.4577 46.6456 58.7056 46.6542 60.9492 46.6047C61.7703 46.5832 61.9943 46.8198 61.8578 47.6331C61.6445 48.8443 61.8023 50.0492 59.8615 50.0449C58.4582 50.0449 57.4921 51.2626 56.9439 52.6266C56.4172 53.9497 55.8776 55.2664 55.3145 56.5788C54.6022 58.2591 54.7664 59.8426 55.9544 61.2066C56.5089 61.8413 56.4257 62.2436 55.9544 62.8352C54.5391 64.5889 52.9442 66.187 51.1962 67.6029C50.7249 67.9858 50.4242 68.2117 49.8484 67.6825C48.3021 66.2561 46.5725 66.1506 44.6999 67.0908C43.5845 67.6502 42.3966 68.0654 41.2343 68.528C39.6283 69.1734 38.5427 70.2857 38.4809 72.0628C38.4404 73.2375 37.7686 73.4053 36.9197 73.4397C35.5527 73.4957 34.1834 73.5107 32.8164 73.5086C31.0974 73.5086 29.2206 73.7689 29.2974 71.0366C29.3102 70.5396 28.8218 69.8339 28.3654 69.5478C26.1047 68.1257 23.7075 66.966 21.048 66.5185C19.9411 66.3357 18.9941 66.88 18.2434 67.633C17.7316 68.145 17.3903 68.0955 16.8827 67.6868C15.0331 66.2196 13.3641 64.5345 11.9113 62.6674C11.4635 62.0887 11.5573 61.7638 11.9711 61.2711C13.3403 59.6446 13.336 57.8998 12.3976 56.041C11.9071 54.998 11.4721 53.9293 11.0945 52.8396C10.4526 51.0883 9.29448 50.0169 7.37503 49.8727C5.45557 49.7286 6.37264 48.1086 6.1615 47.1963C5.92903 46.1938 6.97194 46.68 7.44114 46.6391C8.42006 46.5552 9.40965 46.6133 10.3971 46.6133V46.6456Z" fill="#141518"/>
<path d="M33.9915 46.6176C39.1335 46.6176 44.2755 46.6499 49.4175 46.5939C50.518 46.581 50.759 46.8478 50.5756 47.9537C49.1936 56.2755 42.3048 62.2974 34.0618 62.3146C25.6418 62.334 18.6934 56.2454 17.3775 47.7837C17.2154 46.7381 17.4905 46.5961 18.4033 46.6025C23.5987 46.6456 28.7961 46.6176 33.9915 46.6176Z" fill="#141518"/>
<path d="M40.0719 31.9254C40.0719 35.5678 40.0399 39.2123 40.0954 42.8548C40.1103 43.8509 39.8672 44.1886 38.8285 44.1973C37.7302 44.1973 37.5489 43.7519 37.615 42.8117C37.6832 41.7683 37.615 40.7162 37.6321 39.6663C37.6491 38.6164 37.2055 38.0097 36.0752 38.0247C34.7081 38.042 33.3389 38.0377 31.9718 38.0247C30.8926 38.0118 30.3445 38.5067 30.3552 39.6147C30.3659 40.7227 30.2763 41.8307 30.3765 42.9257C30.4767 44.0208 29.9777 44.1714 29.0478 44.193C28.0454 44.2166 27.894 43.7906 27.8961 42.915C27.9232 35.5728 27.9232 28.2306 27.8961 20.8884C27.8961 19.8299 28.2331 19.5976 29.212 19.6083C32.441 19.6643 35.67 19.6643 38.8989 19.6083C39.8394 19.5933 40.1124 19.8945 40.0996 20.8304C40.0463 24.5265 40.0719 28.227 40.0719 31.9254Z" fill="#141518"/>
<path d="M25.4734 27.3987C25.4734 32.7902 25.4585 37.9623 25.4883 43.1344C25.4883 43.9175 25.2751 44.2101 24.4774 44.1735C23.1146 44.1176 21.7475 44.1327 20.3847 44.1735C19.6894 44.1908 19.4207 43.9584 19.425 43.2269C19.4477 38.8236 19.4477 34.4189 19.425 30.0127C19.425 29.335 19.6724 29.0553 20.3015 28.8896C21.9779 28.44 23.6393 27.9279 25.4734 27.3987Z" fill="#141518"/>
<path d="M42.5117 27.5149C42.7023 27.5096 42.893 27.5225 43.0812 27.5536C44.8556 28.0915 47.159 28.1431 48.2424 29.3264C49.2917 30.4732 48.5068 32.8075 48.5367 34.619C48.5815 37.3234 48.5154 40.032 48.5644 42.7364C48.5836 43.7196 48.4621 44.2919 47.2613 44.1822C45.745 44.0424 43.7466 44.6512 42.8189 43.8788C41.8463 43.0742 42.5416 40.9873 42.5267 39.4619C42.484 35.4925 42.5117 31.5188 42.5117 27.5149Z" fill="#141518"/>
<path d="M32.729 42.2652C32.6586 41.2476 32.5008 40.3461 34.1003 40.3784C35.9174 40.4128 35.1539 41.6456 35.2434 42.4395C35.3437 43.328 35.5356 44.2381 33.983 44.2338C32.2598 44.2295 32.8015 43.1258 32.729 42.2652Z" fill="#141518"/>
<path d="M63.1907 24.6427C63.3144 23.6832 63.775 23.3153 64.5343 23.3949C65.236 23.4659 65.5623 23.9413 65.5282 24.6255C65.5331 24.7764 65.5064 24.9267 65.45 25.0665C65.3935 25.2063 65.3085 25.3326 65.2005 25.4371C65.0924 25.5417 64.9638 25.6221 64.8229 25.6731C64.6821 25.7242 64.5321 25.7447 64.3829 25.7335C64.0827 25.7431 63.7907 25.6347 63.5682 25.4312C63.3458 25.2277 63.2104 24.945 63.1907 24.6427Z" fill="#141518"/>
<path d="M3.61495 23.3734C4.2697 23.4938 4.7581 23.7714 4.76237 24.5287C4.76663 25.286 4.31663 25.7055 3.67468 25.7206C2.96021 25.7378 2.41849 25.3161 2.43982 24.4964C2.45688 23.7542 2.96447 23.4723 3.61495 23.3734Z" fill="#141518"/>
<path d="M16.9318 11.1337C16.8593 11.805 16.4733 12.2224 15.7844 12.2094C15.0252 12.1965 14.6007 11.7512 14.605 10.9659C14.605 10.2237 15.0891 9.87943 15.7375 9.86437C16.5159 9.85576 16.8764 10.3549 16.9318 11.1337Z" fill="#141518"/>
<path d="M52.2561 9.8407C52.896 9.98915 53.427 10.2516 53.3907 10.996C53.3545 11.7404 52.9941 12.2632 52.19 12.2051C51.435 12.1535 51.0256 11.6608 51.0703 10.8971C51.1151 10.1806 51.6206 9.90954 52.2561 9.8407Z" fill="#141518"/>
<path d="M34.1407 4.86654C33.2023 4.89021 32.8355 4.33728 32.8227 3.64882C32.8113 3.49802 32.8323 3.34652 32.8841 3.2046C32.9359 3.06269 33.0174 2.93367 33.123 2.82633C33.2286 2.71898 33.3558 2.63581 33.4961 2.58246C33.6364 2.52912 33.7864 2.50685 33.936 2.51716C34.099 2.50595 34.2625 2.52979 34.4157 2.58711C34.5689 2.64443 34.7083 2.73392 34.8246 2.84965C34.9409 2.96538 35.0316 3.10471 35.0905 3.25843C35.1495 3.41215 35.1754 3.57675 35.1666 3.74133C35.1753 4.02694 35.0729 4.30465 34.8811 4.51497C34.6894 4.72529 34.4236 4.85149 34.1407 4.86654Z" fill="#141518"/>
<path d="M34.0128 30.684C33.3005 30.684 32.586 30.6409 31.8801 30.684C30.9055 30.755 30.2827 30.7141 30.2955 29.3608C30.3083 28.0076 30.9929 28.1431 31.846 28.156C33.4327 28.1775 35.0238 28.2399 36.6041 28.1367C37.775 28.0614 37.6342 28.7541 37.647 29.4899C37.6598 30.2257 37.6705 30.8066 36.6382 30.6947C35.7702 30.6065 34.8873 30.684 34.0128 30.684Z" fill="white"/>
<path d="M33.9765 35.6129C33.2663 35.6129 32.554 35.5957 31.8438 35.6129C30.9907 35.6366 30.2997 35.7592 30.2933 34.4167C30.2869 33.0742 30.8968 33.0463 31.88 33.0807C33.4646 33.1366 35.0578 33.1667 36.6381 33.0699C37.6725 33.0075 37.6555 33.5605 37.6448 34.2833C37.6341 35.0062 37.7685 35.7571 36.6019 35.628C35.7403 35.5355 34.853 35.6129 33.9765 35.6129Z" fill="white"/>
<path d="M33.921 25.7593C33.213 25.7593 32.5049 25.74 31.7883 25.7593C30.9352 25.7894 30.2719 25.8992 30.2954 24.5631C30.3082 23.2894 30.884 23.3045 31.7755 23.326C33.4092 23.3626 35.0471 23.397 36.6808 23.3153C37.7152 23.2615 37.664 23.8467 37.6384 24.5416C37.6171 25.187 37.8133 25.9013 36.7021 25.7765C35.7829 25.6776 34.8488 25.7593 33.921 25.7593Z" fill="white"/>
<path d="M22.4044 33.1151C21.5342 33.0269 20.5126 33.5561 20.5212 31.9017C20.5212 30.1267 21.6771 30.7291 22.4918 30.6969C23.3065 30.6646 24.2897 30.2386 24.294 31.8866C24.3004 33.7089 23.1188 32.9365 22.4044 33.1151Z" fill="white"/>
<path d="M22.3041 35.6216C23.4089 35.5936 24.3153 35.2945 24.2876 36.8845C24.2534 38.7799 22.9823 37.8849 22.2295 37.9903C21.4766 38.0957 20.534 38.3948 20.5233 36.8522C20.5041 35.0278 21.7176 35.7808 22.3041 35.6216Z" fill="white"/>
<path d="M45.5786 30.6668C46.4573 30.755 47.4703 30.2365 47.464 31.8866C47.464 33.6852 46.2931 33.042 45.4869 33.085C44.6807 33.128 43.6933 33.5325 43.6912 31.8909C43.689 30.0794 44.8748 30.8539 45.5786 30.6668Z" fill="white"/>
<path d="M45.4358 38.0247C44.5635 38.0247 43.576 38.3431 43.7083 36.764C43.785 35.856 43.9791 35.4731 44.9026 35.5936C45.2787 35.6398 45.659 35.6398 46.0351 35.5936C47.0012 35.4838 47.4661 35.6947 47.4597 36.8844C47.4533 38.0742 46.9287 38.1172 46.0841 38.0355C45.8687 38.0075 45.6512 38.0247 45.4358 38.0247Z" fill="white"/>
</g>
<defs>
<clipPath id="clip0_214_4760">
<rect width="68" height="76" fill="white"/>
</clipPath>
</defs>
</svg>
