<svg width="41" height="41" fill="none" xmlns="http://www.w3.org/2000/svg"><g clip-path="url(#clip0_2248_9215)"><path d="M21.89 34.948H8.26a3 3 0 01-3-3v-13.62a3 3 0 013-3h13.63a3 3 0 013 3v13.63a3 3 0 01-3 2.99zM8.26 16.838a1.49 1.49 0 00-1.49 1.49v13.63a1.49 1.49 0 001.49 1.49h13.63a1.478 1.478 0 001.49-1.49v-13.63a1.48 1.48 0 00-1.49-1.49H8.26z" fill="#000"/><path d="M26.78 30.06h-2.65a.75.75 0 01-.75-.75.76.76 0 01.75-.75h2.65a1.49 1.49 0 001.49-1.49V13.43a1.48 1.48 0 00-1.49-1.48H13.15a1.48 1.48 0 00-1.49 1.48v2.66a.76.76 0 01-.77.75.75.75 0 01-.75-.75v-2.66a3 3 0 013-3h13.63a3 3 0 013 3v13.64a3 3 0 01-2.99 2.99z" fill="#AB1A39"/><path d="M31.68 25.17h-2.66a.75.75 0 01-.75-.75.76.76 0 01.75-.75h2.66a1.49 1.49 0 001.48-1.49V8.54a1.48 1.48 0 00-1.48-1.48H18.04a1.49 1.49 0 00-1.49 1.48v2.66a.76.76 0 01-.75.75.75.75 0 01-.75-.75V8.54a3 3 0 013-3h13.64a3 3 0 013 3v13.64a3 3 0 01-3.01 2.99z" fill="#000"/></g><defs><clipPath id="clip0_2248_9215"><path fill="#fff" d="M0 0h40.03v40.03H0z"/></clipPath></defs></svg>