<svg width="26" height="26" fill="none" xmlns="http://www.w3.org/2000/svg"><path d="M15.343 14.028v9.805h-4.255v-9.805H8.43c-.628 0-.87-.229-.822-.824v-.459c.049-.824-.193-1.878.242-2.382.339-.412 1.547-.275 2.37-.275.676 0 .918-.275.918-.916 0-.917 0-1.833.097-2.75.145-2.244 1.692-3.894 4.012-4.169 1.16-.137 2.418-.091 3.578 0 .29 0 .725.413.725.642.097.916.049 1.878.049 2.932H17.18c-1.063 0-1.643.504-1.74 1.512-.339 2.657-.29 2.703 2.514 2.703.435 0 .87.046 1.45.046-.145 1.191-.241 2.291-.435 3.345-.048.229-.532.458-.87.504-.919.137-1.74.091-2.756.091z" fill="#fff"/></svg>