<svg width="120" height="88" fill="none" xmlns="http://www.w3.org/2000/svg"><path d="M.13 79.705h.25c.126 0 .264.002.413.005.149.003.286.004.412.004h.267a4.542 4.542 0 011.929.379c.466.218.845.588 1.074 1.05a3.85 3.85 0 01.34 1.705 3.93 3.93 0 01-.37 1.799 2.37 2.37 0 01-1.134 1.085 4.502 4.502 0 01-1.928.361H.12c-.08 0-.12-.046-.12-.137v-6.13a.123.123 0 01.03-.09.136.136 0 01.1-.03zm.782.629c-.058 0-.086.04-.086.12v4.925c0 .063.034.094.103.094h.326a3.974 3.974 0 001.547-.253c.382-.157.693-.45.872-.823.206-.474.301-.99.28-1.506a3.382 3.382 0 00-.287-1.537 1.63 1.63 0 00-.876-.79 4.096 4.096 0 00-1.491-.232l-.388.002zm5.59 3.762a1.548 1.548 0 00.743 1.326c.23.139.493.21.76.207.266.004.529-.056.765-.177.234-.128.433-.313.576-.538a.13.13 0 01.056-.039.125.125 0 01.064.013l.361.18c.052.028.057.068.017.12-.14.214-.313.405-.512.565a1.87 1.87 0 01-.623.323 2.686 2.686 0 01-.774.104 2.152 2.152 0 01-1.125-.293 2.086 2.086 0 01-.774-.818 2.515 2.515 0 01-.283-1.214 2.695 2.695 0 01.286-1.287 2.083 2.083 0 011.886-1.124 2.1 2.1 0 011.092.276c.314.19.565.468.721.8.182.397.27.83.258 1.266 0 .04-.004.081-.013.12-.008.04-.047.06-.116.06h-3.29a.064.064 0 00-.057.04.184.184 0 00-.02.09h.002zm2.63-.603a.215.215 0 00.12-.021c.017-.014.025-.047.025-.1a1.548 1.548 0 00-.159-.692 1.313 1.313 0 00-.455-.521 1.263 1.263 0 00-.716-.198c-.277-.01-.55.067-.782.22-.21.143-.376.342-.482.573a1.744 1.744 0 00-.163.74h2.611zm2.599 2.454a.153.153 0 01-.036.116.184.184 0 01-.12.03h-.447c-.086 0-.13-.04-.13-.12l.01-6.147c0-.08.034-.12.102-.12h.516c.069 0 .103.037.103.111l.002 6.13zm2.032 0a.167.167 0 01-.03.116.182.182 0 01-.125.03h-.438a.149.149 0 01-.103-.025.134.134 0 01-.026-.095V81.65c0-.08.034-.12.103-.12h.524c.063 0 .095.037.095.111v4.305zm.036-5.398c0 .109-.052.164-.155.164h-.498a.116.116 0 01-.104-.04.192.192 0 01-.025-.107v-.723c0-.092.04-.138.12-.138h.541c.08 0 .12.043.12.13v.714zm1.42 5.544a.137.137 0 01-.108-.035.153.153 0 01-.03-.104v-6.128c0-.08.035-.12.103-.12h.533c.057 0 .086.04.086.12v2.11c0 .062.012.095.036.098.024.003.055-.013.094-.047a2.39 2.39 0 01.254-.207 1.866 1.866 0 011.121-.336 1.65 1.65 0 011.032.31c.276.217.486.508.605.84.14.381.208.786.202 1.192a2.723 2.723 0 01-.515 1.748 1.744 1.744 0 01-1.444.645 1.653 1.653 0 01-1.136-.406 2.26 2.26 0 01-.266-.275c-.024-.029-.044-.04-.06-.036-.017.005-.029.025-.036.06l-.043.43a.14.14 0 01-.153.141h-.275zm.584-1.542a.967.967 0 00.176.564c.118.17.276.307.46.4.183.096.386.146.593.147.246.003.487-.064.696-.194.221-.148.392-.36.49-.607a2.68 2.68 0 00.179-1.06 2.341 2.341 0 00-.335-1.355 1.113 1.113 0 00-.971-.478c-.257-.003-.51.06-.735.185-.21.116-.399.269-.554.452l.001 1.946zm4.894-.456a1.547 1.547 0 00.743 1.326c.23.138.493.21.76.206.266.005.529-.056.765-.176.235-.128.433-.313.576-.538a.13.13 0 01.056-.04.125.125 0 01.064.014l.361.179c.052.029.058.069.018.12-.14.215-.313.406-.512.567a1.87 1.87 0 01-.623.323 2.685 2.685 0 01-.773.104 2.152 2.152 0 01-1.126-.293 2.086 2.086 0 01-.773-.818 2.515 2.515 0 01-.284-1.214 2.694 2.694 0 01.287-1.287 2.082 2.082 0 011.886-1.124c.382-.009.76.086 1.091.276.315.189.567.468.723.8.182.397.27.83.258 1.266 0 .04-.004.081-.013.12-.008.04-.047.06-.116.06h-3.29a.064.064 0 00-.057.04.182.182 0 00-.021.09v-.001zm2.63-.603a.214.214 0 00.12-.022c.017-.014.026-.047.026-.099a1.547 1.547 0 00-.16-.693 1.312 1.312 0 00-.455-.52 1.262 1.262 0 00-.716-.198c-.277-.01-.55.067-.782.219a1.39 1.39 0 00-.481.574 1.744 1.744 0 00-.164.74l2.611-.001zm1.989 2.601a.123.123 0 01-.09-.03.11.11 0 01-.03-.082v-4.34c0-.075.03-.112.094-.112h.498a.084.084 0 01.091.056.084.084 0 01.004.039v.56c0 .034.009.054.026.06.017.005.04-.007.068-.036.132-.16.28-.307.443-.435.134-.106.283-.19.442-.251.144-.054.295-.081.447-.082.2 0 .301.037.301.112v.516c0 .058-.026.08-.077.07a7.493 7.493 0 00-.176-.018 2.446 2.446 0 00-.21-.008c-.14.002-.276.03-.405.081a1.501 1.501 0 00-.704.556.648.648 0 00-.12.367v2.848a.114.114 0 01-.13.13h-.472zm5.729-.55c-.2.198-.435.358-.692.473a2.07 2.07 0 01-.838.163 1.51 1.51 0 01-1.053-.344 1.157 1.157 0 01-.382-.904 1.244 1.244 0 01.258-.789c.201-.241.465-.423.763-.524a4.203 4.203 0 011.246-.236l.67-.052a.267.267 0 00.095-.036.101.101 0 00.043-.095v-.232a.963.963 0 00-.287-.736 1.088 1.088 0 00-.777-.271 1.365 1.365 0 00-.684.172 1.684 1.684 0 00-.547.518.249.249 0 01-.055.056.094.094 0 01-.072-.005l-.466-.155a.112.112 0 01-.038-.043c-.009-.017-.002-.049.021-.094a1.85 1.85 0 01.726-.706 2.353 2.353 0 011.146-.259c.329-.01.655.05.958.177.24.105.442.282.576.508.134.24.201.513.193.789v3.05a.15.15 0 01-.025.102.118.118 0 01-.086.026h-.439a.096.096 0 01-.085-.038.237.237 0 01-.036-.1l-.009-.394c-.015-.083-.057-.09-.126-.022h.002zm.111-1.636c0-.098-.04-.144-.12-.138l-.567.051a3.34 3.34 0 00-.705.1c-.184.045-.36.116-.524.21a.963.963 0 00-.327.306.75.75 0 00-.111.409.716.716 0 00.262.59c.205.15.455.224.709.21.18.001.36-.032.528-.098.16-.061.309-.147.442-.254.119-.095.222-.209.305-.336a.634.634 0 00.108-.336v-.714zm3.055-1.834a.06.06 0 00-.066.04.061.061 0 00-.003.029v2.729a.782.782 0 00.136.54.558.558 0 00.413.139h.593a.103.103 0 01.069.021.092.092 0 01.025.072l-.008.293c0 .057-.035.094-.103.111a1.83 1.83 0 01-.245.026c-.106.006-.21.01-.31.013l-.253.007a1.068 1.068 0 01-.79-.254 1.114 1.114 0 01-.251-.805V82.16a.076.076 0 00-.086-.086h-.688a.083.083 0 01-.094-.095v-.361a.076.076 0 01.05-.083.075.075 0 01.036-.004h.73c.04 0 .06-.023.06-.068l.095-1.37c.005-.074.037-.111.094-.111h.43c.069 0 .103.04.103.12v1.36a.061.061 0 00.069.07H35.3c.063 0 .094.025.094.077v.37a.083.083 0 01-.094.095h-1.09zm2.48 2.023a1.542 1.542 0 00.741 1.326c.23.139.493.21.76.207a1.63 1.63 0 00.766-.177c.234-.128.432-.313.575-.538a.13.13 0 01.056-.039.125.125 0 01.065.013l.36.18c.052.028.058.068.018.12-.14.214-.313.405-.512.565a1.87 1.87 0 01-.623.323 2.685 2.685 0 01-.773.104 2.152 2.152 0 01-1.126-.293 2.086 2.086 0 01-.773-.818 2.515 2.515 0 01-.284-1.214 2.695 2.695 0 01.287-1.287 2.082 2.082 0 011.886-1.124c.382-.009.76.086 1.091.276.315.189.567.468.724.8.181.397.27.83.257 1.266 0 .04-.004.081-.013.12-.008.04-.047.06-.116.06h-3.29a.064.064 0 00-.057.04.183.183 0 00-.021.09h.001zm2.629-.603a.215.215 0 00.12-.021c.017-.014.026-.047.026-.1a1.547 1.547 0 00-.16-.692 1.313 1.313 0 00-.454-.521 1.263 1.263 0 00-.717-.198c-.277-.01-.55.067-.782.22-.21.143-.376.342-.48.573a1.744 1.744 0 00-.164.74h2.61zm7.63 4.02c-.07 0-.104-.036-.104-.111l-.009-8.497a.12.12 0 01.022-.078.09.09 0 01.072-.026h.378a.09.09 0 01.099.062.092.092 0 01.004.042v8.516a.084.084 0 01-.056.091.084.084 0 01-.039.003l-.368-.001zm7.724-7.808h.251c.126 0 .264.002.413.005.148.003.286.004.412.004h.266a4.542 4.542 0 011.928.379 2.27 2.27 0 011.074 1.05 3.85 3.85 0 01.34 1.705c.02.62-.106 1.237-.37 1.799a2.37 2.37 0 01-1.134 1.085 4.5 4.5 0 01-1.925.361h-1.263c-.08 0-.12-.046-.12-.137v-6.13a.121.121 0 01.03-.09.136.136 0 01.099-.03zm.782.629c-.057 0-.086.04-.086.12v4.925c0 .063.035.094.104.094h.326a3.974 3.974 0 001.546-.253 1.67 1.67 0 00.873-.823c.205-.474.3-.99.28-1.506a3.38 3.38 0 00-.287-1.537 1.63 1.63 0 00-.877-.79 4.096 4.096 0 00-1.49-.232l-.389.002zm5.59 3.762a1.548 1.548 0 00.743 1.326c.23.138.493.209.761.205.266.005.528-.055.765-.175a1.59 1.59 0 00.576-.538.13.13 0 01.056-.039.125.125 0 01.064.013l.36.18c.053.028.058.068.018.12-.14.214-.312.405-.511.565a1.87 1.87 0 01-.623.323 2.686 2.686 0 01-.774.104 2.152 2.152 0 01-1.125-.293 2.086 2.086 0 01-.773-.818 2.516 2.516 0 01-.284-1.214 2.694 2.694 0 01.286-1.287 2.083 2.083 0 011.886-1.124 2.1 2.1 0 011.092.276c.315.189.566.468.723.8.181.397.27.83.257 1.266 0 .04-.004.081-.013.12-.008.04-.047.06-.116.06h-3.29a.064.064 0 00-.056.04.184.184 0 00-.022.09zm2.63-.603a.215.215 0 00.12-.021c.017-.014.026-.047.026-.1a1.548 1.548 0 00-.159-.692 1.313 1.313 0 00-.455-.521 1.263 1.263 0 00-.717-.198c-.277-.01-.55.067-.782.22-.21.143-.376.342-.48.573a1.745 1.745 0 00-.164.74h2.61zm1.99 2.6a.123.123 0 01-.091-.03.112.112 0 01-.03-.082v-4.34c0-.075.032-.112.095-.112h.498a.084.084 0 01.072.024.083.083 0 01.023.07v.56c0 .035.009.055.026.06.017.006.04-.006.069-.035.13-.16.28-.307.442-.435.134-.106.283-.19.443-.251a1.29 1.29 0 01.445-.078c.2 0 .3.038.3.112v.517c0 .057-.025.08-.076.069a7.48 7.48 0 00-.177-.017 2.448 2.448 0 00-.21-.01 1.139 1.139 0 00-.404.083 1.5 1.5 0 00-.705.555.649.649 0 00-.12.363v2.848a.114.114 0 01-.128.13h-.473zm3.879-.146a.166.166 0 01-.03.116.182.182 0 01-.125.03h-.438a.149.149 0 01-.103-.025.134.134 0 01-.026-.095V81.65c0-.08.035-.12.103-.12h.525c.063 0 .094.037.094.111v4.305zm.036-5.398c0 .109-.052.164-.155.164h-.5a.115.115 0 01-.103-.04.193.193 0 01-.026-.107v-.723c0-.092.04-.138.12-.138h.542c.08 0 .12.043.12.13l.002.714zm4.987.981a.094.094 0 01.086.04.086.086 0 010 .09l-1.744 4.304a.186.186 0 01-.198.13h-.31a.209.209 0 01-.215-.121l-1.736-4.313a.099.099 0 01.009-.09.095.095 0 01.085-.04h.533c.03 0 .06.007.086.022a.13.13 0 01.052.072l1.349 3.383c.04.11.086.106.137-.008l1.34-3.375a.143.143 0 01.048-.072.137.137 0 01.082-.022h.397zm1.242 2.566a1.537 1.537 0 00.743 1.326c.23.139.493.21.76.207.266.004.528-.056.764-.177.235-.128.433-.313.576-.538a.13.13 0 01.056-.039.125.125 0 01.064.013l.361.18c.052.028.058.068.017.12a2.43 2.43 0 01-.51.565 1.87 1.87 0 01-.623.323 2.685 2.685 0 01-.773.104 2.152 2.152 0 01-1.126-.293 2.086 2.086 0 01-.774-.818 2.515 2.515 0 01-.283-1.214 2.694 2.694 0 01.286-1.287 2.082 2.082 0 011.886-1.124c.383-.009.76.086 1.092.276.315.189.567.468.723.8.182.397.27.83.258 1.266a.61.61 0 01-.012.12c-.009.04-.047.06-.116.06h-3.292a.063.063 0 00-.056.039.182.182 0 00-.021.091zm2.63-.603a.215.215 0 00.12-.021c.017-.014.026-.047.026-.1a1.547 1.547 0 00-.16-.692 1.312 1.312 0 00-.456-.521 1.263 1.263 0 00-.716-.198c-.277-.01-.55.067-.782.22-.21.143-.376.342-.481.573a1.742 1.742 0 00-.164.74h2.613zm7.63 4.02c-.069 0-.103-.036-.103-.111l-.009-8.497a.119.119 0 01.022-.078.09.09 0 01.071-.026h.38a.09.09 0 01.099.062.09.09 0 01.004.042v8.516a.083.083 0 01-.024.07.084.084 0 01-.07.024l-.37-.001zm7.726-7.808h.25c.126 0 .264.002.413.005.149.003.286.004.412.004h.267a4.542 4.542 0 011.929.379c.466.218.845.588 1.074 1.05a3.85 3.85 0 01.34 1.705c.02.62-.106 1.237-.37 1.799a2.37 2.37 0 01-1.134 1.085 4.502 4.502 0 01-1.928.361h-1.263c-.08 0-.12-.046-.12-.137v-6.13a.121.121 0 01.03-.09.136.136 0 01.1-.03zm.782.629c-.058 0-.086.04-.086.12v4.925c0 .063.034.094.103.094h.326a3.974 3.974 0 001.547-.253c.382-.157.693-.45.873-.823.205-.474.3-.99.279-1.506a3.382 3.382 0 00-.287-1.537 1.629 1.629 0 00-.876-.79 4.095 4.095 0 00-1.491-.232l-.388.002zm5.589 3.762a1.548 1.548 0 00.743 1.326c.23.139.493.21.761.207a1.62 1.62 0 00.765-.177c.234-.128.432-.313.575-.538a.13.13 0 01.056-.039.128.128 0 01.065.013l.361.18c.051.028.057.068.017.12-.14.214-.313.405-.512.565a1.876 1.876 0 01-.623.323 2.69 2.69 0 01-.774.104 2.148 2.148 0 01-1.125-.293 2.085 2.085 0 01-.774-.818 2.515 2.515 0 01-.283-1.214 2.695 2.695 0 01.286-1.287 2.08 2.08 0 011.886-1.124 2.1 2.1 0 011.092.276c.314.19.565.468.721.8.182.397.27.83.258 1.266 0 .04-.004.081-.013.12-.008.04-.047.06-.116.06h-3.289a.062.062 0 00-.033.012.067.067 0 00-.023.028.189.189 0 00-.021.09zm2.629-.603a.216.216 0 00.121-.021c.017-.014.026-.047.026-.1a1.555 1.555 0 00-.159-.692 1.314 1.314 0 00-.456-.521 1.262 1.262 0 00-.716-.198c-.277-.01-.55.067-.782.22-.21.143-.376.34-.482.572a1.737 1.737 0 00-.163.74h2.611zm4.602-.955a1.284 1.284 0 00-.481-.422 1.561 1.561 0 00-.739-.164c-.27-.01-.538.059-.769.198a.61.61 0 00-.305.534.511.511 0 00.137.34c.159.144.351.246.559.297l1.091.327c.326.07.624.234.855.474.172.198.265.452.262.714.005.257-.08.507-.24.706a1.569 1.569 0 01-.662.47 2.556 2.556 0 01-.954.168 2.478 2.478 0 01-1.185-.272 1.682 1.682 0 01-.723-.675.153.153 0 01-.025-.078.068.068 0 01.013-.036.068.068 0 01.03-.024l.335-.19a.122.122 0 01.077-.021.072.072 0 01.052.03c.093.145.208.275.339.387.138.114.296.202.466.259.203.066.417.098.631.094a2.13 2.13 0 00.593-.094.959.959 0 00.421-.254.56.56 0 00.155-.392.527.527 0 00-.191-.399 1.693 1.693 0 00-.653-.297l-.885-.251a1.838 1.838 0 01-.906-.466 1.034 1.034 0 01-.271-.69 1.189 1.189 0 01.223-.717c.161-.212.376-.378.623-.477a2.3 2.3 0 01.916-.173c.354-.006.705.07 1.026.22.278.126.514.327.684.581.015.018.024.04.025.065a.064.064 0 01-.011.032.069.069 0 01-.024.024l-.361.198a.11.11 0 01-.065.013.125.125 0 01-.063-.04zm2.376 3.408a.166.166 0 01-.03.116.183.183 0 01-.125.03h-.438a.15.15 0 01-.103-.026.139.139 0 01-.026-.095v-4.32c0-.08.035-.12.103-.12h.525c.063 0 .094.037.094.111v4.304zm.036-5.398c0 .109-.052.163-.155.163h-.499a.114.114 0 01-.056-.006.12.12 0 01-.047-.033.193.193 0 01-.026-.107v-.723c0-.092.04-.138.121-.138h.541c.08 0 .12.043.12.129l.001.715zm5.401.903a.183.183 0 01.124.036.13.13 0 01.039.104v.301a.17.17 0 01-.039.12.155.155 0 01-.133.036c-.08 0-.161.005-.24.018a.954.954 0 00-.207.06c-.137.052-.194.118-.171.198.028.063.06.14.094.228.039.116.056.237.052.359.002.245-.067.486-.198.693-.151.225-.365.4-.614.502a2.554 2.554 0 01-1.053.19 3.566 3.566 0 00-.688.051.828.828 0 00-.352.138.24.24 0 00-.103.18c0 .091.062.157.185.197.195.052.395.08.597.086l1.11.06c.4-.007.791.12 1.11.362a1.075 1.075 0 01.352.835 1.162 1.162 0 01-.573 1.02 2.966 2.966 0 01-1.631.375 3.525 3.525 0 01-1.663-.314.982.982 0 01-.573-.9c0-.201.076-.395.212-.544.169-.181.372-.328.598-.43.063-.029.063-.06 0-.095a.804.804 0 01-.293-.21.443.443 0 01-.025-.538.802.802 0 01.227-.225 1.66 1.66 0 01.366-.18c.034-.01.051-.025.051-.042s-.014-.037-.043-.06a1.355 1.355 0 01-.558-.474 1.23 1.23 0 01-.179-.681 1.262 1.262 0 01.507-1.06 2.331 2.331 0 011.435-.387c.257-.006.514.03.76.104.193.06.372.156.529.284.025.025.059.04.094.043a.126.126 0 00.086-.043c.073-.067.151-.129.232-.186.087-.06.181-.11.279-.15a.794.794 0 01.295-.059l.002-.002zm-2.346 2.385c.318.025.634-.061.895-.245a.85.85 0 00.292-.693.91.91 0 00-.292-.717 1.305 1.305 0 00-.895-.263 1.35 1.35 0 00-.89.262.894.894 0 00-.313.717.834.834 0 00.313.694c.261.18.573.266.888.247l.002-.002zm-.758 1.698a.667.667 0 00-.343.09c-.129.068-.243.16-.336.271a.61.61 0 00-.146.405.643.643 0 00.185.46c.156.147.349.249.559.293.302.072.612.106.923.1.373.021.746-.052 1.083-.212a.693.693 0 00.37-.65.614.614 0 00-.194-.466 1.056 1.056 0 00-.666-.207l-1.435-.084zm4.267.56c-.08 0-.121-.038-.121-.112V81.64c0-.075.032-.112.095-.112h.516a.084.084 0 01.091.056.083.083 0 01.003.039v.5c0 .028.006.045.017.05.012.006.032-.002.06-.025.189-.15.366-.277.529-.383a2.06 2.06 0 01.501-.241c.178-.056.364-.083.55-.082a1.382 1.382 0 011.027.362 1.284 1.284 0 01.358.938v3.213c0 .091-.043.137-.129.137h-.481a.105.105 0 01-.046-.005.106.106 0 01-.04-.025.127.127 0 01-.026-.082v-3.073a.939.939 0 00-.215-.659.874.874 0 00-.68-.236 1.327 1.327 0 00-.468.081 2.13 2.13 0 00-.443.233 5.815 5.815 0 00-.498.383v3.254a.116.116 0 01-.077.125.114.114 0 01-.052.004h-.471zm.325-28.64a4.945 4.945 0 00-1.808-1.734 12.646 12.646 0 00-3.163-1.23c-1.292-.34-2.173-.695-2.659-1.063a1.893 1.893 0 01-.716-1.617 2.402 2.402 0 01.778-1.852 3.124 3.124 0 012.169-.711 3.014 3.014 0 012.229.89 2.913 2.913 0 01.885 2.119v.066h2.736v-.066a5.501 5.501 0 00-1.623-4.07c-1.078-1.061-2.499-1.588-4.225-1.588a5.648 5.648 0 00-4.073 1.54 5.045 5.045 0 00-1.596 3.773 4.567 4.567 0 00.561 2.314 4.796 4.796 0 001.732 1.675c.985.548 2.043.95 3.141 1.197 1.312.33 2.216.718 2.734 1.167a2.36 2.36 0 01.768 1.877 2.212 2.212 0 01-.862 1.824 3.652 3.652 0 01-2.32.689 3.59 3.59 0 01-2.527-.883 3.322 3.322 0 01-1.022-2.394v-.063h-2.726v.066a5.863 5.863 0 00.8 2.983 5.628 5.628 0 002.218 2.149 6.73 6.73 0 003.253.768c1.736 0 3.17-.492 4.261-1.463a4.982 4.982 0 001.647-3.886 4.862 4.862 0 00-.592-2.477zM5.397 39.926H2.6V65.28h2.797V39.926zM22.898 65.28h-2.8V54.67a5.283 5.283 0 00-1.542-3.72 5.262 5.262 0 00-3.714-1.546h-.058a5.262 5.262 0 00-3.713 1.546 5.283 5.283 0 00-1.543 3.72v10.61h-2.8V54.67a8.09 8.09 0 012.363-5.705 8.06 8.06 0 015.694-2.368h.053a8.06 8.06 0 015.695 2.368 8.09 8.09 0 012.363 5.706l.002 10.609zm72.014-9.338a9.346 9.346 0 00-2.107-5.914 9.304 9.304 0 00-11.572-2.337 9.33 9.33 0 00-4.23 4.633 9.352 9.352 0 00-.344 6.27 9.336 9.336 0 003.698 5.07 9.306 9.306 0 0011.758-1.054v2.67h2.797v-9.338zm-9.319 6.535a6.515 6.515 0 01-3.623-1.101 6.546 6.546 0 01-.989-10.055 6.52 6.52 0 017.109-1.417 6.526 6.526 0 012.927 2.407 6.544 6.544 0 01-.811 8.252 6.516 6.516 0 01-4.612 1.914zm-10.785-8.631a9.337 9.337 0 00-3.684-5.517 9.306 9.306 0 00-12.312 1.352 9.346 9.346 0 00-.096 12.41 9.305 9.305 0 0012.29 1.543 9.336 9.336 0 003.769-5.461h-2.919a6.534 6.534 0 01-2.566 3.242 6.514 6.514 0 01-7.819-.518 6.537 6.537 0 01-2.117-3.553H74.94V55.03a5.25 5.25 0 00-.132-1.184zm-15.455.7a6.535 6.535 0 012.283-3.693 6.514 6.514 0 018.176 0 6.535 6.535 0 012.283 3.692H59.353zm45.093-7.941h-3.035v-6.68h-2.798v6.68h-3.036v2.802h3.036V65.28h2.798V49.407h3.035v-2.802zM33.55 62.477c-1.73 0-3.39-.688-4.613-1.914a6.541 6.541 0 010-9.242 6.517 6.517 0 014.613-1.914h2.883v-2.802H33.55a9.31 9.31 0 00-6.59 2.734 9.345 9.345 0 000 13.203 9.31 9.31 0 006.59 2.735h2.883v-2.798l-2.883-.002z" fill="#fff"/><path d="M45.752 46.605a9.282 9.282 0 00-6.523 2.673v-9.352h-2.797V56.64h.029a9.346 9.346 0 001.9 4.985 9.32 9.32 0 004.316 3.129 9.301 9.301 0 009.908-2.464 9.343 9.343 0 001.71-10.084 9.332 9.332 0 00-3.438-4.077 9.307 9.307 0 00-5.105-1.524zm0 15.872a6.514 6.514 0 01-3.624-1.101 6.547 6.547 0 01-.989-10.055 6.52 6.52 0 017.11-1.417 6.526 6.526 0 012.927 2.407 6.543 6.543 0 01-.812 8.252 6.517 6.517 0 01-4.612 1.914z" fill="#fff"/><path d="M49.023 7.984C53.563 2 61.161-2.813 65.2 1.907c3.793 4.434-4.334 6.614-7.519 11.61-2.283 3.59-3.652 9.143-.12 12.095 4.66 3.903 9.974-2.3 8.76-3.664-1.214-1.364-4.36 4.31-7.042 1.888-3.004-2.72 1.46-17.504 11.873-9.905 6.192 4.52 2.728 14.263-2.896 16.885-5.623 2.623-14.153-1.047-16.699-8.601 0 0 .104 9.111-3.898 3.697-3.872-5.24-2.146-13.295 1.365-17.928z" fill="#F6DE4A"/></svg>