<svg width="26" height="26" fill="none" xmlns="http://www.w3.org/2000/svg"><path d="M13.288 11.568c.664-.556 1.174-1.015 1.71-1.426 2.375-1.789 5.618-1.62 7.533.387.817.846 1.277 1.86 1.277 2.997.025 3.287.025 6.574.025 9.861 0 .073-.025.145-.05.266-.18.024-.333.048-.486.048-1.302 0-2.63-.024-3.932.025-.51 0-.638-.145-.638-.629.025-2.755 0-5.486.025-8.242 0-.773-.306-1.378-.996-1.764-.664-.363-1.302-.145-1.915.217l-.69.435c-1.25.919-2.093 1.958-1.914 3.65.178 1.837.05 3.722.05 5.583 0 .218-.025.435-.05.677H8.232a6.941 6.941 0 01-.051-.7V9.416c0-.411.102-.58.562-.556 1.302.024 2.63.024 3.932 0 .536-.024.664.17.613.628-.026.653 0 1.306 0 2.08zM1.109 23.726V8.957c.127-.025.255-.049.357-.049h4.137c.383 0 .587.073.561.508-.025 4.568-.025 9.16 0 13.728 0 .484-.153.629-.663.605-1.43-.049-2.886-.024-4.392-.024zM3.585 2.167c1.353 0 2.451 1.063 2.451 2.344 0 1.305-1.123 2.368-2.502 2.368-1.327-.024-2.45-1.087-2.45-2.344 0-1.33 1.123-2.368 2.501-2.368z" fill="#fff"/></svg>