<svg width="148" height="58" viewBox="0 0 148 58" fill="none" xmlns="http://www.w3.org/2000/svg">
<path d="M25.4146 41.9221C24.2048 41.9472 23.0022 41.7339 21.8787 41.295C20.9109 40.905 20.0342 40.3272 19.3017 39.5967L17.0072 41.7718H16.408V34.2978H17.0758C17.3344 35.2032 17.6873 36.0803 18.1288 36.9155C18.5579 37.7319 19.109 38.4814 19.764 39.1394C20.4237 39.7974 21.209 40.3228 22.0756 40.6858C23.0459 41.0801 24.0895 41.2737 25.1403 41.2543C26.1519 41.2787 27.156 41.0786 28.077 40.6692C28.869 40.3094 29.5354 39.7306 29.9938 39.0045C30.4605 38.2276 30.695 37.3385 30.6704 36.4381C30.6998 35.5929 30.4374 34.7626 29.9255 34.0806C29.3859 33.4088 28.7171 32.8464 27.9566 32.4252C27.091 31.9329 26.1929 31.4972 25.2683 31.121C24.2928 30.7198 23.317 30.2907 22.3411 29.8337C21.3863 29.3898 20.4872 28.84 19.6613 28.195C18.8502 27.559 18.1802 26.7683 17.6924 25.8712C17.1596 24.8292 16.9002 23.6744 16.9376 22.5104C16.9078 21.2835 17.267 20.0775 17.9661 19.0576C18.6465 18.0859 19.5805 17.3093 20.6714 16.8084C21.8218 16.2779 23.0805 16.0092 24.3527 16.0227C25.3568 16.0131 26.3545 16.1801 27.2979 16.5159C28.1938 16.841 29.0104 17.345 29.6955 17.9957L31.9555 16.0227H32.5206V23.2967H31.8528C31.5461 22.026 31.0191 20.8159 30.2947 19.7187C29.6829 18.7942 28.8478 18.0307 27.863 17.4951C26.8665 16.9818 25.7532 16.723 24.6267 16.7427C23.1653 16.7427 22.0467 17.0937 21.271 17.7957C20.8842 18.1496 20.58 18.5807 20.3791 19.0597C20.1782 19.5386 20.0852 20.0542 20.1066 20.5714C20.0831 21.3497 20.3441 22.1107 20.8427 22.7183C21.386 23.3454 22.0453 23.8672 22.7861 24.2565C23.6479 24.7241 24.5338 25.1482 25.4402 25.527C26.4046 25.934 27.372 26.3826 28.3425 26.8729C29.292 27.3499 30.1849 27.9274 31.0052 28.5949C31.8146 29.2597 32.4756 30.0796 32.9472 31.004C33.4669 32.0795 33.7196 33.2594 33.6849 34.4481C33.7193 35.8375 33.3513 37.2081 32.6233 38.4024C31.9175 39.5209 30.9026 40.4222 29.6955 41.0024C28.3629 41.6346 26.8959 41.9496 25.4146 41.9218" fill="white"/>
<path d="M34.6191 25.6039H43.9077V26.2736H34.6191V25.6039ZM40.4007 41.6785C39.437 41.6785 38.7114 41.4691 38.224 41.0501C37.74 40.6378 37.3957 40.0915 37.2369 39.4838C37.0678 38.8691 36.9818 38.2355 36.9812 37.599V22.1601C37.5664 22.1496 38.1451 22.0389 38.6909 21.8329C39.2031 21.6638 39.689 21.4266 40.1348 21.1279V38.4081C40.1348 39.2688 40.2436 39.8425 40.461 40.1292C40.5897 40.2801 40.754 40.3981 40.9398 40.4731C41.1256 40.548 41.3274 40.5777 41.5276 40.5595C41.829 40.5474 42.1251 40.4773 42.3988 40.3533C42.6726 40.2293 42.9185 40.0539 43.1227 39.8369C43.6274 39.3637 44.0474 38.8113 44.3652 38.2027L44.947 38.5641C44.5262 39.4319 43.919 40.2009 43.1667 40.8191C42.3775 41.4165 41.397 41.7214 40.3993 41.6798" fill="white"/>
<path d="M52.1576 41.7817C50.6302 41.7817 49.411 41.4001 48.5003 40.6371C48.0473 40.2534 47.6891 39.7746 47.4526 39.2366C47.216 38.6986 47.1071 38.1153 47.1342 37.5304C47.1167 36.8059 47.2949 36.0896 47.6507 35.4536C48.0065 34.8176 48.5275 34.2843 49.1612 33.9071C50.5124 33.0291 52.4395 32.5902 54.9427 32.5904H58.9437V33.1756H54.9427C54.0615 33.135 53.1884 33.3572 52.4395 33.8126C51.834 34.204 51.3519 34.7522 51.0471 35.3959C50.7622 35.9886 50.6118 36.6344 50.6064 37.2891C50.6043 37.8508 50.6966 38.4091 50.8798 38.9416C51.0441 39.4425 51.3386 39.8932 51.7346 40.2496C52.1535 40.605 52.6961 40.7897 53.2504 40.7659C53.936 40.7534 54.6009 40.534 55.1537 40.1378C55.8287 39.6566 56.3609 39.0092 56.6961 38.2616C57.1329 37.277 57.3406 36.2101 57.3042 35.1376H57.7098C57.7336 36.3216 57.5148 37.4982 57.0662 38.5984C56.6839 39.5387 56.0321 40.3514 55.1888 40.9392C54.2933 41.5225 53.2332 41.8175 52.1573 41.7826M60.3711 41.7826C59.8486 41.7882 59.3303 41.6916 58.8465 41.4987C58.3799 41.3072 57.9878 40.9755 57.7272 40.5518C57.4193 40.008 57.2728 39.3911 57.3042 38.7705V30.9552C57.3068 30.1589 57.2361 29.364 57.0928 28.5801C56.9842 27.8902 56.6753 27.2452 56.2025 26.7215C55.7501 26.2396 55.0539 25.9986 54.1138 25.9986C53.5599 26.0014 53.0077 26.059 52.4658 26.1707C51.9162 26.2786 51.383 26.455 50.8795 26.6956C50.4238 26.9068 50.0184 27.2088 49.6895 27.5823C49.3852 27.9326 49.2219 28.3791 49.2301 28.8384H48.4035C48.3905 28.5792 48.4368 28.3204 48.539 28.0808C48.6412 27.8412 48.7966 27.6268 48.9942 27.4531C49.3453 27.131 49.8077 26.9496 50.2894 26.9452C50.7924 26.9446 51.2806 27.1115 51.6733 27.4185C51.8809 27.5782 52.0462 27.7844 52.1551 28.0196C52.264 28.2547 52.3134 28.5121 52.2991 28.7698C52.3246 29.0517 52.2794 29.3354 52.1672 29.5963C52.0551 29.8573 51.8795 30.0876 51.6556 30.2672C51.2647 30.5642 50.7847 30.7275 50.2894 30.7319C49.7882 30.7462 49.3 30.5744 48.9233 30.2512C48.7311 30.0699 48.5819 29.8498 48.486 29.6062C48.39 29.3627 48.3498 29.1016 48.368 28.8413C48.3653 28.3096 48.5557 27.7942 48.9056 27.3868C49.3036 26.926 49.7953 26.551 50.3495 26.2854C50.9977 25.9667 51.6848 25.7298 52.3942 25.5805C53.1609 25.4131 53.9442 25.3294 54.7298 25.3308C56.3513 25.3308 57.5646 25.6062 58.3697 26.1569C59.1394 26.6617 59.7086 27.409 59.9823 28.2741C60.2541 29.1443 60.3908 30.0493 60.3879 30.9591V39.4235C60.3777 39.7558 60.447 40.0859 60.5904 40.3874C60.6777 40.5278 60.8052 40.6401 60.9572 40.7104C61.1092 40.7808 61.279 40.8061 61.4455 40.7832C61.8137 40.7616 62.1667 40.6327 62.4589 40.4131C62.8198 40.1758 63.1134 39.8531 63.3121 39.4751L63.6472 40.0949C63.3249 40.5926 62.8832 41.0062 62.3605 41.2997C61.7537 41.634 61.0649 41.8002 60.3685 41.7804" fill="white"/>
<path d="M64.1808 41.4377V40.7856H66.5265L79.2144 26.7073H76.6975V26.0552H82.7418V26.7073H80.0709L67.3826 40.7856H70.5845V41.4377H64.1808ZM73.6154 41.4377V40.7856H75.687L66.5777 26.7073H64.3521V26.0552H74.1641V26.7073H72.0235L81.2851 40.7856H83.1684V41.4377H73.6154Z" fill="white"/>
<path d="M86.2902 41.4376V41.0348H88.2046V26.3496H86.2902V25.9468H92.4665V26.3496H90.5736V41.0348H93.5031C94.1821 41.0564 94.8594 40.9567 95.5016 40.7406C95.9752 40.5737 96.3912 40.2802 96.7023 39.8937C97.0013 39.4959 97.2087 39.0398 97.3104 38.5565C97.4373 37.9755 97.5081 37.3841 97.5218 36.7902H97.9448V41.4366L86.2902 41.4376Z" fill="#DE4E45"/>
<path d="M102.567 41.6439C101.774 41.684 100.993 41.4398 100.372 40.9572C100.1 40.727 99.8849 40.4398 99.7428 40.117C99.6008 39.7942 99.5353 39.4442 99.5515 39.0932C99.5413 38.6579 99.6489 38.2278 99.8633 37.8461C100.078 37.4644 100.392 37.1448 100.773 36.9193C101.587 36.3929 102.745 36.1296 104.247 36.1294H106.679V36.4803H104.437C103.928 36.4558 103.423 36.5877 102.994 36.8574C102.645 37.0916 102.369 37.4148 102.195 37.7918C102.032 38.1385 101.945 38.5151 101.941 38.8967C101.94 39.2231 101.991 39.5476 102.094 39.8581C102.186 40.1441 102.352 40.4021 102.576 40.6066C102.812 40.8093 103.119 40.9149 103.433 40.9011C103.815 40.8933 104.186 40.7666 104.49 40.5393C104.867 40.2599 105.164 39.89 105.352 39.4655C105.6 38.8982 105.717 38.2848 105.696 37.6685H105.939C105.953 38.3796 105.818 39.0861 105.542 39.7443C105.306 40.3092 104.907 40.7951 104.394 41.1437C103.851 41.4895 103.212 41.6644 102.564 41.6445M107.684 41.6445C107.34 41.6486 106.999 41.589 106.679 41.4689C106.382 41.3572 106.13 41.1549 105.96 40.8921C105.769 40.5695 105.677 40.2003 105.695 39.8283V35.1498C105.697 34.6715 105.651 34.1941 105.558 33.7245C105.486 33.3096 105.295 32.9231 105.008 32.6093C104.841 32.4545 104.643 32.3356 104.427 32.2604C104.21 32.1853 103.98 32.1554 103.751 32.1729C103.422 32.1749 103.094 32.2096 102.773 32.2764C102.441 32.3417 102.12 32.4475 101.815 32.5914C101.538 32.7186 101.291 32.9015 101.091 33.1281C100.904 33.3461 100.804 33.6233 100.811 33.9078H100.314C100.307 33.7394 100.339 33.5716 100.408 33.417C100.476 33.2624 100.58 33.1249 100.711 33.0147C100.952 32.7996 101.267 32.6799 101.593 32.6789C101.932 32.6767 102.262 32.7858 102.529 32.9887C102.667 33.0908 102.777 33.2241 102.849 33.3771C102.922 33.53 102.956 33.698 102.947 33.8664C102.962 34.0478 102.931 34.23 102.856 34.3967C102.781 34.5634 102.665 34.7094 102.519 34.8217C102.252 35.0186 101.927 35.1256 101.593 35.1264C101.256 35.1365 100.926 35.0243 100.668 34.8114C100.54 34.6979 100.44 34.5578 100.375 34.4014C100.31 34.245 100.282 34.0763 100.292 33.9078C100.288 33.5764 100.404 33.2542 100.621 32.999C100.864 32.7186 101.165 32.4916 101.504 32.3328C101.899 32.1424 102.318 32.0024 102.751 31.9162C103.214 31.8195 103.688 31.771 104.162 31.7717C104.957 31.7256 105.751 31.8917 106.457 32.2524C106.955 32.5376 107.34 32.9802 107.546 33.5072C107.745 34.0327 107.845 34.589 107.841 35.1492V40.198C107.835 40.398 107.879 40.5965 107.968 40.7764C108.022 40.8604 108.1 40.9275 108.192 40.9696C108.284 41.0117 108.386 41.0271 108.487 41.0139C108.71 41.0007 108.924 40.9256 109.105 40.7973C109.333 40.6543 109.517 40.4547 109.639 40.2189L109.851 40.5595C109.651 40.8925 109.36 41.1644 109.01 41.3446C108.601 41.5531 108.144 41.6561 107.683 41.6439" fill="#DE4E45"/>
<path d="M117.69 41.644C117.29 41.653 116.893 41.5815 116.522 41.434C116.152 41.2865 115.817 41.0661 115.537 40.7865C114.917 40.1425 114.493 39.341 114.316 38.4736V41.4373H110.721V41.0349H112.128V26.3493H110.721V25.9465H114.317V34.9106C114.491 34.042 114.915 33.2397 115.538 32.5973C115.819 32.3206 116.155 32.1028 116.525 31.9572C116.895 31.8115 117.292 31.7412 117.691 31.7504C118.439 31.7509 119.174 31.9547 119.811 32.339C120.497 32.7522 121.058 33.337 121.434 34.0329C121.87 34.8513 122.085 35.7648 122.058 36.6868C122.084 37.6106 121.87 38.5258 121.434 39.3465C121.058 40.0448 120.498 40.6326 119.811 41.0493C119.175 41.4367 118.441 41.6424 117.691 41.6431M117.215 41.0544C117.452 41.0585 117.688 41.0158 117.908 40.9288C118.127 40.8418 118.327 40.7123 118.495 40.5481C118.891 40.1322 119.166 39.6208 119.293 39.0664C119.488 38.2876 119.579 37.4874 119.563 36.6858C119.579 35.886 119.488 35.0876 119.293 34.3107C119.166 33.7593 118.891 33.2512 118.495 32.8392C118.326 32.6763 118.126 32.548 117.907 32.462C117.687 32.3759 117.452 32.3337 117.215 32.3381C116.7 32.3458 116.204 32.525 115.808 32.846C115.323 33.2383 114.951 33.7473 114.729 34.3229C114.434 35.0773 114.294 35.8807 114.316 36.6877C114.294 37.4969 114.435 38.3024 114.729 39.059C114.951 39.6375 115.322 40.1499 115.808 40.5462C116.202 40.8698 116.699 41.0508 117.214 41.0589" fill="#DE4E45"/>
<path d="M124.025 41.644V38.5562H124.448C124.554 39.0525 124.775 39.5186 125.093 39.9193C125.405 40.3142 125.802 40.6369 126.256 40.8643C126.714 41.0949 127.222 41.2137 127.737 41.2104C128.118 41.2138 128.498 41.1525 128.858 41.0294C129.18 40.924 129.469 40.7369 129.693 40.4872C129.912 40.2258 130.025 39.8951 130.011 39.5579C130.02 39.3749 129.987 39.1922 129.916 39.0227C129.845 38.8532 129.736 38.7011 129.598 38.577C129.285 38.3137 128.924 38.1089 128.535 37.9727C128.101 37.8109 127.643 37.6508 127.162 37.4923C126.688 37.3378 126.228 37.1442 125.787 36.9136C125.364 36.6964 125 36.3852 124.724 36.0051C124.43 35.5603 124.286 35.0367 124.311 34.5077C124.31 34.0445 124.423 33.5877 124.64 33.1756C124.864 32.7493 125.207 32.3931 125.628 32.1477C126.135 31.8663 126.712 31.7286 127.294 31.75C127.744 31.7448 128.191 31.8237 128.611 31.9826C128.992 32.1279 129.348 32.3318 129.663 32.5867L130.541 31.7397H130.911V34.6212H130.488C130.403 34.194 130.22 33.7915 129.951 33.4442C129.663 33.0639 129.29 32.7516 128.862 32.5303C128.384 32.2856 127.851 32.163 127.312 32.1739C127.003 32.1701 126.695 32.2263 126.408 32.3393C126.151 32.4391 125.924 32.6028 125.752 32.8142C125.585 33.0235 125.497 33.2826 125.503 33.5477C125.499 33.7192 125.536 33.8894 125.612 34.0444C125.687 34.1995 125.798 34.3352 125.937 34.4408C126.272 34.6967 126.647 34.899 127.047 35.04C127.499 35.2085 127.976 35.3772 128.48 35.546C128.977 35.7113 129.458 35.9168 129.919 36.1602C130.355 36.3858 130.734 36.7032 131.029 37.0895C131.329 37.5134 131.479 38.0208 131.457 38.5354C131.473 39.1243 131.305 39.7038 130.976 40.1978C130.657 40.6645 130.213 41.0362 129.691 41.2719C129.132 41.5247 128.521 41.6517 127.904 41.6436C127.42 41.6466 126.94 41.5626 126.487 41.3959C126.053 41.2367 125.651 41.0022 125.303 40.7038L124.384 41.6436L124.025 41.644Z" fill="#DE4E45"/>
</svg>
