<svg width="72" height="40" fill="none" xmlns="http://www.w3.org/2000/svg"><path d="M22.09 19.828h-.83V4.973h-.829V19.82h-.835V4.943h-3.273V4.14h12.334v.806H25.39v14.867h-.832V4.978h-.822v14.84h-.82V4.978h-.82l-.007 14.849z" fill="#fff"/><path d="M22.604 25.53h2.622v4.622a3.55 3.55 0 011.91-.934c2.598-.406 5.078 1.345 5.695 4.022.52 2.253-.253 4.556-2.024 5.775-1.71 1.176-3.563 1.298-5.41.37-1.812-.908-2.763-2.476-2.799-4.486-.064-3.022-.021-6.046-.023-9.07.006-.084.02-.172.03-.298zm5.177 11.764c.19-.012.378-.04.563-.08a2.735 2.735 0 001.746-1.543 2.755 2.755 0 00-.068-2.334c-.63-1.275-2.017-1.815-3.202-1.246a2.797 2.797 0 00-1.299 1.35 2.811 2.811 0 00-.158 1.87c.33 1.207 1.263 1.966 2.418 1.983zm-8.558-6.549a7.52 7.52 0 00.622-.757c.242-.385.563-.477 1.002-.372v10.109c-.373.08-.699.097-.93-.32a10.797 10.797 0 00-.691-.976c-.209.154-.4.297-.585.445-2.763 2.2-6.956.914-7.91-2.464-.705-2.495.036-5.183 2.274-6.52a4.865 4.865 0 015.66.402l.558.453zm-3.548 6.532c1.35 0 2.544-1.278 2.536-2.703-.008-1.457-1.203-2.705-2.586-2.697-1.459.009-2.457 1.107-2.457 2.708 0 1.6 1.013 2.698 2.507 2.692zm18.319 2.486V37.35c0-.309.216-.23.38-.23h5.29c.128.013.256.008.381-.014.307-.085.487-.276.461-.616-.026-.34-.275-.367-.523-.368h-2.764a3.283 3.283 0 01-1.952-.686 3.301 3.301 0 01-1.228-3.191 3.24 3.24 0 011.713-2.3 3.214 3.214 0 011.427-.35c1.675-.02 3.35 0 5.023 0 .088 0 .174.011.307.02 0 .822.01 1.624-.015 2.425 0 .072-.233.196-.358.197-1.507.014-3.016.01-4.524.011a3.507 3.507 0 00-.46.022c-.292.038-.504.24-.48.505.043.239.167.456.35.616.107.102.337.095.512.097.881.01 1.764-.01 2.645.012a3.037 3.037 0 012.427 1.268 3.061 3.061 0 01.433 2.71 3.235 3.235 0 01-1.159 1.655 3.217 3.217 0 01-1.911.64h-5.56l-.415-.01zM.658 26.138h2.763v10.839h.461c1.967 0 3.935.009 5.903-.01.364 0 .46.114.445.463a37.46 37.46 0 000 2.036c0 .2-.043.308-.273.308H.835a.841.841 0 01-.17-.037l-.007-13.6z" fill="#DE4E45"/><path d="M37.795 1.971c-.659 1.664-1.276 3.22-1.888 4.775-1.674 4.247-3.346 8.495-5.019 12.743-.153.404-.385.471-1.005.284.273-.701.543-1.4.818-2.097l6.501-16.481c.106-.27.248-.4.562-.391.315.009.507.054.639.39a5869.82 5869.82 0 007.169 18.24c.046.114.083.23.124.35-.648.192-.815.121-1.025-.41-2.223-5.638-4.447-11.276-6.673-16.914-.042-.134-.102-.258-.203-.489zM11.167 5.63c-.307.321-.57.535-1.066.383-1.011-.308-2.07-.279-3.116-.19-.694.06-.993.44-.887.985.082.426.259.593.701.607.676.021 1.354 0 2.03.04 2.083.123 3.811.924 4.946 2.75 1.822 2.916 1.535 7.671-2.493 9.643a8.382 8.382 0 01-3.596.809c-2.129.035-4.166-.34-6.04-1.387-.551-.308-1.057-.702-1.646-1.1l.672-.532c.278.204.542.42.826.606 1.83 1.191 3.872 1.607 6.013 1.6 1.463 0 2.874-.309 4.102-1.151 1.652-1.143 2.412-2.773 2.392-4.758-.014-1.308-.338-2.54-1.16-3.585-1.16-1.475-2.733-2.074-4.564-2.087-.512 0-1.023.008-1.536-.012-.815-.032-1.329-.487-1.45-1.257-.142-.89.18-1.58.982-1.794a8.04 8.04 0 011.996-.225 6.157 6.157 0 012.61.507c.093.033.175.087.284.147z" fill="#fff"/><path d="M3.89 15.076c.386-.462.739-.542 1.262-.405 1.033.257 2.107.3 3.157.123.614-.097.875-.546.683-1.078a.638.638 0 00-.63-.462c-.689-.018-1.381 0-2.066-.059-2.303-.17-4.156-1.116-5.238-3.25C-.2 7.464-.039 3.97 2.31 1.85 3.643.645 5.248.13 6.995.026c2.26-.134 4.429.243 6.432 1.343.575.317 1.098.733 1.689 1.135l-.631.482c-.704-.414-1.345-.9-2.065-1.196C9.657.653 6.824.285 4.049 1.674 1.993 2.701 1.093 4.517 1.123 6.802a5.868 5.868 0 00.823 3.033C2.772 11.198 4 11.99 5.543 12.253c.737.126 1.498.11 2.249.154.166.01.333 0 .499.01.92.034 1.44.495 1.535 1.338.101.958-.307 1.592-1.204 1.811-1.102.266-2.209.176-3.305-.045-.483-.123-.96-.272-1.427-.445z" fill="#fff"/><path d="M13.786 3.573l-.634.504a7.148 7.148 0 00-2.866-1.316c-1.499-.338-3.005-.437-4.512-.049a3.945 3.945 0 00-2.356 1.633 3.97 3.97 0 00-.635 2.802c.19 1.488.839 2.677 2.279 3.234.589.23 1.263.267 1.905.333.557.059 1.123.014 1.688.046 2.008.116 2.96 1.722 2.862 3.435-.094 1.633-1.027 2.72-2.734 3.018a8.792 8.792 0 01-5.452-.723c-.239-.117-.46-.276-.684-.414a.72.72 0 01.049-.09c.335-.37.634-.423 1.131-.154 1.16.632 2.457.71 3.76.675.758-.02 1.504-.103 2.15-.551.82-.563 1.157-1.596.88-2.702-.25-.995-.892-1.563-1.95-1.653-.623-.054-1.25-.04-1.877-.044-3.419-.03-5.112-2.679-4.826-5.516.216-2.135 1.719-3.797 3.914-4.213 2.529-.48 4.953-.132 7.197 1.201.087.053.171.11.252.173.143.115.278.226.459.371z" fill="#fff"/><path d="M1.272 17.13l.682-.558a7.1 7.1 0 002.839 1.308c1.73.375 3.472.55 5.156-.154 1.564-.658 2.381-1.887 2.4-3.596.018-1.708-.588-3.053-2.17-3.835-.68-.336-1.424-.37-2.169-.382-.65-.012-1.314.034-1.948-.077-1.603-.28-2.5-1.519-2.467-3.282.03-1.611.99-2.798 2.69-3.106 1.968-.357 3.89-.132 5.692.814.056.03.111.063.164.098.105.073.207.154.344.25-.117.09-.218.174-.322.254a9.13 9.13 0 01-.307.226c-1.698-.953-3.508-1.14-5.382-.831-1.513.25-2.326 1.498-1.996 3.017.233 1.097.843 1.671 1.962 1.765.684.059 1.381.048 2.066.06 3.316.057 4.953 2.85 4.645 5.572-.254 2.265-1.974 3.949-4.531 4.263a10.419 10.419 0 01-5.72-.85c-.55-.256-1.044-.613-1.628-.957zm53.055 2.723c.998-1.595 1.939-3.1 2.883-4.604 2.952-4.697 5.913-9.385 8.843-14.097.33-.53.738-.26 1.228-.395-.398.641-.731 1.18-1.075 1.718-3.548 5.648-7.091 11.3-10.63 16.959-.326.539-.735.374-1.249.419zM65.324.78c-.485.77-.921 1.462-1.346 2.156L53.7 19.296c-.4.634-.444.654-1.28.5.386-.616.758-1.22 1.135-1.82 3.526-5.615 7.05-11.233 10.573-16.853.316-.506.723-.24 1.196-.344zm5.83.024c-.614.986-1.188 1.905-1.764 2.822-3.306 5.27-6.624 10.535-9.907 15.822-.327.528-.731.363-1.198.392.042-.097.089-.193.14-.286l9.716-15.49c.59-.942 1.199-1.872 1.76-2.83.205-.35.44-.493.825-.433.143.01.286.01.428.003zM56.299 19.831l2.243-3.573c3.12-4.971 6.252-9.934 9.346-14.921.334-.541.721-.584 1.286-.507-.153.257-.293.505-.444.745A14055.21 14055.21 0 0057.554 19.42c-.333.534-.728.413-1.254.411zM39.16.86c.786-.129.828-.109 1.056.472l7.131 18.08c.046.116.086.234.127.351-.595.231-.825.139-1.04-.406-2.38-6.038-4.758-12.077-7.136-18.117-.043-.116-.081-.231-.138-.38zm3.567.008c.758-.154.809-.124 1.056.504l7.114 18.022c.047.118.087.24.13.359-.5.247-.826.141-1.013-.335-2.387-6.058-4.772-12.117-7.157-18.175-.046-.11-.081-.23-.13-.375zm-1.763.007c.714-.165.8-.128 1.033.462 1.977 5.005 3.953 10.01 5.926 15.016.417 1.058.833 2.116 1.248 3.176.032.08.055.163.083.245-.614.21-.817.122-1.033-.428L41.159 1.44c-.077-.184-.132-.374-.195-.566zm-3.083 3.071c.413.588.49 1.112.22 1.782-1.83 4.542-3.612 9.103-5.41 13.656-.206.524-.297.563-1.043.405l6.233-15.843zM33.428 19.78L38.8 6.144c.379.616.451 1.147.182 1.813-1.52 3.768-2.985 7.558-4.47 11.341-.242.612-.362.669-1.085.482zM28.656.824v.787H16.33V.824h12.327zm11.009 7.603c.416.67.44 1.195.18 1.837-1.228 3.015-2.397 6.055-3.586 9.088-.218.556-.278.584-1.063.45l4.47-11.375zM28.66 2.501v.756H16.317v-.756H28.66zM51.844.86c.684-.218 1.034.055 1.368.598 1.602 2.619 3.248 5.208 4.886 7.804.129.204.178.372 0 .574a5.7 5.7 0 00-.33.491A5455.034 5455.034 0 0051.844.861zm13.902 9.461c1.995 3.183 3.97 6.316 5.987 9.518a7.006 7.006 0 01-.82-.011.46.46 0 01-.281-.206 2081.825 2081.825 0 01-5.22-8.306.51.51 0 01-.015-.4c.1-.207.217-.406.349-.595zm-.938 1.593l4.929 7.856c-.738.187-.892.127-1.254-.45-1.289-2.06-2.578-4.118-3.867-6.174-.358-.567-.356-.567.192-1.232zm-6.055-3.133L53.756.802c.282-.01.565-.007.847.011.088 0 .188.112.243.199 1.424 2.259 2.844 4.522 4.258 6.79a.518.518 0 010 .403c-.1.202-.218.394-.351.576zm5.05 4.669l3.975 6.326c-.68.192-.894.121-1.24-.427-1.03-1.634-2.06-3.267-3.07-4.91a.555.555 0 010-.43 3.39 3.39 0 01.335-.56zM55.74.862c.709-.235 1.058.079 1.38.632.871 1.474 1.808 2.91 2.715 4.36.404.646.402.647-.118 1.339L55.739.863zM43.458 17.551h-5.945c.129-.757.173-.797.858-.797h4.177c.717 0 .717 0 .91.797zM57.65.804a6.46 6.46 0 01.768 0 .493.493 0 01.32.19 386.436 386.436 0 012.32 3.696.512.512 0 010 .399c-.1.2-.219.391-.353.571L57.65.804zm8.19 18.987c-.868.154-.879.145-1.295-.516-.64-1.017-1.265-2.045-1.93-3.045-.222-.334-.279-.6 0-.904.08-.102.154-.209.219-.32 1.005 1.603 1.994 3.17 3.005 4.785zm-22.984-3.925h-4.742c.057-.195.131-.385.221-.568a.442.442 0 01.307-.199c1.213-.015 2.426-.015 3.639 0a.51.51 0 01.337.216c.098.175.178.36.238.551zm-.698-1.629h-3.336c.05-.655.21-.815.794-.815h1.607c.74 0 .743.003.935.815z" fill="#fff"/></svg>