<svg width="41" height="41" fill="none" xmlns="http://www.w3.org/2000/svg"><g clip-path="url(#clip0_2248_9231)"><path d="M32.01 34.608H9.29a4.31 4.31 0 01-4.28-4.3v-10.68a4.31 4.31 0 014.3-4.3h21.42a4.31 4.31 0 014.3 4.3v11.9a3.08 3.08 0 01-3.02 3.08zM9.29 16.828a2.8 2.8 0 00-2.8 2.8v10.68a2.8 2.8 0 002.8 2.8h22.72a1.57 1.57 0 001.57-1.58v-11.9a2.8 2.8 0 00-2.8-2.8H9.29zM28.9 13.78a.75.75 0 01-.73-.62 1.31 1.31 0 00-.63-.9 1.27 1.27 0 00-1-.1.75.75 0 01-.94-.49.76.76 0 01.49-.94 2.78 2.78 0 012.2.23 2.739 2.739 0 011.36 2 .75.75 0 01-.61.86l-.14-.04zm1.75-1.67a.75.75 0 01-.74-.62 2.178 2.178 0 00-2.82-1.73.74.74 0 01-.94-.49.75.75 0 01.48-.94 3.69 3.69 0 014.76 2.9.748.748 0 01-.61.87l-.13.01z" fill="#000"/><path d="M32.69 10.97a.76.76 0 01-.74-.63 3.78 3.78 0 00-4.87-3 .75.75 0 01-.45-1.43 5.27 5.27 0 016.8 4.15.748.748 0 01-.61.87l-.13.04z" fill="#000"/><path d="M30.47 24.972h-5.73a.75.75 0 01-.75-.75v-4.8a.75.75 0 01.75-.75h4.07c.2 0 .39.08.53.22l1.67 1.68a.74.74 0 01.21.53v3.09a.748.748 0 01-.75.78zm-5-1.5h4.23v-2l-1.2-1.3h-3l-.03 3.3z" fill="#AB1A39"/><path d="M21.1 20.39H9.77a.75.75 0 110-1.5H21.1a.75.75 0 110 1.5z" fill="#000"/><path d="M15.01 24.719H9.77a.75.75 0 010-1.5h5.24a.75.75 0 110 1.5z" fill="#AB1A39"/></g><defs><clipPath id="clip0_2248_9231"><path fill="#fff" d="M0 0h40.03v40.03H0z"/></clipPath></defs></svg>