<svg width="41" height="41" fill="none" xmlns="http://www.w3.org/2000/svg"><path d="M26.72 32.431h-12a3.34 3.34 0 01-3.34-3.34v-17.63a.74.74 0 01.75-.75h17.18a.75.75 0 01.75.75v17.63a3.34 3.34 0 01-3.34 3.34zm-13.85-20.22v16.88a1.84 1.84 0 001.84 1.81h12a1.84 1.84 0 001.84-1.84v-16.85H12.87z" fill="#000"/><path d="M16.36 31.99a.75.75 0 01-.75-.75V11.46a.75.75 0 011.5 0v19.78a.76.76 0 01-.75.75zm9.65-3.46h-3.58a.76.76 0 01-.75-.75V22.2a.75.75 0 01.75-.75h3.58a.75.75 0 01.75.75v5.58a.76.76 0 01-.75.75zm-2.78-1.5h2v-4.08h-2v4.08z" fill="#AB1A39"/><path d="M34.31 17.06h-5a.75.75 0 010-1.5h4.25v-7h-27v7h5.59a.75.75 0 010 1.5H5.78a.751.751 0 01-.77-.75V7.79a.76.76 0 01.75-.75h28.55a.76.76 0 01.75.75v8.52a.75.75 0 01-.75.75z" fill="#000"/><path d="M9.88 12.21a.75.75 0 010-1.5H31.1a.75.75 0 010 1.5H9.88z" fill="#000"/></svg>