<svg width="66" height="68" viewBox="0 0 66 68" fill="none" xmlns="http://www.w3.org/2000/svg">
<path d="M14.81 67.002C10.8519 67.002 6.89382 67.002 2.93574 67.002C1.22057 67.002 0.701613 66.2685 1.15679 64.5545C2.36401 60.0058 6.60356 56.5643 11.2213 56.5258C12.4241 56.5258 13.0728 56.2224 13.6402 55.0201C15.9138 50.1409 21.0374 47.8133 26.2818 49.1107C27.8211 49.4933 27.8211 49.4933 27.8211 47.8292C27.8211 46.6224 27.8035 45.4133 27.8211 44.2065C27.8211 43.4911 27.5352 43.1831 26.8381 43.1809C26.1417 43.1554 25.4497 43.3047 24.8217 43.6156C22.7877 44.6571 20.7427 45.6737 18.6933 46.6835C17.4355 47.3016 16.446 46.756 16.4218 45.3115C16.38 42.5945 16.2591 39.8775 16.5098 37.1605C16.8528 33.4541 18.5416 30.5107 21.3738 28.2669C22.0731 27.7145 22.2996 27.1212 22.2974 26.2586C22.2754 17.756 24.8525 10.1876 30.0288 3.55368C30.5629 2.88339 31.1357 2.24679 31.744 1.64729C32.6082 0.780115 33.3646 0.78014 34.2244 1.67222C35.9511 3.47354 37.4515 5.49075 38.6904 7.67669C41.8796 13.2283 43.5886 19.5485 43.6446 25.9982C43.66 27.1303 43.9855 27.8276 44.8386 28.5635C47.6731 31.0065 49.2123 34.1967 49.3508 38.0186C49.4344 40.3167 49.3904 42.6216 49.3508 44.9243C49.3267 46.8148 48.4251 47.3673 46.7979 46.5432C44.8614 45.5575 42.9226 44.5764 40.9817 43.5998C40.7223 43.4597 40.4488 43.3496 40.1659 43.2715C38.5871 42.8707 38.1715 43.2058 38.1671 44.8564C38.1671 46.0632 38.1913 47.2722 38.1671 48.479C38.1495 49.2579 38.4265 49.5069 39.1588 49.2692C40.813 48.7389 42.5656 48.6187 44.2735 48.9182C48.126 49.5658 50.9561 51.6918 52.5591 55.3914C52.9351 56.2586 53.4101 56.5235 54.3029 56.5235C59.2263 56.5235 63.479 59.759 64.8006 64.4277C65.3239 66.273 64.8116 67.0133 62.9755 67.0156C55.0974 67.0156 47.2186 67.0156 39.3391 67.0156C39.1192 67.0156 38.8993 67.0156 38.6794 67.002C37.8284 66.9363 37.2809 66.4971 37.2809 65.5892C37.2809 64.6812 37.8394 64.2307 38.6948 64.2103C40.9663 64.1786 43.2378 64.156 45.5115 64.1583C50.4921 64.1583 55.4705 64.3099 60.4489 64.0677C61.6231 64.0111 61.6803 63.8843 60.937 62.8813C58.8964 60.128 56.1763 58.9801 52.8428 59.4194C51.3233 59.6209 50.8769 59.3446 50.4547 57.8344C50.1113 56.5776 49.4917 55.419 48.6437 54.4483C47.7957 53.4776 46.7422 52.721 45.5646 52.2368C44.387 51.7525 43.117 51.5539 41.8529 51.6561C40.5888 51.7583 39.3645 52.1586 38.2748 52.8262C38.0857 52.9394 37.9076 53.0707 37.7163 53.1839C36.4189 53.9401 35.3414 53.3537 35.3129 51.8096C35.2711 49.3937 35.2601 46.9779 35.3129 44.5643C35.337 43.5318 34.994 43.1831 33.9935 43.1809C30.6951 43.1809 30.6951 43.1424 30.6951 46.4911C30.6951 48.1507 30.6951 49.8126 30.6951 51.4722C30.6951 52.2194 30.6203 52.9077 29.9167 53.3379C29.1778 53.7907 28.5973 53.3832 27.9904 53.0028C23.6519 50.2496 18.0776 51.8526 16.0128 56.4534C15.8222 56.9028 15.6635 57.3659 15.5378 57.839C15.098 59.356 14.6714 59.6299 13.1476 59.4239C9.81179 58.9711 7.10492 60.1416 5.05111 62.8858C4.83122 63.1711 4.44201 63.4949 4.61132 63.8594C4.80923 64.2647 5.32378 64.1786 5.71079 64.1786C8.49464 64.1922 11.2807 64.1786 14.0667 64.1786C18.2447 64.1786 22.4227 64.1786 26.6007 64.1786C26.9694 64.1712 27.3378 64.2031 27.7001 64.2737C27.9944 64.323 28.2607 64.4824 28.4478 64.7214C28.6349 64.9605 28.7296 65.2623 28.7138 65.5688C28.7439 65.8753 28.6641 66.1825 28.4896 66.4326C28.315 66.6828 28.0578 66.8588 27.7661 66.9273C27.3725 67.0134 26.9696 67.0461 26.5677 67.0247C22.6521 67.0141 18.7329 67.0065 14.81 67.002ZM32.949 32.5371C34.9984 32.5371 37.0478 32.5167 39.106 32.5371C39.8932 32.5484 40.2824 32.2971 40.41 31.4231C41.4006 24.9794 40.5455 18.3781 37.9494 12.4269C37.6525 11.7477 37.2083 11.4986 36.4981 11.5077C34.1188 11.5379 31.7403 11.5379 29.3625 11.5077C28.6325 11.5077 28.2367 11.7884 27.942 12.4654C25.3152 18.4018 24.4529 25.0058 25.4638 31.4458C25.5804 32.2179 25.9278 32.5484 26.6996 32.5371C28.7754 32.5167 30.8622 32.5371 32.949 32.5371ZM33.004 35.4805C31.0667 35.4805 29.1294 35.5009 27.1944 35.4805C26.3148 35.4669 26.007 35.8156 26.1873 36.7144C26.3186 37.3781 26.3922 38.0525 26.4072 38.7296C26.4402 39.9001 26.9173 40.3145 28.1025 40.2737C31.0953 40.1809 34.0946 40.2578 37.0896 40.2375C39.0686 40.2239 39.3347 40.6586 39.5084 38.1499C39.548 37.5884 39.6184 37.0179 39.7085 36.4699C39.8339 35.7115 39.5172 35.4692 38.807 35.4805C36.8763 35.4941 34.9412 35.4805 33.004 35.4941V35.4805ZM19.1111 40.4616C19.1111 41.0277 19.1331 41.5937 19.1111 42.1575C19.0737 42.9522 19.3002 43.208 20.0588 42.7982C21.0236 42.2583 22.0152 41.7708 23.0296 41.3379C23.7355 41.0481 23.9642 40.6586 23.8388 39.8843C23.4782 37.6563 23.2011 35.4126 22.8427 33.1847C22.7525 32.6141 22.9482 31.6767 22.3875 31.5658C21.7542 31.439 21.3804 32.2994 21.0022 32.8337C19.3838 35.1046 19.0363 37.7243 19.1111 40.4526V40.4616ZM43.339 31.0677L42.0372 39.8322C42.0262 39.9069 42.013 39.9816 41.9998 40.0586C41.8965 40.6201 42.0944 40.9756 42.6155 41.2201C43.649 41.7047 44.6649 42.2277 45.672 42.7666C46.3075 43.1062 46.534 42.916 46.523 42.2141C46.4988 40.5929 46.6044 38.9605 46.4571 37.3529C46.2372 34.9462 45.2037 32.9107 43.339 31.0586V31.0677ZM32.9204 8.71823C33.6878 8.71823 34.4597 8.71823 35.2227 8.71823C35.6801 8.71823 35.8494 8.51445 35.5745 8.09105C34.9456 7.12426 34.3519 6.13258 33.5647 5.27899C33.0501 4.71975 32.6411 4.76503 32.2255 5.33786C31.6164 6.18239 31.0095 7.02919 30.418 7.88957C30.0552 8.41485 30.1651 8.72502 30.8358 8.72049L32.9204 8.71823Z" fill="white" stroke="black"/>
<path d="M34.3123 65.7318C34.2441 66.47 33.8439 66.9658 32.9929 66.9794C32.8091 66.9909 32.6251 66.9604 32.454 66.8903C32.2828 66.8202 32.1288 66.7122 32.0028 66.5738C31.8768 66.4355 31.782 66.2703 31.7251 66.0899C31.6682 65.9096 31.6506 65.7184 31.6736 65.5303C31.722 64.6993 32.1596 64.2057 32.9929 64.1718C33.7692 64.1423 34.3387 64.8058 34.3123 65.7318Z" fill="white" stroke="black"/>
<path d="M32.8676 17.1545C34.2357 17.1603 35.5482 17.7129 36.5282 18.6958C37.5082 19.6787 38.0793 21.0151 38.1209 22.4232C38.167 25.2307 35.702 27.7484 32.905 27.7439C31.5518 27.7326 30.2575 27.1724 29.3028 26.1848C28.3482 25.1972 27.8102 23.8618 27.8057 22.4684C27.8132 21.079 28.3459 19.7473 29.2908 18.7553C30.2357 17.7634 31.5186 17.1892 32.8676 17.1545ZM30.6951 22.3847C30.6951 23.8156 31.6538 24.848 32.9951 24.8322C33.5833 24.8048 34.1405 24.5529 34.558 24.1255C34.9755 23.6981 35.2234 23.1259 35.2535 22.5205C35.2584 21.8932 35.025 21.2887 34.603 20.836C34.1811 20.3834 33.6041 20.1185 32.9951 20.0979C31.623 20.0639 30.7083 20.9673 30.6907 22.3756L30.6951 22.3847Z" fill="white" stroke="black"/>
</svg>
