<svg width="88" height="90" viewBox="0 0 88 90" fill="none" xmlns="http://www.w3.org/2000/svg">
<path d="M38.6233 2.35774C41.5185 -0.785914 46.4815 -0.785913 49.3767 2.35774C51.4267 4.58367 54.6364 5.31625 57.4492 4.20022C61.4216 2.62407 65.8931 4.77743 67.1376 8.86594C68.0188 11.7609 70.5927 13.8135 73.6112 14.0285C77.8741 14.332 80.9685 18.2122 80.3158 22.4358C79.8537 25.4264 81.2821 28.3926 83.9084 29.8958C87.6175 32.0189 88.7218 36.8575 86.3013 40.3796C84.5873 42.8735 84.5873 46.1657 86.3013 48.6597C88.7218 52.1818 87.6175 57.0203 83.9084 59.1434C81.2821 60.6467 79.8537 63.6129 80.3158 66.6035C80.9685 70.8271 77.8741 74.7073 73.6112 75.0108C70.5928 75.2257 68.0188 77.2784 67.1376 80.1733C65.8931 84.2618 61.4216 86.4152 57.4492 84.8391C54.6364 83.723 51.4267 84.4556 49.3767 86.6815C46.4815 89.8252 41.5185 89.8252 38.6233 86.6815C36.5733 84.4556 33.3637 83.723 30.5509 84.8391C26.5784 86.4152 22.1069 84.2619 20.8624 80.1733C19.9812 77.2784 17.4073 75.2257 14.3888 75.0108C10.1259 74.7073 7.03153 70.8271 7.68421 66.6035C8.14635 63.6129 6.71793 60.6467 4.09163 59.1434C0.382555 57.0203 -0.721812 52.1818 1.69878 48.6597C3.41274 46.1657 3.41274 42.8735 1.69878 40.3796C-0.721813 36.8575 0.382556 32.0189 4.09163 29.8958C6.71793 28.3926 8.14635 25.4264 7.68421 22.4358C7.03152 18.2122 10.1259 14.332 14.3888 14.0285C17.4073 13.8135 19.9812 11.7609 20.8624 8.86594C22.1069 4.77743 26.5784 2.62407 30.5509 4.20022C33.3637 5.31625 36.5733 4.58367 38.6233 2.35774Z" fill="url(#paint0_linear_310_2316)"/>
<path fill-rule="evenodd" clip-rule="evenodd" d="M62.7601 31.1178C64.1083 32.503 64.0784 34.7188 62.6932 36.0671L38.5064 59.6085L25.3069 46.7611C23.9217 45.4129 23.8917 43.197 25.2399 41.8118C26.5882 40.4267 28.804 40.3967 30.1892 41.7449L38.5064 49.8402L57.8108 31.0509C59.196 29.7026 61.4119 29.7326 62.7601 31.1178Z" fill="white"/>
<defs>
<linearGradient id="paint0_linear_310_2316" x1="-33.1998" y1="44.9668" x2="91.9629" y2="44.9668" gradientUnits="userSpaceOnUse">
<stop stop-color="#44D4D4"/>
<stop offset="1" stop-color="#1A6A6A"/>
</linearGradient>
</defs>
</svg>
