<svg width="26" height="26" fill="none" xmlns="http://www.w3.org/2000/svg"><path d="M1.083 20.75c2.485-.118 4.804-.628 7-2.159-2.196-.432-3.77-1.413-4.556-3.414.58-.04 1.035-.118 1.49-.157-1.987-1.06-3.23-2.512-3.354-4.828.663.157 1.201.275 2.07.51-2.028-2-2.607-4.002-1.323-6.513C5.308 7.17 8.662 9.015 12.969 9.25c.042-.667 0-1.255.083-1.844.538-3.375 4.721-5.338 7.703-3.375 1.325.863 2.278.667 3.479.117.248-.117.497-.196.745-.313.083.039.166.117.249.156-.497.707-.953 1.374-1.574 2.238.745-.157 1.325-.314 1.947-.432.04.04.124.118.165.157-.497.51-.952 1.099-1.532 1.53-.58.471-.829.942-.829 1.649-.207 10.36-12.051 16.876-21.7 11.93a4.62 4.62 0 01-.622-.313z" fill="#fff"/></svg>