<svg width="81" height="62" viewBox="0 0 81 62" fill="none" xmlns="http://www.w3.org/2000/svg">
<path d="M43.1417 22.5522C42.9821 22.1807 42.9556 21.7654 43.0669 21.3766C43.1781 20.9879 43.4203 20.6495 43.7523 20.4187C44.8726 19.5472 46.1183 18.8504 47.4472 18.3519C47.7977 18.2037 48.1872 18.175 48.5557 18.2701C48.9241 18.3653 49.251 18.5789 49.4859 18.8783C51.1176 20.7626 53.6441 20.7626 55.2722 18.8783C55.5098 18.5824 55.8369 18.3715 56.2045 18.2772C56.5721 18.183 56.9603 18.2104 57.3109 18.3555C58.7586 18.9008 60.1065 19.6808 61.3006 20.6643C61.6085 20.8951 61.8319 21.2208 61.9366 21.5911C62.0412 21.9613 62.0212 22.3558 61.8796 22.7136C61.6848 23.2252 61.6071 23.7739 61.6521 24.3195C61.6971 24.8651 61.8636 25.3938 62.1396 25.8666C62.4155 26.3394 62.7938 26.7444 63.2468 27.0519C63.6997 27.3594 64.2157 27.5616 64.757 27.6437C65.1438 27.6927 65.5028 27.8707 65.7759 28.1489C66.0491 28.4272 66.2204 28.7894 66.2623 29.1771C66.5566 30.7598 66.5471 32.3841 66.2342 33.9633C66.1637 34.3245 65.9815 34.6543 65.7132 34.9062C65.445 35.1581 65.1043 35.3193 64.7394 35.3669C64.1813 35.4348 63.6463 35.6305 63.1761 35.9387C62.7059 36.247 62.3131 36.6595 62.0283 37.1443C61.7435 37.629 61.5743 38.173 61.5339 38.7338C61.4935 39.2945 61.583 39.8571 61.7954 40.3777C61.9573 40.7405 61.9892 41.148 61.8857 41.5315C61.7821 41.915 61.5495 42.2512 61.2269 42.4831C60.1374 43.3771 58.9204 44.1033 57.6162 44.6376C57.4899 44.6879 57.3596 44.7278 57.2267 44.7569C57.1292 44.7741 57.0308 44.7858 56.932 44.7919C56.6529 44.792 56.3777 44.7266 56.1285 44.6011C55.8793 44.4756 55.6629 44.2934 55.4968 44.0692C55.1521 43.6016 54.6989 43.2247 54.1763 42.9711C53.6537 42.7174 53.0773 42.5945 52.4966 42.6129C51.9519 42.6129 51.4146 42.7397 50.9274 42.9833C50.4401 43.2269 50.0163 43.5807 49.6895 44.0165C48.9631 44.9393 48.3315 45.1184 47.2332 44.6867C45.8668 44.1484 44.5948 43.3963 43.4646 42.4585L41.668 40.7847" stroke="url(#paint0_linear_146_3465)" stroke-width="3.7" stroke-linejoin="round"/>
<path d="M24.4742 39.125C28.0109 39.125 30.878 36.2579 30.878 32.7211C30.878 29.1844 28.0109 26.3173 24.4742 26.3173C20.9374 26.3173 18.0703 29.1844 18.0703 32.7211C18.0703 36.2579 20.9374 39.125 24.4742 39.125Z" stroke="url(#paint1_linear_146_3465)" stroke-width="3.7" stroke-linejoin="round"/>
<path d="M52.1956 35.616C54.3758 35.616 56.1432 33.8486 56.1432 31.6684C56.1432 29.4882 54.3758 27.7208 52.1956 27.7208C50.0154 27.7208 48.248 29.4882 48.248 31.6684C48.248 33.8486 50.0154 35.616 52.1956 35.616Z" stroke="white" stroke-width="3.7" stroke-linejoin="round"/>
<path d="M31.696 53.4943C31.2519 53.4956 30.8138 53.3924 30.417 53.193C30.0202 52.9937 29.6758 52.7039 29.4117 52.3469C28.8634 51.6031 28.1426 51.0036 27.3113 50.6002C26.4799 50.1968 25.563 50.0015 24.6395 50.031C23.7705 50.0284 22.913 50.2292 22.1355 50.6173C21.3581 51.0055 20.6822 51.5701 20.162 52.2662C19.0076 53.7329 18.0005 54.0207 16.2495 53.3189C14.0786 52.4631 12.056 51.2706 10.2562 49.7853C9.23862 48.9502 9.00001 47.7361 9.52636 46.4098C10.4527 44.0973 10.0983 41.9815 8.4456 40.1182C7.55824 39.1157 6.3329 38.4749 5.0033 38.3181C3.319 38.0865 2.52246 37.3286 2.25227 35.6548C1.86559 33.2082 1.92384 30.7119 2.42421 28.286C2.68387 26.9912 3.59621 26.1805 4.94365 26.0191C5.83362 25.925 6.68988 25.6268 7.44582 25.1478C8.20176 24.6688 8.837 24.0218 9.30213 23.2573C9.76725 22.4927 10.0497 21.6311 10.1276 20.7396C10.2054 19.848 10.0765 18.9505 9.75093 18.1169C9.49258 17.5261 9.44829 16.8637 9.6257 16.2437C9.80311 15.6237 10.1911 15.085 10.7229 14.7203C12.5044 13.3332 14.4862 12.2246 16.6004 11.4324C17.158 11.1953 17.7782 11.1486 18.365 11.2995C18.9517 11.4505 19.4724 11.7907 19.8462 12.2675C22.4429 15.2677 26.4676 15.2677 29.0573 12.2675C29.432 11.7918 29.9528 11.4526 30.5394 11.3023C31.126 11.152 31.7458 11.199 32.3031 11.4359C34.6074 12.3031 36.7523 13.5456 38.6508 15.1133C39.145 15.476 39.5042 15.9931 39.6713 16.5829C39.8385 17.1728 39.8041 17.8016 39.5736 18.3696C38.3315 21.9909 40.3772 25.4963 44.1528 26.2192C45.5248 26.4823 46.2828 27.2718 46.5495 28.6579C47.0169 31.176 47.0014 33.76 46.5038 36.2723C46.397 36.8511 46.1095 37.3812 45.6827 37.7866C45.256 38.1919 44.7118 38.4517 44.1283 38.5286C40.2333 39.1392 38.0613 42.8306 39.4368 46.5045C39.6919 47.08 39.7419 47.7257 39.5784 48.3336C39.4149 48.9415 39.0478 49.4751 38.5385 49.845C36.8044 51.2672 34.867 52.4216 32.7908 53.2698C32.5886 53.3531 32.3797 53.4188 32.1662 53.4662C32.0103 53.4861 31.8532 53.4955 31.696 53.4943Z" stroke="white" stroke-width="3.7" stroke-miterlimit="10"/>
<path d="M49.9326 4.15825C53.6258 4.11685 57.2905 4.80845 60.7145 6.19312C64.1386 7.5778 67.2539 9.62797 69.8801 12.2249C72.5064 14.8219 74.5914 17.9141 76.0143 21.3224C77.4373 24.7307 78.17 28.3874 78.17 32.0808C78.17 35.7742 77.4373 39.431 76.0143 42.8393C74.5914 46.2476 72.5064 49.3397 69.8801 51.9366C67.2539 54.5336 64.1386 56.5838 60.7145 57.9684C57.2905 59.3531 53.6258 60.0448 49.9326 60.0034" stroke="url(#paint2_linear_146_3465)" stroke-width="3.7" stroke-linejoin="round"/>
<path d="M49.0409 8.31625C51.3374 8.31625 53.1991 6.45459 53.1991 4.15813C53.1991 1.86166 51.3374 0 49.0409 0C46.7445 0 44.8828 1.86166 44.8828 4.15813C44.8828 6.45459 46.7445 8.31625 49.0409 8.31625Z" fill="white"/>
<defs>
<linearGradient id="paint0_linear_146_3465" x1="66.9995" y1="42" x2="34.3098" y2="34.6603" gradientUnits="userSpaceOnUse">
<stop stop-color="#996BD6"/>
<stop offset="1" stop-color="#141518"/>
</linearGradient>
<linearGradient id="paint1_linear_146_3465" x1="18.1357" y1="24.3546" x2="45.7033" y2="27.6204" gradientUnits="userSpaceOnUse">
<stop stop-color="#996BD6"/>
<stop offset="1" stop-color="#141518"/>
</linearGradient>
<linearGradient id="paint2_linear_146_3465" x1="57.0005" y1="-3.49999" x2="39.1849" y2="56.0871" gradientUnits="userSpaceOnUse">
<stop stop-color="#996BD6"/>
<stop offset="1" stop-color="#141518"/>
</linearGradient>
</defs>
</svg>
