<svg width="72" height="73" viewBox="0 0 72 73" fill="none" xmlns="http://www.w3.org/2000/svg">
<path d="M2.71209e-07 41.9852V52.7542C-0.000157539 53.1038 0.0685561 53.4499 0.202214 53.7729C0.335872 54.0959 0.531856 54.3894 0.778969 54.6366C1.02608 54.8838 1.31948 55.08 1.64241 55.2138C1.96534 55.3476 2.31146 55.4164 2.66102 55.4164H69.3366C69.6861 55.4166 70.0323 55.3479 70.3553 55.2142C70.6782 55.0806 70.9717 54.8846 71.219 54.6375C71.4662 54.3903 71.6623 54.0969 71.7961 53.774C71.9299 53.4511 71.9988 53.105 71.9988 52.7554V41.9852C71.9989 41.6357 71.9302 41.2895 71.7966 40.9665C71.6629 40.6435 71.4669 40.35 71.2198 40.1028C70.9727 39.8556 70.6793 39.6595 70.3564 39.5257C70.0334 39.3919 69.6873 39.323 69.3378 39.323H2.66222C1.95615 39.323 1.27901 39.6035 0.779746 40.1027C0.280483 40.602 2.71209e-07 41.2792 2.71209e-07 41.9852Z" fill="url(#paint0_linear_192_2757)"/>
<path d="M64.0532 54.2823V49.9397" stroke="white" stroke-width="1.5" stroke-linecap="square" stroke-linejoin="round"/>
<path d="M56.4536 54.2823V49.9397" stroke="white" stroke-width="1.5" stroke-linecap="square" stroke-linejoin="round"/>
<path d="M47.7684 54.2823V45.5972" stroke="white" stroke-width="1.5" stroke-linecap="square" stroke-linejoin="round"/>
<path d="M40.1689 54.2823V49.9397" stroke="white" stroke-width="1.5" stroke-linecap="square" stroke-linejoin="round"/>
<path d="M31.4838 54.2823V49.9397" stroke="white" stroke-width="1.5" stroke-linecap="square" stroke-linejoin="round"/>
<path d="M23.8842 54.2823V45.5972" stroke="white" stroke-width="1.5" stroke-linecap="square" stroke-linejoin="round"/>
<path d="M15.9999 55.4164V50.2325" stroke="white" stroke-width="1.5" stroke-linecap="round" stroke-linejoin="round"/>
<path d="M7.59961 54.2823V49.9397" stroke="white" stroke-width="1.5" stroke-linecap="square" stroke-linejoin="round"/>
<path d="M43.5138 24.6554L61.0536 59.6775C61.0968 59.7797 61.1019 59.8939 61.068 59.9995L58.3458 68.3525C58.186 68.8427 57.3967 68.8667 57.1973 68.3898L37.7232 28.4433C37.6091 28.1718 37.7713 27.8715 38.0836 27.773L42.7401 24.3467C42.8851 24.2962 43.0436 24.3002 43.1859 24.3579C43.3283 24.4156 43.4448 24.523 43.5138 24.6602V24.6554Z" fill="url(#paint1_linear_192_2757)"/>
<path d="M57.7065 68.7323V72" stroke="#F4817A" stroke-width="1.5" stroke-miterlimit="80" stroke-linecap="round"/>
<path d="M39.8123 7.99866H32.1885V3.81192C32.1888 2.80103 32.5905 1.83164 33.3053 1.11684C34.0201 0.402033 34.9895 0.00031844 36.0004 0C37.0113 0.00031844 37.9807 0.402033 38.6955 1.11684C39.4103 1.83164 39.812 2.80103 39.8123 3.81192V7.99866Z" fill="url(#paint2_linear_192_2757)"/>
<path d="M28.4871 24.6554L10.9472 59.6775C10.904 59.7797 10.8989 59.8939 10.9328 59.9995L13.6551 68.3525C13.8148 68.8427 14.6041 68.8667 14.8036 68.3898L34.2764 28.4433C34.3966 28.1718 34.2296 27.8715 33.916 27.773L29.2607 24.3467C29.1157 24.2962 28.9572 24.3002 28.8149 24.3579C28.6726 24.4156 28.556 24.523 28.4871 24.6602V24.6554Z" fill="url(#paint3_linear_192_2757)"/>
<path d="M46.4902 21.8839L37.3431 31.0323C36.9867 31.3879 36.5039 31.5876 36.0005 31.5876C35.4971 31.5876 35.0143 31.3879 34.658 31.0323L25.5096 21.8839V10.5623C25.51 9.81926 25.8052 9.10673 26.3305 8.58121C26.8558 8.05569 27.5682 7.76016 28.3112 7.75952H43.6886C44.4319 7.75984 45.1446 8.05523 45.6702 8.58079C46.1957 9.10634 46.4911 9.81905 46.4914 10.5623V21.8839H46.4902Z" fill="url(#paint4_linear_192_2757)"/>
<path d="M36.0004 21.5992C38.1057 21.5992 39.8123 19.8925 39.8123 17.7873C39.8123 15.682 38.1057 13.9753 36.0004 13.9753C33.8951 13.9753 32.1885 15.682 32.1885 17.7873C32.1885 19.8925 33.8951 21.5992 36.0004 21.5992Z" fill="#141518" stroke="white" stroke-width="1.5" stroke-miterlimit="80"/>
<path d="M14.2938 68.7323V72" stroke="#F4817A" stroke-width="1.5" stroke-miterlimit="80" stroke-linecap="round"/>
<defs>
<linearGradient id="paint0_linear_192_2757" x1="-21.8995" y1="47.4446" x2="71.971" y2="47.4446" gradientUnits="userSpaceOnUse">
<stop stop-color="#DE4E45"/>
<stop offset="1" stop-color="#FF9B95"/>
</linearGradient>
<linearGradient id="paint1_linear_192_2757" x1="30.5681" y1="46.7296" x2="61.0811" y2="46.7296" gradientUnits="userSpaceOnUse">
<stop stop-color="#44D4D4"/>
<stop offset="1" stop-color="#1A6A6A"/>
</linearGradient>
<linearGradient id="paint2_linear_192_2757" x1="29.8696" y1="4.03656" x2="39.8094" y2="4.03656" gradientUnits="userSpaceOnUse">
<stop stop-color="#44D4D4"/>
<stop offset="1" stop-color="#1A6A6A"/>
</linearGradient>
<linearGradient id="paint3_linear_192_2757" x1="3.79171" y1="46.7296" x2="34.3065" y2="46.7296" gradientUnits="userSpaceOnUse">
<stop stop-color="#44D4D4"/>
<stop offset="1" stop-color="#1A6A6A"/>
</linearGradient>
<linearGradient id="paint4_linear_192_2757" x1="19.1277" y1="19.7844" x2="46.4833" y2="19.7844" gradientUnits="userSpaceOnUse">
<stop stop-color="#DE4E45"/>
<stop offset="1" stop-color="#FF9B95"/>
</linearGradient>
</defs>
</svg>
