<svg width="183" height="41" viewBox="0 0 183 41" fill="none" xmlns="http://www.w3.org/2000/svg">
<g clip-path="url(#clip0_214_4471)">
<path d="M10.9846 32.3383C4.82555 32.3383 0.00463867 27.0959 0.00463867 20.4046C0.00463867 13.7133 4.83013 8.4708 10.9846 8.4708C12.2526 8.40078 13.5206 8.60828 14.6967 9.07824C15.8728 9.54819 16.9274 10.2689 17.7842 11.1879L18.4282 11.9145V9.12232H24.8183V31.6868H18.4282V28.8957L17.7842 29.6223C16.9274 30.5413 15.8727 31.2618 14.6966 31.7316C13.5205 32.2013 12.2526 32.4086 10.9846 32.3383ZM12.4098 14.3637C11.1848 14.3354 9.97909 14.6656 8.9465 15.3123C7.91392 15.959 7.10135 16.8928 6.61255 17.9943C6.12375 19.0959 5.98089 20.3153 6.20224 21.4969C6.4236 22.6784 6.99912 23.7685 7.85528 24.6278C8.71145 25.4872 9.80943 26.0769 11.009 26.3216C12.2086 26.5663 13.4553 26.4549 14.59 26.0017C15.7247 25.5484 16.6959 24.7738 17.3796 23.7769C18.0632 22.78 18.4283 21.6059 18.4282 20.4046C18.4849 19.6089 18.3692 18.8104 18.0888 18.0617C17.8084 17.3129 17.3695 16.6308 16.8011 16.0601C16.2327 15.4895 15.5475 15.0432 14.7907 14.7507C14.0339 14.4581 13.2224 14.3258 12.4098 14.3626V14.3637Z" fill="white"/>
<path d="M29.1152 41.0002V9.12156H35.5065V11.9127L36.1504 11.186C37.0074 10.2669 38.0623 9.54614 39.2386 9.07618C40.4148 8.60622 41.683 8.39877 42.9512 8.46888C49.1103 8.46888 53.9312 13.7114 53.9312 20.4027C53.9312 27.094 49.1057 32.3364 42.9512 32.3364C41.6831 32.4067 40.4149 32.1995 39.2387 31.7298C38.0624 31.26 37.0075 30.5394 36.1504 29.6204L35.5065 28.8938V40.9991L29.1152 41.0002ZM41.525 14.3629C40.3 14.3346 39.0943 14.6649 38.0617 15.3115C37.0291 15.9582 36.2165 16.8919 35.7277 17.9935C35.2389 19.0951 35.0961 20.3145 35.3174 21.4961C35.5388 22.6776 36.1142 23.7677 36.9704 24.627C37.8266 25.4864 38.9246 26.0761 40.1242 26.3208C41.3238 26.5655 42.5705 26.4541 43.7052 26.0008C44.8399 25.5476 45.8111 24.7731 46.4947 23.7761C47.1784 22.7792 47.5434 21.6051 47.5433 20.4038C47.5999 19.6082 47.4841 18.8098 47.2036 18.0612C46.9231 17.3126 46.4842 16.6306 45.9158 16.0601C45.3474 15.4896 44.6623 15.0434 43.9056 14.7509C43.1488 14.4584 42.3375 14.3262 41.525 14.3629Z" fill="white"/>
<path d="M57.9229 41.0001V9.1215H64.3141V11.9126L64.9581 11.186C65.8149 10.2669 66.8696 9.54634 68.0456 9.07639C69.2217 8.60644 70.4897 8.39888 71.7577 8.46882C77.9179 8.46882 82.7376 13.7113 82.7376 20.4026C82.7376 27.0939 77.9122 32.3363 71.7577 32.3363C70.4898 32.4065 69.2218 32.1992 68.0457 31.7294C66.8696 31.2597 65.815 30.5392 64.9581 29.6203L64.3141 28.8937V40.999L57.9229 41.0001ZM70.3325 14.3629C69.1076 14.3345 67.9019 14.6648 66.8693 15.3115C65.8367 15.9582 65.0241 16.8919 64.5353 17.9935C64.0465 19.095 63.9037 20.3145 64.125 21.496C64.3464 22.6775 64.9219 23.7676 65.778 24.627C66.6342 25.4863 67.7322 26.076 68.9318 26.3207C70.1314 26.5654 71.3781 26.454 72.5128 26.0008C73.6475 25.5475 74.6187 24.773 75.3023 23.7761C75.986 22.7791 76.3511 21.605 76.3509 20.4037C76.4075 19.6081 76.2917 18.8098 76.0112 18.0611C75.7307 17.3125 75.2918 16.6306 74.7234 16.0601C74.155 15.4895 73.4699 15.0434 72.7131 14.7509C71.9564 14.4583 71.1451 14.3261 70.3325 14.3629Z" fill="white"/>
<path d="M85.6943 31.687V27.5065L95.0251 14.9223H86.1702V9.12256H103.485V13.303L94.1546 25.8872H103.957V31.687H85.6943Z" fill="white"/>
<path d="M118.747 32.3381C116.341 32.3288 113.993 31.621 111.997 30.3041C110.002 28.9871 108.449 27.1201 107.536 24.9386C106.622 22.7572 106.388 20.3593 106.863 18.0475C107.338 15.7356 108.501 13.6136 110.205 11.9494C111.909 10.2851 114.078 9.15326 116.438 8.6966C118.797 8.23994 121.242 8.47896 123.464 9.38357C125.685 10.2882 127.583 11.8178 128.918 13.7792C130.254 15.7407 130.966 18.0461 130.966 20.4044C130.981 21.9794 130.674 23.5413 130.064 24.9985C129.454 26.4557 128.554 27.7789 127.416 28.8905C126.278 30.002 124.924 30.8795 123.436 31.4715C121.947 32.0636 120.353 32.3582 118.747 32.3381ZM118.747 14.5496C117.56 14.5224 116.391 14.8426 115.391 15.4694C114.391 16.0961 113.603 17.001 113.13 18.0684C112.656 19.1358 112.518 20.3173 112.733 21.4621C112.947 22.6069 113.505 23.6631 114.335 24.4957C115.164 25.3284 116.228 25.8998 117.39 26.137C118.553 26.3741 119.76 26.2662 120.86 25.8271C121.959 25.388 122.901 24.6376 123.563 23.6718C124.226 22.7059 124.58 21.5684 124.58 20.4044C124.616 19.6375 124.491 18.8715 124.213 18.154C123.934 17.4365 123.508 16.7828 122.961 16.2337C122.414 15.6845 121.758 15.2517 121.033 14.9619C120.307 14.6722 119.529 14.5319 118.747 14.5496Z" fill="white"/>
<path d="M143.358 32.3351C139.119 32.3351 134.843 29.4656 134.843 23.0557V9.12256H141.234V22.0352C141.171 22.6381 141.243 23.2471 141.444 23.82C141.645 24.393 141.971 24.9162 142.399 25.3535C142.827 25.7908 143.347 26.1318 143.922 26.3527C144.498 26.5736 145.115 26.6692 145.732 26.6329C148.772 26.6329 150.516 24.7535 150.516 21.4745V9.12256H156.908V31.687H150.516V28.7546L149.853 29.6461C149.06 30.5611 148.06 31.2811 146.932 31.7481C145.804 32.2151 144.579 32.4162 143.358 32.3351Z" fill="white"/>
<path d="M175.846 31.8775L167.692 20.8352V31.8775H161.301V0H167.692V20.3138L175.377 9.31417H182.775L174.396 20.5998L183.001 31.8797L175.846 31.8775Z" fill="white"/>
<path d="M0 2.11475V5.28041L24.8194 3.64091L0 2.11475Z" fill="#F2062E"/>
<path d="M103.957 35.5244V38.6901L85.6921 37.0506L103.957 35.5244Z" fill="#F2062E"/>
</g>
<defs>
<clipPath id="clip0_214_4471">
<rect width="183" height="41" fill="white"/>
</clipPath>
</defs>
</svg>
