<svg width="42" height="59" viewBox="0 0 42 59" fill="none" xmlns="http://www.w3.org/2000/svg">
<g opacity="0.3" clip-path="url(#clip0_214_4408)">
<path d="M33.6874 40.8889L16.6603 36.661L12.4256 53.6923L0.350202 50.6838L4.57804 33.6567L-12.4491 29.4288L-9.44713 17.3387L7.57997 21.5666L11.8078 4.53945L23.8979 7.5414L19.6684 24.5696L36.6972 28.7963L33.6874 40.8889ZM1.54853 49.9622L11.6968 52.482L15.9246 35.4549L32.9517 39.6827L35.4715 29.5344L18.4427 25.3077L22.6722 8.27952L12.5239 5.75972L8.29616 22.7868L-8.73199 18.5573L-11.2518 28.7055L5.77533 32.9333L1.54853 49.9622Z" fill="white"/>
<path d="M20.352 6.8166L19.4961 7.33203L22.0228 11.5279L22.8787 11.0125L20.352 6.8166Z" fill="white"/>
<path d="M33.1514 28.0715L32.2954 28.5869L34.8499 32.829L35.7059 32.3136L33.1514 28.0715Z" fill="white"/>
<path d="M16.4722 5.85456L15.6162 6.37L21.0582 15.4071L21.9141 14.8917L16.4722 5.85456Z" fill="white"/>
<path d="M29.2715 27.1096L28.4155 27.625L33.8864 36.71L34.7423 36.1946L29.2715 27.1096Z" fill="white"/>
<path d="M12.5937 4.89179L11.7378 5.40723L20.0961 19.2873L20.952 18.7719L12.5937 4.89179Z" fill="white"/>
<path d="M25.4416 26.2272L24.5857 26.7427L32.8966 40.544L33.7525 40.0286L25.4416 26.2272Z" fill="white"/>
<path d="M11.6311 8.76972L10.7751 9.28516L19.1334 23.1652L19.9894 22.6498L11.6311 8.76972Z" fill="white"/>
<path d="M21.5149 25.1833L20.6589 25.6987L29.0172 39.5788L29.8732 39.0634L21.5149 25.1833Z" fill="white"/>
<path d="M10.668 12.6481L9.81201 13.1636L25.139 38.6161L25.9949 38.1006L10.668 12.6481Z" fill="white"/>
<path d="M9.70336 16.5275L8.84741 17.043L21.3065 37.733L22.1625 37.2175L9.70336 16.5275Z" fill="white"/>
<path d="M8.74023 20.4059L7.88428 20.9214L17.3786 36.688L18.2345 36.1725L8.74023 20.4059Z" fill="white"/>
<path d="M6.04638 21.4099L5.19043 21.9253L15.2796 38.6796L16.1355 38.1642L6.04638 21.4099Z" fill="white"/>
<path d="M2.12084 20.3679L1.26489 20.8833L14.3178 42.5594L15.1737 42.0439L2.12084 20.3679Z" fill="white"/>
<path d="M-1.81934 19.3023L-2.67529 19.8177L13.3547 46.4378L14.2107 45.9223L-1.81934 19.3023Z" fill="white"/>
<path d="M4.89794 35.9388L4.04199 36.4542L12.39 50.3172L13.2459 49.8017L4.89794 35.9388Z" fill="white"/>
<path d="M-5.69923 18.3405L-6.55518 18.856L1.86394 32.837L2.71989 32.3216L-5.69923 18.3405Z" fill="white"/>
<path d="M3.9248 39.8L3.06885 40.3154L10.7849 53.129L11.6409 52.6135L3.9248 39.8Z" fill="white"/>
<path d="M2.93603 43.6353L2.08008 44.1508L6.85301 52.0768L7.70896 51.5614L2.93603 43.6353Z" fill="white"/>
<path d="M1.937 47.4538L1.08105 47.9692L2.97579 51.1157L3.83174 50.6003L1.937 47.4538Z" fill="white"/>
</g>
<defs>
<clipPath id="clip0_214_4408">
<rect width="42.4264" height="42.4264" fill="white" transform="translate(-17 21.8867) rotate(-31.0555)"/>
</clipPath>
</defs>
</svg>
