<svg width="74" height="106" viewBox="0 0 74 106" fill="none" xmlns="http://www.w3.org/2000/svg">
<g opacity="0.3" clip-path="url(#clip0_214_4401)">
<path d="M94.5457 67.1586L87.4575 87.3805L51.3179 47.1482L58.4061 26.9263L94.5457 67.1586Z" fill="url(#paint0_linear_214_4401)"/>
<path d="M79.039 89.6853C78.9605 89.756 78.8652 89.8054 78.7621 89.8289L57.9004 94.7137C57.7906 94.7394 57.6758 94.7351 57.5681 94.7012C57.4603 94.6674 57.3636 94.6052 57.2879 94.5212L21.1483 54.2888C21.0745 54.2076 21.0232 54.1086 20.9995 54.0015C20.9758 53.8945 20.9806 53.7831 21.0133 53.6787C21.0459 53.5742 21.1054 53.4802 21.1858 53.406C21.2662 53.3318 21.3647 53.28 21.4714 53.2558L42.3331 48.3709C42.4429 48.3452 42.5577 48.3496 42.6655 48.3834C42.7732 48.4173 42.87 48.4795 42.9457 48.5635L79.0853 88.7958C79.1585 88.8771 79.2093 88.9759 79.2328 89.0826C79.2564 89.1893 79.2518 89.3002 79.2195 89.4045C79.185 89.5124 79.1228 89.6092 79.039 89.6853ZM57.9741 93.4028L77.4381 88.8442L42.2595 49.6818L22.7955 54.2404L57.9741 93.4028Z" fill="white"/>
<path d="M79.0388 89.6856C78.9144 89.7964 78.7511 89.8534 78.5845 89.8443C78.418 89.8351 78.2615 89.7604 78.1494 89.6366L42.0097 49.4042C41.9343 49.3201 41.8828 49.2172 41.8607 49.1064C41.8385 48.9957 41.8465 48.8811 41.8838 48.7746L48.972 28.5528C49.0059 28.4491 49.0665 28.3562 49.1476 28.2833C49.2287 28.2105 49.3275 28.1602 49.4342 28.1376C49.5414 28.1163 49.6524 28.1233 49.7563 28.1578C49.8602 28.1923 49.9534 28.2531 50.0269 28.3344L86.1733 68.5742C86.2487 68.6584 86.3003 68.7612 86.3224 68.872C86.3446 68.9827 86.3366 69.0974 86.2993 69.2038L79.2111 89.4256C79.177 89.5257 79.1177 89.6153 79.0388 89.6856ZM43.195 48.8415L78.3736 88.0039L84.9881 69.1369L49.8095 29.9745L43.195 48.8415Z" fill="white"/>
<path d="M42.8994 49.4532C42.8212 49.5237 42.7266 49.5736 42.6243 49.5986L21.7609 54.4816C21.6511 54.507 21.5365 54.5024 21.429 54.4684C21.3214 54.4343 21.2249 54.3721 21.1494 54.2881C21.074 54.2041 21.0224 54.1014 21.0001 53.9909C20.9777 53.8803 20.9854 53.7659 21.0224 53.6595L28.0143 33.3341C28.0497 33.2338 28.1097 33.144 28.1888 33.0729C28.2679 33.0018 28.3636 32.9518 28.4672 32.9273L49.3761 28.0951C49.4859 28.0688 49.601 28.0727 49.709 28.1065C49.817 28.1402 49.9139 28.2025 49.9896 28.2867C50.0653 28.371 50.1168 28.474 50.1388 28.585C50.1608 28.696 50.1524 28.8108 50.1146 28.9172L43.0755 49.1899C43.0404 49.2915 42.9798 49.3821 42.8994 49.4532ZM22.5822 52.9942L41.994 48.4453L48.5443 29.5783L29.0887 34.0784L22.5822 52.9942Z" fill="white"/>
<path d="M34.1703 10.5575L24.4388 19.299C24.3148 19.4105 24.1513 19.468 23.9845 19.4588C23.8178 19.4496 23.6612 19.3745 23.5495 19.25C23.4377 19.1256 23.3797 18.962 23.3884 18.7951C23.3971 18.6283 23.4717 18.472 23.5958 18.3605L33.3273 9.61897C33.4513 9.50751 33.6148 9.45005 33.7816 9.45924C33.9484 9.46843 34.1048 9.5435 34.2166 9.66796C34.3284 9.79241 34.3864 9.95605 34.3777 10.1229C34.369 10.2897 34.2944 10.446 34.1703 10.5575Z" fill="white"/>
<path d="M33.6884 19.8086C33.5644 19.9201 33.4009 19.9775 33.2342 19.9684C33.0674 19.9592 32.9109 19.8841 32.7991 19.7596L24.0314 9.99904C23.9196 9.87459 23.8617 9.71097 23.8704 9.54416C23.879 9.37734 23.9536 9.22098 24.0777 9.10952C24.2018 8.99806 24.3652 8.9406 24.532 8.94979C24.6988 8.95898 24.8553 9.03405 24.9671 9.15851L33.7348 18.9191C33.8466 19.0435 33.9045 19.2072 33.8958 19.374C33.8871 19.5408 33.8125 19.6971 33.6884 19.8086Z" fill="white"/>
</g>
<defs>
<linearGradient id="paint0_linear_214_4401" x1="61.8931" y1="67.472" x2="80.1146" y2="51.1041" gradientUnits="userSpaceOnUse">
<stop stop-color="#44D4D4"/>
<stop offset="1" stop-color="#1A6A6A"/>
</linearGradient>
<clipPath id="clip0_214_4401">
<rect width="45.9978" height="100.582" fill="white" transform="translate(0 30.7383) rotate(-41.9325)"/>
</clipPath>
</defs>
</svg>
