<svg width="69" height="50" viewBox="0 0 69 50" fill="none" xmlns="http://www.w3.org/2000/svg">
<path d="M1.67041 17.9111L22.3589 32.4468C24.1667 33.7167 26.3221 34.3981 28.5314 34.3981C30.7406 34.3981 32.8961 33.7167 34.7038 32.4468L51.1637 20.8857" stroke="url(#paint0_linear_214_4465)" stroke-width="3.5" stroke-linejoin="round"/>
<mask id="path-2-inside-1_214_4465" fill="white">
<path d="M56.0622 20.2976V46.555C56.0612 47.4683 55.6979 48.3439 55.0521 48.9897C54.4063 49.6355 53.5307 49.9988 52.6174 49.9998H4.44874C3.53475 49.9998 2.65815 49.637 2.0115 48.9911C1.36485 48.3452 1.00104 47.469 1 46.555V12.8827C1.00104 11.9687 1.36485 11.0926 2.0115 10.4466C2.65815 9.80072 3.53475 9.43799 4.44874 9.43799H48.6984"/>
</mask>
<path d="M59.5622 20.2976C59.5622 18.3646 57.9952 16.7976 56.0622 16.7976C54.1292 16.7976 52.5622 18.3646 52.5622 20.2976H59.5622ZM56.0622 46.555L59.5622 46.559V46.555H56.0622ZM52.6174 49.9998V53.4998L52.6214 53.4998L52.6174 49.9998ZM4.44874 49.9998V46.4998H4.44874L4.44874 49.9998ZM1 46.555H-2.5L-2.5 46.559L1 46.555ZM1 12.8827L-2.5 12.8787V12.8827H1ZM4.44874 9.43799L4.44874 12.938H4.44874V9.43799ZM48.6984 12.938C50.6314 12.938 52.1984 11.371 52.1984 9.43799C52.1984 7.50499 50.6314 5.93799 48.6984 5.93799V12.938ZM52.5622 20.2976V46.555H59.5622V20.2976H52.5622ZM52.5622 46.551C52.5622 46.5374 52.5677 46.5243 52.5772 46.5148L57.527 51.4645C58.8282 50.1634 59.5601 48.3992 59.5622 46.559L52.5622 46.551ZM52.5772 46.5148C52.5867 46.5053 52.5997 46.4999 52.6134 46.4998L52.6214 53.4998C54.4617 53.4977 56.2259 52.7656 57.527 51.4645L52.5772 46.5148ZM52.6174 46.4998H4.44874V53.4998H52.6174V46.4998ZM4.44874 46.4998C4.46237 46.4998 4.47539 46.5052 4.48496 46.5148L-0.46197 51.4674C0.840909 52.7688 2.60714 53.4998 4.44874 53.4998L4.44874 46.4998ZM4.48496 46.5148C4.49457 46.5244 4.49998 46.5374 4.5 46.551L-2.5 46.559C-2.49791 48.4005 -1.76488 50.1659 -0.46197 51.4674L4.48496 46.5148ZM4.5 46.555V12.8827H-2.5V46.555H4.5ZM4.5 12.8867C4.49998 12.9003 4.49457 12.9133 4.48496 12.9229L-0.46197 7.97036C-1.76488 9.27179 -2.49791 11.0372 -2.5 12.8787L4.5 12.8867ZM4.48496 12.9229C4.47521 12.9327 4.46212 12.938 4.44874 12.938L4.44874 5.93799C2.60739 5.93799 0.841085 6.66878 -0.46197 7.97036L4.48496 12.9229ZM4.44874 12.938H48.6984V5.93799H4.44874V12.938Z" fill="url(#paint1_linear_214_4465)" mask="url(#path-2-inside-1_214_4465)"/>
<path d="M57.0418 21.987C62.5611 21.987 67.0353 17.5128 67.0353 11.9935C67.0353 6.47424 62.5611 2 57.0418 2C51.5226 2 47.0483 6.47424 47.0483 11.9935C47.0483 17.5128 51.5226 21.987 57.0418 21.987Z" stroke="white" stroke-width="3.5" stroke-miterlimit="10"/>
<defs>
<linearGradient id="paint0_linear_214_4465" x1="1.92327" y1="15.3846" x2="54.0773" y2="26" gradientUnits="userSpaceOnUse">
<stop stop-color="#996BD6"/>
<stop offset="1" stop-color="#141518"/>
</linearGradient>
<linearGradient id="paint1_linear_214_4465" x1="1" y1="49.9999" x2="52.6418" y2="25.3736" gradientUnits="userSpaceOnUse">
<stop stop-color="#A170E2"/>
<stop offset="1" stop-color="#141518"/>
</linearGradient>
</defs>
</svg>
