<svg width="62" height="54" viewBox="0 0 62 54" fill="none" xmlns="http://www.w3.org/2000/svg">
<path d="M31.0343 23.9806C37.1041 23.9806 42.0246 19.0601 42.0246 12.9903C42.0246 6.92054 37.1041 2 31.0343 2C24.9645 2 20.0439 6.92054 20.0439 12.9903C20.0439 19.0601 24.9645 23.9806 31.0343 23.9806Z" stroke="white" stroke-width="3" stroke-miterlimit="10"/>
<path d="M12.8582 51.9997V41.6768C12.8576 40.7451 13.0408 39.8224 13.3971 38.9615C13.7534 38.1006 14.2759 37.3183 14.9347 36.6595C15.5935 36.0007 16.3757 35.4782 17.2366 35.1219C18.0975 34.7656 19.0202 34.5825 19.9519 34.583H41.9925C43.8739 34.583 45.6782 35.3303 47.0085 36.6607C48.3389 37.991 49.0863 39.7954 49.0863 41.6768V51.9997H32.1132" stroke="url(#paint0_angular_214_4454)" stroke-width="3" stroke-linecap="round"/>
<path d="M47.979 8.79004C49.8895 8.79004 51.7218 9.54895 53.0728 10.8999C54.4237 12.2508 55.1827 14.0831 55.1827 15.9937C55.1827 17.9042 54.4237 19.7365 53.0728 21.0874C51.7218 22.4384 49.8895 23.1974 47.979 23.1974" stroke="white" stroke-width="3" stroke-miterlimit="10"/>
<path d="M47.9592 30.147H55.1529C56.3856 30.147 57.5678 30.6367 58.4395 31.5084C59.3111 32.38 59.8008 33.5622 59.8008 34.7949V41.5609H55.081" stroke="white" stroke-width="3" stroke-miterlimit="10"/>
<path d="M13.8294 8.79004C11.9189 8.79004 10.0866 9.54895 8.73564 10.8999C7.38469 12.2508 6.62573 14.0831 6.62573 15.9937C6.62573 17.9042 7.38469 19.7365 8.73564 21.0874C10.0866 22.4384 11.9189 23.1974 13.8294 23.1974" stroke="white" stroke-width="3" stroke-miterlimit="10"/>
<path d="M13.8496 30.147H6.6559C6.04485 30.1459 5.4396 30.2654 4.87477 30.4985C4.30994 30.7316 3.79661 31.0738 3.36417 31.5055C2.93172 31.9373 2.58864 32.4499 2.35456 33.0144C2.12049 33.5788 2 34.1839 2 34.7949V41.561H6.72784" stroke="white" stroke-width="3" stroke-miterlimit="10"/>
<defs>
<radialGradient id="paint0_angular_214_4454" cx="0" cy="0" r="1" gradientUnits="userSpaceOnUse" gradientTransform="translate(29.1632 48.8748) rotate(148.241) scale(5.93706 3.19687)">
<stop offset="0.297942" stop-color="#141518"/>
<stop offset="0.468322" stop-color="#5BABF3"/>
<stop offset="0.872319" stop-color="#5BABF3"/>
</radialGradient>
</defs>
</svg>
