<svg width="231" height="169" viewBox="0 0 231 169" fill="none" xmlns="http://www.w3.org/2000/svg">
<g clip-path="url(#clip0_214_4099)">
<path d="M0.249642 152.99H0.732113C0.974729 152.99 1.23939 152.993 1.52612 152.999C1.81285 153.004 2.07753 153.007 2.32014 153.007H2.83294C4.10908 152.976 5.37655 153.224 6.5466 153.733C7.44452 154.152 8.17355 154.862 8.61434 155.748C9.08026 156.773 9.30383 157.891 9.26776 159.017C9.30757 160.207 9.06378 161.39 8.55645 162.468C8.08633 163.388 7.31627 164.122 6.37291 164.548C5.2019 165.048 3.93497 165.285 2.66201 165.241H0.230343C0.0759518 165.241 -0.00125342 165.153 -0.00125342 164.977V153.221C-0.00367494 153.19 0.000203997 153.159 0.0101471 153.129C0.0200902 153.099 0.0359068 153.072 0.0566536 153.048C0.0834067 153.026 0.114229 153.01 0.147353 153C0.180477 152.99 0.215245 152.987 0.249642 152.99V152.99ZM1.75495 154.196C1.64467 154.196 1.58954 154.273 1.58954 154.427V163.871C1.58954 163.992 1.6557 164.053 1.78804 164.053H2.41663C3.43168 164.089 4.44382 163.923 5.39418 163.566C6.12962 163.265 6.72765 162.703 7.07319 161.989C7.46815 161.078 7.65193 160.091 7.6108 159.099C7.66051 158.087 7.47165 157.078 7.0594 156.152C6.70606 155.455 6.10417 154.915 5.37213 154.639C4.45128 154.314 3.47815 154.163 2.5021 154.193L1.75495 154.196ZM12.5155 161.411C12.5099 161.929 12.6442 162.44 12.9042 162.889C13.1553 163.326 13.514 163.693 13.9464 163.954C14.3878 164.219 14.8949 164.357 15.4103 164.35C15.9215 164.359 16.4271 164.243 16.8826 164.011C17.3335 163.767 17.7149 163.412 17.9909 162.979C18.0195 162.946 18.0566 162.92 18.0984 162.905C18.1412 162.902 18.184 162.911 18.2225 162.93L18.9172 163.274C19.0165 163.329 19.0275 163.406 18.9503 163.505C18.6801 163.916 18.3471 164.282 17.9633 164.589C17.6062 164.869 17.1993 165.079 16.764 165.208C16.28 165.346 15.7785 165.413 15.2752 165.407C14.515 165.421 13.7654 165.227 13.1082 164.845C12.4773 164.468 11.9622 163.926 11.6195 163.277C11.2443 162.559 11.0566 161.758 11.0736 160.949C11.0494 160.093 11.2389 159.245 11.625 158.48C11.9684 157.82 12.4898 157.268 13.1303 156.887C13.7744 156.51 14.5094 156.316 15.2559 156.325C15.9913 156.308 16.7177 156.49 17.3568 156.854C17.9622 157.217 18.4458 157.751 18.7463 158.389C19.096 159.15 19.2658 159.98 19.2426 160.816C19.2425 160.894 19.2342 160.972 19.2177 161.048C19.2012 161.125 19.1268 161.163 18.9944 161.163H12.6589C12.6357 161.164 12.6133 161.172 12.5943 161.185C12.5752 161.198 12.5603 161.216 12.5513 161.238C12.5243 161.291 12.5115 161.351 12.5141 161.411H12.5155ZM17.5773 160.255C17.6569 160.264 17.7373 160.25 17.8089 160.214C17.842 160.186 17.8585 160.123 17.8585 160.024C17.8614 159.563 17.7566 159.108 17.5525 158.695C17.3551 158.29 17.0523 157.945 16.6758 157.696C16.2648 157.434 15.7845 157.302 15.2973 157.316C14.764 157.298 14.2383 157.445 13.792 157.737C13.3884 158.013 13.0681 158.394 12.8656 158.838C12.6576 159.282 12.5503 159.767 12.5513 160.258L17.5773 160.255ZM22.5813 164.961C22.5858 165.001 22.582 165.041 22.5702 165.079C22.5583 165.118 22.5386 165.153 22.5123 165.184C22.4441 165.229 22.3623 165.249 22.2807 165.241H21.4206C21.2551 165.241 21.1724 165.164 21.1724 165.01L21.189 153.221C21.189 153.067 21.2552 152.99 21.3875 152.99H22.38C22.5123 152.99 22.5785 153.062 22.5785 153.205L22.5813 164.961ZM26.4934 164.961C26.5026 165.04 26.4819 165.119 26.4355 165.184C26.3652 165.231 26.28 165.252 26.1957 165.241H25.352C25.282 165.25 25.2114 165.232 25.1535 165.192C25.1145 165.14 25.0967 165.075 25.1039 165.01V156.722C25.1039 156.568 25.1701 156.491 25.3024 156.491H26.3115C26.4328 156.491 26.4934 156.562 26.4934 156.705V164.961ZM26.5624 154.608C26.5624 154.817 26.4631 154.922 26.2646 154.922H25.3052C25.2685 154.927 25.2312 154.923 25.1965 154.91C25.1619 154.897 25.131 154.876 25.1067 154.848C25.0703 154.785 25.053 154.714 25.057 154.641V153.254C25.057 153.078 25.1342 152.99 25.2886 152.99H26.3308C26.4852 152.99 26.5624 153.073 26.5624 153.238V154.608ZM29.2959 165.241C29.2585 165.245 29.2208 165.241 29.1851 165.229C29.1495 165.217 29.1168 165.198 29.0891 165.173C29.0465 165.116 29.0259 165.045 29.0312 164.975V153.221C29.0312 153.067 29.0974 152.99 29.2297 152.99H30.2553C30.3656 152.99 30.4208 153.067 30.4208 153.221V157.267C30.4208 157.388 30.4437 157.451 30.4897 157.456C30.5356 157.462 30.5963 157.432 30.6717 157.366C30.8248 157.222 30.9879 157.09 31.1596 156.969C31.4301 156.781 31.7251 156.631 32.0364 156.524C32.4487 156.383 32.8827 156.316 33.3184 156.325C34.0281 156.296 34.7271 156.505 35.3034 156.92C35.8363 157.336 36.2406 157.894 36.4696 158.53C36.7384 159.262 36.8701 160.037 36.8583 160.816C36.9235 162.014 36.5729 163.198 35.8658 164.168C35.533 164.578 35.1078 164.904 34.6249 165.12C34.142 165.335 33.615 165.433 33.0868 165.407C32.6416 165.418 32.1988 165.338 31.7855 165.173C31.4626 165.041 31.1636 164.857 30.9005 164.628C30.7148 164.467 30.5433 164.29 30.3877 164.099C30.3417 164.044 30.3031 164.021 30.2719 164.031C30.2406 164.04 30.2177 164.078 30.203 164.146L30.1203 164.972C30.1205 165.009 30.1129 165.047 30.0978 165.081C30.0827 165.116 30.0606 165.147 30.0328 165.172C30.005 165.197 29.9721 165.217 29.9364 165.229C29.9006 165.241 29.8628 165.245 29.8253 165.241H29.2959ZM30.4208 162.283C30.4179 162.67 30.5364 163.048 30.7599 163.365C30.9865 163.69 31.2906 163.954 31.6449 164.132C31.997 164.317 32.3887 164.413 32.7863 164.413C33.2593 164.42 33.7243 164.291 34.1262 164.042C34.5522 163.759 34.8813 163.353 35.069 162.878C35.3211 162.231 35.4383 161.54 35.4137 160.847C35.4693 159.935 35.2442 159.027 34.7685 158.246C34.5607 157.947 34.28 157.707 33.9529 157.546C33.6259 157.386 33.2632 157.311 32.8993 157.33C32.405 157.324 31.9176 157.446 31.485 157.685C31.0792 157.906 30.7175 158.2 30.418 158.552L30.4208 162.283ZM39.8414 161.408C39.8358 161.927 39.9701 162.437 40.2301 162.886C40.4813 163.323 40.8399 163.69 41.2723 163.951C41.7137 164.217 42.2208 164.354 42.7362 164.347C43.2474 164.356 43.753 164.24 44.2085 164.009C44.6595 163.764 45.0408 163.409 45.3168 162.977C45.3454 162.943 45.3825 162.917 45.4243 162.902C45.4671 162.9 45.51 162.908 45.5484 162.927L46.2431 163.271C46.3424 163.326 46.3534 163.403 46.2762 163.502C46.0071 163.914 45.675 164.281 45.292 164.589C44.9349 164.869 44.528 165.079 44.0927 165.208C43.6087 165.346 43.1072 165.413 42.6039 165.407C41.8437 165.421 41.0941 165.227 40.4369 164.845C39.806 164.468 39.2909 163.926 38.9481 163.277C38.573 162.559 38.3852 161.758 38.4023 160.949C38.3781 160.093 38.5675 159.245 38.9536 158.48C39.2971 157.82 39.8184 157.268 40.459 156.887C41.103 156.51 41.8381 156.316 42.5846 156.325C43.32 156.308 44.0463 156.49 44.6854 156.854C45.2919 157.216 45.7765 157.751 46.0777 158.389C46.4274 159.15 46.5972 159.98 46.574 160.816C46.5739 160.894 46.5656 160.972 46.5492 161.048C46.5326 161.125 46.4582 161.163 46.3258 161.163H39.9903C39.9671 161.164 39.9447 161.172 39.9257 161.185C39.9067 161.198 39.8918 161.216 39.8828 161.238C39.8543 161.291 39.84 161.351 39.8414 161.411V161.408ZM44.9032 160.252C44.9828 160.261 45.0633 160.247 45.1348 160.211C45.1679 160.184 45.1844 160.12 45.1844 160.021C45.1873 159.56 45.0826 159.105 44.8784 158.692C44.681 158.287 44.3782 157.942 44.0017 157.693C43.5907 157.432 43.1104 157.299 42.6232 157.313C42.09 157.296 41.5642 157.443 41.1179 157.734C40.7143 158.01 40.394 158.391 40.1915 158.835C39.9835 159.28 39.8762 159.764 39.8772 160.255L44.9032 160.252ZM48.7327 165.241C48.7013 165.244 48.6698 165.24 48.64 165.23C48.6102 165.22 48.5826 165.204 48.559 165.184C48.5392 165.163 48.5239 165.138 48.5139 165.111C48.504 165.084 48.4996 165.056 48.5011 165.027V156.702C48.5011 156.559 48.5618 156.488 48.6831 156.488H49.6425C49.6672 156.484 49.6925 156.486 49.7162 156.494C49.7399 156.502 49.7614 156.515 49.7791 156.533C49.7968 156.551 49.8101 156.572 49.8179 156.596C49.8258 156.62 49.828 156.645 49.8245 156.669V157.743C49.8245 157.809 49.841 157.847 49.8741 157.858C49.9072 157.869 49.9513 157.846 50.0064 157.789C50.2591 157.481 50.5448 157.202 50.8583 156.956C51.1162 156.753 51.4035 156.591 51.7102 156.474C51.9855 156.372 52.2767 156.318 52.5704 156.317C52.9564 156.317 53.1494 156.389 53.1494 156.532V157.523C53.1494 157.633 53.0998 157.677 53.0005 157.655C52.9013 157.644 52.7882 157.633 52.6614 157.622C52.5346 157.611 52.3995 157.605 52.2561 157.605C51.9896 157.61 51.7261 157.663 51.4787 157.762C51.2013 157.867 50.9418 158.015 50.7095 158.199C50.4818 158.376 50.2836 158.588 50.1222 158.827C49.975 159.033 49.8942 159.278 49.8906 159.531V164.994C49.8955 165.027 49.8924 165.062 49.8816 165.094C49.8709 165.126 49.8527 165.156 49.8287 165.18C49.8046 165.204 49.7752 165.222 49.7429 165.232C49.7106 165.243 49.6762 165.246 49.6425 165.241H48.7327ZM59.7607 164.185C59.3755 164.565 58.9243 164.873 58.429 165.093C57.9191 165.308 57.3698 165.415 56.8162 165.407C56.0815 165.449 55.3578 165.213 54.7898 164.746C54.5473 164.529 54.3557 164.261 54.2285 163.961C54.1013 163.661 54.0416 163.338 54.0537 163.012C54.0405 162.466 54.2157 161.932 54.55 161.499C54.9383 161.036 55.4466 160.689 56.0194 160.495C56.7914 160.223 57.6001 160.07 58.418 160.04L59.7083 159.941C59.7728 159.93 59.8345 159.907 59.8902 159.873C59.9192 159.853 59.9422 159.825 59.9568 159.793C59.9713 159.761 59.9769 159.726 59.9729 159.691V159.245C59.9864 158.984 59.9442 158.724 59.8492 158.48C59.7541 158.237 59.6084 158.016 59.4215 157.833C59.0099 157.471 58.4725 157.285 57.9245 157.313C57.4648 157.307 57.0114 157.421 56.6094 157.644C56.1877 157.891 55.8277 158.231 55.5563 158.637C55.5263 158.678 55.49 158.714 55.4487 158.744C55.4035 158.76 55.3539 158.757 55.3109 158.736L54.4149 158.439C54.3832 158.418 54.3575 158.39 54.3404 158.356C54.3239 158.323 54.3377 158.263 54.3818 158.175C54.7125 157.602 55.1966 157.134 55.7796 156.821C56.4609 156.472 57.2198 156.302 57.9852 156.325C58.6172 156.305 59.2462 156.42 59.8296 156.664C60.2922 156.865 60.6799 157.205 60.9379 157.638C61.196 158.1 61.3246 158.623 61.3101 159.152V164.999C61.3185 165.069 61.3008 165.14 61.2605 165.197C61.214 165.235 61.1546 165.253 61.095 165.247H60.2514C60.2197 165.25 60.1879 165.245 60.1589 165.232C60.1299 165.219 60.1048 165.198 60.086 165.173C60.049 165.115 60.0255 165.05 60.0171 164.983L60.0005 164.226C59.9711 164.066 59.8902 164.053 59.7579 164.185H59.7607ZM59.9757 161.048C59.9757 160.861 59.8985 160.772 59.7441 160.783L58.6523 160.883C58.1947 160.897 57.74 160.961 57.2959 161.072C56.9422 161.159 56.6026 161.296 56.2869 161.477C56.0341 161.62 55.8188 161.821 55.6583 162.063C55.5122 162.298 55.4375 162.571 55.4432 162.847C55.4324 163.062 55.4724 163.277 55.5601 163.473C55.6477 163.67 55.7805 163.843 55.9477 163.978C56.3423 164.266 56.8244 164.409 57.3125 164.383C57.6605 164.384 58.0056 164.319 58.3298 164.193C58.6372 164.076 58.9242 163.912 59.1803 163.706C59.4093 163.524 59.6076 163.307 59.7676 163.062C59.8962 162.871 59.9679 162.648 59.9743 162.418L59.9757 161.048ZM65.8564 157.531C65.8384 157.528 65.8201 157.53 65.8029 157.536C65.7857 157.541 65.77 157.551 65.7572 157.564C65.7444 157.577 65.7347 157.592 65.7289 157.609C65.7232 157.627 65.7215 157.645 65.724 157.663V162.897C65.6805 163.263 65.7737 163.632 65.9859 163.934C66.094 164.029 66.2199 164.101 66.3562 164.146C66.4926 164.192 66.6367 164.209 66.78 164.199H67.9214C67.969 164.196 68.0159 164.211 68.0537 164.24C68.0715 164.258 68.0851 164.279 68.0937 164.303C68.1022 164.327 68.1055 164.352 68.1033 164.377L68.0868 164.939C68.0868 165.049 68.0206 165.12 67.8883 165.153C67.7324 165.18 67.5749 165.197 67.4168 165.203C67.2128 165.214 67.0143 165.222 66.8213 165.228C66.6283 165.233 66.4657 165.238 66.3333 165.241C66.0599 165.266 65.7845 165.235 65.5231 165.151C65.2618 165.068 65.0198 164.933 64.8115 164.754C64.4538 164.323 64.2805 163.768 64.329 163.211V157.696C64.3322 157.673 64.3302 157.651 64.323 157.629C64.3158 157.608 64.3037 157.588 64.2877 157.572C64.2716 157.556 64.252 157.544 64.2305 157.537C64.209 157.53 64.186 157.528 64.1636 157.531H62.8402C62.8155 157.534 62.7903 157.532 62.7666 157.524C62.7428 157.516 62.7213 157.503 62.7036 157.485C62.686 157.468 62.6727 157.446 62.6648 157.423C62.6569 157.399 62.6547 157.374 62.6583 157.349V156.656C62.655 156.633 62.6571 156.61 62.6642 156.589C62.6714 156.567 62.6835 156.548 62.6996 156.532C62.7156 156.516 62.7352 156.504 62.7567 156.497C62.7783 156.489 62.8012 156.487 62.8237 156.491H64.2297C64.3069 156.491 64.3455 156.447 64.3455 156.359L64.5275 153.733C64.5385 153.59 64.5992 153.519 64.7095 153.519H65.5366C65.6689 153.519 65.7351 153.596 65.7351 153.75V156.359C65.7325 156.376 65.7342 156.395 65.74 156.412C65.7457 156.429 65.7554 156.445 65.7682 156.457C65.7811 156.47 65.7967 156.48 65.8139 156.486C65.8311 156.491 65.8494 156.493 65.8674 156.491H67.9517C68.073 156.491 68.1336 156.54 68.1336 156.639V157.349C68.1372 157.374 68.135 157.399 68.1271 157.423C68.1192 157.446 68.1059 157.468 68.0883 157.485C68.0706 157.503 68.049 157.516 68.0253 157.524C68.0016 157.532 67.9764 157.534 67.9517 157.531H65.8564ZM70.6287 161.411C70.6223 161.929 70.7556 162.44 71.0147 162.889C71.2658 163.326 71.6245 163.693 72.0568 163.954C72.4983 164.219 73.0053 164.357 73.5208 164.35C74.0319 164.359 74.5375 164.243 74.993 164.011C75.444 163.767 75.8254 163.412 76.1013 162.979C76.1299 162.946 76.167 162.92 76.2089 162.905C76.2517 162.902 76.2945 162.911 76.3329 162.93L77.0277 163.274C77.1269 163.329 77.138 163.406 77.0608 163.505C76.7914 163.916 76.4593 164.281 76.0765 164.589C75.7194 164.869 75.3125 165.079 74.8772 165.208C74.3933 165.346 73.8917 165.413 73.3885 165.407C72.6282 165.421 71.8786 165.227 71.2215 164.845C70.5905 164.468 70.0755 163.926 69.7327 163.277C69.3576 162.559 69.1698 161.758 69.1868 160.949C69.1626 160.093 69.3521 159.245 69.7382 158.48C70.0817 157.82 70.603 157.268 71.2435 156.887C71.8876 156.51 72.6226 156.316 73.3692 156.325C74.1046 156.308 74.8309 156.49 75.47 156.854C76.0764 157.216 76.5611 157.751 76.8623 158.389C77.212 159.15 77.3818 159.98 77.3585 160.816C77.3585 160.894 77.3501 160.972 77.3337 161.048C77.3172 161.125 77.2427 161.163 77.1104 161.163H70.7748C70.7517 161.164 70.7293 161.172 70.7103 161.185C70.6912 161.198 70.6763 161.216 70.6673 161.238C70.6388 161.291 70.6246 161.351 70.626 161.411H70.6287ZM75.6906 160.255C75.7701 160.264 75.8506 160.25 75.9221 160.214C75.9552 160.186 75.9718 160.123 75.9718 160.024C75.9747 159.563 75.8699 159.108 75.6657 158.695C75.4683 158.29 75.1655 157.945 74.789 157.696C74.378 157.434 73.8978 157.302 73.4105 157.316C72.8773 157.298 72.3515 157.445 71.9052 157.737C71.5016 158.013 71.1813 158.394 70.9789 158.838C70.7708 159.282 70.6635 159.767 70.6646 160.258L75.6906 160.255ZM90.377 167.966C90.2447 167.966 90.1785 167.894 90.1785 167.751L90.162 151.455C90.158 151.402 90.1727 151.349 90.2034 151.306C90.2213 151.288 90.243 151.275 90.2668 151.266C90.2906 151.258 90.316 151.254 90.3412 151.257H91.069C91.096 151.253 91.1235 151.255 91.1493 151.264C91.1751 151.273 91.1985 151.287 91.2178 151.306C91.237 151.325 91.2515 151.349 91.2602 151.375C91.2688 151.4 91.2713 151.428 91.2675 151.455V167.787C91.2711 167.812 91.2689 167.837 91.261 167.86C91.2531 167.884 91.2398 167.906 91.2222 167.923C91.2045 167.941 91.183 167.954 91.1592 167.962C91.1355 167.97 91.1103 167.972 91.0856 167.969L90.377 167.966ZM105.248 152.99H105.731C105.973 152.99 106.238 152.993 106.525 152.999C106.811 153.004 107.076 153.007 107.319 153.007H107.832C109.107 152.976 110.373 153.224 111.542 153.733C112.44 154.152 113.169 154.862 113.61 155.748C114.076 156.773 114.3 157.891 114.264 159.017C114.303 160.207 114.06 161.39 113.552 162.468C113.082 163.388 112.312 164.122 111.369 164.548C110.199 165.047 108.934 165.284 107.663 165.241H105.232C105.077 165.241 105 165.153 105 164.977V153.221C104.998 153.19 105.002 153.159 105.012 153.129C105.021 153.099 105.037 153.072 105.058 153.048C105.111 153.005 105.18 152.984 105.248 152.99V152.99ZM106.754 154.196C106.643 154.196 106.588 154.273 106.588 154.427V163.871C106.588 163.992 106.654 164.053 106.787 164.053H107.415C108.43 164.089 109.441 163.923 110.391 163.566C111.127 163.265 111.726 162.703 112.072 161.989C112.467 161.078 112.651 160.091 112.609 159.099C112.659 158.087 112.47 157.078 112.058 156.152C111.705 155.455 111.103 154.915 110.371 154.639C109.45 154.314 108.477 154.163 107.501 154.193L106.754 154.196ZM117.514 161.411C117.509 161.929 117.644 162.44 117.904 162.889C118.155 163.326 118.513 163.693 118.945 163.954C119.387 164.218 119.894 164.355 120.409 164.347C120.92 164.357 121.425 164.242 121.881 164.011C122.332 163.767 122.714 163.412 122.989 162.979C123.018 162.946 123.055 162.92 123.097 162.905C123.14 162.902 123.183 162.911 123.221 162.93L123.916 163.274C124.015 163.329 124.026 163.406 123.949 163.505C123.68 163.916 123.347 164.281 122.965 164.589C122.608 164.869 122.201 165.079 121.765 165.208C121.281 165.346 120.78 165.413 120.277 165.407C119.517 165.421 118.768 165.227 118.111 164.845C117.48 164.468 116.965 163.926 116.622 163.277C116.247 162.559 116.058 161.758 116.075 160.949C116.051 160.093 116.24 159.245 116.626 158.48C116.97 157.82 117.491 157.268 118.132 156.887C118.776 156.51 119.511 156.316 120.257 156.325C120.993 156.308 121.719 156.49 122.358 156.854C122.965 157.216 123.449 157.751 123.75 158.389C124.1 159.15 124.269 159.98 124.245 160.816C124.245 160.894 124.237 160.972 124.22 161.048C124.204 161.125 124.13 161.163 123.997 161.163H117.663C117.64 161.164 117.617 161.172 117.598 161.185C117.579 161.198 117.564 161.216 117.555 161.238C117.527 161.291 117.513 161.351 117.514 161.411V161.411ZM122.576 160.255C122.656 160.264 122.736 160.25 122.808 160.214C122.841 160.186 122.857 160.123 122.857 160.024C122.86 159.563 122.755 159.108 122.551 158.695C122.354 158.29 122.051 157.945 121.674 157.696C121.263 157.434 120.783 157.302 120.296 157.316C119.763 157.298 119.237 157.445 118.791 157.737C118.387 158.013 118.067 158.394 117.864 158.838C117.656 159.282 117.549 159.767 117.55 160.258L122.576 160.255ZM126.405 165.241C126.374 165.244 126.343 165.24 126.313 165.23C126.283 165.22 126.255 165.204 126.232 165.184C126.212 165.163 126.197 165.138 126.187 165.111C126.178 165.084 126.173 165.055 126.175 165.027V156.702C126.175 156.559 126.236 156.488 126.357 156.488H127.317C127.341 156.484 127.367 156.486 127.39 156.494C127.414 156.502 127.435 156.515 127.453 156.533C127.471 156.551 127.484 156.572 127.492 156.596C127.5 156.62 127.502 156.645 127.499 156.669V157.743C127.499 157.809 127.515 157.847 127.548 157.858C127.581 157.869 127.625 157.846 127.681 157.789C127.933 157.481 128.219 157.202 128.532 156.956C128.79 156.753 129.078 156.591 129.384 156.474C129.659 156.375 129.949 156.324 130.242 156.325C130.628 156.325 130.821 156.397 130.821 156.54V157.531C130.821 157.641 130.771 157.685 130.672 157.663C130.573 157.652 130.46 157.641 130.333 157.63C130.206 157.619 130.071 157.613 129.927 157.613C129.661 157.618 129.397 157.671 129.15 157.77C128.873 157.876 128.613 158.023 128.381 158.208C128.153 158.385 127.955 158.596 127.794 158.835C127.648 159.039 127.568 159.281 127.563 159.531V164.994C127.568 165.027 127.565 165.062 127.554 165.094C127.544 165.126 127.525 165.156 127.501 165.18C127.477 165.204 127.448 165.222 127.416 165.232C127.383 165.243 127.349 165.246 127.315 165.241H126.405ZM133.874 164.961C133.883 165.04 133.863 165.119 133.816 165.184C133.746 165.231 133.661 165.252 133.576 165.241H132.733C132.663 165.25 132.592 165.232 132.534 165.192C132.495 165.14 132.477 165.075 132.485 165.01V156.722C132.485 156.568 132.551 156.491 132.683 156.491H133.692C133.813 156.491 133.874 156.562 133.874 156.705V164.961ZM133.943 154.608C133.943 154.817 133.844 154.922 133.645 154.922H132.683C132.646 154.927 132.609 154.923 132.574 154.91C132.54 154.897 132.509 154.876 132.485 154.848C132.448 154.785 132.431 154.714 132.435 154.641V153.254C132.435 153.078 132.512 152.99 132.667 152.99H133.709C133.863 152.99 133.94 153.073 133.94 153.238L133.943 154.608ZM143.544 156.491C143.576 156.488 143.608 156.493 143.637 156.506C143.666 156.519 143.691 156.539 143.71 156.565C143.726 156.591 143.735 156.621 143.735 156.652C143.735 156.682 143.726 156.712 143.71 156.738L140.352 164.994C140.327 165.073 140.275 165.141 140.206 165.186C140.137 165.231 140.054 165.251 139.971 165.241H139.374C139.29 165.252 139.204 165.235 139.13 165.193C139.055 165.152 138.996 165.088 138.961 165.01L135.618 156.738C135.607 156.71 135.602 156.68 135.605 156.65C135.608 156.619 135.618 156.59 135.634 156.565C135.653 156.539 135.678 156.519 135.707 156.506C135.736 156.493 135.768 156.488 135.8 156.491H136.825C136.883 156.488 136.941 156.503 136.991 156.532C137.039 156.565 137.074 156.613 137.09 156.669L139.687 163.158C139.764 163.367 139.853 163.362 139.952 163.142L142.532 156.669C142.548 156.615 142.58 156.567 142.623 156.532C142.67 156.502 142.725 156.488 142.781 156.491H143.544ZM145.935 161.411C145.929 161.929 146.062 162.44 146.322 162.889C146.573 163.326 146.932 163.693 147.364 163.954C147.805 164.219 148.313 164.357 148.828 164.35C149.339 164.359 149.844 164.243 150.299 164.011C150.75 163.767 151.131 163.412 151.407 162.979C151.436 162.946 151.473 162.92 151.515 162.905C151.558 162.902 151.6 162.911 151.639 162.93L152.334 163.274C152.433 163.329 152.444 163.406 152.367 163.505C152.098 163.915 151.766 164.281 151.384 164.589C151.027 164.869 150.62 165.079 150.184 165.208C149.7 165.346 149.199 165.413 148.696 165.407C147.935 165.421 147.186 165.227 146.529 164.845C145.898 164.468 145.383 163.926 145.04 163.277C144.665 162.559 144.477 161.758 144.494 160.949C144.47 160.093 144.659 159.245 145.045 158.48C145.389 157.82 145.91 157.268 146.551 156.887C147.195 156.51 147.93 156.316 148.676 156.325C149.412 156.308 150.138 156.49 150.777 156.854C151.384 157.216 151.868 157.751 152.169 158.389C152.519 159.15 152.689 159.98 152.666 160.816C152.666 160.893 152.658 160.97 152.642 161.045C152.626 161.122 152.551 161.16 152.419 161.16H146.082C146.059 161.161 146.037 161.169 146.017 161.182C145.998 161.195 145.984 161.213 145.975 161.235C145.946 161.289 145.931 161.35 145.933 161.411H145.935ZM150.996 160.255C151.076 160.264 151.156 160.25 151.228 160.214C151.261 160.186 151.278 160.123 151.278 160.024C151.28 159.563 151.176 159.108 150.972 158.695C150.773 158.289 150.47 157.944 150.092 157.696C149.681 157.434 149.201 157.302 148.714 157.316C148.18 157.298 147.655 157.445 147.208 157.737C146.805 158.013 146.484 158.394 146.282 158.838C146.074 159.282 145.967 159.767 145.968 160.258L150.996 160.255ZM165.684 167.966C165.552 167.966 165.486 167.894 165.486 167.751L165.469 151.455C165.465 151.402 165.48 151.349 165.511 151.306C165.529 151.288 165.55 151.275 165.574 151.266C165.598 151.258 165.623 151.254 165.648 151.257H166.379C166.406 151.253 166.433 151.255 166.459 151.264C166.485 151.273 166.508 151.287 166.528 151.306C166.547 151.325 166.562 151.349 166.57 151.375C166.579 151.4 166.581 151.428 166.578 151.455V167.787C166.581 167.812 166.579 167.837 166.571 167.86C166.563 167.884 166.55 167.906 166.532 167.923C166.514 167.941 166.493 167.954 166.469 167.962C166.445 167.97 166.42 167.972 166.396 167.969L165.684 167.966ZM180.557 152.99H181.039C181.282 152.99 181.547 152.993 181.833 152.999C182.12 153.004 182.385 153.007 182.627 153.007H183.14C184.416 152.976 185.684 153.224 186.854 153.733C187.752 154.152 188.481 154.862 188.922 155.748C189.387 156.773 189.611 157.891 189.575 159.017C189.615 160.207 189.371 161.39 188.864 162.468C188.394 163.388 187.623 164.122 186.68 164.548C185.509 165.048 184.242 165.285 182.969 165.241H180.539C180.385 165.241 180.307 165.153 180.307 164.977V153.221C180.305 153.19 180.309 153.159 180.319 153.129C180.329 153.099 180.344 153.072 180.365 153.048C180.419 153.004 180.488 152.983 180.557 152.99V152.99ZM182.062 154.196C181.952 154.196 181.897 154.273 181.897 154.427V163.871C181.897 163.992 181.963 164.053 182.095 164.053H182.724C183.739 164.089 184.751 163.923 185.701 163.566C186.437 163.265 187.035 162.703 187.38 161.989C187.775 161.078 187.959 160.091 187.918 159.099C187.968 158.087 187.779 157.078 187.367 156.152C187.013 155.455 186.411 154.915 185.679 154.639C184.758 154.314 183.785 154.163 182.809 154.193L182.062 154.196ZM192.821 161.411C192.816 161.929 192.95 162.44 193.21 162.889C193.461 163.326 193.82 163.693 194.252 163.954C194.694 164.219 195.201 164.357 195.716 164.35C196.227 164.359 196.733 164.243 197.188 164.011C197.639 163.767 198.021 163.412 198.297 162.979C198.325 162.946 198.362 162.92 198.404 162.905C198.447 162.902 198.49 162.911 198.528 162.93L199.223 163.274C199.322 163.329 199.333 163.406 199.256 163.505C198.986 163.916 198.654 164.281 198.271 164.589C197.913 164.869 197.506 165.079 197.071 165.208C196.587 165.346 196.086 165.413 195.582 165.407C194.822 165.421 194.073 165.227 193.415 164.845C192.784 164.468 192.269 163.926 191.927 163.277C191.552 162.559 191.364 161.758 191.381 160.949C191.357 160.093 191.546 159.245 191.932 158.48C192.276 157.82 192.797 157.268 193.437 156.887C194.082 156.51 194.817 156.316 195.563 156.325C196.299 156.308 197.025 156.49 197.664 156.854C198.269 157.217 198.753 157.751 199.053 158.389C199.403 159.15 199.573 159.98 199.55 160.816C199.55 160.894 199.541 160.972 199.525 161.048C199.508 161.125 199.434 161.163 199.302 161.163H192.97C192.947 161.164 192.925 161.172 192.906 161.185C192.887 161.198 192.872 161.216 192.863 161.238C192.834 161.291 192.82 161.351 192.821 161.411ZM197.883 160.255C197.963 160.264 198.043 160.25 198.115 160.214C198.148 160.186 198.164 160.123 198.164 160.024C198.167 159.563 198.062 159.108 197.858 158.695C197.661 158.29 197.358 157.945 196.982 157.696C196.571 157.434 196.09 157.302 195.603 157.316C195.07 157.298 194.544 157.445 194.098 157.737C193.694 158.012 193.373 158.392 193.17 158.835C192.962 159.28 192.855 159.764 192.856 160.255H197.883ZM206.741 158.422C206.506 158.079 206.187 157.801 205.815 157.613C205.374 157.394 204.885 157.286 204.392 157.3C203.872 157.28 203.358 157.412 202.912 157.679C202.732 157.783 202.583 157.932 202.48 158.112C202.376 158.292 202.323 158.496 202.325 158.703C202.329 158.946 202.423 159.178 202.589 159.355C202.895 159.631 203.264 159.827 203.665 159.925L205.765 160.552C206.392 160.685 206.965 161.001 207.411 161.46C207.742 161.84 207.921 162.328 207.916 162.831C207.925 163.322 207.761 163.801 207.453 164.185C207.115 164.591 206.675 164.901 206.179 165.085C205.593 165.307 204.97 165.417 204.343 165.407C203.551 165.425 202.767 165.246 202.061 164.886C201.478 164.604 200.993 164.152 200.67 163.59C200.641 163.546 200.624 163.495 200.621 163.442C200.623 163.417 200.632 163.393 200.646 163.372C200.661 163.352 200.681 163.336 200.704 163.326L201.349 162.963C201.392 162.933 201.445 162.918 201.498 162.922C201.517 162.923 201.537 162.929 201.554 162.939C201.571 162.949 201.586 162.963 201.597 162.979C201.777 163.258 201.997 163.508 202.25 163.722C202.516 163.941 202.82 164.109 203.146 164.218C203.538 164.346 203.949 164.407 204.362 164.399C204.749 164.394 205.134 164.332 205.503 164.218C205.811 164.128 206.091 163.96 206.314 163.731C206.508 163.529 206.614 163.259 206.612 162.979C206.611 162.833 206.578 162.688 206.514 162.556C206.451 162.424 206.359 162.307 206.245 162.214C205.871 161.938 205.443 161.743 204.988 161.645L203.284 161.163C202.63 161.035 202.025 160.725 201.539 160.269C201.208 159.908 201.022 159.437 201.018 158.948C201.008 158.455 201.159 157.972 201.448 157.572C201.757 157.164 202.172 156.847 202.647 156.656C203.206 156.427 203.805 156.314 204.409 156.325C205.091 156.313 205.768 156.457 206.386 156.747C206.919 156.989 207.375 157.375 207.701 157.861C207.73 157.896 207.748 157.939 207.75 157.985C207.748 158.007 207.741 158.028 207.729 158.047C207.717 158.066 207.701 158.081 207.681 158.092L206.987 158.472C206.949 158.493 206.906 158.502 206.863 158.497C206.815 158.485 206.773 158.459 206.741 158.422V158.422ZM211.315 164.958C211.324 165.037 211.304 165.116 211.257 165.181C211.187 165.228 211.102 165.249 211.017 165.239H210.174C210.104 165.247 210.033 165.229 209.975 165.189C209.936 165.137 209.918 165.072 209.926 165.008V156.722C209.926 156.568 209.992 156.491 210.124 156.491H211.133C211.255 156.491 211.315 156.562 211.315 156.705V164.958ZM211.384 154.606C211.384 154.815 211.285 154.919 211.086 154.919H210.126C210.089 154.924 210.052 154.92 210.017 154.907C209.982 154.894 209.951 154.873 209.927 154.845C209.891 154.783 209.873 154.711 209.877 154.639V153.252C209.877 153.076 209.955 152.987 210.109 152.987H211.151C211.306 152.987 211.383 153.07 211.383 153.235L211.384 154.606ZM221.781 156.339C221.866 156.333 221.952 156.357 222.021 156.408C222.047 156.434 222.067 156.465 222.08 156.499C222.093 156.533 222.098 156.57 222.095 156.606V157.184C222.1 157.268 222.074 157.35 222.021 157.415C221.986 157.446 221.945 157.468 221.901 157.48C221.856 157.492 221.809 157.493 221.764 157.484C221.609 157.482 221.454 157.493 221.301 157.517C221.165 157.54 221.031 157.579 220.904 157.633C220.639 157.732 220.529 157.858 220.573 158.012C220.628 158.133 220.689 158.279 220.755 158.45C220.829 158.671 220.863 158.904 220.854 159.138C220.858 159.608 220.726 160.07 220.474 160.467C220.184 160.898 219.772 161.233 219.291 161.43C218.649 161.693 217.958 161.816 217.265 161.793C216.821 161.784 216.378 161.817 215.941 161.892C215.698 161.927 215.466 162.018 215.263 162.157C215.207 162.196 215.159 162.247 215.125 162.306C215.091 162.366 215.07 162.432 215.065 162.501C215.065 162.677 215.183 162.803 215.42 162.88C215.796 162.979 216.182 163.034 216.57 163.045L218.707 163.161C219.477 163.146 220.23 163.39 220.843 163.855C221.067 164.056 221.243 164.303 221.361 164.58C221.478 164.857 221.533 165.156 221.522 165.456C221.528 165.85 221.429 166.239 221.235 166.583C221.041 166.927 220.76 167.213 220.419 167.413C219.463 167.947 218.373 168.197 217.279 168.131C216.178 168.192 215.08 167.985 214.078 167.528C213.747 167.377 213.467 167.134 213.271 166.828C213.075 166.522 212.973 166.166 212.975 165.803C212.975 165.416 213.121 165.044 213.383 164.76C213.708 164.412 214.099 164.131 214.533 163.934C214.654 163.879 214.654 163.819 214.533 163.753C214.317 163.662 214.124 163.524 213.97 163.348C213.838 163.188 213.767 162.986 213.772 162.779C213.775 162.613 213.827 162.453 213.921 162.316C214.037 162.145 214.186 162 214.359 161.887C214.578 161.743 214.814 161.627 215.062 161.543C215.128 161.521 215.161 161.493 215.161 161.46C215.161 161.427 215.134 161.389 215.078 161.345C214.644 161.146 214.272 160.832 214.003 160.437C213.764 160.043 213.644 159.589 213.659 159.13C213.644 158.737 213.725 158.348 213.895 157.994C214.065 157.64 214.319 157.333 214.635 157.099C215.449 156.556 216.42 156.295 217.397 156.356C217.892 156.345 218.387 156.412 218.861 156.554C219.232 156.669 219.577 156.854 219.878 157.099C219.928 157.146 219.992 157.176 220.06 157.181C220.092 157.179 220.123 157.171 220.151 157.157C220.18 157.143 220.205 157.123 220.226 157.099C220.367 156.971 220.516 156.852 220.672 156.744C220.84 156.627 221.02 156.53 221.21 156.455C221.39 156.381 221.583 156.343 221.778 156.342L221.781 156.339ZM217.265 160.913C217.877 160.961 218.486 160.794 218.988 160.442C219.177 160.278 219.326 160.073 219.424 159.843C219.521 159.612 219.564 159.363 219.55 159.113C219.563 158.857 219.519 158.601 219.422 158.363C219.325 158.125 219.177 157.912 218.988 157.737C218.495 157.363 217.882 157.184 217.265 157.234C216.652 157.194 216.046 157.373 215.553 157.737C215.353 157.905 215.195 158.116 215.09 158.355C214.986 158.594 214.937 158.853 214.949 159.113C214.936 159.367 214.984 159.62 215.089 159.851C215.194 160.082 215.353 160.285 215.553 160.442C216.054 160.786 216.655 160.952 217.262 160.916L217.265 160.913ZM215.806 164.168C215.574 164.166 215.346 164.225 215.145 164.342C214.898 164.472 214.679 164.648 214.5 164.862C214.314 165.077 214.214 165.353 214.218 165.638C214.216 165.801 214.247 165.963 214.308 166.115C214.369 166.266 214.459 166.405 214.574 166.521C214.874 166.803 215.246 166.997 215.649 167.082C216.232 167.221 216.829 167.284 217.427 167.272C218.145 167.314 218.862 167.175 219.512 166.868C219.737 166.749 219.923 166.568 220.049 166.348C220.175 166.127 220.235 165.875 220.223 165.621C220.229 165.454 220.199 165.288 220.134 165.134C220.07 164.979 219.974 164.841 219.851 164.727C219.481 164.454 219.029 164.314 218.569 164.331L215.806 164.168ZM224.019 165.241C223.865 165.241 223.788 165.17 223.788 165.027V156.702C223.788 156.559 223.848 156.488 223.97 156.488H224.962C224.987 156.484 225.012 156.486 225.036 156.494C225.06 156.502 225.081 156.515 225.099 156.533C225.117 156.551 225.13 156.572 225.138 156.596C225.146 156.62 225.148 156.645 225.144 156.669V157.627C225.144 157.682 225.155 157.715 225.177 157.726C225.199 157.737 225.238 157.721 225.293 157.677C225.657 157.39 225.996 157.146 226.31 156.942C226.61 156.745 226.934 156.59 227.275 156.48C227.618 156.373 227.975 156.32 228.334 156.323C228.693 156.299 229.054 156.348 229.394 156.467C229.734 156.586 230.046 156.773 230.311 157.016C230.542 157.254 230.722 157.536 230.84 157.846C230.959 158.155 231.013 158.485 231 158.816V164.977C231 165.153 230.917 165.241 230.752 165.241H229.826C229.795 165.244 229.765 165.241 229.736 165.231C229.708 165.221 229.682 165.205 229.66 165.184C229.625 165.139 229.607 165.083 229.611 165.027V159.132C229.638 158.674 229.49 158.223 229.197 157.869C229.024 157.705 228.817 157.58 228.591 157.502C228.365 157.423 228.126 157.394 227.887 157.415C227.58 157.413 227.275 157.466 226.986 157.572C226.685 157.687 226.399 157.836 226.134 158.018C225.801 158.246 225.481 158.491 225.175 158.753V164.994C225.179 165.027 225.176 165.062 225.166 165.094C225.155 165.126 225.137 165.156 225.113 165.18C225.089 165.204 225.059 165.222 225.027 165.232C224.995 165.243 224.96 165.246 224.926 165.241H224.019Z" fill="white"/>
<path d="M224.647 110.318C223.791 108.929 222.592 107.783 221.165 106.991C219.251 105.936 217.203 105.143 215.077 104.634C212.589 103.979 210.894 103.3 209.958 102.593C209.492 102.228 209.123 101.754 208.883 101.213C208.642 100.673 208.538 100.082 208.58 99.4918C208.556 98.8269 208.678 98.165 208.937 97.5518C209.195 96.9386 209.584 96.3888 210.077 95.9405C211.247 94.9773 212.738 94.4904 214.253 94.577C215.047 94.5543 215.837 94.6941 216.575 94.9878C217.313 95.2814 217.983 95.7227 218.544 96.2845C219.089 96.8111 219.521 97.4429 219.814 98.1414C220.107 98.8399 220.254 99.5904 220.248 100.348V100.474H225.514V100.348C225.559 98.9022 225.304 97.4632 224.767 96.1204C224.229 94.7776 223.42 93.5599 222.389 92.5434C220.315 90.507 217.578 89.4971 214.256 89.4971C212.819 89.448 211.386 89.6836 210.04 90.1903C208.695 90.697 207.463 91.4647 206.416 92.4491C205.425 93.3738 204.64 94.4957 204.11 95.7424C203.581 96.989 203.32 98.3327 203.343 99.6864C203.304 101.235 203.677 102.766 204.424 104.124C205.243 105.461 206.391 106.567 207.759 107.337C209.654 108.387 211.69 109.16 213.805 109.633C216.33 110.265 218.071 111.009 219.066 111.871C219.567 112.323 219.959 112.88 220.215 113.503C220.471 114.126 220.584 114.798 220.545 115.47C220.566 116.143 220.427 116.811 220.139 117.419C219.85 118.028 219.421 118.559 218.887 118.969C217.591 119.902 216.016 120.367 214.42 120.289C212.641 120.371 210.899 119.764 209.556 118.595C208.936 118.001 208.442 117.288 208.104 116.5C207.766 115.711 207.59 114.862 207.588 114.004V113.885H202.341V114.011C202.332 116.021 202.864 117.997 203.882 119.732C204.892 121.475 206.37 122.903 208.15 123.852C210.081 124.86 212.234 125.367 214.413 125.325C217.754 125.325 220.514 124.382 222.615 122.521C223.659 121.587 224.484 120.435 225.032 119.146C225.58 117.858 225.837 116.466 225.785 115.067C225.835 113.411 225.442 111.772 224.647 110.318Z" fill="white"/>
<path d="M10.3891 76.7009H5.00537V125.326H10.3891V76.7009Z" fill="white"/>
<path d="M44.0782 125.325H38.6896V104.979C38.6842 102.302 37.6163 99.7361 35.7199 97.8431C33.8234 95.9502 31.2528 94.8844 28.5708 94.8789H28.4605C25.7785 94.8844 23.2079 95.9502 21.3114 97.8431C19.415 99.7361 18.3471 102.302 18.3417 104.979V125.326H12.9531V104.979C12.9579 100.875 14.5931 96.9398 17.5003 94.0373C20.4075 91.1347 24.3493 89.5014 28.4612 89.4956H28.5625C32.6752 89.5003 36.618 91.1331 39.5261 94.0358C42.4342 96.9384 44.07 100.874 44.0747 104.979L44.0782 125.325Z" fill="white"/>
<path d="M182.706 107.416C182.706 103.282 181.273 99.2745 178.649 96.0749C176.025 92.8754 172.373 90.6807 168.313 89.8637C164.252 89.0466 160.033 89.6573 156.372 91.5923C152.712 93.5273 149.835 96.6673 148.23 100.479C146.625 104.291 146.392 108.539 147.569 112.503C148.746 116.468 151.261 119.903 154.688 122.226C158.114 124.55 162.241 125.618 166.367 125.249C170.492 124.88 174.363 123.098 177.322 120.204V125.325H182.706V107.425V107.416ZM164.767 119.95C162.284 119.95 159.856 119.215 157.791 117.837C155.726 116.46 154.117 114.503 153.167 112.213C152.216 109.922 151.967 107.402 152.452 104.971C152.937 102.54 154.132 100.307 155.889 98.554C157.645 96.8012 159.882 95.6075 162.318 95.1239C164.753 94.6403 167.278 94.8885 169.573 95.8371C171.867 96.7857 173.828 98.3922 175.208 100.453C176.588 102.514 177.324 104.938 177.324 107.416C177.324 110.74 176.001 113.928 173.646 116.279C171.292 118.629 168.098 119.95 164.767 119.95V119.95Z" fill="white"/>
<path d="M144.005 103.397C143.02 99.1221 140.496 95.3567 136.913 92.8159C133.33 90.2752 128.937 89.1357 124.568 89.6139C120.199 90.0921 116.158 92.1547 113.212 95.4101C110.266 98.6655 108.62 102.887 108.586 107.274C108.552 111.661 110.133 115.907 113.028 119.208C115.924 122.508 119.932 124.633 124.294 125.178C128.655 125.723 133.064 124.652 136.686 122.166C140.308 119.681 142.89 115.955 143.941 111.695H138.323C137.394 114.248 135.661 116.43 133.383 117.914C131.104 119.397 128.405 120.103 125.691 119.923C122.977 119.744 120.394 118.69 118.332 116.919C116.27 115.148 114.839 112.757 114.256 110.105H144.259V105.668C144.261 104.904 144.176 104.142 144.005 103.397ZM114.255 104.738C114.868 101.947 116.418 99.449 118.649 97.6579C120.879 95.8668 123.656 94.8903 126.519 94.8903C129.381 94.8903 132.158 95.8668 134.388 97.6579C136.619 99.449 138.169 101.947 138.782 104.738H114.255Z" fill="white"/>
<path d="M201.06 89.5094H195.216V76.7009H189.83V89.5094H183.986V94.8831H189.83V125.325H195.216V94.8831H201.059L201.06 89.5094Z" fill="white"/>
<path d="M64.5834 119.95C61.2531 119.95 58.0593 118.629 55.7044 116.279C53.3496 113.928 52.0267 110.741 52.0267 107.416C52.0267 104.092 53.3496 100.905 55.7044 98.5541C58.0593 96.2037 61.2531 94.8832 64.5834 94.8832H70.1325V89.5095H64.5834C59.8258 89.5095 55.2631 91.3959 51.899 94.7538C48.535 98.1116 46.645 102.666 46.645 107.414C46.645 112.163 48.535 116.717 51.899 120.075C55.2631 123.433 59.8258 125.319 64.5834 125.319H70.1325V119.953L64.5834 119.95Z" fill="white"/>
<path d="M88.0727 89.5094C83.3746 89.5062 78.8639 91.3482 75.5153 94.6375V76.7009H70.1323V108.755H70.1875C70.4487 112.23 71.72 115.552 73.8454 118.316C75.9708 121.08 78.858 123.165 82.153 124.316C85.448 125.466 89.0077 125.632 92.3958 124.793C95.7838 123.954 98.8529 122.146 101.227 119.592C103.601 117.037 105.177 113.847 105.761 110.412C106.345 106.977 105.912 103.446 104.516 100.253C103.12 97.0592 100.82 94.3419 97.8994 92.4338C94.9786 90.5256 91.5635 89.5095 88.0727 89.5101V89.5094ZM88.0727 119.95C85.5893 119.95 83.1616 119.215 81.0966 117.837C79.0317 116.46 77.4222 114.503 76.4719 112.213C75.5215 109.922 75.2728 107.402 75.7573 104.971C76.2418 102.54 77.4377 100.307 79.1938 98.554C80.9499 96.8012 83.1873 95.6075 85.6231 95.1239C88.0588 94.6403 90.5836 94.8885 92.878 95.8371C95.1724 96.7857 97.1335 98.3921 98.5133 100.453C99.893 102.514 100.629 104.937 100.629 107.416C100.629 110.74 99.3065 113.928 96.9517 116.279C94.5969 118.629 91.403 119.95 88.0727 119.95Z" fill="white"/>
<path d="M94.3697 15.4436C103.109 3.96635 117.735 -5.26403 125.509 3.78747C132.81 12.292 117.165 16.4721 111.034 26.0533C106.64 32.9398 104.004 43.5881 110.804 49.2493C119.773 56.735 130.002 44.8395 127.666 42.2232C125.329 39.6068 119.274 50.4869 114.111 45.8432C108.327 40.6278 116.919 12.2742 136.966 26.8479C148.886 35.5162 142.217 54.2006 131.391 59.2302C120.566 64.2599 104.146 57.2214 99.2455 42.735C99.2455 42.735 99.4453 60.2092 91.7416 49.8258C84.2874 39.7761 87.6103 24.3272 94.3697 15.4436Z" fill="#F6DE4A"/>
</g>
<defs>
<clipPath id="clip0_214_4099">
<rect width="231" height="168" fill="white" transform="translate(0 0.130859)"/>
</clipPath>
</defs>
</svg>
