<svg width="56" height="56" viewBox="0 0 56 56" fill="none" xmlns="http://www.w3.org/2000/svg">
<path d="M13.8264 22.1616V12.5762C13.8264 12.2576 13.953 11.9521 14.1783 11.7268C14.4035 11.5016 14.7091 11.375 15.0277 11.375H20.6661C21.8963 11.3756 23.0889 11.7988 24.0443 12.5738L25.7285 13.9442C26.1239 14.2619 26.6161 14.4349 27.1234 14.4345H40.1163C40.2692 14.4342 40.4205 14.464 40.5618 14.5222C40.703 14.5805 40.8314 14.666 40.9396 14.774C41.0478 14.8819 41.1336 15.0101 41.1921 15.1512C41.2507 15.2924 41.2808 15.4437 41.2808 15.5965V22.1616" stroke="url(#paint0_linear_214_4484)" stroke-width="2.8" stroke-linejoin="round"/>
<path d="M42.5408 45.4996H12.7452C12.2587 45.4989 11.7895 45.3186 11.4276 44.9933C11.0657 44.6681 10.8366 44.2207 10.784 43.737L8.76154 25.135C8.73162 24.8594 8.76003 24.5806 8.8449 24.3167C8.92978 24.0528 9.06923 23.8097 9.2542 23.6033C9.43917 23.3968 9.66552 23.2316 9.91852 23.1183C10.1715 23.005 10.4455 22.9462 10.7227 22.9458H44.5535C44.8307 22.9462 45.1047 23.005 45.3578 23.1183C45.6108 23.2316 45.8371 23.3968 46.0221 23.6033C46.207 23.8097 46.3465 24.0528 46.4314 24.3167C46.5163 24.5806 46.5447 24.8594 46.5147 25.135L44.4922 43.737C44.4394 44.2189 44.2115 44.6645 43.8518 44.9895C43.4921 45.3144 43.0256 45.4959 42.5408 45.4996V45.4996Z" stroke="white" stroke-width="2.8" stroke-miterlimit="10"/>
<path d="M23.679 34.2236H32.095" stroke="url(#paint1_linear_214_4484)" stroke-width="2.8" stroke-linecap="round" stroke-linejoin="round"/>
<defs>
<linearGradient id="paint0_linear_214_4484" x1="27.5536" y1="11.375" x2="27.5536" y2="23.5925" gradientUnits="userSpaceOnUse">
<stop stop-color="#84D493"/>
<stop offset="0.496631" stop-color="#50A099"/>
<stop offset="1" stop-color="#141518"/>
</linearGradient>
<linearGradient id="paint1_linear_214_4484" x1="-nan" y1="-nan" x2="-nan" y2="-nan" gradientUnits="userSpaceOnUse">
<stop stop-color="#44BB93"/>
<stop offset="0.32" stop-color="#52BE92"/>
<stop offset="0.91" stop-color="#76C68F"/>
<stop offset="1" stop-color="#7CC78E"/>
</linearGradient>
</defs>
</svg>
