<svg width="47" height="47" viewBox="0 0 47 47" fill="none" xmlns="http://www.w3.org/2000/svg">
<g opacity="0.3" clip-path="url(#clip0_214_4219)">
<path d="M20.7408 10.6422L22.1765 13.8892L25.7169 13.6142L27.1526 16.8611L30.6921 16.5856L32.1278 19.8326L35.6673 19.5571L37.1039 22.8046L40.2926 22.5563C40.2671 22.0011 40.2144 21.4487 40.1347 20.8992L38.1512 21.0549L36.7152 17.8066L33.1752 18.083L31.74 14.8351L28.2 15.1115L26.7648 11.8636L23.2239 12.1395L21.7887 8.89165L18.2478 9.16749L17.4424 7.34483C16.9213 7.53555 16.4099 7.75142 15.908 7.99245L17.2022 10.9182L20.7408 10.6422Z" fill="white"/>
<path d="M33.5362 11.8236L29.9967 12.0991L28.561 8.85216L25.0207 9.12714L23.7751 6.3113C22.0216 6.26333 20.2715 6.48619 18.5865 6.97202L19.0002 7.90777L22.5411 7.63193L23.9762 10.8798L27.5172 10.6039L28.9523 13.8518L32.4923 13.5754L33.9275 16.8232L37.4675 16.5469L38.9036 19.7952L39.9228 19.7153C39.5506 18.001 38.9165 16.3542 38.0426 14.8327L34.9737 15.0716L33.5362 11.8236Z" fill="url(#paint0_linear_214_4219)"/>
<path d="M11.9813 35.9801C12.1939 36.1689 12.4119 36.3534 12.6352 36.5336L12.3773 35.949L11.9813 35.9801Z" fill="white"/>
<path d="M27.362 39.1195L25.9255 35.872L22.386 36.1475L20.9503 32.9005L17.4108 33.176L15.9751 29.929L12.4347 30.204L10.999 26.957L7.45862 27.232L6.36213 24.7526C6.48635 26.1729 6.78754 27.5722 7.25873 28.9181L9.95339 28.7078L11.3885 31.9556L14.9295 31.6798L16.3646 34.9276L19.9046 34.6512L21.3398 37.8991L24.8798 37.6227L25.9728 40.094C27.3801 39.8711 28.7538 39.4729 30.0618 38.9086L27.362 39.1195Z" fill="white"/>
<path d="M24.1257 38.8815L20.5856 39.1578L19.1505 35.91L15.6104 36.1864L14.1753 32.9385L10.6344 33.2144L9.1992 29.9665L7.71364 30.0819C8.47851 31.8429 9.53711 33.4613 10.8443 34.8681L13.1307 34.6875L14.5312 37.8539L14.654 37.9273L18.1059 37.6589L19.0301 39.7571C20.8883 40.241 22.815 40.406 24.7279 40.245L24.1257 38.8815Z" fill="url(#paint1_linear_214_4219)"/>
<path d="M16.7167 38.9702C16.9797 39.082 17.246 39.1863 17.5119 39.2833L17.3524 38.9204L16.7167 38.9702Z" fill="white"/>
<path d="M25.7726 7.86819L29.3135 7.59233L30.7487 10.8402L34.2887 10.5638L35.7239 13.8116L37.3211 13.6868C35.9313 11.6675 34.1222 9.97134 32.0173 8.71418C29.9124 7.45701 27.5613 6.66842 25.1244 6.40224L25.7726 7.86819Z" fill="white"/>
<path d="M32.6982 35.8316L29.1582 36.108L27.7221 32.8596L24.1821 33.136L22.7469 29.8881L19.2069 30.1645L17.7717 26.9167L14.2308 27.1925L12.7957 23.9447L9.25476 24.2205L7.8196 20.9727L6.43914 21.0795C6.36597 21.6372 6.32095 22.1982 6.30425 22.7604L6.77345 22.7243L8.20913 25.9712L11.7495 25.6963L13.1852 28.9432L16.7256 28.6682L18.1613 31.9152L21.7008 31.6397L23.1365 34.8867L26.676 34.6112L28.1143 37.8597L31.6538 37.5842L31.8436 38.014C32.3289 37.7329 32.8009 37.4276 33.2596 37.0982L32.6982 35.8316Z" fill="url(#paint2_linear_214_4219)"/>
<path d="M39.891 23.7889L36.3506 24.0698L34.914 20.8223L31.3728 21.0968L29.9371 17.8498L26.3976 18.1253L24.9619 14.8783L21.4215 15.1533L19.9858 11.9063L16.4454 12.1813L15.0098 8.93436L14.0971 9.00538C13.2457 9.55076 12.4453 10.1718 11.7056 10.8609L13.9641 10.6851L15.3993 13.9329L18.9402 13.6571L20.3754 16.9049L23.9163 16.6291L25.3515 19.8769L28.8915 19.6005L30.3266 22.8484L33.8667 22.572L35.3027 25.8203L38.8427 25.544L39.7579 27.6154C40.0141 26.6371 40.1815 25.6376 40.2582 24.6291L39.891 23.7889Z" fill="url(#paint3_linear_214_4219)"/>
<path d="M38.0929 26.7993L34.5546 27.0767L33.1186 23.8283L29.5785 24.1047L28.1434 20.8568L24.6033 21.1332L23.1682 17.8854L19.6273 18.1612L18.1921 14.9134L14.6512 15.1892L13.216 11.9414L10.456 12.1555C9.97015 12.7175 9.52138 13.3104 9.11255 13.9306L12.1699 13.693L13.6056 16.9399L17.146 16.665L18.5816 19.9119L22.122 19.637L23.5577 22.8839L27.0972 22.6084L28.5329 25.8554L32.0724 25.5799L33.509 28.8274L37.0485 28.5519L38.2877 31.3544C38.6406 30.7011 38.9497 30.0251 39.213 29.3308L38.0929 26.7993Z" fill="white"/>
<path d="M34.4964 32.8211L30.9576 33.0994L29.521 29.8519L25.9798 30.1263L24.5441 26.8794L21.0046 27.1549L19.5689 23.9079L16.0285 24.1829L14.5928 20.9359L11.0525 21.2109L9.61677 17.9639L7.08768 18.1602C6.90966 18.7204 6.76125 19.2896 6.64303 19.8654L8.57377 19.7102L10.0089 22.9581L13.5498 22.6822L14.985 25.9301L18.5259 25.6542L19.9611 28.9021L23.5011 28.6257L24.9363 31.8735L28.4763 31.5971L29.9104 34.8527L33.4505 34.5763L34.2316 36.344C34.6823 35.9672 35.1129 35.567 35.5216 35.1449L34.4964 32.8211Z" fill="white"/>
<path d="M36.2949 29.8099L32.7549 30.0863L31.3188 26.8379L27.7788 27.1143L26.3436 23.8664L22.8036 24.1428L21.3684 20.895L17.8275 21.1708L16.3923 17.923L12.8514 18.1988L11.4163 14.951L8.35614 15.1893C8.0497 15.7511 7.77525 16.3297 7.53409 16.9225L10.3701 16.7026L11.8053 19.9504L15.3462 19.6746L16.7814 22.9224L20.3223 22.6466L21.7575 25.8944L25.2975 25.618L26.7326 28.8659L30.2727 28.5895L31.7087 31.8379L35.2487 31.5615L36.3981 34.1617C36.8063 33.6688 37.1859 33.1529 37.5352 32.6167L36.2949 29.8099Z" fill="url(#paint4_linear_214_4219)"/>
</g>
<defs>
<linearGradient id="paint0_linear_214_4219" x1="12.8328" y1="1.86351" x2="40.6506" y2="18.4779" gradientUnits="userSpaceOnUse">
<stop stop-color="#44D4D4"/>
<stop offset="1" stop-color="#1A6A6A"/>
</linearGradient>
<linearGradient id="paint1_linear_214_4219" x1="1.93495" y1="28.0012" x2="24.1185" y2="41.2505" gradientUnits="userSpaceOnUse">
<stop stop-color="#44D4D4"/>
<stop offset="1" stop-color="#1A6A6A"/>
</linearGradient>
<linearGradient id="paint2_linear_214_4219" x1="-2.36749" y1="17.2935" x2="32.6004" y2="38.1783" gradientUnits="userSpaceOnUse">
<stop stop-color="#DE4E45"/>
<stop offset="1" stop-color="#FF9B95"/>
</linearGradient>
<linearGradient id="paint3_linear_214_4219" x1="3.8324" y1="4.66079" x2="40.4065" y2="26.5049" gradientUnits="userSpaceOnUse">
<stop stop-color="#DE4E45"/>
<stop offset="1" stop-color="#FF9B95"/>
</linearGradient>
<linearGradient id="paint4_linear_214_4219" x1="-0.668659" y1="10.1389" x2="37.3743" y2="32.8603" gradientUnits="userSpaceOnUse">
<stop stop-color="#44D4D4"/>
<stop offset="1" stop-color="#1A6A6A"/>
</linearGradient>
<clipPath id="clip0_214_4219">
<rect width="33.9882" height="33.9882" fill="white" transform="translate(17.428) rotate(30.848)"/>
</clipPath>
</defs>
</svg>
