<svg width="54" height="74" viewBox="0 0 54 74" fill="none" xmlns="http://www.w3.org/2000/svg">
<g opacity="0.3">
<path d="M47.2468 62.6382C41.6451 70.0863 28.6344 66.9334 28.6344 66.9334L2.86328 27.5609C2.86328 27.5609 13.6012 29.3506 21.1178 23.2657C28.6344 35.4354 37.8559 48.6104 47.2468 62.6382Z" fill="url(#paint0_linear_214_4432)"/>
<path d="M16.9131 17.7168C11.735 21.0556 5.83104 21.1599 3.75924 17.9468C1.68744 14.7338 4.21595 9.39834 9.39569 6.05841C14.5754 2.71847 20.4777 2.61526 22.5506 5.83001C24.6235 9.04475 22.0945 14.3757 16.9131 17.7168ZM9.94321 6.90752C5.22281 9.95127 2.82374 14.6623 4.59441 17.4083C6.36508 20.1543 11.6468 19.9103 16.3656 16.8676C21.0843 13.825 23.4861 9.11457 21.7155 6.36853C19.9448 3.6225 14.6636 3.86377 9.94321 6.90752Z" fill="white"/>
<path d="M44.0644 59.8242C38.8864 63.163 32.9824 63.2673 30.9095 60.0526L3.75928 17.9467L4.59445 17.4081L31.7447 59.5141C33.5153 62.2601 38.7982 62.0177 43.5169 58.9751C48.2356 55.9324 50.6364 51.2203 48.8657 48.4743L21.7155 6.36835L22.5507 5.82983L49.7009 47.9357C51.7738 51.1505 49.2458 56.4832 44.0644 59.8242Z" fill="white"/>
</g>
<defs>
<linearGradient id="paint0_linear_214_4432" x1="16.1945" y1="56.8455" x2="35.1922" y2="44.5348" gradientUnits="userSpaceOnUse">
<stop stop-color="#44D4D4"/>
<stop offset="1" stop-color="#1A6A6A"/>
</linearGradient>
</defs>
</svg>
