<svg width="140" height="17" viewBox="0 0 140 17" fill="none" xmlns="http://www.w3.org/2000/svg">
<path d="M6.7499 16.5191C6.70015 16.4232 6.66342 16.3217 6.64062 16.2171C6.36141 13.3744 6.36141 13.3744 9.31139 13.3744C12.9898 13.3744 16.6657 13.3744 20.3441 13.3744C22.0971 13.3744 23.0707 11.8712 22.1578 10.458C21.9392 10.1168 21.1866 9.94154 20.701 9.93232C17.7122 9.88621 14.7209 9.91157 11.7175 9.90696C11.2741 9.9116 10.8307 9.89313 10.3894 9.85163C5.89282 9.36518 5.49949 6.10753 6.41241 3.2787C6.92957 1.66487 8.48832 0.947862 10.1151 0.915585C15.1992 0.81645 20.2858 0.881012 25.4622 0.881012V4.09255H24.0321C19.992 4.09255 15.9519 4.09255 11.9093 4.10638C11.2295 4.10638 10.3773 3.95882 10.2365 4.98937C10.0738 6.19744 10.4161 6.6032 11.7539 6.6032C14.7865 6.61934 17.8238 6.58707 20.8467 6.62396C21.7337 6.62136 22.6174 6.72673 23.4762 6.9375C25.1976 7.3986 26.2416 8.50293 26.3897 10.2251C26.4869 11.1804 26.4869 12.1424 26.3897 13.0978C26.1469 15.1058 24.7217 16.496 22.3739 16.556C17.2484 16.6897 12.1157 16.6205 6.9854 16.6298C6.92228 16.6275 6.84216 16.5629 6.7499 16.5191Z" fill="#5D606E"/>
<path d="M89.9731 16.6297H72.8147V0.890137H89.9926V4.07401H76.8985V7.1426H89.3006V10.3703C88.866 10.391 88.4411 10.4325 88.0162 10.4325C84.7433 10.4325 81.4607 10.4809 78.1926 10.4118C77.0612 10.3864 76.6533 10.7161 76.7966 11.7674C76.8298 12.2941 76.8298 12.8222 76.7966 13.349H89.9634L89.9731 16.6297Z" fill="#5D606E"/>
<path d="M51.6356 16.6691C50.0477 16.6691 48.6832 16.7267 47.3308 16.6299C46.9642 16.6022 46.4956 16.1688 46.3135 15.8091C45.8279 14.8731 45.1311 14.6425 44.0846 14.6725C41.6251 14.744 39.1631 14.6956 36.689 14.6956C37.0678 12.6483 38.3012 11.627 40.331 11.627H43.4315L39.1364 5.28458C38.2745 6.5134 37.4927 7.61773 36.7085 8.72897C35.0623 11.0967 33.3991 13.4552 31.7942 15.8483C31.3718 16.48 30.8983 16.729 30.1214 16.6898C29.0045 16.6299 27.8828 16.6737 26.6033 16.6737C26.7278 16.386 26.8705 16.1058 27.0306 15.8345C30.4119 11.0621 33.799 6.29285 37.1916 1.52665C37.9564 0.452294 40.2679 0.426926 41.0108 1.47592C44.41 6.28516 47.801 11.099 51.184 15.9175C51.3103 16.0719 51.3904 16.2425 51.6356 16.6691Z" fill="#5D606E"/>
<path d="M70.6294 0.876465V4.05572H57.5889V7.25111H69.7651V10.5664H57.4869V16.5952H53.437V0.876465H70.6294Z" fill="#5D606E"/>
<path d="M124.87 16.5952C124.87 14.8407 124.824 13.16 124.89 11.4839C124.921 10.6701 124.615 10.1375 123.994 9.60956C120.92 7.00206 117.888 4.35076 114.828 1.72481C114.549 1.51944 114.251 1.33666 113.94 1.17841L114.182 0.809542C115.855 0.809542 117.531 0.774959 119.201 0.837207C119.534 0.85104 119.881 1.213 120.172 1.4666C122.387 3.37323 124.589 5.29601 126.9 7.30639C127.976 6.38419 129.047 5.48275 130.115 4.56747C130.773 4.00263 131.55 3.51386 132.057 2.84296C134.041 0.226243 136.852 0.73345 139.798 0.85564C139.414 1.24066 139.169 1.51962 138.892 1.76169C135.855 4.41069 132.822 7.06431 129.76 9.68565C129.486 9.90369 129.27 10.1814 129.132 10.4952C128.995 10.809 128.939 11.1497 128.969 11.4885C129.013 13.1669 128.981 14.8453 128.981 16.5952H124.87Z" fill="#5D606E"/>
<path d="M100.139 4.07876H91.9763V0.871826H112.167C112.226 0.991932 112.272 1.11698 112.306 1.24531C112.587 4.09028 112.585 4.09028 109.635 4.09028H104.395C104.371 4.55138 104.33 4.95022 104.33 5.35368C104.33 8.77041 104.308 12.1894 104.33 15.6062C104.33 16.3716 104.153 16.7428 103.262 16.6874C102.266 16.6252 101.263 16.6736 100.132 16.6736L100.139 4.07876Z" fill="#5D606E"/>
<path d="M0 16.5629V6.71155H3.94788V16.5629H0Z" fill="#5D606E"/>
<path d="M3.94533 0.862793V3.83456H0.0217285V0.862793H3.94533Z" fill="#5D606E"/>
</svg>
