<svg width="58" height="95" viewBox="0 0 58 95" fill="none" xmlns="http://www.w3.org/2000/svg">
<g opacity="0.3" clip-path="url(#clip0_214_4112)">
<path d="M51.9885 66.7166L-6.65552 94.4681L-34.4355 35.7637L51.9885 66.7166Z" fill="url(#paint0_linear_214_4112)"/>
<path d="M1.83023 82.5249C2.24758 82.3274 2.4258 81.829 2.22831 81.4116C2.03081 80.9943 1.53239 80.8161 1.11504 81.0136C0.697699 81.2111 0.519476 81.7095 0.716971 82.1268C0.914466 82.5442 1.41289 82.7224 1.83023 82.5249Z" fill="white"/>
<path d="M6.14835 80.4814C6.56569 80.2839 6.74391 79.7855 6.54641 79.3682C6.34892 78.9508 5.8505 78.7726 5.43315 78.9701C5.01581 79.1676 4.83759 79.666 5.03509 80.0834C5.23258 80.5007 5.73101 80.6789 6.14835 80.4814Z" fill="white"/>
<path d="M10.4665 78.438C10.8838 78.2406 11.062 77.7421 10.8645 77.3248C10.667 76.9074 10.1686 76.7292 9.75127 76.9267C9.33393 77.1242 9.15571 77.6226 9.3532 78.04C9.5507 78.4573 10.0491 78.6355 10.4665 78.438Z" fill="white"/>
<path d="M14.7846 76.3946C15.2019 76.1972 15.3801 75.6987 15.1826 75.2814C14.9852 74.864 14.4867 74.6858 14.0694 74.8833C13.652 75.0808 13.4738 75.5792 13.6713 75.9966C13.8688 76.4139 14.3672 76.5921 14.7846 76.3946Z" fill="white"/>
<path d="M19.1027 74.3513C19.52 74.1538 19.6983 73.6553 19.5008 73.238C19.3033 72.8206 18.8048 72.6424 18.3875 72.8399C17.9702 73.0374 17.7919 73.5358 17.9894 73.9532C18.1869 74.3705 18.6854 74.5487 19.1027 74.3513Z" fill="white"/>
<path d="M23.4208 72.3078C23.8382 72.1103 24.0164 71.6119 23.8189 71.1945C23.6214 70.7772 23.123 70.599 22.7056 70.7965C22.2883 70.994 22.1101 71.4924 22.3075 71.9097C22.505 72.3271 23.0035 72.5053 23.4208 72.3078Z" fill="white"/>
<path d="M27.7389 70.2646C28.1563 70.0671 28.3345 69.5687 28.137 69.1513C27.9395 68.734 27.4411 68.5557 27.0237 68.7532C26.6064 68.9507 26.4282 69.4492 26.6257 69.8665C26.8232 70.2839 27.3216 70.4621 27.7389 70.2646Z" fill="white"/>
<path d="M32.0568 68.2211C32.4741 68.0236 32.6524 67.5252 32.4549 67.1079C32.2574 66.6905 31.759 66.5123 31.3416 66.7098C30.9243 66.9073 30.746 67.4057 30.9435 67.8231C31.141 68.2404 31.6395 68.4186 32.0568 68.2211Z" fill="white"/>
<path d="M36.3749 66.1777C36.7923 65.9802 36.9705 65.4817 36.773 65.0644C36.5755 64.6471 36.0771 64.4688 35.6597 64.6663C35.2424 64.8638 35.0642 65.3622 35.2616 65.7796C35.4591 66.1969 35.9576 66.3752 36.3749 66.1777Z" fill="white"/>
<path d="M40.693 64.1343C41.1104 63.9368 41.2886 63.4384 41.0911 63.021C40.8936 62.6037 40.3952 62.4254 39.9778 62.6229C39.5605 62.8204 39.3823 63.3189 39.5798 63.7362C39.7773 64.1535 40.2757 64.3318 40.693 64.1343Z" fill="white"/>
<path d="M45.0111 62.0908C45.4285 61.8933 45.6067 61.3948 45.4092 60.9775C45.2117 60.5601 44.7133 60.3819 44.296 60.5794C43.8786 60.7769 43.7004 61.2753 43.8979 61.6927C44.0954 62.11 44.5938 62.2882 45.0111 62.0908Z" fill="white"/>
<path d="M49.3293 60.0475C49.7466 59.85 49.9248 59.3516 49.7273 58.9342C49.5298 58.5169 49.0314 58.3386 48.6141 58.5361C48.1967 58.7336 48.0185 59.2321 48.216 59.6494C48.4135 60.0667 48.9119 60.245 49.3293 60.0475Z" fill="white"/>
<path d="M53.6474 58.0041C54.0647 57.8066 54.2429 57.3082 54.0454 56.8908C53.8479 56.4735 53.3495 56.2953 52.9322 56.4927C52.5148 56.6902 52.3366 57.1887 52.5341 57.606C52.7316 58.0234 53.23 58.2016 53.6474 58.0041Z" fill="white"/>
<path d="M-0.213222 78.2067C0.204121 78.0092 0.382343 77.5108 0.184848 77.0935C-0.012647 76.6761 -0.511072 76.4979 -0.928415 76.6954C-1.34576 76.8929 -1.52398 77.3913 -1.32649 77.8086C-1.12899 78.226 -0.630566 78.4042 -0.213222 78.2067Z" fill="white"/>
<path d="M4.10489 76.1633C4.52223 75.9658 4.70045 75.4673 4.50296 75.05C4.30546 74.6327 3.80704 74.4544 3.3897 74.6519C2.97236 74.8494 2.79413 75.3478 2.99163 75.7652C3.18912 76.1825 3.68755 76.3608 4.10489 76.1633Z" fill="white"/>
<path d="M8.423 74.12C8.84035 73.9225 9.01857 73.4241 8.82107 73.0067C8.62358 72.5894 8.12515 72.4112 7.70781 72.6087C7.29047 72.8061 7.11225 73.3046 7.30974 73.7219C7.50724 74.1393 8.00566 74.3175 8.423 74.12Z" fill="white"/>
<path d="M12.7411 72.0766C13.1585 71.8791 13.3367 71.3807 13.1392 70.9633C12.9417 70.546 12.4433 70.3678 12.0259 70.5653C11.6086 70.7628 11.4304 71.2612 11.6279 71.6785C11.8254 72.0959 12.3238 72.2741 12.7411 72.0766Z" fill="white"/>
<path d="M17.0592 70.0332C17.4766 69.8357 17.6548 69.3373 17.4573 68.9199C17.2598 68.5026 16.7614 68.3244 16.344 68.5219C15.9267 68.7194 15.7485 69.2178 15.946 69.6351C16.1435 70.0525 16.6419 70.2307 17.0592 70.0332Z" fill="white"/>
<path d="M21.3774 67.9898C21.7947 67.7923 21.9729 67.2939 21.7754 66.8765C21.5779 66.4592 21.0795 66.281 20.6622 66.4785C20.2448 66.676 20.0666 67.1744 20.2641 67.5917C20.4616 68.0091 20.96 68.1873 21.3774 67.9898Z" fill="white"/>
<path d="M25.6955 65.9465C26.1128 65.749 26.291 65.2505 26.0935 64.8332C25.896 64.4159 25.3976 64.2376 24.9803 64.4351C24.5629 64.6326 24.3847 65.131 24.5822 65.5484C24.7797 65.9657 25.2781 66.144 25.6955 65.9465Z" fill="white"/>
<path d="M30.0136 63.903C30.4309 63.7055 30.6092 63.2071 30.4117 62.7897C30.2142 62.3724 29.7157 62.1942 29.2984 62.3917C28.8811 62.5892 28.7028 63.0876 28.9003 63.5049C29.0978 63.9223 29.5962 64.1005 30.0136 63.903Z" fill="white"/>
<path d="M34.3317 61.8596C34.749 61.6621 34.9273 61.1636 34.7298 60.7463C34.5323 60.3289 34.0339 60.1507 33.6165 60.3482C33.1992 60.5457 33.0209 61.0441 33.2184 61.4615C33.4159 61.8788 33.9144 62.057 34.3317 61.8596Z" fill="white"/>
<path d="M38.6496 59.8161C39.0669 59.6186 39.2451 59.1202 39.0476 58.7028C38.8501 58.2855 38.3517 58.1073 37.9344 58.3048C37.517 58.5023 37.3388 59.0007 37.5363 59.418C37.7338 59.8354 38.2322 60.0136 38.6496 59.8161Z" fill="white"/>
<path d="M42.9677 57.7729C43.385 57.5754 43.5633 57.077 43.3658 56.6596C43.1683 56.2423 42.6698 56.064 42.2525 56.2615C41.8352 56.459 41.6569 56.9575 41.8544 57.3748C42.0519 57.7922 42.5503 57.9704 42.9677 57.7729Z" fill="white"/>
<path d="M47.2858 55.7294C47.7031 55.5319 47.8814 55.0334 47.6839 54.6161C47.4864 54.1988 46.988 54.0205 46.5706 54.218C46.1533 54.4155 45.975 54.9139 46.1725 55.3313C46.37 55.7486 46.8685 55.9269 47.2858 55.7294Z" fill="white"/>
<path d="M2.06167 71.8454C2.47902 71.6479 2.65724 71.1495 2.45974 70.7321C2.26225 70.3148 1.76383 70.1366 1.34648 70.3341C0.929143 70.5315 0.750921 71.03 0.948415 71.4473C1.14591 71.8647 1.64433 72.0429 2.06167 71.8454Z" fill="white"/>
<path d="M6.37954 69.8019C6.79688 69.6044 6.97511 69.106 6.77761 68.6887C6.58012 68.2713 6.0817 68.0931 5.66435 68.2906C5.24701 68.4881 5.06879 68.9865 5.26629 69.4039C5.46378 69.8212 5.9622 69.9994 6.37954 69.8019Z" fill="white"/>
<path d="M10.6977 67.7585C11.115 67.561 11.2932 67.0626 11.0957 66.6452C10.8982 66.2279 10.3998 66.0496 9.98247 66.2471C9.56513 66.4446 9.38691 66.9431 9.5844 67.3604C9.7819 67.7777 10.2803 67.956 10.6977 67.7585Z" fill="white"/>
<path d="M15.0158 65.7151C15.4331 65.5176 15.6113 65.0192 15.4138 64.6018C15.2164 64.1845 14.7179 64.0063 14.3006 64.2037C13.8832 64.4012 13.705 64.8997 13.9025 65.317C14.1 65.7343 14.5984 65.9126 15.0158 65.7151Z" fill="white"/>
<path d="M19.3339 63.6717C19.7512 63.4742 19.9295 62.9758 19.732 62.5584C19.5345 62.1411 19.036 61.9629 18.6187 62.1603C18.2014 62.3578 18.0231 62.8563 18.2206 63.2736C18.4181 63.691 18.9166 63.8692 19.3339 63.6717Z" fill="white"/>
<path d="M23.652 61.6283C24.0694 61.4308 24.2476 60.9324 24.0501 60.515C23.8526 60.0977 23.3542 59.9195 22.9368 60.117C22.5195 60.3144 22.3413 60.8129 22.5387 61.2302C22.7362 61.6476 23.2347 61.8258 23.652 61.6283Z" fill="white"/>
<path d="M27.9701 59.5849C28.3875 59.3874 28.5657 58.889 28.3682 58.4716C28.1707 58.0543 27.6723 57.8761 27.2549 58.0736C26.8376 58.2711 26.6594 58.7695 26.8569 59.1868C27.0544 59.6042 27.5528 59.7824 27.9701 59.5849Z" fill="white"/>
<path d="M32.2882 57.5415C32.7056 57.344 32.8838 56.8456 32.6863 56.4282C32.4888 56.0109 31.9904 55.8327 31.5731 56.0302C31.1557 56.2277 30.9775 56.7261 31.175 57.1434C31.3725 57.5608 31.8709 57.739 32.2882 57.5415Z" fill="white"/>
<path d="M36.6064 55.498C37.0237 55.3005 37.2019 54.8021 37.0044 54.3847C36.8069 53.9674 36.3085 53.7892 35.8912 53.9866C35.4738 54.1841 35.2956 54.6826 35.4931 55.0999C35.6906 55.5172 36.189 55.6955 36.6064 55.498Z" fill="white"/>
<path d="M40.9245 53.4548C41.3418 53.2573 41.52 52.7588 41.3225 52.3415C41.1251 51.9242 40.6266 51.7459 40.2093 51.9434C39.7919 52.1409 39.6137 52.6393 39.8112 53.0567C40.0087 53.474 40.5071 53.6523 40.9245 53.4548Z" fill="white"/>
<path d="M0.0182215 67.5272C0.435563 67.3297 0.613784 66.8313 0.416288 66.414C0.218793 65.9966 -0.279631 65.8184 -0.696973 66.0159C-1.11431 66.2134 -1.29254 66.7118 -1.09504 67.1291C-0.897544 67.5465 -0.39912 67.7247 0.0182215 67.5272Z" fill="white"/>
<path d="M4.33634 65.4838C4.75368 65.2863 4.9319 64.7879 4.7344 64.3706C4.53691 63.9532 4.03848 63.775 3.62114 63.9725C3.2038 64.17 3.02558 64.6684 3.22308 65.0857C3.42057 65.5031 3.91899 65.6813 4.33634 65.4838Z" fill="white"/>
<path d="M8.65445 63.4404C9.0718 63.2429 9.25002 62.7444 9.05252 62.3271C8.85503 61.9098 8.3566 61.7315 7.93926 61.929C7.52192 62.1265 7.3437 62.6249 7.54119 63.0423C7.73869 63.4596 8.23711 63.6379 8.65445 63.4404Z" fill="white"/>
<path d="M12.9723 61.3969C13.3897 61.1994 13.5679 60.701 13.3704 60.2836C13.1729 59.8663 12.6745 59.6881 12.2571 59.8856C11.8398 60.0831 11.6616 60.5815 11.8591 60.9988C12.0566 61.4162 12.555 61.5944 12.9723 61.3969Z" fill="white"/>
<path d="M17.2904 59.3537C17.7078 59.1562 17.886 58.6578 17.6885 58.2404C17.491 57.8231 16.9926 57.6449 16.5752 57.8424C16.1579 58.0398 15.9797 58.5383 16.1772 58.9556C16.3747 59.373 16.8731 59.5512 17.2904 59.3537Z" fill="white"/>
<path d="M21.6086 57.3102C22.0259 57.1127 22.2041 56.6143 22.0066 56.1969C21.8091 55.7796 21.3107 55.6013 20.8934 55.7988C20.476 55.9963 20.2978 56.4948 20.4953 56.9121C20.6928 57.3294 21.1912 57.5077 21.6086 57.3102Z" fill="white"/>
<path d="M25.9267 55.2668C26.344 55.0693 26.5222 54.5709 26.3248 54.1535C26.1273 53.7362 25.6288 53.5579 25.2115 53.7554C24.7941 53.9529 24.6159 54.4514 24.8134 54.8687C25.0109 55.2861 25.5093 55.4643 25.9267 55.2668Z" fill="white"/>
<path d="M30.2448 53.2234C30.6621 53.0259 30.8404 52.5275 30.6429 52.1101C30.4454 51.6928 29.9469 51.5145 29.5296 51.712C29.1122 51.9095 28.934 52.408 29.1315 52.8253C29.329 53.2427 29.8274 53.4209 30.2448 53.2234Z" fill="white"/>
<path d="M34.5629 51.1801C34.9802 50.9826 35.1585 50.4842 34.961 50.0668C34.7635 49.6495 34.265 49.4713 33.8477 49.6688C33.4304 49.8663 33.2521 50.3647 33.4496 50.782C33.6471 51.1994 34.1456 51.3776 34.5629 51.1801Z" fill="white"/>
<path d="M2.29287 61.1657C2.71022 60.9682 2.88844 60.4698 2.69094 60.0524C2.49345 59.6351 1.99503 59.4569 1.57768 59.6544C1.16034 59.8519 0.982122 60.3503 1.17962 60.7676C1.37711 61.185 1.87553 61.3632 2.29287 61.1657Z" fill="white"/>
<path d="M6.61099 59.1223C7.02833 58.9248 7.20656 58.4264 7.00906 58.009C6.81157 57.5917 6.31314 57.4135 5.8958 57.611C5.47846 57.8085 5.30024 58.3069 5.49773 58.7242C5.69523 59.1416 6.19365 59.3198 6.61099 59.1223Z" fill="white"/>
<path d="M10.9291 57.079C11.3465 56.8815 11.5247 56.3831 11.3272 55.9658C11.1297 55.5484 10.6313 55.3702 10.2139 55.5677C9.79658 55.7652 9.61835 56.2636 9.81585 56.681C10.0133 57.0983 10.5118 57.2765 10.9291 57.079Z" fill="white"/>
<path d="M15.2472 55.0355C15.6646 54.838 15.8428 54.3396 15.6453 53.9222C15.4478 53.5049 14.9494 53.3267 14.532 53.5242C14.1147 53.7217 13.9365 54.2201 14.134 54.6374C14.3315 55.0548 14.8299 55.233 15.2472 55.0355Z" fill="white"/>
<path d="M19.5651 52.9921C19.9824 52.7946 20.1607 52.2962 19.9632 51.8789C19.7657 51.4615 19.2673 51.2833 18.8499 51.4808C18.4326 51.6783 18.2543 52.1767 18.4518 52.594C18.6493 53.0114 19.1478 53.1896 19.5651 52.9921Z" fill="white"/>
<path d="M23.8832 50.9487C24.3006 50.7512 24.4788 50.2528 24.2813 49.8355C24.0838 49.4181 23.5854 49.2399 23.168 49.4374C22.7507 49.6349 22.5725 50.1333 22.7699 50.5506C22.9674 50.968 23.4659 51.1462 23.8832 50.9487Z" fill="white"/>
<path d="M28.2013 48.9052C28.6187 48.7077 28.7969 48.2093 28.5994 47.7919C28.4019 47.3746 27.9035 47.1964 27.4861 47.3939C27.0688 47.5914 26.8906 48.0898 27.0881 48.5071C27.2856 48.9245 27.784 49.1027 28.2013 48.9052Z" fill="white"/>
<path d="M0.249415 56.8476C0.666756 56.6501 0.844978 56.1517 0.647484 55.7344C0.449991 55.317 -0.0484314 55.1388 -0.465773 55.3363C-0.883114 55.5338 -1.06134 56.0322 -0.863842 56.4496C-0.666348 56.8669 -0.167926 57.0451 0.249415 56.8476Z" fill="white"/>
<path d="M4.56753 54.8042C4.98488 54.6067 5.1631 54.1083 4.9656 53.691C4.76811 53.2736 4.26969 53.0954 3.85235 53.2929C3.435 53.4904 3.25678 53.9888 3.45427 54.4062C3.65177 54.8235 4.15019 55.0017 4.56753 54.8042Z" fill="white"/>
<path d="M8.88565 52.7608C9.30299 52.5633 9.48122 52.0649 9.28372 51.6475C9.08623 51.2302 8.5878 51.052 8.17046 51.2495C7.75312 51.447 7.5749 51.9454 7.77239 52.3627C7.96988 52.7801 8.46831 52.9583 8.88565 52.7608Z" fill="white"/>
<path d="M13.2038 50.7174C13.6211 50.5199 13.7993 50.0215 13.6018 49.6041C13.4043 49.1868 12.9059 49.0086 12.4886 49.2061C12.0712 49.4036 11.893 49.902 12.0905 50.3193C12.288 50.7367 12.7864 50.9149 13.2038 50.7174Z" fill="white"/>
<path d="M17.5219 48.674C17.9392 48.4765 18.1174 47.9781 17.92 47.5607C17.7225 47.1434 17.224 46.9652 16.8067 47.1627C16.3893 47.3602 16.2111 47.8586 16.4086 48.2759C16.6061 48.6933 17.1045 48.8715 17.5219 48.674Z" fill="white"/>
<path d="M21.84 46.6305C22.2573 46.433 22.4356 45.9346 22.2381 45.5173C22.0406 45.0999 21.5422 44.9217 21.1248 45.1192C20.7075 45.3167 20.5292 45.8151 20.7267 46.2325C20.9242 46.6498 21.4227 46.828 21.84 46.6305Z" fill="white"/>
<path d="M2.52407 50.4862C2.94142 50.2888 3.11964 49.7903 2.92215 49.373C2.72465 48.9557 2.22623 48.7774 1.80889 48.9749C1.39155 49.1724 1.21332 49.6708 1.41082 50.0882C1.60831 50.5055 2.10673 50.6837 2.52407 50.4862Z" fill="white"/>
<path d="M6.84219 48.4427C7.25953 48.2452 7.43776 47.7468 7.24026 47.3295C7.04277 46.9121 6.54435 46.7339 6.127 46.9314C5.70966 47.1289 5.53144 47.6273 5.72893 48.0447C5.92642 48.462 6.42485 48.6402 6.84219 48.4427Z" fill="white"/>
<path d="M11.1603 46.3993C11.5777 46.2018 11.7559 45.7034 11.5584 45.2861C11.3609 44.8687 10.8625 44.6905 10.4451 44.888C10.0278 45.0855 9.84955 45.5839 10.047 46.0013C10.2445 46.4186 10.743 46.5968 11.1603 46.3993Z" fill="white"/>
<path d="M15.4784 44.3559C15.8958 44.1584 16.074 43.66 15.8765 43.2427C15.679 42.8253 15.1806 42.6471 14.7632 42.8446C14.3459 43.0421 14.1677 43.5405 14.3652 43.9579C14.5627 44.3752 15.0611 44.5534 15.4784 44.3559Z" fill="white"/>
<path d="M0.480866 46.1681C0.898208 45.9706 1.07643 45.4722 0.878936 45.0549C0.681442 44.6375 0.183018 44.4593 -0.234325 44.6568C-0.651667 44.8543 -0.829889 45.3527 -0.632395 45.7701C-0.434901 46.1874 0.063523 46.3656 0.480866 46.1681Z" fill="white"/>
<path d="M4.79874 44.1247C5.21608 43.9272 5.3943 43.4288 5.19681 43.0114C4.99931 42.5941 4.50089 42.4159 4.08355 42.6134C3.6662 42.8108 3.48798 43.3093 3.68548 43.7266C3.88297 44.144 4.38139 44.3222 4.79874 44.1247Z" fill="white"/>
<path d="M9.11685 42.0812C9.5342 41.8837 9.71242 41.3853 9.51493 40.968C9.31743 40.5506 8.81901 40.3724 8.40166 40.5699C7.98432 40.7674 7.8061 41.2658 8.00359 41.6832C8.20109 42.1005 8.69951 42.2787 9.11685 42.0812Z" fill="white"/>
<path d="M2.75552 39.8066C3.17287 39.6091 3.35109 39.1106 3.1536 38.6933C2.9561 38.276 2.45768 38.0977 2.04033 38.2952C1.62299 38.4927 1.44477 38.9912 1.64226 39.4085C1.83976 39.8258 2.33818 40.0041 2.75552 39.8066Z" fill="white"/>
</g>
<defs>
<linearGradient id="paint0_linear_214_4112" x1="-38.2537" y1="73.8301" x2="38.2051" y2="37.6484" gradientUnits="userSpaceOnUse">
<stop stop-color="#44D4D4"/>
<stop offset="1" stop-color="#1A6A6A"/>
</linearGradient>
<clipPath id="clip0_214_4112">
<rect width="70.941" height="70.941" fill="white" transform="translate(-37 30.3445) rotate(-25.3244)"/>
</clipPath>
</defs>
</svg>
