<svg width="63" height="64" viewBox="0 0 63 64" fill="none" xmlns="http://www.w3.org/2000/svg">
<g opacity="0.3" clip-path="url(#clip0_214_4232)">
<path d="M31.4998 2.71734C32.214 2.71734 32.793 2.13834 32.793 1.4241C32.793 0.709863 32.214 0.130859 31.4998 0.130859C30.7855 0.130859 30.2065 0.709863 30.2065 1.4241C30.2065 2.13834 30.7855 2.71734 31.4998 2.71734Z" fill="white"/>
<path d="M25.8745 2.86867C26.2538 2.2635 26.0707 1.46539 25.4656 1.08606C24.8604 0.706727 24.0623 0.88981 23.6829 1.49499C23.3036 2.10017 23.4867 2.89827 24.0919 3.2776C24.697 3.65694 25.4951 3.47385 25.8745 2.86867Z" fill="white"/>
<path d="M19.5601 3.85653C19.671 4.08693 19.7111 4.34504 19.6753 4.59824C19.6396 4.85143 19.5296 5.08835 19.3592 5.27903C19.1888 5.46972 18.9658 5.60561 18.7182 5.66955C18.4706 5.73349 18.2096 5.7226 17.9682 5.63826C17.7268 5.55391 17.5159 5.39989 17.362 5.19568C17.2081 4.99146 17.1182 4.7462 17.1037 4.4909C17.0891 4.23561 17.1506 3.98174 17.2803 3.76137C17.41 3.54101 17.6021 3.36404 17.8324 3.25284C18.1416 3.10425 18.4972 3.08436 18.821 3.19753C19.1449 3.31069 19.4107 3.54768 19.5601 3.85653Z" fill="white"/>
<path d="M13.6778 7.2083C13.8374 7.40822 13.9342 7.65101 13.9559 7.90595C13.9775 8.16089 13.9231 8.41652 13.7994 8.6405C13.6757 8.86449 13.4884 9.04674 13.2611 9.16422C13.0338 9.2817 12.7767 9.32912 12.5225 9.30047C12.2682 9.27183 12.0282 9.16843 11.8327 9.00332C11.6373 8.83821 11.4952 8.61883 11.4244 8.37295C11.3537 8.12706 11.3575 7.86572 11.4353 7.62199C11.5131 7.37825 11.6615 7.16309 11.8617 7.00371C12.13 6.7909 12.4716 6.69296 12.8119 6.73129C13.1522 6.76963 13.4635 6.94113 13.6778 7.2083Z" fill="white"/>
<path d="M8.68919 11.7877C8.88935 11.9471 9.03773 12.1623 9.11556 12.406C9.19338 12.6498 9.19715 12.9111 9.12641 13.157C9.05566 13.4029 8.91357 13.6222 8.71812 13.7873C8.52266 13.9525 8.28263 14.0559 8.02838 14.0845C7.77413 14.1131 7.51709 14.0657 7.2898 13.9483C7.0625 13.8308 6.87516 13.6485 6.75148 13.4245C6.6278 13.2006 6.57332 12.9449 6.59497 12.69C6.61662 12.435 6.71341 12.1922 6.87309 11.9923C6.97877 11.8595 7.10963 11.7488 7.25816 11.6666C7.4067 11.5843 7.57 11.5322 7.7387 11.5132C7.9074 11.4942 8.07818 11.5087 8.24128 11.5558C8.40438 11.6029 8.5566 11.6817 8.68919 11.7877Z" fill="white"/>
<path d="M4.79466 19.7405C5.4503 19.4572 5.75213 18.696 5.46882 18.0404C5.1855 17.3847 4.42433 17.0829 3.76869 17.3662C3.11305 17.6495 2.81121 18.4107 3.09453 19.0664C3.37784 19.722 4.13902 20.0238 4.79466 19.7405Z" fill="white"/>
<path d="M2.33916 23.6492C2.58851 23.7059 2.81542 23.8354 2.99122 24.0211C3.16702 24.2068 3.28382 24.4405 3.32684 24.6926C3.36986 24.9446 3.33717 25.2038 3.23292 25.4373C3.12867 25.6708 2.95753 25.8682 2.74113 26.0045C2.52473 26.1407 2.27277 26.2098 2.01714 26.2029C1.7615 26.196 1.51366 26.1135 1.30492 25.9657C1.09618 25.818 0.935936 25.6117 0.844425 25.3729C0.752914 25.1341 0.734255 24.8735 0.790806 24.6241C0.867305 24.2898 1.07323 23.9994 1.36347 23.8167C1.65371 23.6339 2.00458 23.5737 2.33916 23.6492Z" fill="white"/>
<path d="M1.29324 30.3401C1.54902 30.3401 1.79904 30.416 2.01172 30.5581C2.22439 30.7002 2.39015 30.9022 2.48803 31.1385C2.58591 31.3748 2.61153 31.6348 2.56163 31.8857C2.51173 32.1366 2.38855 32.367 2.20769 32.5479C2.02683 32.7287 1.79641 32.8519 1.54555 32.9018C1.29468 32.9517 1.03464 32.9261 0.798335 32.8282C0.562026 32.7303 0.360063 32.5646 0.21796 32.3519C0.0758572 32.1392 0 31.8892 0 31.6334C0 31.2904 0.136257 30.9615 0.378787 30.7189C0.621316 30.4764 0.95025 30.3401 1.29324 30.3401Z" fill="white"/>
<path d="M1.76561 37.1019C2.01498 37.0449 2.27567 37.063 2.5147 37.1542C2.75373 37.2453 2.96036 37.4053 3.10846 37.6139C3.25656 37.8224 3.33946 38.0702 3.34671 38.3259C3.35395 38.5817 3.28521 38.8338 3.14916 39.0504C3.0131 39.267 2.81583 39.4384 2.58235 39.5429C2.34887 39.6475 2.08965 39.6804 1.83745 39.6376C1.58525 39.5947 1.35142 39.4781 1.16553 39.3023C0.979646 39.1266 0.850062 38.8997 0.793158 38.6503C0.755048 38.4847 0.749987 38.3133 0.778265 38.1458C0.806544 37.9783 0.867587 37.818 0.957931 37.6742C1.04827 37.5303 1.16615 37.4057 1.30474 37.3075C1.44334 37.2093 1.59995 37.1395 1.76561 37.1019Z" fill="white"/>
<path d="M5.56241 45.0882C5.74197 44.3969 5.32712 43.691 4.63582 43.5114C3.94452 43.3318 3.23855 43.7467 3.059 44.438C2.87944 45.1293 3.29429 45.8353 3.98559 46.0148C4.67689 46.1944 5.38286 45.7795 5.56241 45.0882Z" fill="white"/>
<path d="M7.06967 49.4558C7.26959 49.2962 7.51239 49.1994 7.76733 49.1777C8.02227 49.1561 8.27789 49.2105 8.50187 49.3342C8.72585 49.4579 8.90813 49.6452 9.02561 49.8725C9.14309 50.0998 9.1905 50.3569 9.16186 50.6111C9.13322 50.8654 9.02979 51.1054 8.86469 51.3009C8.69958 51.4963 8.48022 51.6384 8.23433 51.7092C7.98845 51.7799 7.72709 51.7761 7.48336 51.6983C7.23962 51.6205 7.02444 51.4721 6.86506 51.2719C6.65161 51.0039 6.55327 50.6621 6.59163 50.3216C6.62999 49.981 6.80193 49.6697 7.06967 49.4558Z" fill="white"/>
<path d="M11.6566 54.4444C11.816 54.2443 12.0311 54.0959 12.2749 54.0181C12.5186 53.9402 12.78 53.9365 13.0259 54.0072C13.2717 54.0779 13.4911 54.22 13.6562 54.4155C13.8213 54.611 13.9247 54.851 13.9534 55.1053C13.982 55.3595 13.9346 55.6165 13.8171 55.8438C13.6997 56.0711 13.5174 56.2585 13.2934 56.3821C13.0694 56.5058 12.8138 56.5603 12.5589 56.5386C12.3039 56.517 12.0611 56.4202 11.8612 56.2605C11.7283 56.1548 11.6176 56.024 11.5354 55.8754C11.4532 55.7269 11.4011 55.5636 11.3821 55.3949C11.3631 55.2262 11.3776 55.0554 11.4247 54.8923C11.4718 54.7292 11.5506 54.577 11.6566 54.4444Z" fill="white"/>
<path d="M18.6892 59.6759C19.4035 59.6688 19.9767 59.084 19.9695 58.3697C19.9624 57.6555 19.3776 57.0823 18.6634 57.0894C17.9491 57.0966 17.3759 57.6814 17.383 58.3956C17.3902 59.1098 17.975 59.683 18.6892 59.6759Z" fill="white"/>
<path d="M25.4635 62.1904C26.069 61.8115 26.2526 61.0135 25.8737 60.4081C25.4948 59.8026 24.6968 59.619 24.0914 59.9979C23.4859 60.3768 23.3023 61.1748 23.6812 61.7802C24.0601 62.3857 24.8581 62.5693 25.4635 62.1904Z" fill="white"/>
<path d="M31.4998 63.1334C32.214 63.1334 32.793 62.5544 32.793 61.8401C32.793 61.1259 32.214 60.5469 31.4998 60.5469C30.7855 60.5469 30.2065 61.1259 30.2065 61.8401C30.2065 62.5544 30.7855 63.1334 31.4998 63.1334Z" fill="white"/>
<path d="M36.9633 61.3703C36.9062 61.1208 36.9243 60.86 37.0155 60.6209C37.1066 60.3817 37.2666 60.175 37.4753 60.0268C37.684 59.8787 37.932 59.7958 38.1879 59.7886C38.4437 59.7815 38.6959 59.8505 38.9125 59.9867C39.1292 60.123 39.3005 60.3205 39.4048 60.5542C39.5091 60.7879 39.5418 61.0473 39.4986 61.2996C39.4554 61.5519 39.3383 61.7857 39.1622 61.9714C38.9861 62.1571 38.7588 62.2863 38.5092 62.3428C38.3438 62.3805 38.1726 62.3853 38.0054 62.3568C37.8382 62.3284 37.6783 62.2672 37.5347 62.1769C37.3912 62.0866 37.2668 61.9689 37.1688 61.8305C37.0707 61.6921 37.0009 61.5357 36.9633 61.3703Z" fill="white"/>
<path d="M43.4424 59.4103C43.3312 59.1798 43.2909 58.9216 43.3266 58.6682C43.3622 58.4149 43.4722 58.1778 43.6427 57.987C43.8131 57.7961 44.0363 57.6602 44.284 57.5962C44.5317 57.5323 44.7929 57.5433 45.0343 57.6278C45.2758 57.7123 45.4868 57.8665 45.6406 58.0709C45.7945 58.2754 45.8842 58.5209 45.8984 58.7763C45.9127 59.0318 45.8509 59.2857 45.7208 59.506C45.5907 59.7263 45.3981 59.9031 45.1675 60.014C44.8587 60.1624 44.5035 60.1823 44.18 60.0691C43.8566 59.9559 43.5913 59.7189 43.4424 59.4103Z" fill="white"/>
<path d="M49.3252 56.0458C49.1656 55.8459 49.0688 55.6031 49.0471 55.3482C49.0255 55.0932 49.0799 54.8376 49.2036 54.6136C49.3273 54.3896 49.5146 54.2074 49.7419 54.0899C49.9692 53.9724 50.2262 53.925 50.4805 53.9536C50.7347 53.9823 50.9748 54.0857 51.1702 54.2508C51.3657 54.4159 51.5078 54.6353 51.5785 54.8812C51.6493 55.127 51.6455 55.3884 51.5677 55.6321C51.4898 55.8759 51.3415 56.091 51.1413 56.2504C51.0087 56.3564 50.8565 56.4352 50.6934 56.4823C50.5303 56.5294 50.3595 56.5439 50.1908 56.5249C50.0221 56.5059 49.8588 56.4538 49.7103 56.3716C49.5618 56.2894 49.4309 56.1787 49.3252 56.0458Z" fill="white"/>
<path d="M54.3035 51.4765C54.1037 51.3169 53.9557 51.1017 53.8782 50.858C53.8007 50.6143 53.7972 50.3531 53.8681 50.1075C53.939 49.8618 54.0812 49.6426 54.2766 49.4777C54.472 49.3128 54.7119 49.2095 54.9661 49.181C55.2202 49.1524 55.477 49.1998 55.7042 49.3171C55.9314 49.4345 56.1187 49.6166 56.2424 49.8404C56.3661 50.0641 56.4207 50.3196 56.3993 50.5744C56.3779 50.8292 56.2814 51.0719 56.1221 51.2719C56.0162 51.4049 55.8851 51.5156 55.7364 51.5979C55.5876 51.6801 55.4241 51.7322 55.2552 51.7512C55.0863 51.7702 54.9153 51.7557 54.752 51.7086C54.5887 51.6615 54.4363 51.5826 54.3035 51.4765Z" fill="white"/>
<path d="M58.1556 45.9045C57.9254 45.7933 57.7333 45.6163 57.6035 45.396C57.4738 45.1756 57.4124 44.9217 57.4269 44.6664C57.4414 44.4111 57.5313 44.1659 57.6852 43.9617C57.8391 43.7575 58.0501 43.6034 58.2915 43.5191C58.5329 43.4347 58.7938 43.4239 59.0414 43.4878C59.289 43.5517 59.5121 43.6876 59.6824 43.8783C59.8528 44.069 59.9628 44.3059 59.9986 44.5591C60.0343 44.8123 59.9942 45.0704 59.8833 45.3008C59.7339 45.6097 59.4682 45.8467 59.1443 45.9598C58.8204 46.073 58.4649 46.0531 58.1556 45.9045Z" fill="white"/>
<path d="M60.6638 39.6278C60.4144 39.5708 60.1874 39.4413 60.0117 39.2554C59.8359 39.0695 59.7193 38.8357 59.6765 38.5835C59.6336 38.3313 59.6665 38.072 59.7711 37.8385C59.8756 37.6051 60.047 37.4078 60.2636 37.2718C60.4803 37.1357 60.7323 37.0669 60.988 37.0742C61.2438 37.0814 61.4916 37.1644 61.7002 37.3125C61.9088 37.4606 62.0687 37.6672 62.1598 37.9062C62.251 38.1452 62.2692 38.4059 62.2121 38.6553C62.1746 38.821 62.1047 38.9776 62.0065 39.1162C61.9083 39.2548 61.7837 39.3726 61.6398 39.463C61.496 39.5533 61.3357 39.6144 61.1682 39.6426C61.0007 39.6709 60.8293 39.6659 60.6638 39.6278Z" fill="white"/>
<path d="M61.7093 32.9266C61.4535 32.9266 61.2034 32.8508 60.9908 32.7087C60.7781 32.5666 60.6123 32.3646 60.5145 32.1283C60.4166 31.892 60.391 31.632 60.4409 31.3811C60.4908 31.1302 60.6139 30.8998 60.7948 30.7189C60.9757 30.5381 61.2061 30.4149 61.457 30.365C61.7078 30.3151 61.9678 30.3407 62.2042 30.4386C62.4405 30.5365 62.6425 30.7022 62.7846 30.9149C62.9267 31.1276 63.0025 31.3776 63.0025 31.6334C63.0025 31.9764 62.8663 32.3053 62.6237 32.5479C62.3812 32.7904 62.0522 32.9266 61.7093 32.9266Z" fill="white"/>
<path d="M61.2398 26.1725C60.9905 26.2295 60.7298 26.2113 60.4908 26.1202C60.2517 26.0291 60.0451 25.8691 59.897 25.6605C59.7489 25.452 59.666 25.2042 59.6587 24.9485C59.6515 24.6927 59.7202 24.4406 59.8563 24.224C59.9924 24.0074 60.1896 23.836 60.4231 23.7314C60.6566 23.6269 60.9158 23.594 61.168 23.6369C61.4202 23.6797 61.654 23.7963 61.8399 23.9721C62.0258 24.1478 62.1554 24.3747 62.2123 24.6241C62.2879 24.9584 62.228 25.3089 62.0457 25.5991C61.8635 25.8893 61.5737 26.0954 61.2398 26.1725Z" fill="white"/>
<path d="M58.7161 19.8174C59.4303 19.8174 60.0093 19.2384 60.0093 18.5242C60.0093 17.81 59.4303 17.231 58.7161 17.231C58.0019 17.231 57.4229 17.81 57.4229 18.5242C57.4229 19.2384 58.0019 19.8174 58.7161 19.8174Z" fill="white"/>
<path d="M55.925 13.8084C55.7251 13.9681 55.4823 14.0648 55.2274 14.0865C54.9724 14.1081 54.7168 14.0537 54.4928 13.93C54.2688 13.8063 54.0866 13.619 53.9691 13.3917C53.8516 13.1644 53.8042 12.9074 53.8328 12.6531C53.8615 12.3989 53.9649 12.1588 54.13 11.9633C54.2951 11.7679 54.5145 11.6258 54.7604 11.5551C55.0062 11.4843 55.2676 11.4881 55.5113 11.5659C55.755 11.6438 55.9702 11.7921 56.1296 11.9923C56.3431 12.2603 56.4414 12.6022 56.403 12.9427C56.3647 13.2832 56.1928 13.5945 55.925 13.8084Z" fill="white"/>
<path d="M51.3457 8.81224C51.1861 9.01203 50.9709 9.16003 50.7272 9.23752C50.4835 9.31502 50.2223 9.31853 49.9766 9.24762C49.7309 9.17671 49.5118 9.03455 49.3469 8.83913C49.182 8.6437 49.0787 8.40379 49.0501 8.14968C49.0215 7.89557 49.0689 7.6387 49.1863 7.41152C49.3037 7.18433 49.4857 6.99705 49.7095 6.87332C49.9333 6.7496 50.1887 6.69498 50.4435 6.7164C50.6984 6.73781 50.9411 6.83428 51.1411 6.99362C51.274 7.09953 51.3848 7.23061 51.467 7.37936C51.5493 7.52811 51.6014 7.69162 51.6204 7.86053C51.6394 8.02943 51.6249 8.20042 51.5778 8.36372C51.5306 8.52703 51.4518 8.67944 51.3457 8.81224Z" fill="white"/>
<path d="M45.7737 4.9781C45.6631 5.20873 45.4865 5.40137 45.2664 5.53166C45.0462 5.66195 44.7924 5.72401 44.537 5.71003C44.2816 5.69605 44.036 5.60664 43.8314 5.4531C43.6269 5.29956 43.4724 5.0888 43.3876 4.84747C43.3028 4.60614 43.2915 4.34507 43.355 4.0973C43.4186 3.84953 43.5543 3.62617 43.7448 3.45549C43.9353 3.28481 44.1722 3.17446 44.4254 3.1384C44.6787 3.10234 44.9369 3.1422 45.1675 3.25293C45.4766 3.40136 45.7141 3.66649 45.8278 3.99C45.9415 4.31351 45.922 4.66893 45.7737 4.9781Z" fill="white"/>
<path d="M39.4839 2.46984C39.4271 2.71918 39.2977 2.9461 39.112 3.1219C38.9263 3.2977 38.6926 3.4145 38.4405 3.45752C38.1884 3.50054 37.9292 3.46785 37.6957 3.3636C37.4622 3.25935 37.2649 3.08821 37.1286 2.87181C36.9923 2.65541 36.9233 2.40346 36.9302 2.14783C36.9371 1.89219 37.0196 1.64433 37.1673 1.4356C37.3151 1.22686 37.5214 1.06661 37.7602 0.975101C37.999 0.883591 38.2595 0.864932 38.5089 0.921482C38.6746 0.95906 38.8314 1.02893 38.9701 1.12709C39.1088 1.22526 39.2268 1.3498 39.3173 1.49359C39.4078 1.63739 39.4691 1.79763 39.4977 1.96514C39.5263 2.13265 39.5216 2.30415 39.4839 2.46984Z" fill="white"/>
<path d="M31.5001 8.08215C32.0818 8.08215 32.5533 7.61058 32.5533 7.02887C32.5533 6.44716 32.0818 5.97559 31.5001 5.97559C30.9183 5.97559 30.4468 6.44716 30.4468 7.02887C30.4468 7.61058 30.9183 8.08215 31.5001 8.08215Z" fill="white"/>
<path d="M27.052 7.41294C27.0986 7.61595 27.084 7.82822 27.01 8.02293C26.936 8.21764 26.806 8.38603 26.6363 8.50683C26.4666 8.62763 26.2649 8.69539 26.0567 8.70157C25.8485 8.70775 25.6431 8.65206 25.4666 8.54153C25.29 8.43101 25.1502 8.27063 25.0648 8.08065C24.9794 7.89067 24.9522 7.67962 24.9867 7.47421C25.0212 7.26879 25.1159 7.07822 25.2587 6.92659C25.4015 6.77496 25.5861 6.66909 25.7891 6.62235C25.9239 6.59095 26.0637 6.58651 26.2002 6.60929C26.3368 6.63207 26.4675 6.68161 26.5849 6.75508C26.7023 6.82855 26.804 6.9245 26.8841 7.03739C26.9643 7.15029 27.0213 7.27792 27.052 7.41294Z" fill="white"/>
<path d="M21.7756 9.01181C21.8661 9.19956 21.8988 9.40991 21.8697 9.61627C21.8405 9.82262 21.7508 10.0157 21.6119 10.171C21.473 10.3264 21.2911 10.4371 21.0893 10.489C20.8875 10.541 20.6748 10.5319 20.4781 10.4629C20.2815 10.3939 20.1097 10.2682 19.9845 10.1016C19.8594 9.93492 19.7865 9.7349 19.775 9.52682C19.7636 9.31873 19.8141 9.11193 19.9203 8.93258C20.0264 8.75323 20.1833 8.6094 20.3712 8.51928C20.4958 8.45919 20.6309 8.42427 20.7689 8.41651C20.907 8.40875 21.0452 8.42831 21.1757 8.47406C21.3061 8.51982 21.4263 8.59088 21.5292 8.68316C21.6322 8.77544 21.7159 8.88711 21.7756 9.01181Z" fill="white"/>
<path d="M16.9866 11.7422C17.1165 11.9051 17.1952 12.1028 17.2127 12.3104C17.2302 12.518 17.1858 12.7261 17.085 12.9084C16.9843 13.0908 16.8317 13.2391 16.6467 13.3348C16.4616 13.4304 16.2523 13.469 16.0453 13.4457C15.8383 13.4223 15.6428 13.3382 15.4836 13.2038C15.3245 13.0694 15.2087 12.8908 15.151 12.6906C15.0934 12.4904 15.0963 12.2776 15.1596 12.0792C15.2229 11.8807 15.3436 11.7054 15.5064 11.5755C15.7251 11.402 16.0035 11.3221 16.2809 11.3534C16.5583 11.3846 16.812 11.5244 16.9866 11.7422Z" fill="white"/>
<path d="M12.9223 15.4705C13.0856 15.6002 13.2066 15.7754 13.2702 15.9739C13.3338 16.1725 13.3371 16.3854 13.2796 16.5858C13.2221 16.7862 13.1064 16.965 12.9472 17.0996C12.788 17.2342 12.5924 17.3185 12.3852 17.3419C12.1781 17.3652 11.9686 17.3266 11.7835 17.2309C11.5983 17.1351 11.4457 16.9866 11.3449 16.8041C11.2442 16.6215 11.1999 16.4132 11.2177 16.2055C11.2355 15.9978 11.3145 15.8 11.4447 15.6372C11.6188 15.4196 11.8721 15.2798 12.1491 15.2486C12.426 15.2173 12.7041 15.2971 12.9223 15.4705Z" fill="white"/>
<path d="M9.79305 20.0095C9.98063 20.0999 10.1372 20.244 10.2429 20.4234C10.3486 20.6028 10.3988 20.8095 10.3871 21.0175C10.3754 21.2254 10.3023 21.4252 10.1771 21.5916C10.0518 21.758 9.88009 21.8835 9.68353 21.9523C9.48697 22.0211 9.27443 22.0301 9.07275 21.9782C8.87108 21.9262 8.68935 21.8157 8.5505 21.6605C8.41165 21.5052 8.32193 21.3124 8.29267 21.1062C8.26342 20.9 8.29593 20.6897 8.38613 20.502C8.50774 20.2505 8.7241 20.0574 8.98781 19.9651C9.25152 19.8727 9.54109 19.8887 9.79305 20.0095Z" fill="white"/>
<path d="M7.74956 25.1318C7.95249 25.1785 8.13705 25.2842 8.27993 25.4356C8.4228 25.5871 8.51757 25.7775 8.55228 25.9828C8.58698 26.1881 8.56006 26.3991 8.47492 26.5891C8.38977 26.7791 8.25023 26.9396 8.0739 27.0504C7.89757 27.1611 7.69238 27.2171 7.48424 27.2113C7.27611 27.2054 7.07437 27.1381 6.90452 27.0176C6.73466 26.8972 6.60433 26.7291 6.52995 26.5346C6.45558 26.3402 6.44049 26.128 6.48663 25.925C6.51733 25.7899 6.5744 25.6622 6.65452 25.5492C6.73464 25.4362 6.83626 25.3401 6.95357 25.2664C7.07089 25.1927 7.2016 25.1429 7.33819 25.1198C7.47478 25.0967 7.61455 25.1008 7.74956 25.1318Z" fill="white"/>
<path d="M6.90043 30.5801C7.10875 30.5801 7.31241 30.6419 7.48562 30.7576C7.65883 30.8733 7.79384 31.0378 7.87356 31.2303C7.95328 31.4228 7.97414 31.6345 7.9335 31.8388C7.89286 32.0432 7.79255 32.2308 7.64524 32.3782C7.49794 32.5255 7.31026 32.6258 7.10594 32.6664C6.90162 32.7071 6.68985 32.6862 6.49738 32.6065C6.30492 32.5268 6.14041 32.3918 6.02468 32.2185C5.90894 32.0453 5.84717 31.8417 5.84717 31.6334C5.84684 31.4949 5.87384 31.3578 5.92666 31.2299C5.97947 31.102 6.05704 30.9857 6.15492 30.8878C6.25279 30.79 6.36904 30.7124 6.49698 30.6596C6.62492 30.6068 6.76202 30.5797 6.90043 30.5801Z" fill="white"/>
<path d="M7.28227 36.0915C7.48472 36.046 7.6961 36.0615 7.88978 36.136C8.08345 36.2105 8.25075 36.3406 8.37056 36.51C8.49037 36.6794 8.55734 36.8805 8.56302 37.088C8.56871 37.2954 8.51286 37.4998 8.4025 37.6756C8.29215 37.8513 8.13224 37.9904 7.94293 38.0754C7.75363 38.1603 7.54343 38.1874 7.33879 38.153C7.13415 38.1187 6.94424 38.0245 6.79304 37.8824C6.64184 37.7403 6.5361 37.5566 6.48915 37.3545C6.45778 37.2195 6.45347 37.0795 6.47641 36.9428C6.49935 36.8061 6.54912 36.6753 6.62284 36.5579C6.69656 36.4405 6.79277 36.3389 6.90595 36.2588C7.01913 36.1788 7.14702 36.1219 7.28227 36.0915Z" fill="white"/>
<path d="M8.87839 41.3578C9.06683 41.2698 9.27712 41.2395 9.48275 41.2708C9.68838 41.3021 9.88015 41.3936 10.0339 41.5337C10.1876 41.6738 10.2963 41.8563 10.3465 42.0582C10.3966 42.2601 10.3859 42.4723 10.3156 42.668C10.2453 42.8638 10.1186 43.0344 9.95151 43.1582C9.78441 43.2821 9.5844 43.3537 9.37665 43.3641C9.16891 43.3744 8.96274 43.323 8.78416 43.2163C8.60559 43.1097 8.46261 42.9525 8.37322 42.7647C8.3135 42.6393 8.27921 42.5032 8.2723 42.3645C8.26539 42.2257 8.28599 42.0869 8.33295 41.9561C8.37991 41.8254 8.45227 41.7052 8.54588 41.6025C8.63949 41.4998 8.7525 41.4166 8.87839 41.3578Z" fill="white"/>
<path d="M11.6163 46.1471C11.7791 46.0172 11.9769 45.9385 12.1844 45.921C12.392 45.9034 12.6002 45.9479 12.7825 46.0486C12.9648 46.1494 13.1132 46.302 13.2088 46.487C13.3044 46.6721 13.343 46.8814 13.3197 47.0884C13.2964 47.2954 13.2122 47.4909 13.0778 47.65C12.9434 47.8092 12.7649 47.925 12.5647 47.9826C12.3645 48.0403 12.1517 48.0373 11.9532 47.9741C11.7547 47.9108 11.5795 47.7901 11.4496 47.6272C11.363 47.5192 11.2987 47.3952 11.2602 47.2622C11.2217 47.1293 11.2099 46.9901 11.2253 46.8525C11.2408 46.715 11.2834 46.5819 11.3504 46.4608C11.4175 46.3397 11.5079 46.2331 11.6163 46.1471Z" fill="white"/>
<path d="M15.3397 50.2111C15.4695 50.0482 15.6448 49.9275 15.8433 49.8642C16.0418 49.801 16.2546 49.798 16.4548 49.8557C16.655 49.9134 16.8335 50.0291 16.9679 50.1883C17.1023 50.3474 17.1865 50.5429 17.2098 50.7499C17.2331 50.9569 17.1945 51.1662 17.0989 51.3513C17.0033 51.5364 16.8549 51.6889 16.6726 51.7897C16.4902 51.8904 16.2821 51.9349 16.0745 51.9174C15.867 51.8998 15.6692 51.8211 15.5064 51.6912C15.288 51.5171 15.1477 51.2633 15.1165 50.9857C15.0852 50.7081 15.1655 50.4295 15.3397 50.2111Z" fill="white"/>
<path d="M19.8787 53.3406C19.9681 53.1528 20.1111 52.9957 20.2897 52.889C20.4683 52.7823 20.6744 52.731 20.8821 52.7413C21.0899 52.7516 21.2899 52.8233 21.457 52.9471C21.6241 53.071 21.7508 53.2416 21.8211 53.4373C21.8914 53.6331 21.9021 53.8453 21.852 54.0472C21.8019 54.249 21.6931 54.4315 21.5394 54.5717C21.3857 54.7118 21.1939 54.8033 20.9883 54.8346C20.7826 54.8659 20.5723 54.8356 20.3839 54.7475C20.2582 54.6884 20.1455 54.6052 20.052 54.5024C19.9586 54.3997 19.8864 54.2795 19.8395 54.1489C19.7925 54.0182 19.7719 53.8795 19.7786 53.7408C19.7853 53.6021 19.8193 53.4661 19.8787 53.3406Z" fill="white"/>
<path d="M25.0034 55.3841C25.0505 55.1819 25.1564 54.9982 25.3078 54.8561C25.4592 54.7141 25.6492 54.6201 25.8539 54.5859C26.0587 54.5518 26.269 54.579 26.4582 54.6642C26.6475 54.7495 26.8073 54.8889 26.9175 55.0648C27.0276 55.2407 27.0832 55.4454 27.0771 55.6529C27.0711 55.8604 27.0037 56.0614 26.8836 56.2307C26.7634 56.3999 26.5958 56.5298 26.4019 56.6039C26.208 56.678 25.9965 56.693 25.794 56.647C25.659 56.6163 25.5314 56.5593 25.4185 56.4791C25.3056 56.3989 25.2096 56.2972 25.1362 56.1799C25.0627 56.0625 25.0132 55.9318 24.9904 55.7952C24.9676 55.6587 24.972 55.5189 25.0034 55.3841Z" fill="white"/>
<path d="M31.5001 57.286C32.0818 57.286 32.5533 56.8144 32.5533 56.2327C32.5533 55.651 32.0818 55.1794 31.5001 55.1794C30.9183 55.1794 30.4468 55.651 30.4468 56.2327C30.4468 56.8144 30.9183 57.286 31.5001 57.286Z" fill="white"/>
<path d="M35.9481 55.8513C35.9019 55.6483 35.917 55.4361 35.9914 55.2417C36.0658 55.0472 36.1961 54.8791 36.3659 54.7587C36.5358 54.6383 36.7375 54.5709 36.9457 54.565C37.1538 54.5592 37.359 54.6152 37.5353 54.7259C37.7117 54.8367 37.8512 54.9972 37.9363 55.1872C38.0215 55.3772 38.0484 55.5882 38.0137 55.7935C37.979 55.9988 37.8842 56.1892 37.7414 56.3407C37.5985 56.4921 37.4139 56.5978 37.211 56.6445C37.076 56.6755 36.9362 56.6796 36.7996 56.6565C36.663 56.6334 36.5323 56.5836 36.415 56.5099C36.2977 56.4362 36.1961 56.3401 36.1159 56.2271C36.0358 56.1141 35.9788 55.9864 35.9481 55.8513Z" fill="white"/>
<path d="M41.2274 54.255C41.1391 54.0665 41.1086 53.8561 41.1398 53.6503C41.171 53.4445 41.2625 53.2525 41.4027 53.0987C41.5429 52.9448 41.7255 52.836 41.9275 52.7858C42.1295 52.7357 42.3419 52.7465 42.5377 52.817C42.7336 52.8874 42.9042 53.0143 43.028 53.1817C43.1518 53.349 43.2232 53.5493 43.2333 53.7572C43.2433 53.9651 43.1916 54.1713 43.0845 54.3498C42.9775 54.5283 42.82 54.6711 42.6318 54.7601C42.5065 54.8195 42.3707 54.8535 42.2322 54.8602C42.0937 54.8669 41.9552 54.8462 41.8247 54.7992C41.6942 54.7523 41.5743 54.68 41.4718 54.5867C41.3693 54.4933 41.2863 54.3805 41.2274 54.255Z" fill="white"/>
<path d="M46.016 51.5245C45.8861 51.3616 45.8074 51.1639 45.7899 50.9563C45.7723 50.7488 45.8168 50.5406 45.9175 50.3583C46.0183 50.176 46.1709 50.0276 46.3559 49.932C46.541 49.8364 46.7503 49.7978 46.9573 49.8211C47.1643 49.8444 47.3598 49.9286 47.5189 50.063C47.6781 50.1974 47.7939 50.3759 47.8515 50.5761C47.9092 50.7763 47.9062 50.9891 47.843 51.1876C47.7797 51.3861 47.659 51.5613 47.4961 51.6912C47.2775 51.8647 46.999 51.9446 46.7216 51.9134C46.4443 51.8821 46.1905 51.7423 46.016 51.5245Z" fill="white"/>
<path d="M50.0777 47.7938C49.9148 47.6639 49.7941 47.4887 49.7309 47.2902C49.6676 47.0917 49.6647 46.8789 49.7223 46.6787C49.78 46.4786 49.8957 46.3 50.0549 46.1656C50.2141 46.0312 50.4095 45.947 50.6166 45.9237C50.8236 45.9004 51.0329 45.939 51.2179 46.0346C51.403 46.1302 51.5556 46.2786 51.6563 46.4609C51.7571 46.6432 51.8015 46.8514 51.784 47.059C51.7664 47.2665 51.6878 47.4643 51.5579 47.6271C51.3833 47.8449 51.1296 47.9847 50.8522 48.016C50.5748 48.0472 50.2964 47.9673 50.0777 47.7938Z" fill="white"/>
<path d="M53.2096 43.2548C53.0217 43.1645 52.8649 43.0204 52.759 42.8409C52.653 42.6614 52.6027 42.4545 52.6145 42.2464C52.6262 42.0382 52.6994 41.8383 52.8248 41.6718C52.9502 41.5053 53.1222 41.3798 53.3191 41.3111C53.5159 41.2424 53.7286 41.2337 53.9304 41.286C54.1322 41.3384 54.3139 41.4494 54.4525 41.605C54.5912 41.7607 54.6806 41.954 54.7093 42.1604C54.738 42.3669 54.7048 42.5772 54.614 42.7648C54.554 42.8893 54.4701 43.0007 54.3671 43.0928C54.264 43.1848 54.1438 43.2556 54.0134 43.3011C53.8829 43.3466 53.7448 43.3659 53.6069 43.358C53.469 43.3501 53.334 43.315 53.2096 43.2548Z" fill="white"/>
<path d="M55.2505 38.1324C55.0475 38.0857 54.8629 37.9798 54.7201 37.8282C54.5773 37.6765 54.4827 37.486 54.4482 37.2806C54.4136 37.0751 54.4408 36.8641 54.5262 36.6741C54.6116 36.4842 54.7515 36.3238 54.928 36.2132C55.1046 36.1027 55.3099 36.047 55.5181 36.0532C55.7263 36.0594 55.928 36.1271 56.0977 36.2479C56.2674 36.3687 56.3975 36.5371 56.4715 36.7319C56.5455 36.9266 56.5601 37.1388 56.5134 37.3418C56.4828 37.4769 56.4257 37.6045 56.3455 37.7174C56.2654 37.8303 56.1637 37.9262 56.0463 37.9997C55.929 38.0731 55.7982 38.1227 55.6617 38.1455C55.5251 38.1683 55.3854 38.1638 55.2505 38.1324Z" fill="white"/>
<path d="M56.1021 32.6866C55.8938 32.6866 55.6901 32.6249 55.5169 32.5091C55.3437 32.3934 55.2087 32.2289 55.129 32.0364C55.0493 31.844 55.0284 31.6322 55.0691 31.4279C55.1097 31.2236 55.21 31.0359 55.3573 30.8886C55.5046 30.7413 55.6923 30.641 55.8966 30.6003C56.1009 30.5597 56.3127 30.5805 56.5052 30.6603C56.6976 30.74 56.8622 30.875 56.9779 31.0482C57.0936 31.2214 57.1554 31.425 57.1554 31.6334C57.1554 31.9127 57.0444 32.1806 56.8469 32.3781C56.6493 32.5757 56.3815 32.6866 56.1021 32.6866Z" fill="white"/>
<path d="M55.7203 27.1854C55.5173 27.232 55.305 27.2174 55.1103 27.1434C54.9156 27.0694 54.7472 26.9393 54.6264 26.7696C54.5056 26.6 54.4378 26.3983 54.4316 26.1901C54.4254 25.9818 54.4811 25.7765 54.5917 25.5999C54.7022 25.4234 54.8626 25.2836 55.0526 25.1981C55.2425 25.1127 55.4536 25.0856 55.659 25.1201C55.8644 25.1546 56.055 25.2492 56.2066 25.3921C56.3582 25.5349 56.4641 25.7194 56.5109 25.9224C56.5423 26.0573 56.5467 26.197 56.5239 26.3336C56.5012 26.4702 56.4516 26.6009 56.3781 26.7182C56.3047 26.8356 56.2087 26.9373 56.0958 27.0175C55.9829 27.0976 55.8553 27.1547 55.7203 27.1854Z" fill="white"/>
<path d="M54.1243 21.9063C53.9367 21.9972 53.7264 22.0303 53.5199 22.0016C53.3135 21.9729 53.1201 21.8835 52.9645 21.7449C52.8088 21.6062 52.6978 21.4245 52.6455 21.2227C52.5932 21.021 52.602 20.8082 52.6706 20.6114C52.7393 20.4146 52.8648 20.2426 53.0313 20.1171C53.1978 19.9917 53.3977 19.9185 53.6059 19.9068C53.814 19.895 54.0209 19.9453 54.2004 20.0513C54.3799 20.1572 54.524 20.3141 54.6143 20.5019C54.7352 20.7532 54.7514 21.0421 54.6596 21.3054C54.5677 21.5686 54.3752 21.7847 54.1243 21.9063Z" fill="white"/>
<path d="M51.3912 17.1173C51.2284 17.2472 51.0306 17.3258 50.8231 17.3434C50.6155 17.3609 50.4073 17.3165 50.225 17.2157C50.0427 17.1149 49.8943 16.9624 49.7987 16.7773C49.7031 16.5922 49.6645 16.3829 49.6878 16.1759C49.7111 15.9689 49.7953 15.7735 49.9297 15.6143C50.0641 15.4551 50.2427 15.3394 50.4428 15.2817C50.643 15.224 50.8558 15.227 51.0543 15.2903C51.2528 15.3535 51.428 15.4742 51.5579 15.6371C51.7314 15.8558 51.8113 16.1342 51.7801 16.4116C51.7488 16.689 51.609 16.9427 51.3912 17.1173Z" fill="white"/>
<path d="M47.6629 13.0557C47.533 13.2186 47.3577 13.3393 47.1592 13.4025C46.9608 13.4658 46.748 13.4688 46.5478 13.4111C46.3476 13.3534 46.169 13.2377 46.0346 13.0785C45.9002 12.9193 45.8161 12.7239 45.7928 12.5169C45.7694 12.3099 45.808 12.1006 45.9037 11.9155C45.9993 11.7304 46.1476 11.5779 46.33 11.4771C46.5123 11.3763 46.7204 11.3319 46.928 11.3494C47.1356 11.367 47.3333 11.4457 47.4962 11.5756C47.714 11.7501 47.8538 12.0038 47.885 12.2812C47.9163 12.5586 47.8364 12.8371 47.6629 13.0557Z" fill="white"/>
<path d="M43.124 9.92362C43.0349 10.1118 42.8921 10.2693 42.7136 10.3763C42.5351 10.4834 42.3289 10.5352 42.121 10.5251C41.9131 10.515 41.7129 10.4436 41.5455 10.3198C41.3782 10.196 41.2513 10.0254 41.1808 9.82955C41.1104 9.63369 41.0995 9.42134 41.1497 9.21933C41.1998 9.01731 41.3087 8.83468 41.4625 8.69448C41.6164 8.55429 41.8083 8.46282 42.0141 8.43163C42.2199 8.40044 42.4303 8.43094 42.6188 8.51924C42.7444 8.57807 42.8571 8.66112 42.9505 8.76361C43.0439 8.86611 43.1161 8.98603 43.163 9.11651C43.21 9.24699 43.2307 9.38546 43.224 9.52396C43.2173 9.66246 43.1833 9.79828 43.124 9.92362Z" fill="white"/>
<path d="M38.0017 7.88287C37.9551 8.0858 37.8493 8.27036 37.6979 8.41323C37.5464 8.5561 37.356 8.65088 37.1507 8.68558C36.9454 8.72029 36.7344 8.69337 36.5444 8.60822C36.3544 8.52308 36.1939 8.38352 36.0832 8.20719C35.9724 8.03086 35.9165 7.82568 35.9223 7.61755C35.9281 7.40942 35.9955 7.20768 36.1159 7.03782C36.2363 6.86797 36.4044 6.73762 36.5989 6.66325C36.7934 6.58887 37.0055 6.5738 37.2086 6.61994C37.3438 6.65033 37.4717 6.70718 37.5849 6.78723C37.6981 6.86727 37.7943 6.96892 37.868 7.08631C37.9417 7.2037 37.9915 7.33452 38.0144 7.47123C38.0374 7.60794 38.033 7.74784 38.0017 7.88287Z" fill="white"/>
<path d="M31.5 13.0103C31.9604 13.0103 32.3336 12.6371 32.3336 12.1768C32.3336 11.7164 31.9604 11.3433 31.5 11.3433C31.0397 11.3433 30.6665 11.7164 30.6665 12.1768C30.6665 12.6371 31.0397 13.0103 31.5 13.0103Z" fill="white"/>
<path d="M27.984 12.4798C28.0202 12.64 28.0082 12.8073 27.9495 12.9607C27.8909 13.1142 27.7883 13.2469 27.6545 13.3422C27.5207 13.4374 27.3617 13.4911 27.1976 13.4963C27.0334 13.5016 26.8713 13.4582 26.7317 13.3716C26.5921 13.2851 26.4812 13.1592 26.4129 13.0098C26.3446 12.8605 26.3219 12.6942 26.3478 12.532C26.3736 12.3698 26.4468 12.2189 26.5582 12.0981C26.6695 11.9774 26.8141 11.8922 26.9737 11.8533C27.0812 11.8275 27.1927 11.8233 27.3019 11.8408C27.411 11.8584 27.5156 11.8974 27.6096 11.9557C27.7036 12.014 27.785 12.0903 27.8493 12.1802C27.9136 12.2702 27.9594 12.372 27.984 12.4798Z" fill="white"/>
<path d="M23.8087 13.7428C23.8805 13.8914 23.9065 14.0578 23.8836 14.2212C23.8606 14.3845 23.7898 14.5374 23.6799 14.6604C23.5701 14.7834 23.4262 14.8711 23.2665 14.9123C23.1068 14.9536 22.9384 14.9465 22.7828 14.892C22.6271 14.8375 22.4911 14.7381 22.392 14.6062C22.2928 14.4744 22.235 14.3162 22.2259 14.1515C22.2167 13.9868 22.2567 13.8231 22.3406 13.6811C22.4245 13.5391 22.5487 13.4252 22.6974 13.3538C22.8964 13.2583 23.1251 13.2456 23.3335 13.3185C23.5418 13.3914 23.7128 13.5441 23.8087 13.7428Z" fill="white"/>
<path d="M20.0228 15.9023C20.1255 16.0312 20.1878 16.1876 20.2017 16.3518C20.2156 16.5161 20.1805 16.6807 20.1008 16.825C20.0211 16.9693 19.9005 17.0867 19.7541 17.1625C19.6077 17.2382 19.4421 17.2688 19.2783 17.2504C19.1145 17.2321 18.9598 17.1656 18.8338 17.0593C18.7078 16.9531 18.6161 16.8119 18.5704 16.6535C18.5246 16.4952 18.5268 16.3268 18.5767 16.1697C18.6266 16.0126 18.722 15.8739 18.8508 15.771C18.9362 15.7023 19.0343 15.6511 19.1396 15.6206C19.2449 15.59 19.3551 15.5805 19.4641 15.5927C19.573 15.6049 19.6785 15.6385 19.7744 15.6917C19.8702 15.7448 19.9547 15.8164 20.0228 15.9023Z" fill="white"/>
<path d="M16.8096 18.8501C16.9389 18.9525 17.0349 19.091 17.0855 19.2481C17.136 19.4051 17.1388 19.5736 17.0936 19.7322C17.0483 19.8908 16.9569 20.0325 16.8311 20.1392C16.7053 20.2458 16.5507 20.3128 16.3868 20.3316C16.2229 20.3503 16.0571 20.32 15.9105 20.2445C15.7638 20.169 15.6429 20.0517 15.5629 19.9074C15.483 19.7631 15.4476 19.5984 15.4614 19.434C15.4751 19.2696 15.5374 19.113 15.6402 18.984C15.7777 18.8114 15.978 18.7004 16.1972 18.6753C16.4165 18.6502 16.6367 18.7131 16.8096 18.8501Z" fill="white"/>
<path d="M14.3344 22.4519C14.4831 22.5233 14.6073 22.6371 14.6912 22.7791C14.7752 22.9211 14.8151 23.0848 14.8059 23.2495C14.7968 23.4142 14.739 23.5724 14.6399 23.7043C14.5407 23.8361 14.4047 23.9355 14.249 23.99C14.0934 24.0445 13.925 24.0516 13.7653 24.0104C13.6056 23.9691 13.4617 23.8814 13.3519 23.7584C13.242 23.6354 13.1712 23.4825 13.1482 23.3192C13.1253 23.1558 13.1513 22.9894 13.2231 22.8408C13.319 22.6421 13.49 22.4895 13.6983 22.4165C13.9067 22.3436 14.1355 22.3563 14.3344 22.4519Z" fill="white"/>
<path d="M12.7176 26.4933C12.8786 26.5295 13.0252 26.6127 13.1389 26.7323C13.2526 26.8519 13.3282 27.0026 13.3562 27.1652C13.3841 27.3279 13.3632 27.4952 13.296 27.6459C13.2288 27.7966 13.1184 27.924 12.9787 28.0119C12.8391 28.0998 12.6764 28.1443 12.5115 28.1397C12.3465 28.1351 12.1866 28.0816 12.0521 27.9861C11.9175 27.8905 11.8143 27.7572 11.7557 27.6029C11.697 27.4487 11.6854 27.2805 11.7224 27.1197C11.7718 26.9049 11.9042 26.7185 12.0907 26.6011C12.2772 26.4837 12.5026 26.4449 12.7176 26.4933Z" fill="white"/>
<path d="M12.0459 30.7999C12.2108 30.7999 12.3719 30.8488 12.509 30.9403C12.6461 31.0319 12.7529 31.1621 12.816 31.3144C12.8791 31.4667 12.8956 31.6343 12.8635 31.796C12.8313 31.9577 12.7519 32.1062 12.6353 32.2228C12.5188 32.3394 12.3702 32.4188 12.2085 32.4509C12.0468 32.4831 11.8793 32.4666 11.727 32.4035C11.5746 32.3404 11.4445 32.2336 11.3529 32.0965C11.2613 31.9594 11.2124 31.7983 11.2124 31.6334C11.2121 31.5238 11.2334 31.4153 11.2752 31.314C11.317 31.2127 11.3783 31.1207 11.4558 31.0433C11.5333 30.9658 11.6253 30.9044 11.7266 30.8626C11.8278 30.8209 11.9364 30.7995 12.0459 30.7999Z" fill="white"/>
<path d="M12.3488 35.1494C12.509 35.1133 12.6764 35.1252 12.8298 35.1839C12.9832 35.2425 13.1159 35.3452 13.2112 35.479C13.3065 35.6128 13.3601 35.7717 13.3654 35.9359C13.3706 36.1001 13.3272 36.2621 13.2407 36.4017C13.1541 36.5413 13.0282 36.6522 12.8789 36.7205C12.7295 36.7889 12.5633 36.8115 12.4011 36.7857C12.2389 36.7598 12.0879 36.6866 11.9672 36.5752C11.8464 36.4639 11.7613 36.3193 11.7224 36.1598C11.6962 36.0522 11.6917 35.9406 11.7091 35.8313C11.7265 35.722 11.7655 35.6173 11.8238 35.5233C11.8821 35.4292 11.9586 35.3477 12.0487 35.2835C12.1388 35.2194 12.2409 35.1738 12.3488 35.1494Z" fill="white"/>
<path d="M13.6117 39.3246C13.7603 39.2529 13.9267 39.2269 14.09 39.2498C14.2534 39.2727 14.4063 39.3436 14.5293 39.4535C14.6523 39.5633 14.74 39.7072 14.7812 39.8669C14.8225 40.0266 14.8154 40.1949 14.7609 40.3506C14.7064 40.5063 14.607 40.6423 14.4751 40.7414C14.3433 40.8405 14.185 40.8983 14.0204 40.9075C13.8557 40.9166 13.692 40.8767 13.55 40.7928C13.408 40.7089 13.2941 40.5847 13.2227 40.436C13.1272 40.237 13.1145 40.0082 13.1874 39.7999C13.2604 39.5915 13.4129 39.4206 13.6117 39.3246Z" fill="white"/>
<path d="M15.7718 43.1109C15.9007 43.0081 16.0571 42.9458 16.2213 42.9319C16.3856 42.918 16.5502 42.9531 16.6945 43.0328C16.8388 43.1125 16.9562 43.2332 17.032 43.3796C17.1077 43.526 17.1383 43.6915 17.12 43.8553C17.1016 44.0191 17.0351 44.1738 16.9288 44.2998C16.8226 44.4258 16.6814 44.5175 16.523 44.5633C16.3647 44.609 16.1963 44.6068 16.0392 44.5569C15.8821 44.507 15.7434 44.4116 15.6405 44.2829C15.5718 44.1975 15.5206 44.0993 15.49 43.994C15.4595 43.8888 15.45 43.7785 15.4622 43.6695C15.4744 43.5606 15.508 43.4552 15.5612 43.3593C15.6143 43.2634 15.6859 43.179 15.7718 43.1109Z" fill="white"/>
<path d="M18.719 46.3239C18.8219 46.1951 18.9607 46.0998 19.1178 46.0499C19.2749 46 19.4432 45.9978 19.6015 46.0435C19.7599 46.0893 19.9011 46.181 20.0074 46.307C20.1136 46.433 20.1801 46.5876 20.1985 46.7514C20.2168 46.9152 20.1862 47.0808 20.1105 47.2272C20.0348 47.3736 19.9174 47.4943 19.7731 47.5739C19.6288 47.6536 19.4641 47.6887 19.2999 47.6749C19.1356 47.661 18.9792 47.5987 18.8504 47.4959C18.7647 47.4276 18.6934 47.3431 18.6405 47.2472C18.5875 47.1513 18.554 47.0459 18.5418 46.9371C18.5296 46.8283 18.539 46.7181 18.5694 46.6129C18.5998 46.5076 18.6506 46.4095 18.719 46.3239Z" fill="white"/>
<path d="M22.3082 48.7992C22.3799 48.6508 22.494 48.527 22.6361 48.4435C22.7781 48.3599 22.9418 48.3204 23.1063 48.3298C23.2708 48.3392 23.4288 48.3972 23.5604 48.4964C23.692 48.5956 23.7912 48.7316 23.8456 48.8872C23.8999 49.0427 23.9069 49.2109 23.8657 49.3705C23.8245 49.53 23.7369 49.6738 23.614 49.7836C23.4911 49.8934 23.3384 49.9643 23.1752 49.9873C23.012 50.0104 22.8457 49.9845 22.6972 49.9131C22.5984 49.8655 22.51 49.799 22.437 49.7173C22.364 49.6355 22.3078 49.5402 22.2717 49.4368C22.2356 49.3333 22.2202 49.2237 22.2265 49.1143C22.2327 49.0049 22.2605 48.8978 22.3082 48.7992Z" fill="white"/>
<path d="M26.3602 50.4157C26.3969 50.2549 26.4804 50.1086 26.6002 49.9953C26.72 49.882 26.8707 49.8068 27.0333 49.7792C27.1959 49.7516 27.363 49.7728 27.5135 49.8402C27.664 49.9075 27.7912 50.018 27.8789 50.1577C27.9665 50.2974 28.0108 50.4599 28.0061 50.6247C28.0014 50.7896 27.9479 50.9493 27.8524 51.0837C27.7569 51.2181 27.6236 51.3212 27.4695 51.3799C27.3154 51.4386 27.1474 51.4502 26.9866 51.4134C26.8799 51.3892 26.7789 51.3442 26.6896 51.281C26.6003 51.2177 26.5243 51.1374 26.4661 51.0447C26.4079 50.952 26.3686 50.8487 26.3504 50.7407C26.3322 50.6328 26.3356 50.5223 26.3602 50.4157Z" fill="white"/>
<path d="M31.5 51.921C31.9604 51.921 32.3336 51.5478 32.3336 51.0874C32.3336 50.6271 31.9604 50.2539 31.5 50.2539C31.0397 50.2539 30.6665 50.6271 30.6665 51.0874C30.6665 51.5478 31.0397 51.921 31.5 51.921Z" fill="white"/>
<path d="M35.0186 50.787C34.9818 50.6262 34.9934 50.4582 35.0521 50.3041C35.1108 50.15 35.2139 50.0167 35.3483 49.9212C35.4827 49.8257 35.6425 49.7722 35.8073 49.7675C35.9721 49.7628 36.1346 49.8071 36.2743 49.8948C36.414 49.9824 36.5245 50.1096 36.5918 50.2601C36.6592 50.4106 36.6805 50.5777 36.6529 50.7403C36.6252 50.9029 36.55 51.0536 36.4367 51.1734C36.3234 51.2932 36.1771 51.3767 36.0163 51.4134C35.9097 51.438 35.7992 51.4414 35.6913 51.4232C35.5833 51.405 35.48 51.3657 35.3873 51.3075C35.2946 51.2493 35.2143 51.1734 35.151 51.084C35.0878 50.9947 35.0428 50.8937 35.0186 50.787Z" fill="white"/>
<path d="M39.1913 49.524C39.1196 49.3755 39.0936 49.209 39.1165 49.0457C39.1394 48.8824 39.2103 48.7295 39.3201 48.6065C39.43 48.4834 39.5739 48.3958 39.7336 48.3545C39.8933 48.3133 40.0616 48.3204 40.2173 48.3749C40.3729 48.4293 40.509 48.5288 40.6081 48.6606C40.7072 48.7924 40.765 48.9507 40.7742 49.1154C40.7833 49.2801 40.7434 49.4438 40.6595 49.5857C40.5755 49.7277 40.4514 49.8416 40.3027 49.913C40.1037 50.0085 39.8749 50.0213 39.6666 49.9483C39.4582 49.8754 39.2873 49.7228 39.1913 49.524Z" fill="white"/>
<path d="M42.98 47.3618C42.8772 47.2328 42.815 47.0762 42.8012 46.9118C42.7875 46.7474 42.8228 46.5826 42.9028 46.4384C42.9827 46.2941 43.1037 46.1767 43.2503 46.1012C43.397 46.0257 43.5628 45.9954 43.7267 46.0142C43.8906 46.033 44.0452 46.0999 44.171 46.2066C44.2968 46.3133 44.3881 46.4549 44.4334 46.6136C44.4787 46.7722 44.4759 46.9407 44.4253 47.0977C44.3748 47.2547 44.2788 47.3932 44.1495 47.4957C43.9765 47.6327 43.7563 47.6955 43.5371 47.6705C43.3179 47.6454 43.1175 47.5344 42.98 47.3618Z" fill="white"/>
<path d="M46.1931 44.4269C46.064 44.3242 45.9682 44.1855 45.918 44.0283C45.8678 43.8712 45.8653 43.7027 45.9109 43.5441C45.9565 43.3856 46.0481 43.2441 46.1741 43.1377C46.3002 43.0312 46.455 42.9646 46.6189 42.9462C46.7829 42.9278 46.9486 42.9584 47.0951 43.0343C47.2416 43.1101 47.3623 43.2277 47.4419 43.3722C47.5216 43.5167 47.5566 43.6815 47.5424 43.8459C47.5283 44.0103 47.4657 44.1668 47.3626 44.2955C47.2945 44.3811 47.2102 44.4524 47.1146 44.5053C47.0189 44.5582 46.9137 44.5917 46.8051 44.6039C46.6964 44.6161 46.5865 44.6067 46.4815 44.5764C46.3764 44.546 46.2785 44.4952 46.1931 44.4269Z" fill="white"/>
<path d="M48.6681 40.825C48.5194 40.7536 48.3952 40.6397 48.3113 40.4977C48.2274 40.3557 48.1875 40.1921 48.1966 40.0274C48.2057 39.8627 48.2635 39.7044 48.3627 39.5726C48.4618 39.4408 48.5978 39.3413 48.7535 39.2868C48.9092 39.2324 49.0775 39.2253 49.2372 39.2665C49.3969 39.3077 49.5408 39.3954 49.6506 39.5185C49.7605 39.6415 49.8314 39.7944 49.8543 39.9577C49.8772 40.121 49.8512 40.2875 49.7795 40.436C49.6835 40.6348 49.5126 40.7874 49.3042 40.8603C49.0959 40.9332 48.8671 40.9205 48.6681 40.825Z" fill="white"/>
<path d="M50.2823 36.7735C50.1227 36.7346 49.9781 36.6495 49.8668 36.5287C49.7554 36.408 49.6822 36.2571 49.6564 36.0948C49.6305 35.9326 49.6532 35.7664 49.7215 35.617C49.7898 35.4676 49.9007 35.3418 50.0403 35.2552C50.1799 35.1687 50.342 35.1253 50.5062 35.1306C50.6703 35.1358 50.8293 35.1894 50.9631 35.2847C51.0969 35.38 51.1995 35.5127 51.2581 35.6661C51.3168 35.8195 51.3288 35.9869 51.2926 36.1471C51.2683 36.255 51.2227 36.3571 51.1585 36.4472C51.0943 36.5373 51.0128 36.6138 50.9188 36.6721C50.8247 36.7304 50.72 36.7694 50.6107 36.7868C50.5014 36.8042 50.3898 36.7997 50.2823 36.7735Z" fill="white"/>
<path d="M50.9566 32.4644C50.7916 32.4644 50.6303 32.4154 50.4932 32.3237C50.3561 32.232 50.2493 32.1017 50.1862 31.9492C50.1232 31.7968 50.1069 31.6291 50.1393 31.4673C50.1716 31.3055 50.2513 31.157 50.3681 31.0405C50.4849 30.9241 50.6337 30.8449 50.7955 30.813C50.9574 30.7811 51.125 30.798 51.2773 30.8615C51.4296 30.925 51.5596 31.0322 51.6509 31.1696C51.7421 31.307 51.7906 31.4684 51.7901 31.6334C51.7901 31.7427 51.7685 31.851 51.7266 31.952C51.6847 32.0529 51.6233 32.1447 51.5458 32.2219C51.4684 32.2991 51.3765 32.3602 51.2754 32.4018C51.1743 32.4435 51.0659 32.4647 50.9566 32.4644Z" fill="white"/>
<path d="M50.6536 28.1147C50.4929 28.1516 50.3248 28.1399 50.1707 28.0812C50.0166 28.0226 49.8833 27.9195 49.7878 27.7851C49.6923 27.6507 49.6388 27.4909 49.6341 27.3261C49.6294 27.1612 49.6737 26.9987 49.7614 26.8591C49.8491 26.7194 49.9762 26.6089 50.1267 26.5415C50.2772 26.4741 50.4443 26.4529 50.6069 26.4805C50.7695 26.5081 50.9202 26.5833 51.04 26.6966C51.1599 26.8099 51.2434 26.9562 51.28 27.117C51.3291 27.3324 51.2907 27.5584 51.1732 27.7455C51.0558 27.9326 50.8689 28.0654 50.6536 28.1147Z" fill="white"/>
<path d="M49.3908 23.9421C49.2423 24.0138 49.0758 24.0399 48.9125 24.0169C48.7491 23.994 48.5963 23.9231 48.4732 23.8133C48.3502 23.7034 48.2625 23.5596 48.2213 23.3999C48.1801 23.2402 48.1871 23.0718 48.2416 22.9161C48.2961 22.7605 48.3956 22.6245 48.5274 22.5253C48.6592 22.4262 48.8175 22.3684 48.9821 22.3593C49.1468 22.3501 49.3105 22.39 49.4525 22.474C49.5945 22.5579 49.7084 22.6821 49.7798 22.8307C49.8753 23.0297 49.888 23.2585 49.8151 23.4669C49.7422 23.6752 49.5896 23.8461 49.3908 23.9421Z" fill="white"/>
<path d="M47.231 20.1534C47.1023 20.2565 46.9458 20.3191 46.7814 20.3332C46.617 20.3473 46.4522 20.3124 46.3077 20.2327C46.1632 20.1531 46.0456 20.0324 45.9698 19.8859C45.8939 19.7394 45.8633 19.5736 45.8817 19.4097C45.9001 19.2458 45.9667 19.091 46.0732 18.9649C46.1796 18.8389 46.3211 18.7473 46.4797 18.7017C46.6382 18.6561 46.8067 18.6585 46.9639 18.7088C47.121 18.759 47.2597 18.8548 47.3624 18.9839C47.4307 19.0692 47.4815 19.1672 47.5119 19.2722C47.5422 19.3773 47.5516 19.4872 47.5394 19.5959C47.5272 19.7045 47.4937 19.8097 47.4408 19.9053C47.3878 20.001 47.3166 20.0853 47.231 20.1534Z" fill="white"/>
<path d="M43.6653 17.2767C44.125 17.253 44.4785 16.8612 44.4549 16.4014C44.4312 15.9417 44.0393 15.5882 43.5795 15.6119C43.1198 15.6356 42.7663 16.0275 42.79 16.4872C42.8137 16.9469 43.2056 17.3004 43.6653 17.2767Z" fill="white"/>
<path d="M40.6914 14.4651C40.62 14.6138 40.5061 14.738 40.3641 14.8219C40.2221 14.9058 40.0585 14.9457 39.8938 14.9366C39.7291 14.9275 39.5708 14.8697 39.439 14.7705C39.3072 14.6714 39.2077 14.5354 39.1533 14.3797C39.0988 14.224 39.0917 14.0557 39.1329 13.896C39.1741 13.7363 39.2618 13.5924 39.3849 13.4826C39.5079 13.3727 39.6608 13.3018 39.8241 13.2789C39.9874 13.256 40.1539 13.282 40.3024 13.3537C40.5012 13.4497 40.6538 13.6206 40.7267 13.829C40.7997 14.0373 40.7869 14.2661 40.6914 14.4651Z" fill="white"/>
<path d="M36.6424 12.8536C36.6035 13.0132 36.5184 13.1577 36.3976 13.2691C36.2769 13.3804 36.1259 13.4536 35.9637 13.4795C35.8015 13.5053 35.6353 13.4827 35.4859 13.4144C35.3366 13.3461 35.2107 13.2352 35.1241 13.0956C35.0376 12.956 34.9942 12.7939 34.9994 12.6297C35.0047 12.4656 35.0583 12.3066 35.1536 12.1728C35.2489 12.039 35.3816 11.9364 35.535 11.8777C35.6884 11.8191 35.8558 11.8071 36.016 11.8433C36.1238 11.8679 36.2256 11.9137 36.3155 11.978C36.4055 12.0422 36.4818 12.1237 36.5401 12.2177C36.5983 12.3117 36.6374 12.4162 36.6549 12.5254C36.6725 12.6345 36.6682 12.7461 36.6424 12.8536Z" fill="white"/>
<path d="M31.5001 17.5315C31.8489 17.5315 32.1316 17.2488 32.1316 16.9C32.1316 16.5513 31.8489 16.2686 31.5001 16.2686C31.1514 16.2686 30.8687 16.5513 30.8687 16.9C30.8687 17.2488 31.1514 17.5315 31.5001 17.5315Z" fill="white"/>
<path d="M28.838 17.1299C28.8657 17.2516 28.8568 17.3788 28.8123 17.4954C28.7678 17.612 28.6897 17.7129 28.588 17.7851C28.4862 17.8574 28.3653 17.8979 28.2405 17.9015C28.1158 17.9051 27.9927 17.8717 27.887 17.8054C27.7812 17.7391 27.6974 17.643 27.6463 17.5291C27.5951 17.4153 27.5789 17.2888 27.5995 17.1657C27.6202 17.0426 27.6769 16.9284 27.7625 16.8375C27.848 16.7466 27.9586 16.6831 28.0802 16.6551C28.1611 16.6364 28.245 16.6338 28.3269 16.6476C28.4088 16.6613 28.4872 16.6911 28.5576 16.7353C28.628 16.7794 28.689 16.8369 28.7371 16.9046C28.7852 16.9724 28.8195 17.0489 28.838 17.1299Z" fill="white"/>
<path d="M25.6778 18.0847C25.7323 18.1971 25.7521 18.3231 25.735 18.4468C25.7178 18.5705 25.6643 18.6863 25.5813 18.7796C25.4983 18.8729 25.3895 18.9395 25.2686 18.971C25.1478 19.0025 25.0203 18.9974 24.9023 18.9564C24.7843 18.9155 24.6812 18.8404 24.6058 18.7408C24.5305 18.6412 24.4864 18.5215 24.4791 18.3968C24.4718 18.2721 24.5017 18.1481 24.5649 18.0404C24.6281 17.9327 24.7218 17.8461 24.8342 17.7917C24.985 17.7193 25.1583 17.7095 25.3163 17.7644C25.4743 17.8193 25.6043 17.9344 25.6778 18.0847Z" fill="white"/>
<path d="M22.8085 19.7214C22.8855 19.8189 22.9319 19.9369 22.9419 20.0608C22.9519 20.1846 22.9249 20.3086 22.8645 20.4171C22.8041 20.5257 22.7129 20.6139 22.6025 20.6707C22.492 20.7275 22.3672 20.7503 22.2438 20.7362C22.1203 20.7221 22.0038 20.6719 21.909 20.5917C21.8141 20.5115 21.7451 20.405 21.7107 20.2856C21.6762 20.1663 21.6779 20.0394 21.7155 19.921C21.7531 19.8026 21.8249 19.698 21.9219 19.6204C22.0529 19.5163 22.2198 19.4685 22.386 19.4875C22.5523 19.5064 22.7042 19.5905 22.8085 19.7214Z" fill="white"/>
<path d="M20.3761 21.9467C20.473 22.0243 20.5448 22.129 20.5824 22.2474C20.62 22.3658 20.6217 22.4926 20.5872 22.612C20.5528 22.7313 20.4838 22.8378 20.389 22.918C20.2941 22.9982 20.1776 23.0485 20.0542 23.0626C19.9307 23.0766 19.8059 23.0538 19.6955 22.997C19.585 22.9403 19.4938 22.852 19.4334 22.7435C19.373 22.6349 19.3461 22.5109 19.356 22.3871C19.366 22.2633 19.4125 22.1452 19.4895 22.0477C19.5937 21.9169 19.7456 21.8328 19.9119 21.8138C20.0781 21.7949 20.245 21.8427 20.3761 21.9467Z" fill="white"/>
<path d="M18.5019 24.6721C18.6147 24.726 18.7089 24.8122 18.7727 24.9196C18.8365 25.0271 18.8669 25.1511 18.8602 25.2759C18.8534 25.4007 18.8098 25.5207 18.7348 25.6207C18.6598 25.7207 18.5569 25.7962 18.4389 25.8376C18.321 25.8791 18.1934 25.8846 18.0724 25.8534C17.9513 25.8223 17.8423 25.756 17.7589 25.6628C17.6756 25.5697 17.6218 25.4539 17.6043 25.3301C17.5869 25.2064 17.6065 25.0802 17.6608 24.9677C17.6965 24.8929 17.7465 24.8259 17.8082 24.7706C17.8698 24.7152 17.9418 24.6726 18.0199 24.6451C18.0981 24.6176 18.1809 24.6059 18.2636 24.6105C18.3463 24.6152 18.4273 24.6361 18.5019 24.6721Z" fill="white"/>
<path d="M17.2794 27.7386C17.401 27.7667 17.5116 27.8302 17.5971 27.9211C17.6827 28.012 17.7394 28.1262 17.7601 28.2493C17.7807 28.3724 17.7645 28.4988 17.7133 28.6127C17.6622 28.7265 17.5784 28.8227 17.4726 28.889C17.3669 28.9552 17.2438 28.9887 17.1191 28.9851C16.9943 28.9815 16.8734 28.941 16.7716 28.8687C16.6699 28.7964 16.5918 28.6956 16.5473 28.579C16.5028 28.4624 16.4939 28.3352 16.5217 28.2135C16.5401 28.1325 16.5744 28.0559 16.6225 27.9882C16.6706 27.9205 16.7316 27.8629 16.802 27.8188C16.8724 27.7747 16.9508 27.7449 17.0327 27.7311C17.1147 27.7174 17.1985 27.7199 17.2794 27.7386Z" fill="white"/>
<path d="M16.7692 31.0019C16.8941 31.0019 17.0161 31.0389 17.12 31.1083C17.2238 31.1777 17.3048 31.2763 17.3526 31.3917C17.4004 31.5071 17.4128 31.6341 17.3885 31.7566C17.3641 31.879 17.304 31.9916 17.2157 32.0799C17.1273 32.1682 17.0148 32.2283 16.8923 32.2527C16.7699 32.2771 16.6429 32.2646 16.5275 32.2168C16.4121 32.169 16.3135 32.088 16.2441 31.9842C16.1747 31.8804 16.1377 31.7583 16.1377 31.6334C16.1374 31.5503 16.1535 31.4681 16.1851 31.3913C16.2167 31.3146 16.2632 31.2448 16.3219 31.1861C16.3806 31.1274 16.4504 31.0809 16.5271 31.0493C16.6039 31.0177 16.6861 31.0016 16.7692 31.0019Z" fill="white"/>
<path d="M16.9989 34.2957C17.1206 34.2679 17.2478 34.2768 17.3644 34.3213C17.481 34.3658 17.5818 34.4439 17.6541 34.5456C17.7264 34.6474 17.7669 34.7683 17.7705 34.8931C17.7741 35.0178 17.7406 35.1409 17.6743 35.2466C17.6081 35.3524 17.5119 35.4361 17.3981 35.4873C17.2842 35.5385 17.1578 35.5547 17.0347 35.5341C16.9116 35.5134 16.7974 35.4567 16.7065 35.3711C16.6156 35.2856 16.5521 35.175 16.524 35.0534C16.5053 34.9725 16.5028 34.8886 16.5165 34.8067C16.5303 34.7248 16.5601 34.6464 16.6042 34.576C16.6483 34.5056 16.7059 34.4446 16.7736 34.3965C16.8413 34.3484 16.9179 34.3141 16.9989 34.2957Z" fill="white"/>
<path d="M17.9538 37.4555C18.0662 37.4011 18.1923 37.3812 18.316 37.3983C18.4397 37.4155 18.5555 37.469 18.6488 37.552C18.7421 37.635 18.8087 37.7438 18.8402 37.8647C18.8717 37.9855 18.8666 38.113 18.8256 38.231C18.7847 38.349 18.7096 38.4521 18.61 38.5275C18.5104 38.6028 18.3907 38.6469 18.266 38.6542C18.1414 38.6615 18.0173 38.6316 17.9096 38.5684C17.8019 38.5052 17.7153 38.4115 17.6609 38.2991C17.6247 38.2245 17.6036 38.1435 17.5987 38.0607C17.5939 37.9779 17.6054 37.895 17.6326 37.8166C17.6598 37.7383 17.7022 37.6661 17.7573 37.6041C17.8124 37.5422 17.8792 37.4917 17.9538 37.4555Z" fill="white"/>
<path d="M19.5906 40.3249C19.6881 40.2478 19.8062 40.2014 19.93 40.1914C20.0538 40.1814 20.1778 40.2084 20.2864 40.2688C20.3949 40.3292 20.4832 40.4203 20.54 40.5308C20.5967 40.6413 20.6195 40.7661 20.6055 40.8896C20.5914 41.013 20.5411 41.1295 20.4609 41.2243C20.3807 41.3192 20.2742 41.3882 20.1549 41.4226C20.0355 41.4571 19.9087 41.4554 19.7903 41.4178C19.6719 41.3802 19.5673 41.3084 19.4896 41.2114C19.4375 41.1468 19.3987 41.0725 19.3755 40.9928C19.3523 40.913 19.3452 40.8295 19.3546 40.747C19.364 40.6645 19.3897 40.5847 19.4302 40.5122C19.4708 40.4398 19.5253 40.3761 19.5906 40.3249Z" fill="white"/>
<path d="M21.8236 42.7573C21.9015 42.6605 22.0063 42.5889 22.1248 42.5516C22.2433 42.5143 22.3702 42.513 22.4895 42.5478C22.6088 42.5825 22.7151 42.6518 22.795 42.7469C22.875 42.842 22.9249 42.9586 22.9387 43.0821C22.9524 43.2056 22.9292 43.3304 22.8721 43.4407C22.815 43.551 22.7265 43.642 22.6178 43.7021C22.509 43.7622 22.3849 43.7887 22.2611 43.7783C22.1373 43.768 22.0194 43.7212 21.9221 43.6438C21.857 43.5924 21.8026 43.5286 21.7623 43.4561C21.7221 43.3835 21.6966 43.3036 21.6874 43.2211C21.6783 43.1387 21.6856 43.0552 21.709 42.9755C21.7324 42.8959 21.7713 42.8217 21.8236 42.7573Z" fill="white"/>
<path d="M24.5411 44.6315C24.5956 44.5191 24.6821 44.4254 24.7898 44.3622C24.8976 44.299 25.0216 44.2691 25.1463 44.2764C25.2709 44.2837 25.3907 44.3278 25.4903 44.4031C25.5899 44.4785 25.6649 44.5816 25.7059 44.6996C25.7469 44.8176 25.7519 44.9451 25.7204 45.0659C25.689 45.1868 25.6224 45.2956 25.5291 45.3786C25.4357 45.4616 25.3199 45.5151 25.1962 45.5323C25.0725 45.5494 24.9465 45.5296 24.8341 45.4751C24.7592 45.4392 24.6922 45.3889 24.6369 45.3269C24.5816 45.265 24.5391 45.1928 24.5119 45.1143C24.4846 45.0359 24.4732 44.9529 24.4782 44.87C24.4832 44.7871 24.5046 44.706 24.5411 44.6315Z" fill="white"/>
<path d="M27.6075 45.8539C27.6356 45.7323 27.6991 45.6217 27.79 45.5361C27.8809 45.4506 27.9951 45.3939 28.1182 45.3732C28.2413 45.3526 28.3677 45.3688 28.4816 45.42C28.5954 45.4711 28.6916 45.5549 28.7578 45.6607C28.8241 45.7664 28.8576 45.8895 28.854 46.0142C28.8504 46.139 28.8099 46.2599 28.7376 46.3617C28.6653 46.4634 28.5645 46.5415 28.4479 46.5859C28.3313 46.6304 28.204 46.6394 28.0823 46.6116C28.0014 46.5932 27.9248 46.5589 27.8571 46.5108C27.7894 46.4627 27.7318 46.4017 27.6877 46.3313C27.6436 46.2609 27.6138 46.1825 27.6 46.1006C27.5863 46.0186 27.5888 45.9348 27.6075 45.8539Z" fill="white"/>
<path d="M31.5001 46.9957C31.8489 46.9957 32.1316 46.7129 32.1316 46.3642C32.1316 46.0154 31.8489 45.7327 31.5001 45.7327C31.1514 45.7327 30.8687 46.0154 30.8687 46.3642C30.8687 46.7129 31.1514 46.9957 31.5001 46.9957Z" fill="white"/>
<path d="M34.1648 46.1369C34.1366 46.0152 34.145 45.8879 34.1891 45.7711C34.2332 45.6542 34.311 45.5531 34.4126 45.4804C34.5142 45.4078 34.6351 45.3669 34.7599 45.3629C34.8847 45.359 35.0079 45.3921 35.1139 45.4582C35.2199 45.5243 35.3039 45.6203 35.3554 45.7341C35.4068 45.8479 35.4233 45.9745 35.4028 46.0977C35.3823 46.2209 35.3257 46.3352 35.2403 46.4263C35.1548 46.5173 35.0442 46.581 34.9226 46.6092C34.8418 46.6283 34.758 46.6312 34.6761 46.6178C34.5942 46.6043 34.5158 46.5748 34.4453 46.5309C34.3749 46.487 34.3138 46.4295 34.2657 46.3619C34.2175 46.2943 34.1832 46.2178 34.1648 46.1369Z" fill="white"/>
<path d="M37.3244 45.1847C37.2701 45.0721 37.2504 44.946 37.2679 44.8222C37.2854 44.6985 37.3392 44.5827 37.4225 44.4895C37.5058 44.3964 37.6149 44.33 37.736 44.2989C37.857 44.2678 37.9846 44.2733 38.1025 44.3148C38.2204 44.3562 38.3234 44.4317 38.3984 44.5317C38.4734 44.6317 38.517 44.7516 38.5237 44.8764C38.5305 45.0012 38.5 45.1252 38.4362 45.2327C38.3725 45.3402 38.2782 45.4264 38.1655 45.4802C38.0909 45.5163 38.0099 45.5372 37.9272 45.5418C37.8445 45.5465 37.7617 45.5347 37.6835 45.5073C37.6054 45.4798 37.5334 45.4372 37.4718 45.3818C37.4101 45.3265 37.36 45.2595 37.3244 45.1847Z" fill="white"/>
<path d="M40.194 43.5428C40.117 43.4454 40.0706 43.3273 40.0606 43.2035C40.0506 43.0797 40.0775 42.9557 40.1379 42.8471C40.1983 42.7386 40.2895 42.6503 40.4 42.5936C40.5105 42.5368 40.6353 42.514 40.7587 42.528C40.8821 42.5421 40.9986 42.5924 41.0935 42.6726C41.1884 42.7528 41.2574 42.8592 41.2918 42.9786C41.3263 43.098 41.3246 43.2248 41.287 43.3432C41.2494 43.4616 41.1776 43.5663 41.0806 43.6439C41.016 43.696 40.9417 43.7348 40.862 43.758C40.7822 43.7812 40.6987 43.7883 40.6162 43.7789C40.5337 43.7695 40.4539 43.7438 40.3814 43.7032C40.3089 43.6627 40.2453 43.6082 40.194 43.5428Z" fill="white"/>
<path d="M42.6262 41.3098C42.5294 41.2319 42.4579 41.1271 42.4206 41.0086C42.3833 40.8901 42.382 40.7632 42.4167 40.6439C42.4515 40.5247 42.5208 40.4184 42.6159 40.3384C42.711 40.2585 42.8276 40.2085 42.9511 40.1948C43.0746 40.181 43.1993 40.2042 43.3097 40.2613C43.42 40.3184 43.5109 40.4069 43.571 40.5157C43.6311 40.6244 43.6577 40.7485 43.6473 40.8723C43.6369 40.9961 43.5901 41.1141 43.5128 41.2113C43.4612 41.2762 43.3973 41.3303 43.3247 41.3704C43.2522 41.4105 43.1724 41.4358 43.09 41.445C43.0076 41.4541 42.9242 41.4469 42.8446 41.4237C42.765 41.4005 42.6908 41.3618 42.6262 41.3098Z" fill="white"/>
<path d="M44.5007 38.5922C44.388 38.538 44.2939 38.4517 44.2303 38.344C44.1668 38.2364 44.1366 38.1123 44.1436 37.9874C44.1506 37.8626 44.1945 37.7426 44.2698 37.6428C44.345 37.5429 44.4483 37.4677 44.5663 37.4266C44.6844 37.3854 44.812 37.3803 44.933 37.4118C45.054 37.4432 45.163 37.5099 45.246 37.6034C45.3291 37.6968 45.3825 37.8129 45.3996 37.9367C45.4167 38.0606 45.3966 38.1867 45.3419 38.2991C45.2684 38.4488 45.1389 38.5634 44.9814 38.6182C44.824 38.6731 44.6513 38.6637 44.5007 38.5922Z" fill="white"/>
<path d="M45.7154 35.5257C45.5938 35.4976 45.4832 35.4341 45.3977 35.3432C45.3121 35.2523 45.2555 35.1381 45.2348 35.015C45.2141 34.8919 45.2304 34.7655 45.2815 34.6516C45.3327 34.5378 45.4165 34.4416 45.5222 34.3754C45.628 34.3091 45.751 34.2756 45.8758 34.2793C46.0006 34.2829 46.1214 34.3234 46.2232 34.3956C46.3249 34.4679 46.403 34.5687 46.4475 34.6854C46.492 34.802 46.5009 34.9292 46.4732 35.0509C46.4353 35.2141 46.3343 35.3557 46.1923 35.4446C46.0503 35.5336 45.8788 35.5628 45.7154 35.5257Z" fill="white"/>
<path d="M46.2335 32.2624C46.1085 32.2624 45.9863 32.2253 45.8824 32.1558C45.7785 32.0863 45.6976 31.9876 45.6499 31.872C45.6022 31.7565 45.5898 31.6294 45.6144 31.5068C45.6389 31.3843 45.6993 31.2718 45.7879 31.1836C45.8765 31.0953 45.9892 31.0354 46.1119 31.0113C46.2346 30.9873 46.3616 31.0001 46.4769 31.0483C46.5923 31.0965 46.6907 31.1778 46.7598 31.282C46.8289 31.3862 46.8655 31.5085 46.865 31.6335C46.865 31.7163 46.8486 31.7983 46.8169 31.8748C46.7851 31.9512 46.7385 32.0207 46.6799 32.0791C46.6212 32.1376 46.5516 32.1838 46.475 32.2153C46.3984 32.2467 46.3163 32.2628 46.2335 32.2624Z" fill="white"/>
<path d="M46.0033 28.9686C45.8816 28.9964 45.7544 28.9874 45.6378 28.943C45.5212 28.8985 45.4204 28.8204 45.3481 28.7186C45.2758 28.6169 45.2353 28.496 45.2317 28.3712C45.2281 28.2464 45.2615 28.1234 45.3278 28.0176C45.3941 27.9119 45.4902 27.8281 45.6041 27.777C45.7179 27.7258 45.8444 27.7095 45.9675 27.7302C46.0906 27.7509 46.2048 27.8076 46.2957 27.8931C46.3866 27.9787 46.4501 28.0892 46.4782 28.2109C46.4972 28.2918 46.5 28.3757 46.4864 28.4578C46.4728 28.5398 46.443 28.6184 46.3989 28.6888C46.3547 28.7593 46.297 28.8203 46.2291 28.8684C46.1612 28.9164 46.0845 28.9505 46.0033 28.9686Z" fill="white"/>
<path d="M45.0484 25.8087C44.9359 25.8634 44.8098 25.8835 44.6859 25.8665C44.562 25.8494 44.4461 25.796 44.3526 25.7129C44.2591 25.6298 44.1924 25.5209 44.161 25.3999C44.1295 25.2789 44.1346 25.1512 44.1758 25.0332C44.2169 24.9151 44.2922 24.8119 44.392 24.7366C44.4918 24.6614 44.6118 24.6175 44.7366 24.6104C44.8615 24.6034 44.9856 24.6336 45.0932 24.6972C45.2009 24.7608 45.2872 24.8549 45.3414 24.9676C45.4136 25.1181 45.4233 25.291 45.3684 25.4486C45.3135 25.6062 45.1984 25.7357 45.0484 25.8087Z" fill="white"/>
<path d="M43.4122 22.9394C43.3148 23.0167 43.1967 23.0635 43.0727 23.0737C42.9488 23.0839 42.8246 23.0571 42.7158 22.9968C42.6071 22.9364 42.5186 22.8452 42.4617 22.7346C42.4048 22.624 42.382 22.499 42.3962 22.3755C42.4103 22.2519 42.4607 22.1353 42.5411 22.0404C42.6215 21.9455 42.7282 21.8765 42.8477 21.8423C42.9673 21.808 43.0943 21.81 43.2128 21.8479C43.3312 21.8858 43.4358 21.958 43.5132 22.0553C43.6165 22.1862 43.6638 22.3526 43.6449 22.5182C43.6259 22.6838 43.5423 22.8352 43.4122 22.9394Z" fill="white"/>
<path d="M41.1692 20.507C41.0913 20.6037 40.9865 20.6753 40.868 20.7126C40.7495 20.7499 40.6226 20.7512 40.5033 20.7165C40.384 20.6817 40.2777 20.6124 40.1978 20.5173C40.1178 20.4222 40.0679 20.3056 40.0541 20.1821C40.0404 20.0586 40.0636 19.9338 40.1207 19.8235C40.1778 19.7132 40.2663 19.6222 40.3751 19.5621C40.4838 19.5021 40.6079 19.4755 40.7317 19.4859C40.8555 19.4963 40.9734 19.543 41.0707 19.6204C41.2012 19.725 41.2848 19.8771 41.3033 20.0433C41.3217 20.2095 41.2735 20.3763 41.1692 20.507Z" fill="white"/>
<path d="M38.4615 18.6328C38.4076 18.7455 38.3214 18.8398 38.2139 18.9035C38.1065 18.9673 37.9825 18.9978 37.8577 18.991C37.7329 18.9843 37.6129 18.9406 37.5129 18.8657C37.4129 18.7907 37.3374 18.6877 37.296 18.5698C37.2545 18.4519 37.249 18.3243 37.2801 18.2033C37.3112 18.0822 37.3776 17.9731 37.4707 17.8898C37.5639 17.8065 37.6797 17.7527 37.8034 17.7352C37.9272 17.7177 38.0534 17.7374 38.1659 17.7916C38.3165 17.8642 38.4321 17.9935 38.4875 18.1511C38.5429 18.3088 38.5335 18.482 38.4615 18.6328Z" fill="white"/>
<path d="M35.3952 17.4003C35.3671 17.5219 35.3036 17.6325 35.2127 17.718C35.1218 17.8035 35.0076 17.8602 34.8845 17.8809C34.7614 17.9016 34.6349 17.8853 34.5211 17.8342C34.4072 17.783 34.3111 17.6993 34.2448 17.5935C34.1785 17.4877 34.1451 17.3647 34.1487 17.2399C34.1523 17.1152 34.1928 16.9943 34.2651 16.8925C34.3374 16.7907 34.4382 16.7127 34.5548 16.6682C34.6714 16.6237 34.7986 16.6148 34.9203 16.6425C35.0835 16.6804 35.2251 16.7814 35.3141 16.9234C35.4031 17.0654 35.4322 17.2369 35.3952 17.4003Z" fill="white"/>
<path d="M31.5002 21.679C31.7457 21.679 31.9448 21.4799 31.9448 21.2344C31.9448 20.9889 31.7457 20.7899 31.5002 20.7899C31.2547 20.7899 31.0557 20.9889 31.0557 21.2344C31.0557 21.4799 31.2547 21.679 31.5002 21.679Z" fill="white"/>
<path d="M29.621 21.3986C29.6402 21.4843 29.6337 21.5738 29.6021 21.6558C29.5705 21.7378 29.5153 21.8085 29.4436 21.8592C29.3718 21.9098 29.2866 21.9381 29.1988 21.9404C29.111 21.9427 29.0245 21.9189 28.9502 21.8721C28.8759 21.8252 28.8171 21.7574 28.7813 21.6772C28.7455 21.597 28.7342 21.508 28.749 21.4214C28.7637 21.3348 28.8038 21.2545 28.8642 21.1906C28.9245 21.1268 29.0024 21.0823 29.088 21.0627C29.1451 21.0496 29.2042 21.0479 29.2619 21.0578C29.3196 21.0676 29.3748 21.0887 29.4243 21.1199C29.4738 21.1512 29.5167 21.1918 29.5504 21.2396C29.5842 21.2875 29.6082 21.3415 29.621 21.3986Z" fill="white"/>
<path d="M27.3903 22.073C27.4285 22.1522 27.4424 22.2409 27.4302 22.328C27.418 22.4151 27.3802 22.4966 27.3217 22.5622C27.2632 22.6278 27.1865 22.6746 27.1014 22.6966C27.0163 22.7187 26.9265 22.715 26.8435 22.686C26.7605 22.657 26.6879 22.6041 26.635 22.5339C26.5821 22.4637 26.5511 22.3794 26.5461 22.2916C26.5411 22.2038 26.5623 22.1165 26.6069 22.0407C26.6515 21.965 26.7176 21.9041 26.7967 21.8659C26.9029 21.8147 27.0251 21.8077 27.1364 21.8465C27.2478 21.8854 27.3391 21.9668 27.3903 22.073Z" fill="white"/>
<path d="M25.3671 23.2274C25.4217 23.2962 25.4546 23.3796 25.4618 23.4671C25.469 23.5547 25.4501 23.6424 25.4075 23.7192C25.3649 23.796 25.3005 23.8584 25.2225 23.8986C25.1444 23.9389 25.0562 23.9551 24.9689 23.9452C24.8816 23.9354 24.7992 23.8999 24.7321 23.8433C24.665 23.7867 24.6161 23.7114 24.5917 23.627C24.5673 23.5427 24.5685 23.453 24.595 23.3693C24.6215 23.2855 24.6722 23.2116 24.7407 23.1566C24.7864 23.12 24.8389 23.0928 24.8952 23.0765C24.9515 23.0602 25.0104 23.0552 25.0686 23.0618C25.1268 23.0683 25.1832 23.0864 25.2344 23.1148C25.2856 23.1432 25.3307 23.1814 25.3671 23.2274Z" fill="white"/>
<path d="M23.6498 24.8035C23.7186 24.8582 23.7697 24.9321 23.7966 25.0159C23.8234 25.0997 23.8248 25.1895 23.8006 25.2741C23.7763 25.3586 23.7276 25.4341 23.6604 25.4909C23.5933 25.5478 23.5108 25.5834 23.4233 25.5933C23.3359 25.6032 23.2475 25.587 23.1694 25.5466C23.0912 25.5063 23.0267 25.4436 22.9842 25.3666C22.9416 25.2896 22.9229 25.2017 22.9303 25.1141C22.9377 25.0264 22.971 24.9429 23.0259 24.8742C23.062 24.8284 23.1069 24.7901 23.1579 24.7618C23.2089 24.7334 23.2651 24.7154 23.3231 24.7088C23.3811 24.7022 23.4398 24.7072 23.4959 24.7235C23.5519 24.7397 23.6043 24.7669 23.6498 24.8035Z" fill="white"/>
<path d="M22.3263 26.7207C22.4054 26.7589 22.4715 26.8198 22.5161 26.8955C22.5607 26.9713 22.5819 27.0586 22.5769 27.1464C22.5719 27.2342 22.5409 27.3185 22.488 27.3887C22.4351 27.4589 22.3625 27.5118 22.2795 27.5408C22.1965 27.5698 22.1067 27.5735 22.0216 27.5514C21.9365 27.5294 21.8598 27.4826 21.8013 27.417C21.7428 27.3514 21.705 27.2699 21.6928 27.1828C21.6806 27.0957 21.6945 27.007 21.7327 26.9278C21.7839 26.8216 21.8752 26.7402 21.9866 26.7013C22.0979 26.6625 22.2201 26.6695 22.3263 26.7207Z" fill="white"/>
<path d="M21.4671 28.8852C21.5527 28.9048 21.6306 28.9494 21.691 29.0132C21.7513 29.0771 21.7914 29.1573 21.8061 29.2439C21.8209 29.3305 21.8096 29.4196 21.7738 29.4998C21.738 29.58 21.6793 29.6478 21.605 29.6946C21.5306 29.7415 21.4441 29.7653 21.3563 29.763C21.2685 29.7607 21.1833 29.7324 21.1115 29.6818C21.0398 29.6311 20.9846 29.5603 20.953 29.4783C20.9215 29.3964 20.9149 29.3069 20.9341 29.2212C20.947 29.1641 20.9709 29.11 21.0047 29.0622C21.0384 29.0144 21.0813 28.9737 21.1308 28.9425C21.1803 28.9113 21.2356 28.8902 21.2933 28.8803C21.351 28.8705 21.41 28.8722 21.4671 28.8852Z" fill="white"/>
<path d="M21.1037 31.1887C21.1917 31.1887 21.2776 31.2148 21.3507 31.2636C21.4238 31.3125 21.4808 31.3819 21.5144 31.4631C21.5481 31.5444 21.5569 31.6338 21.5397 31.72C21.5226 31.8062 21.4802 31.8854 21.4181 31.9476C21.3559 32.0098 21.2767 32.0521 21.1904 32.0693C21.1042 32.0864 21.0148 32.0776 20.9336 32.044C20.8524 32.0103 20.7829 31.9534 20.7341 31.8803C20.6852 31.8071 20.6592 31.7212 20.6592 31.6333C20.6592 31.5154 20.706 31.4023 20.7894 31.3189C20.8728 31.2355 20.9858 31.1887 21.1037 31.1887Z" fill="white"/>
<path d="M21.2651 33.5126C21.3508 33.4929 21.4405 33.499 21.5227 33.5302C21.6049 33.5614 21.676 33.6163 21.727 33.6879C21.778 33.7595 21.8067 33.8446 21.8093 33.9325C21.812 34.0204 21.7885 34.1071 21.7418 34.1816C21.6952 34.2562 21.6275 34.3152 21.5473 34.3513C21.4671 34.3873 21.3781 34.3988 21.2914 34.3843C21.2046 34.3697 21.1242 34.3297 21.0602 34.2695C20.9962 34.2092 20.9515 34.1313 20.9317 34.0456C20.9053 33.9307 20.9256 33.81 20.9881 33.7101C21.0506 33.6101 21.1503 33.5391 21.2651 33.5126Z" fill="white"/>
<path d="M21.9423 35.743C22.0217 35.7052 22.1104 35.6918 22.1974 35.7044C22.2843 35.717 22.3656 35.7551 22.4309 35.8139C22.4962 35.8727 22.5426 35.9495 22.5643 36.0347C22.586 36.1198 22.582 36.2095 22.5527 36.2924C22.5234 36.3752 22.4703 36.4476 22.3999 36.5002C22.3296 36.5529 22.2452 36.5835 22.1574 36.5882C22.0697 36.593 21.9825 36.5716 21.9069 36.5268C21.8313 36.482 21.7707 36.4158 21.7327 36.3366C21.7074 36.2838 21.6928 36.2266 21.6896 36.1682C21.6865 36.1099 21.6949 36.0514 21.7143 35.9963C21.7338 35.9411 21.764 35.8904 21.8031 35.8469C21.8422 35.8035 21.8895 35.7681 21.9423 35.743Z" fill="white"/>
<path d="M23.0966 37.7662C23.1654 37.7116 23.2489 37.6787 23.3364 37.6715C23.4239 37.6643 23.5116 37.6832 23.5884 37.7258C23.6652 37.7684 23.7277 37.8328 23.7679 37.9109C23.8081 37.9889 23.8244 38.0771 23.8145 38.1644C23.8047 38.2517 23.7692 38.3341 23.7126 38.4012C23.6559 38.4683 23.5807 38.5172 23.4963 38.5416C23.412 38.566 23.3223 38.5648 23.2385 38.5383C23.1548 38.5118 23.0808 38.4611 23.0259 38.3926C22.9893 38.3469 22.962 38.2943 22.9457 38.2381C22.9295 38.1818 22.9245 38.1229 22.931 38.0647C22.9376 38.0064 22.9556 37.9501 22.984 37.8989C23.0125 37.8477 23.0507 37.8026 23.0966 37.7662Z" fill="white"/>
<path d="M24.6702 39.4837C24.7249 39.4148 24.7988 39.3637 24.8826 39.3369C24.9664 39.31 25.0562 39.3086 25.1408 39.3329C25.2254 39.3571 25.3008 39.4059 25.3577 39.4731C25.4145 39.5402 25.4501 39.6227 25.46 39.7102C25.4699 39.7976 25.4537 39.886 25.4133 39.9641C25.373 40.0423 25.3103 40.1068 25.2333 40.1493C25.1563 40.1919 25.0685 40.2106 24.9808 40.2032C24.8932 40.1958 24.8096 40.1625 24.7409 40.1076C24.6489 40.0342 24.5898 39.9273 24.5766 39.8103C24.5633 39.6934 24.597 39.5759 24.6702 39.4837Z" fill="white"/>
<path d="M26.5901 40.8073C26.6283 40.7281 26.6891 40.662 26.7649 40.6174C26.8407 40.5728 26.928 40.5517 27.0157 40.5567C27.1035 40.5617 27.1878 40.5926 27.2581 40.6456C27.3283 40.6985 27.3812 40.771 27.4102 40.8541C27.4392 40.9371 27.4428 41.0268 27.4208 41.1119C27.3988 41.1971 27.352 41.2737 27.2864 41.3323C27.2207 41.3908 27.1393 41.4285 27.0522 41.4408C26.9651 41.453 26.8764 41.4391 26.7972 41.4009C26.691 41.3496 26.6096 41.2583 26.5707 41.147C26.5319 41.0357 26.5388 40.9135 26.5901 40.8073Z" fill="white"/>
<path d="M28.754 41.6685C28.7738 41.5829 28.8185 41.5049 28.8825 41.4447C28.9465 41.3844 29.0269 41.3444 29.1136 41.3299C29.2004 41.3153 29.2894 41.3268 29.3696 41.3629C29.4498 41.3989 29.5175 41.458 29.5641 41.5325C29.6108 41.6071 29.6342 41.6937 29.6316 41.7816C29.629 41.8695 29.6003 41.9547 29.5493 42.0263C29.4983 42.0979 29.4272 42.1527 29.345 42.1839C29.2627 42.2151 29.1731 42.2212 29.0875 42.2015C29.0304 42.1887 28.9764 42.1647 28.9287 42.1309C28.881 42.0971 28.8405 42.0542 28.8095 42.0046C28.7785 41.9551 28.7576 41.8998 28.7481 41.8421C28.7386 41.7844 28.7406 41.7254 28.754 41.6685Z" fill="white"/>
<path d="M31.5002 42.4719C31.7457 42.4719 31.9448 42.2728 31.9448 42.0273C31.9448 41.7818 31.7457 41.5828 31.5002 41.5828C31.2547 41.5828 31.0557 41.7818 31.0557 42.0273C31.0557 42.2728 31.2547 42.4719 31.5002 42.4719Z" fill="white"/>
<path d="M33.3816 41.8681C33.3617 41.7824 33.3678 41.6926 33.399 41.6103C33.4302 41.5279 33.4851 41.4567 33.5568 41.4056C33.6286 41.3546 33.7139 41.326 33.8019 41.3234C33.8899 41.3209 33.9767 41.3446 34.0512 41.3914C34.1258 41.4383 34.1847 41.5062 34.2206 41.5866C34.2565 41.667 34.2677 41.7563 34.2528 41.8431C34.2379 41.9299 34.1975 42.0103 34.1368 42.0741C34.0762 42.1379 33.9979 42.1823 33.912 42.2016C33.8553 42.2146 33.7965 42.2164 33.7391 42.2067C33.6817 42.197 33.6268 42.176 33.5775 42.1451C33.5283 42.1141 33.4856 42.0737 33.4519 42.0261C33.4183 41.9786 33.3944 41.9249 33.3816 41.8681Z" fill="white"/>
<path d="M35.6121 41.1938C35.5739 41.1146 35.56 41.0258 35.5722 40.9388C35.5844 40.8517 35.6222 40.7702 35.6807 40.7046C35.7392 40.639 35.8159 40.5922 35.901 40.5702C35.9861 40.5481 36.0759 40.5518 36.1589 40.5808C36.2419 40.6098 36.3145 40.6627 36.3674 40.7329C36.4203 40.8031 36.4513 40.8874 36.4563 40.9752C36.4613 41.063 36.4401 41.1503 36.3955 41.2261C36.3509 41.3018 36.2848 41.3627 36.2057 41.4009C36.0995 41.4521 35.9773 41.4591 35.866 41.4203C35.7546 41.3814 35.6633 41.2999 35.6121 41.1938Z" fill="white"/>
<path d="M37.6325 40.0394C37.5777 39.9708 37.5444 39.8875 37.5368 39.8C37.5292 39.7125 37.5478 39.6247 37.5901 39.5477C37.6323 39.4707 37.6965 39.408 37.7744 39.3674C37.8523 39.3269 37.9405 39.3103 38.0278 39.3198C38.1151 39.3293 38.1977 39.3645 38.265 39.4209C38.3324 39.4772 38.3815 39.5523 38.4063 39.6366C38.431 39.7209 38.4302 39.8106 38.404 39.8944C38.3778 39.9783 38.3273 40.0525 38.259 40.1076C38.2134 40.1444 38.161 40.1718 38.1048 40.1883C38.0487 40.2048 37.9898 40.21 37.9316 40.2037C37.8734 40.1974 37.817 40.1796 37.7657 40.1514C37.7144 40.1232 37.6691 40.0852 37.6325 40.0394Z" fill="white"/>
<path d="M39.3531 38.4633C39.2842 38.4086 39.2331 38.3347 39.2063 38.2509C39.1794 38.1671 39.178 38.0773 39.2023 37.9927C39.2265 37.9082 39.2753 37.8327 39.3425 37.7759C39.4096 37.719 39.4921 37.6834 39.5795 37.6735C39.667 37.6636 39.7553 37.6798 39.8335 37.7202C39.9117 37.7605 39.9761 37.8232 40.0187 37.9002C40.0612 37.9771 40.08 38.0651 40.0726 38.1527C40.0652 38.2404 40.0319 38.3238 39.977 38.3926C39.9036 38.4846 39.7967 38.5437 39.6797 38.5569C39.5627 38.5702 39.4453 38.5365 39.3531 38.4633Z" fill="white"/>
<path d="M40.6638 36.5436C40.585 36.5051 40.5193 36.444 40.4751 36.3682C40.4309 36.2924 40.4101 36.2051 40.4154 36.1175C40.4206 36.0299 40.4517 35.9458 40.5047 35.8758C40.5577 35.8059 40.6303 35.7531 40.7132 35.7243C40.7961 35.6955 40.8857 35.6919 40.9707 35.7139C41.0557 35.736 41.1322 35.7827 41.1907 35.8481C41.2492 35.9136 41.2869 35.9949 41.2993 36.0818C41.3116 36.1687 41.2979 36.2574 41.2599 36.3365C41.2346 36.3894 41.199 36.4367 41.1552 36.4758C41.1115 36.5149 41.0604 36.5449 41.005 36.5642C40.9496 36.5834 40.8909 36.5915 40.8324 36.588C40.7738 36.5845 40.7165 36.5694 40.6638 36.5436Z" fill="white"/>
<path d="M41.5376 34.379C41.452 34.3592 41.3741 34.3146 41.3138 34.2506C41.2535 34.1866 41.2136 34.1061 41.199 34.0194C41.1844 33.9327 41.1959 33.8436 41.232 33.7634C41.2681 33.6832 41.3271 33.6155 41.4016 33.5689C41.4762 33.5223 41.5629 33.4988 41.6508 33.5014C41.7387 33.5041 41.8238 33.5327 41.8954 33.5837C41.967 33.6348 42.0219 33.7059 42.0531 33.7881C42.0842 33.8703 42.0903 33.9599 42.0706 34.0456C42.0435 34.1601 41.9724 34.2593 41.8726 34.3218C41.7728 34.3842 41.6525 34.4047 41.5376 34.379Z" fill="white"/>
<path d="M41.8966 32.0778C41.8088 32.0773 41.7231 32.0508 41.6503 32.0017C41.5775 31.9525 41.521 31.8829 41.4877 31.8016C41.4544 31.7204 41.446 31.6311 41.4634 31.545C41.4809 31.4589 41.5234 31.38 41.5857 31.318C41.648 31.2561 41.7272 31.214 41.8133 31.1971C41.8995 31.1801 41.9888 31.1891 42.0698 31.2228C42.1509 31.2565 42.2202 31.3135 42.269 31.3865C42.3177 31.4596 42.3437 31.5454 42.3437 31.6333C42.3437 31.6919 42.3321 31.7499 42.3096 31.804C42.2871 31.8581 42.2541 31.9072 42.2126 31.9485C42.171 31.9898 42.1218 32.0225 42.0675 32.0447C42.0133 32.0669 41.9552 32.0781 41.8966 32.0778Z" fill="white"/>
<path d="M41.7348 29.7543C41.6491 29.7735 41.5596 29.7669 41.4776 29.7354C41.3957 29.7038 41.3249 29.6487 41.2742 29.5769C41.2236 29.5051 41.1953 29.4199 41.193 29.3321C41.1907 29.2443 41.2145 29.1578 41.2613 29.0835C41.3082 29.0092 41.376 28.9504 41.4562 28.9146C41.5364 28.8788 41.6255 28.8675 41.7121 28.8823C41.7987 28.897 41.879 28.9371 41.9428 28.9974C42.0066 29.0578 42.0511 29.1357 42.0708 29.2213C42.0964 29.3365 42.0756 29.4572 42.0126 29.557C41.9497 29.6569 41.8498 29.7278 41.7348 29.7543Z" fill="white"/>
<path d="M41.0605 27.5238C40.9812 27.5613 40.8926 27.5746 40.8058 27.5618C40.719 27.5491 40.6379 27.511 40.5727 27.4522C40.5076 27.3935 40.4612 27.3168 40.4396 27.2318C40.4179 27.1468 40.4219 27.0573 40.451 26.9745C40.4801 26.8917 40.533 26.8194 40.6031 26.7667C40.6732 26.714 40.7574 26.6832 40.845 26.6782C40.9325 26.6731 41.0197 26.6942 41.0953 26.7386C41.171 26.783 41.2318 26.8488 41.2702 26.9277C41.2959 26.9805 41.3108 27.038 41.3141 27.0966C41.3175 27.1553 41.3092 27.214 41.2897 27.2695C41.2702 27.3249 41.2399 27.3759 41.2006 27.4196C41.1612 27.4632 41.1136 27.4987 41.0605 27.5238Z" fill="white"/>
<path d="M39.906 25.4981C39.8373 25.553 39.7538 25.5862 39.6661 25.5936C39.5785 25.6011 39.4906 25.5823 39.4136 25.5397C39.3366 25.4972 39.2739 25.4327 39.2336 25.3546C39.1932 25.2764 39.177 25.188 39.1869 25.1006C39.1968 25.0132 39.2324 24.9307 39.2892 24.8635C39.3461 24.7964 39.4216 24.7476 39.5061 24.7233C39.5907 24.6991 39.6805 24.7005 39.7643 24.7273C39.8481 24.7542 39.922 24.8053 39.9767 24.8742C40.0133 24.9197 40.0405 24.972 40.0567 25.0281C40.073 25.0841 40.078 25.1429 40.0714 25.2009C40.0648 25.2589 40.0468 25.315 40.0184 25.366C39.99 25.417 39.9518 25.4619 39.906 25.4981Z" fill="white"/>
<path d="M38.33 23.7831C38.2748 23.8515 38.2006 23.9019 38.1168 23.9282C38.0329 23.9544 37.9432 23.9552 37.8589 23.9304C37.7747 23.9057 37.6996 23.8566 37.6432 23.7892C37.5868 23.7219 37.5517 23.6393 37.5422 23.552C37.5327 23.4647 37.5492 23.3765 37.5898 23.2986C37.6304 23.2207 37.6931 23.1565 37.7701 23.1142C37.8471 23.0719 37.9348 23.0534 38.0224 23.061C38.1099 23.0685 38.1932 23.1018 38.2618 23.1567C38.3078 23.1931 38.3461 23.2383 38.3745 23.2896C38.4029 23.3409 38.4207 23.3973 38.4271 23.4556C38.4334 23.5139 38.4281 23.5729 38.4114 23.6291C38.3948 23.6854 38.3671 23.7377 38.33 23.7831Z" fill="white"/>
<path d="M36.4128 22.4518C36.361 22.5575 36.2697 22.6385 36.1585 22.6773C36.0474 22.7161 35.9255 22.7094 35.8192 22.6589C35.74 22.6207 35.6739 22.5598 35.6293 22.4841C35.5847 22.4083 35.5636 22.321 35.5686 22.2332C35.5736 22.1454 35.6045 22.0611 35.6575 21.9909C35.7104 21.9207 35.7829 21.8677 35.866 21.8388C35.949 21.8098 36.0387 21.8061 36.1238 21.8282C36.209 21.8502 36.2856 21.897 36.3441 21.9626C36.4027 22.0282 36.4404 22.1097 36.4526 22.1968C36.4649 22.2838 36.451 22.3726 36.4128 22.4518Z" fill="white"/>
<path d="M34.2481 21.5956C34.237 21.6543 34.2142 21.7102 34.181 21.76C34.1478 21.8097 34.105 21.8522 34.055 21.885C34.005 21.9177 33.9489 21.9401 33.8901 21.9507C33.8313 21.9613 33.7709 21.9599 33.7127 21.9467C33.6544 21.9334 33.5994 21.9086 33.5509 21.8736C33.5025 21.8386 33.4616 21.7941 33.4307 21.743C33.3998 21.6918 33.3795 21.6349 33.3711 21.5758C33.3627 21.5166 33.3663 21.4563 33.3817 21.3986C33.3928 21.3399 33.4156 21.2839 33.4488 21.2342C33.482 21.1845 33.5248 21.142 33.5748 21.1092C33.6248 21.0765 33.6809 21.0541 33.7397 21.0435C33.7985 21.0329 33.8589 21.0342 33.9172 21.0475C33.9754 21.0608 34.0304 21.0856 34.0789 21.1206C34.1273 21.1556 34.1682 21.2 34.1991 21.2512C34.23 21.3024 34.2503 21.3592 34.2587 21.4184C34.2671 21.4776 34.2635 21.5378 34.2481 21.5956Z" fill="white"/>
<path d="M31.7755 25.2153C31.7791 25.2535 31.7748 25.292 31.7627 25.3284C31.7506 25.3649 31.731 25.3984 31.7052 25.4268C31.6793 25.4552 31.6479 25.4779 31.6128 25.4934C31.5777 25.5089 31.5398 25.5169 31.5014 25.5169C31.463 25.5169 31.425 25.5089 31.3899 25.4934C31.3549 25.4779 31.3234 25.4552 31.2976 25.4268C31.2718 25.3984 31.2522 25.3649 31.2401 25.3284C31.228 25.292 31.2237 25.2535 31.2273 25.2153C31.2339 25.1471 31.2656 25.0839 31.3163 25.0378C31.3669 24.9918 31.4329 24.9663 31.5014 24.9663C31.5698 24.9663 31.6359 24.9918 31.6865 25.0378C31.7372 25.0839 31.7689 25.1471 31.7755 25.2153Z" fill="white"/>
<path d="M30.3405 25.3162C30.3527 25.3694 30.3489 25.4249 30.3294 25.4759C30.31 25.5268 30.2759 25.5708 30.2314 25.6024C30.187 25.6339 30.1341 25.6515 30.0796 25.653C30.0251 25.6545 29.9714 25.6397 29.9253 25.6106C29.8792 25.5816 29.8427 25.5394 29.8206 25.4896C29.7984 25.4398 29.7916 25.3845 29.8009 25.3308C29.8102 25.2771 29.8352 25.2273 29.8729 25.1879C29.9105 25.1484 29.9589 25.121 30.0122 25.1091C30.0831 25.0932 30.1576 25.1061 30.2191 25.1449C30.2806 25.1837 30.3243 25.2453 30.3405 25.3162Z" fill="white"/>
<path d="M28.9641 25.7354C28.9879 25.7845 28.9965 25.8395 28.9889 25.8935C28.9813 25.9475 28.9578 25.998 28.9215 26.0386C28.8851 26.0793 28.8376 26.1082 28.7848 26.1218C28.732 26.1354 28.6763 26.133 28.6249 26.1149C28.5735 26.0968 28.5285 26.0638 28.4958 26.0202C28.4632 25.9766 28.4442 25.9242 28.4413 25.8698C28.4384 25.8153 28.4518 25.7612 28.4796 25.7144C28.5075 25.6675 28.5487 25.63 28.5979 25.6066C28.6636 25.5753 28.7389 25.5713 28.8076 25.5954C28.8762 25.6196 28.9325 25.6699 28.9641 25.7354Z" fill="white"/>
<path d="M27.7137 26.4452C27.7481 26.4877 27.7692 26.5394 27.7741 26.5938C27.7791 26.6482 27.7677 26.7028 27.7415 26.7508C27.7153 26.7987 27.6754 26.8378 27.627 26.863C27.5785 26.8882 27.5236 26.8984 27.4693 26.8924C27.415 26.8863 27.3638 26.8642 27.3221 26.8289C27.2804 26.7936 27.2501 26.7467 27.2351 26.6941C27.2202 26.6416 27.2212 26.5858 27.238 26.5338C27.2549 26.4819 27.2868 26.4361 27.3298 26.4023C27.3576 26.3795 27.3898 26.3626 27.4243 26.3524C27.4588 26.3422 27.495 26.339 27.5308 26.343C27.5665 26.347 27.6011 26.3581 27.6325 26.3757C27.664 26.3932 27.6915 26.4169 27.7137 26.4452Z" fill="white"/>
<path d="M26.655 27.4176C26.6976 27.4516 26.7292 27.4974 26.7457 27.5493C26.7622 27.6012 26.763 27.6569 26.7478 27.7092C26.7327 27.7616 26.7024 27.8083 26.6607 27.8434C26.619 27.8785 26.5679 27.9004 26.5137 27.9064C26.4596 27.9125 26.4049 27.9023 26.3565 27.8772C26.3082 27.8521 26.2683 27.8132 26.2421 27.7655C26.2158 27.7177 26.2043 27.6632 26.209 27.609C26.2138 27.5547 26.2345 27.503 26.2686 27.4605C26.291 27.4321 26.3188 27.4084 26.3504 27.3908C26.382 27.3732 26.4168 27.3621 26.4528 27.3581C26.4888 27.3541 26.5252 27.3573 26.5599 27.3675C26.5946 27.3777 26.627 27.3947 26.655 27.4176Z" fill="white"/>
<path d="M25.8396 28.6023C25.8879 28.6261 25.9281 28.6637 25.9551 28.7103C25.9821 28.7569 25.9947 28.8104 25.9913 28.8642C25.988 28.9179 25.9687 28.9695 25.9361 29.0123C25.9035 29.0552 25.8589 29.0874 25.808 29.105C25.7571 29.1225 25.7021 29.1246 25.65 29.111C25.5979 29.0973 25.551 29.0686 25.5152 29.0284C25.4795 28.9881 25.4564 28.9382 25.4489 28.8848C25.4415 28.8315 25.45 28.7771 25.4733 28.7286C25.489 28.6962 25.5109 28.6672 25.5378 28.6432C25.5647 28.6193 25.5961 28.6009 25.6302 28.5892C25.6642 28.5774 25.7002 28.5726 25.7362 28.5748C25.7721 28.5771 25.8073 28.5864 25.8396 28.6023Z" fill="white"/>
<path d="M25.3065 29.936C25.3776 29.9528 25.4392 29.997 25.478 30.0589C25.5168 30.1209 25.5296 30.1956 25.5137 30.2669C25.5013 30.3199 25.4736 30.368 25.4339 30.4052C25.3943 30.4424 25.3445 30.4671 25.2908 30.476C25.2372 30.485 25.1821 30.4778 25.1325 30.4555C25.0829 30.4332 25.041 30.3966 25.0121 30.3505C24.9833 30.3044 24.9687 30.2508 24.9703 30.1964C24.9719 30.1421 24.9896 30.0894 25.0211 30.045C25.0525 30.0007 25.0965 29.9667 25.1473 29.9473C25.1981 29.9279 25.2535 29.9239 25.3065 29.936Z" fill="white"/>
<path d="M25.0844 31.3581C25.1388 31.3581 25.1921 31.3742 25.2374 31.4045C25.2826 31.4348 25.3179 31.4777 25.3388 31.528C25.3596 31.5784 25.3651 31.6337 25.3544 31.6871C25.3438 31.7405 25.3176 31.7896 25.2791 31.8281C25.2406 31.8666 25.1915 31.8928 25.1381 31.9034C25.0847 31.9141 25.0293 31.9086 24.979 31.8878C24.9287 31.8669 24.8857 31.8316 24.8555 31.7864C24.8252 31.7411 24.8091 31.6879 24.8091 31.6334C24.8091 31.5604 24.8381 31.4904 24.8897 31.4387C24.9413 31.3871 25.0114 31.3581 25.0844 31.3581Z" fill="white"/>
<path d="M25.1854 32.7929C25.2386 32.7807 25.2941 32.7845 25.3451 32.8039C25.396 32.8234 25.44 32.8575 25.4716 32.902C25.5031 32.9464 25.5207 32.9993 25.5222 33.0538C25.5237 33.1083 25.509 33.162 25.4799 33.2081C25.4508 33.2542 25.4086 33.2906 25.3588 33.3128C25.309 33.3349 25.2538 33.3418 25.2 33.3325C25.1463 33.3232 25.0966 33.2981 25.0571 33.2605C25.0176 33.2229 24.9902 33.1744 24.9783 33.1212C24.9701 33.086 24.969 33.0496 24.975 33.014C24.981 32.9784 24.994 32.9443 25.0132 32.9138C25.0325 32.8832 25.0577 32.8568 25.0872 32.836C25.1168 32.8153 25.1501 32.8006 25.1854 32.7929Z" fill="white"/>
<path d="M25.5997 34.1695C25.6658 34.1381 25.7415 34.134 25.8106 34.1581C25.8796 34.1822 25.9364 34.2326 25.9685 34.2983C25.992 34.3473 26.0004 34.4022 25.9927 34.4561C25.985 34.5099 25.9615 34.5602 25.9252 34.6007C25.8889 34.6412 25.8415 34.6701 25.7888 34.6837C25.7362 34.6972 25.6807 34.6949 25.6293 34.677C25.578 34.659 25.5331 34.6263 25.5004 34.5829C25.4676 34.5395 25.4485 34.4874 25.4453 34.4331C25.4421 34.3788 25.4551 34.3248 25.4826 34.2779C25.5101 34.231 25.5508 34.1932 25.5997 34.1695Z" fill="white"/>
<path d="M26.3118 35.4197C26.3691 35.3785 26.44 35.3609 26.5099 35.3705C26.5798 35.3802 26.6433 35.4162 26.6874 35.4713C26.7315 35.5264 26.7527 35.5963 26.7468 35.6666C26.7408 35.7369 26.7081 35.8022 26.6554 35.8491C26.5981 35.8942 26.5252 35.9148 26.4527 35.9063C26.3803 35.8978 26.3141 35.8608 26.2689 35.8036C26.2464 35.7756 26.2298 35.7434 26.2198 35.709C26.2098 35.6745 26.2067 35.6384 26.2107 35.6027C26.2147 35.5671 26.2257 35.5325 26.243 35.5011C26.2604 35.4697 26.2838 35.442 26.3118 35.4197Z" fill="white"/>
<path d="M27.2769 36.478C27.3107 36.4352 27.3563 36.4034 27.4081 36.3866C27.4599 36.3697 27.5156 36.3687 27.568 36.3835C27.6204 36.3983 27.6673 36.4283 27.7026 36.4697C27.738 36.5112 27.7602 36.5622 27.7666 36.6163C27.7729 36.6703 27.7631 36.7251 27.7383 36.7736C27.7136 36.8221 27.675 36.8622 27.6274 36.8888C27.5799 36.9153 27.5255 36.9272 27.4712 36.9229C27.4169 36.9185 27.3652 36.8982 27.3224 36.8644C27.2938 36.8422 27.2699 36.8145 27.2521 36.783C27.2342 36.7515 27.2229 36.7167 27.2187 36.6807C27.2144 36.6448 27.2174 36.6083 27.2274 36.5735C27.2374 36.5387 27.2543 36.5062 27.2769 36.478Z" fill="white"/>
<path d="M28.4691 37.2938C28.4848 37.2614 28.5067 37.2324 28.5336 37.2084C28.5605 37.1845 28.5919 37.1661 28.6259 37.1544C28.66 37.1426 28.696 37.1377 28.732 37.14C28.7679 37.1423 28.8031 37.1516 28.8354 37.1675C28.9009 37.1992 28.9512 37.2555 28.9753 37.3241C28.9995 37.3927 28.9955 37.4681 28.9642 37.5338C28.9486 37.5662 28.9266 37.5953 28.8997 37.6192C28.8728 37.6431 28.8414 37.6615 28.8074 37.6732C28.7733 37.685 28.7373 37.6899 28.7013 37.6876C28.6654 37.6854 28.6302 37.676 28.5979 37.6601C28.5324 37.6284 28.4821 37.5722 28.458 37.5035C28.4338 37.4349 28.4378 37.3595 28.4691 37.2938Z" fill="white"/>
<path d="M29.8026 37.8268C29.8088 37.7897 29.8225 37.7543 29.8429 37.7227C29.8633 37.6912 29.89 37.6641 29.9212 37.6433C29.9525 37.6224 29.9876 37.6081 30.0246 37.6014C30.0616 37.5946 30.0995 37.5955 30.1362 37.6039C30.1728 37.6124 30.2073 37.6283 30.2375 37.6506C30.2678 37.6729 30.2931 37.7011 30.312 37.7336C30.3309 37.7661 30.343 37.802 30.3475 37.8394C30.352 37.8767 30.3488 37.9145 30.3381 37.9505C30.3181 38.0177 30.2733 38.0748 30.2127 38.1101C30.1522 38.1454 30.0804 38.1562 30.0121 38.1404C29.9439 38.1246 29.8842 38.0834 29.8452 38.0251C29.8063 37.9668 29.791 37.8959 29.8026 37.8268Z" fill="white"/>
<path d="M31.2271 38.0491C31.2271 37.9945 31.2433 37.9412 31.2737 37.8959C31.304 37.8505 31.3471 37.8153 31.3976 37.7945C31.4481 37.7738 31.5036 37.7685 31.557 37.7793C31.6105 37.7901 31.6596 37.8166 31.698 37.8553C31.7364 37.8941 31.7624 37.9434 31.7727 37.9969C31.7831 38.0505 31.7772 38.106 31.756 38.1562C31.7348 38.2065 31.6991 38.2493 31.6535 38.2793C31.6079 38.3092 31.5544 38.3249 31.4998 38.3244C31.4638 38.3244 31.4281 38.3173 31.3949 38.3034C31.3616 38.2895 31.3314 38.2692 31.3061 38.2436C31.2807 38.218 31.2607 38.1877 31.2471 38.1543C31.2335 38.1209 31.2267 38.0851 31.2271 38.0491Z" fill="white"/>
<path d="M32.6621 37.9505C32.6454 37.8795 32.6576 37.8048 32.6959 37.7428C32.7343 37.6807 32.7957 37.6365 32.8667 37.6197C32.938 37.6037 33.0127 37.6165 33.0746 37.6553C33.1366 37.6941 33.1807 37.7557 33.1976 37.8268C33.2134 37.8978 33.2005 37.9722 33.1617 38.0337C33.1229 38.0952 33.0614 38.1389 32.9905 38.1551C32.9555 38.1634 32.9192 38.1646 32.8837 38.1588C32.8482 38.1529 32.8142 38.1401 32.7837 38.1211C32.7532 38.1021 32.7268 38.0772 32.7059 38.048C32.685 38.0187 32.6701 37.9856 32.6621 37.9505Z" fill="white"/>
<path d="M34.0387 37.5338C34.0145 37.4849 34.0055 37.4298 34.0126 37.3757C34.0198 37.3217 34.0429 37.2709 34.079 37.23C34.1151 37.189 34.1625 37.1597 34.2153 37.1458C34.268 37.1319 34.3237 37.1339 34.3753 37.1517C34.4269 37.1695 34.472 37.2022 34.505 37.2457C34.538 37.2892 34.5573 37.3415 34.5604 37.396C34.5636 37.4505 34.5505 37.5046 34.5228 37.5517C34.4951 37.5987 34.4541 37.6364 34.4049 37.6601C34.3726 37.676 34.3375 37.6854 34.3015 37.6876C34.2656 37.6899 34.2295 37.685 34.1955 37.6732C34.1614 37.6615 34.13 37.6431 34.1031 37.6192C34.0762 37.5953 34.0543 37.5662 34.0387 37.5338Z" fill="white"/>
<path d="M35.2866 36.8215C35.2418 36.7643 35.2212 36.6918 35.2292 36.6195C35.2373 36.5473 35.2733 36.4811 35.3296 36.4351C35.3721 36.401 35.4237 36.3803 35.478 36.3755C35.5323 36.3708 35.5867 36.3823 35.6345 36.4086C35.6822 36.4348 35.7211 36.4746 35.7462 36.523C35.7713 36.5714 35.7815 36.6261 35.7755 36.6802C35.7695 36.7344 35.7475 36.7855 35.7124 36.8272C35.6773 36.8689 35.6306 36.8992 35.5783 36.9143C35.526 36.9295 35.4703 36.9287 35.4184 36.9122C35.3665 36.8957 35.3206 36.8641 35.2866 36.8215Z" fill="white"/>
<path d="M36.3473 35.839C36.3188 35.8166 36.2951 35.7888 36.2775 35.7571C36.26 35.7255 36.2488 35.6907 36.2448 35.6547C36.2408 35.6188 36.2441 35.5824 36.2543 35.5476C36.2645 35.5129 36.2815 35.4806 36.3043 35.4525C36.3517 35.4029 36.416 35.3728 36.4845 35.3681C36.553 35.3634 36.6208 35.3845 36.6745 35.4272C36.7283 35.4698 36.7642 35.5311 36.7751 35.5989C36.7861 35.6666 36.7713 35.7361 36.7337 35.7935C36.6884 35.8507 36.6224 35.8877 36.5499 35.8962C36.4774 35.9047 36.4045 35.8841 36.3473 35.839Z" fill="white"/>
<path d="M37.1628 34.6645C37.1136 34.6411 37.0724 34.6036 37.0446 34.5567C37.0167 34.5099 37.0034 34.4558 37.0062 34.4014C37.0091 34.3469 37.0281 34.2945 37.0608 34.2509C37.0935 34.2073 37.1384 34.1743 37.1898 34.1562C37.2413 34.1381 37.2969 34.1357 37.3497 34.1493C37.4025 34.1629 37.4501 34.1918 37.4864 34.2325C37.5228 34.2731 37.5462 34.3236 37.5538 34.3776C37.5614 34.4316 37.5528 34.4866 37.5291 34.5357C37.4974 34.6012 37.4412 34.6515 37.3725 34.6757C37.3039 34.6998 37.2285 34.6958 37.1628 34.6645Z" fill="white"/>
<path d="M37.6958 33.3282C37.6426 33.3164 37.5941 33.2889 37.5565 33.2495C37.5189 33.21 37.4938 33.1603 37.4845 33.1065C37.4752 33.0528 37.4821 32.9975 37.5042 32.9477C37.5264 32.8979 37.5628 32.8558 37.6089 32.8267C37.655 32.7976 37.7087 32.7829 37.7632 32.7843C37.8177 32.7858 37.8706 32.8034 37.9151 32.835C37.9595 32.8665 37.9936 32.9105 38.013 32.9615C38.0325 33.0124 38.0363 33.068 38.0241 33.1211C38.0079 33.192 37.9642 33.2536 37.9027 33.2924C37.8411 33.3312 37.7668 33.3441 37.6958 33.3282Z" fill="white"/>
<path d="M37.918 31.9062C37.8633 31.9067 37.8097 31.8909 37.7641 31.8608C37.7184 31.8308 37.6827 31.7878 37.6616 31.7374C37.6404 31.687 37.6348 31.6314 37.6453 31.5777C37.6558 31.5241 37.6821 31.4748 37.7208 31.4362C37.7594 31.3975 37.8087 31.3712 37.8623 31.3607C37.916 31.3502 37.9715 31.3558 38.022 31.377C38.0724 31.3981 38.1154 31.4338 38.1454 31.4795C38.1755 31.5251 38.1912 31.5787 38.1907 31.6334C38.1907 31.7057 38.162 31.7751 38.1108 31.8262C38.0597 31.8774 37.9903 31.9062 37.918 31.9062Z" fill="white"/>
<path d="M37.8173 30.4716C37.7823 30.4798 37.746 30.4811 37.7105 30.4752C37.6751 30.4694 37.6411 30.4566 37.6106 30.4376C37.5801 30.4186 37.5536 30.3937 37.5327 30.3644C37.5118 30.3352 37.497 30.302 37.4889 30.267C37.4782 30.231 37.475 30.1931 37.4795 30.1558C37.484 30.1185 37.496 30.0825 37.515 30.0501C37.5339 30.0176 37.5593 29.9893 37.5895 29.967C37.6198 29.9447 37.6542 29.9289 37.6909 29.9204C37.7275 29.9119 37.7654 29.9111 37.8024 29.9178C37.8394 29.9246 37.8746 29.9388 37.9058 29.9597C37.937 29.9806 37.9637 30.0076 37.9841 30.0392C38.0045 30.0708 38.0182 30.1062 38.0244 30.1432C38.0326 30.1784 38.0337 30.2149 38.0277 30.2505C38.0217 30.2861 38.0087 30.3202 37.9895 30.3507C37.9702 30.3812 37.945 30.4077 37.9155 30.4284C37.8859 30.4492 37.8526 30.4638 37.8173 30.4716Z" fill="white"/>
<path d="M37.4004 29.0949C37.3517 29.1178 37.2974 29.1259 37.2442 29.118C37.1909 29.1102 37.1412 29.0867 37.1013 29.0507C37.0613 29.0146 37.0329 28.9676 37.0197 28.9155C37.0064 28.8633 37.0088 28.8084 37.0267 28.7577C37.0445 28.7069 37.077 28.6625 37.12 28.6302C37.163 28.5978 37.2146 28.5789 37.2683 28.5758C37.322 28.5727 37.3754 28.5856 37.4219 28.6128C37.4683 28.64 37.5056 28.6803 37.5292 28.7286C37.5451 28.7611 37.5543 28.7964 37.5564 28.8324C37.5584 28.8685 37.5534 28.9046 37.5414 28.9387C37.5294 28.9727 37.5107 29.0041 37.4866 29.0309C37.4624 29.0577 37.4331 29.0795 37.4004 29.0949Z" fill="white"/>
<path d="M36.6882 27.8473C36.6455 27.881 36.5937 27.9014 36.5394 27.9057C36.4851 27.9101 36.4307 27.8982 36.3832 27.8716C36.3356 27.8451 36.2971 27.805 36.2723 27.7565C36.2475 27.708 36.2377 27.6532 36.2441 27.5991C36.2504 27.545 36.2727 27.494 36.3081 27.4526C36.3434 27.4111 36.3902 27.3811 36.4426 27.3663C36.4951 27.3515 36.5507 27.3526 36.6025 27.3694C36.6543 27.3862 36.7 27.418 36.7337 27.4608C36.7789 27.5181 36.7995 27.591 36.7909 27.6634C36.7824 27.7359 36.7455 27.802 36.6882 27.8473Z" fill="white"/>
<path d="M35.7159 26.7862C35.6821 26.8292 35.6363 26.8611 35.5844 26.878C35.5324 26.8948 35.4766 26.8958 35.424 26.8809C35.3715 26.8659 35.3246 26.8356 35.2893 26.7939C35.254 26.7522 35.2319 26.701 35.2258 26.6467C35.2198 26.5924 35.23 26.5375 35.2552 26.489C35.2804 26.4406 35.3195 26.4007 35.3674 26.3745C35.4154 26.3483 35.47 26.3369 35.5244 26.3419C35.5788 26.3468 35.6305 26.3679 35.6729 26.4023C35.7013 26.4245 35.7249 26.4521 35.7425 26.4835C35.76 26.5149 35.7711 26.5495 35.7751 26.5852C35.7791 26.621 35.776 26.6572 35.7658 26.6917C35.7556 26.7262 35.7386 26.7584 35.7159 26.7862Z" fill="white"/>
<path d="M34.5335 25.9705C34.5013 26.0362 34.4446 26.0865 34.3755 26.1107C34.3065 26.1348 34.2308 26.1307 34.1647 26.0993C34.1158 26.0756 34.075 26.0378 34.0475 25.9909C34.0201 25.944 34.0071 25.89 34.0102 25.8357C34.0134 25.7814 34.0326 25.7293 34.0653 25.6859C34.0981 25.6425 34.143 25.6097 34.1943 25.5918C34.2456 25.5739 34.3011 25.5716 34.3538 25.5851C34.4065 25.5987 34.4539 25.6275 34.4902 25.6681C34.5265 25.7086 34.5499 25.7589 34.5576 25.8127C34.5653 25.8665 34.5569 25.9215 34.5335 25.9705Z" fill="white"/>
<path d="M33.1973 25.4375C33.1804 25.5086 33.1363 25.5702 33.0743 25.6089C33.0124 25.6477 32.9377 25.6605 32.8664 25.6446C32.7992 25.6247 32.7422 25.5798 32.7069 25.5193C32.6716 25.4587 32.6607 25.387 32.6765 25.3187C32.6923 25.2504 32.7335 25.1907 32.7918 25.1517C32.8501 25.1128 32.921 25.0976 32.9902 25.1091C33.0611 25.1254 33.1226 25.169 33.1614 25.2306C33.2003 25.2921 33.2131 25.3665 33.1973 25.4375Z" fill="white"/>
</g>
<defs>
<clipPath id="clip0_214_4232">
<rect width="63" height="63" fill="white" transform="translate(0 0.130859)"/>
</clipPath>
</defs>
</svg>
