<svg width="181" height="34" viewBox="0 0 181 34" fill="none" xmlns="http://www.w3.org/2000/svg">
<g clip-path="url(#clip0_154_7735)">
<path d="M30.2485 15.9648L30.5573 16.5213C30.3357 16.7883 30.4038 17.1246 30.341 17.428C30.0059 19.0332 29.2573 20.3472 27.6239 20.9401C27.0638 21.1429 26.4355 21.162 25.8387 21.266C24.7202 21.0649 23.5894 21.2556 22.469 21.1534C21.771 21.0892 21.518 21.2834 21.5337 22.0305C21.5843 24.3812 21.5616 26.7337 21.5529 29.0861C21.5529 31.3501 20.4762 32.7144 18.2914 33.3783C17.8918 33.4997 17.4328 33.3783 17.0873 33.6904H16.5638C16.2305 32.7387 16.4259 31.7575 16.4172 30.7919C16.3858 27.8327 16.4172 24.8736 16.398 21.9144C16.398 21.6474 16.5865 21.1846 16.049 21.1984C14.7577 21.2314 13.4611 21.0251 12.1785 21.3094C11.9839 21.1802 11.7499 21.1226 11.5171 21.1464C9.77206 21.2036 7.97641 19.5862 7.7356 17.3569C8.09333 17.1991 8.4755 17.2511 8.84894 17.2494C13.2488 17.2494 17.6475 17.2494 22.045 17.2494C22.4307 17.2494 22.8024 17.2494 23.1147 16.9963C23.6696 16.5542 24.3362 16.3653 24.9976 16.1607C25.8318 16.1469 26.6676 16.1607 27.5 16.1105C28.4232 16.0532 29.3515 16.2821 30.2485 15.9648Z" fill="#5D606F"/>
<path d="M25.8388 21.266C26.4356 21.162 27.0603 21.1429 27.624 20.9401C29.2574 20.3472 30.006 19.0332 30.341 17.4279C30.4038 17.1245 30.341 16.7882 30.5574 16.5212C32.5433 20.0126 34.5297 23.504 36.5168 26.9954C36.9129 27.6888 37.33 28.3822 37.6772 29.1086C38.5864 31.0051 37.5027 33.0957 35.4174 33.5291L27.6484 33.5083C27.4739 33.5083 27.2994 33.5083 27.2017 33.6816H27.0272C24.9331 32.957 23.8425 31.4696 23.5947 29.3114C23.5336 28.7757 23.6121 28.4775 24.2403 28.5174C24.8686 28.5573 25.5107 28.5486 26.1459 28.5625C26.1774 29.1415 26.7375 29.4587 26.8684 29.9875C27.1179 30.9964 28.1981 31.5147 28.3778 32.6103C28.4738 33.1841 29.0933 33.1997 29.5994 32.7351C30.5592 31.8476 30.6639 29.7378 29.8018 28.6353C29.8018 28.266 29.5593 28.0025 29.3987 27.7078C28.2167 25.5605 27.0301 23.4133 25.8388 21.266Z" fill="#5D606F"/>
<path d="M7.74616 17.3569C7.98698 19.5932 9.77392 21.2037 11.5277 21.1465C11.7603 21.1222 11.9939 21.1805 12.1873 21.3111C10.8646 23.7 9.54125 26.0871 8.21734 28.4724C8.16499 28.5747 8.10216 28.6718 8.06028 28.7775C7.52455 30.095 7.44254 31.3779 8.3901 32.5688C8.97294 33.2986 9.33066 33.2258 9.85592 32.5255C10.8314 31.2201 11.2415 29.5126 12.7283 28.5747C14.6234 28.4152 14.7316 28.5348 14.2849 30.2892C13.8172 32.1233 12.4822 33.3784 10.8349 33.5309L3.14622 33.5049C2.94902 33.5049 2.73264 33.4651 2.6227 33.6904H2.4482C1.27901 33.0767 0.368097 32.2394 0.00512695 30.9289V29.8888C2.2353 25.5549 4.76214 21.3632 7.12144 17.09C7.20695 16.9357 7.29594 16.7883 7.48441 16.7537L7.74616 17.3569Z" fill="#5D606F"/>
<path d="M15.3824 2.62177C15.8484 1.84168 16.5447 1.3528 17.3893 1.02863C17.6388 0.933286 17.9791 1.02864 18.1344 0.713135H20.054C20.0382 0.853552 20.122 0.909018 20.2424 0.943689C22.1777 1.50536 23.113 3.02395 23.8756 4.69162C23.5964 4.69162 23.4359 4.47319 23.0031 4.64828C22.2248 4.96899 21.4465 5.62253 20.6036 5.51505C18.6981 5.26889 16.8378 4.7939 15.9129 2.81072C15.8135 2.57843 15.5796 2.63564 15.3824 2.62177Z" fill="#5D606F"/>
<path d="M181 28.5105C179.429 28.7948 177.831 28.5919 176.246 28.6439C176.03 28.6439 175.843 28.5885 175.821 28.3267C177.124 28.3371 178.429 28.299 179.729 28.3735C180.583 28.4238 180.869 28.2106 180.859 27.2987C180.811 23.3705 180.859 19.4405 180.859 15.5106L180.942 15.4915L180.996 15.5591L181 28.5105Z" fill="#5D606F"/>
<path d="M27.2017 33.6907C27.2994 33.5068 27.4756 33.5172 27.6484 33.5172L35.4174 33.538C35.4009 33.5612 35.3904 33.588 35.3867 33.6161C35.3831 33.6442 35.3864 33.6728 35.3964 33.6993L27.2017 33.6907Z" fill="#5D606F"/>
<path d="M10.8348 33.5312C10.8194 33.5544 10.8092 33.5808 10.8049 33.6083C10.8007 33.6359 10.8026 33.664 10.8104 33.6908H2.60864C2.72556 33.4653 2.94195 33.5034 3.13216 33.5052L10.8348 33.5312Z" fill="#5D606F"/>
<path d="M132.858 23.8543C132.463 23.3706 132.488 23.9357 132.433 24.0536C131.8 25.4405 130.701 26.0576 129.2 26.0593C127.94 25.8258 126.647 25.8334 125.39 26.0819V26.1061C124.867 26.309 124.825 26.8342 124.628 27.2503C124.291 27.9662 123.893 28.4828 122.937 28.3771C122.012 28.2973 121.082 28.2973 120.157 28.3771C119.321 28.4308 118.949 28.1448 119.093 27.3023C119.531 27.2225 119.422 26.8845 119.433 26.6089C119.499 26.5764 119.553 26.5225 119.584 26.4561C119.616 26.3897 119.624 26.3147 119.607 26.2431C122.04 21.1031 124.459 15.9562 126.916 10.8284C127.455 9.7033 128.395 9.10695 129.708 9.13296C131.118 9.16069 131.947 9.96679 132.5 11.1248C134.667 15.6632 136.825 20.2057 138.974 24.7522C139.159 25.1406 139.323 25.5341 139.506 25.9258C139.465 25.9547 139.431 25.9923 139.406 26.0359C139.382 26.0796 139.368 26.1281 139.364 26.178C139.361 26.2279 139.369 26.2778 139.388 26.3242C139.407 26.3706 139.436 26.4121 139.473 26.4459C140.019 26.985 140.063 27.6594 140.058 28.3528C138.358 28.2471 136.643 28.5262 134.95 28.1691C134.992 27.857 134.911 27.6039 134.601 27.4618C134.586 27.4528 134.574 27.4395 134.567 27.4237C134.561 27.4078 134.559 27.3902 134.562 27.3734C134.241 26.0972 133.661 24.8997 132.858 23.8543ZM131.985 22.0843L129.622 17.1402L127.27 22.0843H131.985Z" fill="#5D606F"/>
<path d="M180.862 15.5124C180.852 19.4407 180.811 23.3706 180.862 27.3006C180.872 28.2124 180.586 28.4256 179.733 28.3754C178.433 28.3008 177.128 28.339 175.824 28.3286V26.628C175.65 26.7077 175.554 26.7198 175.522 26.7718C173.777 29.5698 168.327 29.9078 166.19 25.7317C163.996 21.4533 165.326 16.3497 170.306 14.7445C172.1 14.1655 173.997 14.4931 175.845 14.5937C177.204 14.6665 178.555 14.8849 179.907 15.0496C180.27 15.0981 180.677 15.0843 180.862 15.5124ZM176.135 20.9731C176.135 20.408 176.135 20.0041 176.135 19.6019C176.135 19.2794 176.037 19.0003 175.695 18.957C174.374 18.7836 173.044 18.4664 171.721 18.7958C171.161 18.9133 170.651 19.1978 170.258 19.6114C169.865 20.0249 169.608 20.5478 169.523 21.1101C169.287 22.3981 169.697 23.5093 170.809 24.2859C171.962 25.0955 173.203 25.0886 174.425 24.4714C175.944 23.7069 176.239 22.3392 176.135 20.9731Z" fill="#5D606F"/>
<path d="M79.5585 28.1553C79.5585 27.8086 79.5585 27.4723 79.5585 27.1308C79.7051 27.0129 79.7016 26.8967 79.5585 26.7841C79.5463 26.7113 79.5324 26.6384 79.5184 26.5639C79.1956 26.3628 79.2322 26.6298 79.1991 26.8049C78.974 26.9331 78.7122 27.0354 78.7663 27.3717L78.7105 27.4272C78.5935 27.3804 78.5534 27.4272 78.5848 27.5382L78.5482 27.5728C78.2201 27.5451 78.0997 27.786 77.9636 28.0097C77.7891 28.027 77.5413 27.9421 77.5308 28.2558L77.4977 28.2732C76.3808 28.4847 75.2832 28.7256 74.114 28.5679C73.5085 28.4864 72.9972 28.0842 72.369 28.1726C72.3271 27.8433 72.0898 27.8259 71.8315 27.8433C71.7896 27.4965 71.575 27.3873 71.2521 27.4168L71.205 27.3665C71.2486 27.2504 71.205 27.2122 71.0968 27.2608L71.0392 27.2122C71.0881 27.0129 70.9555 26.98 70.8071 26.9592C70.79 26.9551 70.7746 26.9456 70.7633 26.9322C70.752 26.9188 70.7453 26.9021 70.7443 26.8846C69.6607 25.0956 69.0761 23.18 69.2104 21.0737C69.2401 20.6196 69.2209 20.1602 69.2244 19.7043C69.727 18.938 70.0585 18.0886 70.4337 17.2599C71.8873 15.4363 73.7493 14.4516 76.133 14.4863C77.728 14.514 79.3247 14.5054 80.9092 14.7203C80.9738 14.807 81.0418 14.9717 81.1029 14.9699C82.2389 14.9283 83.3261 15.3738 84.4639 15.2889L84.5005 15.3218C84.4516 15.4692 84.5267 15.5403 84.6558 15.5801C84.8303 16.1158 84.7291 16.6653 84.7309 17.2079C84.7309 20.8022 84.7245 24.3964 84.7117 27.9906C84.5476 28.1033 84.3818 28.3182 84.2196 28.3165C82.6612 28.2992 81.0959 28.5627 79.5585 28.1553ZM79.8884 21.072C79.8343 18.8756 80.2374 18.9918 78.1241 18.7907C77.9496 18.7733 77.7751 18.7231 77.6006 18.7213C76.7927 18.7109 75.9742 18.548 75.1855 18.8617C74.7916 19.0103 74.4325 19.2375 74.1304 19.5292C73.8283 19.8209 73.5895 20.171 73.4288 20.5579C73.2681 20.9447 73.1888 21.3602 73.1959 21.7787C73.203 22.1972 73.2963 22.6098 73.4701 22.9911C74.2466 24.7038 76.3843 25.4042 78.1224 24.5079C79.6685 23.7122 80.007 22.3514 79.8884 21.0807V21.072Z" fill="#5D606F"/>
<path d="M148.781 14.4931C150.943 14.4912 153.097 14.7716 155.185 15.327C156.182 15.5974 156.29 15.847 155.883 16.8109C154.918 19.139 154.922 19.1234 152.414 18.5756C151.029 18.2722 149.634 17.9602 148.195 18.1474C147.671 18.215 147.039 18.2722 147.067 18.9518C147.092 19.5533 147.71 19.6279 148.193 19.6868C149.861 19.8896 151.545 19.9746 153.182 20.3802C153.801 20.5347 154.398 20.7678 154.957 21.0736C157.337 22.379 157.667 25.2723 155.625 27.0665C154.261 28.2661 152.603 28.7775 150.825 28.8191C147.921 28.8638 145.024 28.5292 142.207 27.8241C141.183 27.5779 141.07 27.3335 141.391 26.3644C141.58 25.8825 141.743 25.3913 141.881 24.8927C142.068 24.0363 142.563 23.8785 143.356 24.0623C145.45 24.5477 147.544 24.9585 149.702 25.066C150.135 25.0868 150.575 25.1128 150.996 24.9603C151.242 24.8701 151.498 24.7644 151.519 24.4506C151.543 24.1039 151.301 23.9305 151.009 23.8456C150.034 23.5422 149.013 23.4989 148.011 23.3429C146.568 23.1296 145.167 22.7985 143.905 22.0358C141.234 20.4201 141.192 17.3552 143.822 15.6598C145.403 14.6526 147.167 14.4255 148.781 14.4931Z" fill="#5D606F"/>
<path d="M110.381 14.4931C112.156 14.4723 113.871 14.722 115.59 15.0427C116.084 15.1575 116.563 15.3261 117.019 15.5454C117.485 15.743 117.62 16.0446 117.468 16.5006C117.468 16.5283 117.447 16.5543 117.438 16.582C116.606 19.1477 116.566 19.1581 113.948 18.5826C112.552 18.2792 111.168 17.9637 109.729 18.1284C109.5 18.1576 109.275 18.2069 109.055 18.2757C108.76 18.3659 108.518 18.5531 108.5 18.8703C108.479 19.2378 108.741 19.4355 109.067 19.5412C109.791 19.7735 110.554 19.7648 111.301 19.8515C112.77 20.0249 114.241 20.1653 115.639 20.7027C117.152 21.2869 118.229 22.2351 118.393 23.9305C118.552 25.5826 117.704 26.7216 116.39 27.5901C115.167 28.386 113.738 28.8123 112.276 28.8174C109.371 28.8513 106.473 28.5146 103.654 27.8154C102.651 27.5745 102.544 27.3474 102.865 26.3437C103.022 25.8531 103.239 25.3746 103.349 24.8736C103.539 24.0068 104.066 23.8837 104.841 24.0606C106.903 24.5373 108.978 24.9534 111.102 25.0556C111.51 25.0781 111.92 25.0571 112.324 24.9932C112.636 24.9429 112.967 24.8199 112.992 24.4229C113.016 24.0259 112.692 23.8751 112.376 23.8179C111.407 23.6445 110.435 23.4833 109.46 23.3377C107.957 23.1141 106.493 22.7604 105.209 21.9231C102.778 20.3438 102.728 17.4401 105.11 15.7829C106.689 14.6821 108.507 14.4186 110.381 14.4931Z" fill="#5D606F"/>
<path d="M49.54 27.3335L49.3655 27.486C48.8211 27.486 48.4598 27.8067 48.13 28.1795C45.9976 29.0046 45.8178 28.8937 45.8178 26.7458C45.8178 22.8141 45.8039 18.8807 45.8301 14.9577C45.8301 14.3648 45.6922 14.1464 45.0657 14.1828C44.2298 14.2313 43.387 14.1828 42.5459 14.1828C42.4918 14.103 42.4324 14.0875 42.3714 14.1689L42.0224 14.1325C41.4465 13.7442 40.7659 13.6679 40.115 13.498C40.033 13.0144 39.6264 12.9294 39.2425 12.8046C39.068 12.418 39.0436 11.9378 38.5445 11.7784C38.5829 11.338 38.4398 10.9307 38.3141 10.5198C38 9.49181 38.103 9.34274 39.1395 9.34274C45.2472 9.34274 51.3671 9.35659 57.4817 9.32712C58.3333 9.32712 58.7591 9.53688 58.6195 10.4331C58.6195 10.4782 58.6038 10.5233 58.5968 10.5701C58.4345 11.3484 57.7243 11.8928 57.6615 12.7145L57.6091 12.763C57.4922 12.718 57.4556 12.7526 57.5027 12.8688C57.4998 12.8854 57.492 12.9008 57.4801 12.9128C57.4683 12.9249 57.453 12.9331 57.4364 12.9364C57.3177 12.8913 57.2811 12.926 57.3282 13.0421L57.2758 13.0959C56.4836 13.4131 55.6617 13.661 54.9183 14.0944L54.5867 14.1568C53.4245 13.9938 52.264 13.9089 51.1088 14.2105C50.5591 14.3128 50.7755 14.7514 50.7755 15.0444C50.7581 18.0365 50.7755 21.0268 50.7598 24.0189C50.7598 24.7921 50.7022 25.5792 50.2014 26.2258C50.0269 26.465 49.8524 26.6799 49.896 26.9937C49.643 26.9746 49.5488 27.1099 49.54 27.3335Z" fill="#5D606F"/>
<path d="M88.5873 28.1985C88.5805 28.2132 88.5687 28.225 88.5541 28.232C88.5394 28.2389 88.5228 28.2406 88.507 28.2367C88.1374 28.166 87.7556 28.1917 87.3989 28.3112C86.926 28.4551 86.6363 28.3112 86.6381 27.7339C86.652 23.8092 86.6381 19.8827 86.6381 15.9579C86.6381 15.6424 86.6852 15.3998 87.0866 15.3686C88.0324 15.2975 88.9416 15.008 89.9066 14.9941C90.5051 14.9854 91.1752 15.008 91.7144 14.5988L92.0634 14.5607C92.1315 14.6509 92.1908 14.6352 92.238 14.5486C93.9167 14.5035 95.5989 14.3596 97.2707 14.663C99.6806 15.1033 101.146 16.5318 101.59 18.8998C101.929 20.7989 101.967 22.7392 101.701 24.65C101.396 26.9798 99.815 28.3459 97.4504 28.5886C96.8047 28.6545 96.6494 28.4378 96.6512 27.8414C96.6599 25.5445 96.6285 23.2458 96.6093 20.9471C96.5988 19.6781 96.0858 19.1511 94.7962 19.0125C93.9237 18.9206 93.0511 18.9865 92.1891 18.9934C91.6307 18.9934 91.4527 19.1668 91.4509 19.7406C91.4509 21.377 91.5766 23.0187 91.3759 24.6482C91.2014 26.0351 90.5976 27.1584 89.3167 27.8484C89.2434 27.8265 89.1643 27.8334 89.0959 27.8676C89.0274 27.9017 88.9747 27.9606 88.9485 28.0321L88.9258 27.9957L88.952 28.0304C88.881 28.0102 88.8051 28.016 88.7381 28.0469C88.6711 28.0778 88.6176 28.1316 88.5873 28.1985Z" fill="#5D606F"/>
<path d="M15.3826 2.62177C15.5797 2.63563 15.8136 2.57842 15.92 2.80898C16.8449 4.79216 18.7121 5.26715 20.6107 5.51331C21.4536 5.62253 22.2319 4.96898 23.0102 4.64654C23.4342 4.47318 23.5948 4.68468 23.8827 4.68988C23.873 4.75629 23.8847 4.82404 23.916 4.88348C23.9474 4.94293 23.9967 4.99105 24.0572 5.02099C25.0763 6.52051 25.9017 8.12924 26.783 9.70157C27.9463 11.7818 29.1056 13.8621 30.2609 15.9423C29.3639 16.2596 28.4355 16.0359 27.5229 16.0862C26.6905 16.133 25.8546 16.1226 25.0205 16.1365L22.888 16.0706L21.492 13.4703C22.6786 12.2967 23.2213 10.7174 24.1096 9.3566C25.1287 7.7964 25.0187 7.66119 23.237 7.27634C21.4222 6.89149 19.5183 7.79641 19.0245 9.29766C18.85 9.58543 18.6528 9.86627 18.4835 10.1644C17.3899 12.0679 16.2987 13.9748 15.2098 15.8851H8.85781C8.54196 15.8851 8.2139 15.9337 7.93469 15.7257C10.3027 11.4334 12.6795 7.14807 15.1801 2.93034L15.3285 2.7015C15.3315 2.68525 15.3379 2.6698 15.3472 2.65609C15.3565 2.64238 15.3685 2.63069 15.3826 2.62177Z" fill="#5D606F"/>
<path d="M56.8361 22.0029C56.8361 20.0769 56.8588 18.1509 56.8256 16.2249C56.8134 15.5055 57.0996 15.1657 57.8011 15.0825C60.8567 14.7185 63.9088 14.4134 67.001 14.5035C67.5245 14.5191 67.7182 14.6318 67.699 15.1779C67.6624 16.3255 67.6676 17.4783 67.699 18.6276C67.7165 19.1581 67.5036 19.2691 67.0324 19.1962C65.6154 18.9778 64.1985 19.0905 62.778 19.1685C62.1864 19.2032 61.9822 19.3904 61.991 19.9885C62.0136 21.4238 62.0451 22.8662 61.9299 24.2964C61.7257 26.8204 60.1848 28.2835 57.6318 28.5713C57.0193 28.6406 56.8047 28.5158 56.8169 27.8778C56.8605 25.9155 56.8361 23.9583 56.8361 22.0029Z" fill="#5D606F"/>
<path d="M158.525 21.8641C158.525 19.8792 158.543 17.8943 158.515 15.9094C158.515 15.3148 158.698 15.086 159.314 15.105C160.417 15.1414 161.522 15.1276 162.63 15.105C163.352 15.0946 163.687 15.3841 163.677 16.133C163.652 18.7212 163.703 21.3111 163.649 23.8976C163.593 26.6262 161.974 28.2956 159.286 28.5782C158.69 28.6406 158.513 28.4707 158.52 27.8969C158.545 25.8912 158.525 23.8768 158.525 21.8641Z" fill="#5D606F"/>
<path d="M161.162 9.16071C162.574 9.19018 163.67 10.213 163.665 11.4941C163.665 12.8272 162.532 13.8534 161.087 13.8413C159.642 13.8292 158.51 12.7752 158.531 11.4611C158.552 10.1471 159.717 9.13298 161.162 9.16071Z" fill="#5D606F"/>
<path d="M58.6108 10.4175C58.7504 9.52129 58.3246 9.30633 57.473 9.31153C51.3654 9.341 45.2455 9.32539 39.1308 9.32713C38.0942 9.32713 37.9913 9.47622 38.3054 10.5042C38.431 10.9151 38.5742 11.3224 38.5358 11.7628C38.1641 11.26 38.0943 10.6654 37.9669 10.0778C37.7924 9.29247 38.0053 8.97177 38.8708 9.01684C40.0923 9.07925 41.3139 9.03243 42.5232 9.03243H57.8342C58.9965 9.03243 59.1657 9.33754 58.6108 10.4175Z" fill="#5D606F"/>
<path d="M91.7214 14.5988C91.1821 15.008 90.512 14.9854 89.9135 14.9941C88.9485 15.008 88.0393 15.2975 87.0935 15.3686C86.6922 15.3998 86.6433 15.6424 86.645 15.9579C86.645 19.8827 86.645 23.8092 86.645 27.734C86.645 28.3164 86.933 28.4551 87.4059 28.3112C87.7626 28.1917 88.1443 28.1661 88.514 28.2367C88.4722 28.2754 88.4252 28.308 88.3744 28.3338C86.4897 28.9821 86.317 28.8642 86.317 26.9175C86.317 23.3862 86.3449 19.8567 86.3013 16.3272C86.2908 15.476 86.6136 15.1241 87.4181 15.0496C88.849 14.9178 90.2712 14.6231 91.7214 14.5988Z" fill="#5D606F"/>
<path d="M49.8925 26.9747C49.8489 26.6609 50.0147 26.4546 50.1979 26.2067C50.6988 25.5583 50.7529 24.773 50.7563 23.9999C50.7686 21.0078 50.7564 18.0174 50.7721 15.0253C50.7721 14.7323 50.5557 14.2937 51.1054 14.1915C51.0896 17.1766 51.0809 20.1601 51.053 23.1435C51.0425 24.3847 50.9396 25.6138 50.1805 26.68C50.0937 26.7867 49.9974 26.8853 49.8925 26.9747Z" fill="#5D606F"/>
<path d="M119.091 27.2954C118.948 28.1379 119.319 28.4239 120.155 28.3702C121.08 28.2904 122.01 28.2904 122.935 28.3702C123.891 28.4759 124.289 27.9593 124.626 27.2434C124.823 26.8273 124.863 26.302 125.389 26.0992C125.088 26.7181 124.774 27.3318 124.493 27.961C124.414 28.1797 124.265 28.3663 124.068 28.4917C123.871 28.6171 123.638 28.6743 123.404 28.6545C122.214 28.6423 121.024 28.6701 119.834 28.6441C118.873 28.6233 118.661 28.2141 119.091 27.2954Z" fill="#5D606F"/>
<path d="M69.2173 19.6938C69.2173 20.1497 69.233 20.6091 69.2033 21.0633C69.069 23.1695 69.6536 25.0851 70.7372 26.8741C68.9747 24.7471 68.5577 22.334 69.2173 19.6938Z" fill="#5D606F"/>
<path d="M79.5584 28.1553C81.0958 28.563 82.6611 28.2993 84.2125 28.3166C84.3747 28.3166 84.5405 28.1033 84.7046 27.9905C84.8319 28.4086 84.6191 28.5959 84.2334 28.6029C82.8199 28.6272 81.4058 28.6405 79.9911 28.6428C79.6945 28.6428 79.4938 28.5005 79.5584 28.1553Z" fill="#5D606F"/>
<path d="M134.941 28.1881C136.634 28.5507 138.349 28.2662 140.049 28.372C139.489 28.7537 135.578 28.7918 135.047 28.4119C134.986 28.3616 134.976 28.261 134.941 28.1881Z" fill="#5D606F"/>
<path d="M72.3636 28.1674C72.9901 28.0789 73.5014 28.4813 74.1087 28.5629C75.2779 28.7207 76.3773 28.4796 77.4923 28.268C75.763 29.1353 74.0546 29.0833 72.3636 28.1674Z" fill="#5D606F"/>
<path d="M84.4567 15.289C83.319 15.374 82.2318 14.9281 81.0958 14.9698C81.0347 14.9698 80.9667 14.8067 80.9021 14.72C82.0957 14.864 83.3172 14.8188 84.4567 15.289Z" fill="#5D606F"/>
<path d="M132.857 23.8543C133.661 24.9048 134.239 26.1078 134.557 27.389C133.899 26.2563 133.331 25.0745 132.857 23.8543Z" fill="#5D606F"/>
<path d="M140.047 28.3615C140.047 27.6681 140.009 26.9851 139.462 26.4546C139.425 26.4209 139.396 26.3793 139.377 26.3329C139.359 26.2865 139.351 26.2366 139.354 26.1867C139.357 26.1368 139.371 26.0883 139.396 26.0446C139.42 26.001 139.454 25.9634 139.496 25.9345C139.845 26.4546 140.057 27.0406 140.3 27.6126C140.464 27.9628 140.382 28.1882 140.047 28.3615Z" fill="#5D606F"/>
<path d="M70.4197 17.2547C70.0445 18.0833 69.7216 18.9327 69.2103 19.699C69.3521 18.7805 69.7743 17.9273 70.4197 17.2547Z" fill="#5D606F"/>
<path d="M54.9097 14.0795C55.6531 13.6458 56.4802 13.3977 57.2673 13.0803C56.6325 13.6913 55.7927 14.0473 54.9097 14.0795Z" fill="#5D606F"/>
<path d="M57.6528 12.6989C57.7157 11.8772 58.4259 11.3329 58.5882 10.5545C58.6911 11.4455 58.1903 12.08 57.6528 12.6989Z" fill="#5D606F"/>
<path d="M125.389 26.0838C126.645 25.8352 127.938 25.8275 129.198 26.0612L125.389 26.0838Z" fill="#5D606F"/>
<path d="M51.1001 14.1951C52.2553 13.8932 53.4158 13.9782 54.578 14.1413C53.421 14.2801 52.2588 14.1795 51.1001 14.1951Z" fill="#5D606F"/>
<path d="M40.1151 13.4825C40.766 13.6559 41.4466 13.7288 42.0225 14.1174C41.3314 14.0723 40.6735 13.9248 40.1151 13.4825Z" fill="#5D606F"/>
<path d="M48.1335 28.1886C48.4634 27.8156 48.8316 27.4947 49.369 27.4947C49.0516 27.8626 48.6144 28.1081 48.1335 28.1886Z" fill="#5D606F"/>
<path d="M38.5359 11.7627C39.042 11.9223 39.0699 12.4028 39.2339 12.7896C38.887 12.5396 38.6398 12.1759 38.5359 11.7627Z" fill="#5D606F"/>
<path d="M39.2443 12.7925C39.6212 12.9122 40.0278 12.9972 40.1168 13.4864C39.7533 13.3636 39.4446 13.1181 39.2443 12.7925Z" fill="#5D606F"/>
<path d="M119.429 26.5967C119.419 26.8794 119.527 27.2177 119.089 27.2906C119.121 27.028 119.241 26.7837 119.429 26.5967Z" fill="#5D606F"/>
<path d="M71.2451 27.4117C71.568 27.3822 71.7826 27.4949 71.8245 27.8384C71.5881 27.7659 71.3837 27.6154 71.2451 27.4117Z" fill="#5D606F"/>
<path d="M134.595 27.479C134.904 27.6213 134.985 27.8745 134.945 28.1868C134.739 28.0055 134.614 27.7513 134.595 27.479Z" fill="#5D606F"/>
<path d="M78.7557 27.3686C78.7016 27.032 78.9634 26.9297 79.1885 26.8013C79.1449 27.0615 78.9302 27.2038 78.7557 27.3686Z" fill="#5D606F"/>
<path d="M77.9529 28.0151C78.089 27.7913 78.2094 27.5502 78.5375 27.5779C78.4031 27.79 78.1951 27.9456 77.9529 28.0151Z" fill="#5D606F"/>
<path d="M71.8262 27.8412C72.0844 27.8239 72.3218 27.8412 72.3636 28.1708C72.2547 28.1603 72.1496 28.1251 72.0564 28.068C71.9633 28.0108 71.8845 27.9333 71.8262 27.8412Z" fill="#5D606F"/>
<path d="M49.54 27.3337C49.5488 27.1099 49.643 26.9677 49.889 26.9868C49.8671 27.0702 49.8232 27.1463 49.7619 27.2073C49.7005 27.2682 49.624 27.3119 49.54 27.3337Z" fill="#5D606F"/>
<path d="M79.1868 26.8015C79.2199 26.628 79.1868 26.3592 79.5061 26.5604L79.1868 26.8015Z" fill="#5D606F"/>
<path d="M77.5237 28.2507C77.5342 27.9367 77.775 28.0217 77.9565 28.0044C77.9059 28.0735 77.8412 28.1311 77.7666 28.1736C77.692 28.2161 77.6092 28.2423 77.5237 28.2507Z" fill="#5D606F"/>
<path d="M88.9573 28.0324C88.9835 27.9608 89.0362 27.9019 89.1046 27.8677C89.1731 27.8335 89.2521 27.8266 89.3255 27.8485C89.2887 27.9114 89.2343 27.9622 89.1689 27.9949C89.1035 28.0275 89.03 28.0405 88.9573 28.0324Z" fill="#5D606F"/>
<path d="M88.5873 28.1987C88.6168 28.1289 88.6714 28.0725 88.7404 28.0404C88.8094 28.0083 88.8879 28.0029 88.9608 28.0252C88.9235 28.0883 88.8679 28.1387 88.8012 28.1697C88.7345 28.2007 88.6599 28.2108 88.5873 28.1987Z" fill="#5D606F"/>
<path d="M70.8 26.9539C70.9484 26.9747 71.081 27.0076 71.0322 27.2071L70.8 26.9539Z" fill="#5D606F"/>
<path d="M79.5461 26.7822C79.6944 26.8967 79.6979 27.013 79.5461 27.1292V26.7822Z" fill="#5D606F"/>
<path d="M119.602 26.2362C119.619 26.3078 119.611 26.3829 119.579 26.4494C119.547 26.5158 119.494 26.5697 119.428 26.6022C119.417 26.5308 119.428 26.4579 119.459 26.3927C119.49 26.3275 119.54 26.273 119.602 26.2362Z" fill="#5D606F"/>
<path d="M24.045 5.03154C23.9846 5.00157 23.9351 4.95342 23.9038 4.89393C23.8725 4.83445 23.8608 4.76665 23.8705 4.7002C23.9043 4.70985 23.9358 4.72621 23.963 4.74831C23.9903 4.7704 24.0128 4.79776 24.0291 4.82873C24.0454 4.85971 24.0552 4.89366 24.058 4.92852C24.0607 4.96337 24.0563 4.99842 24.045 5.03154Z" fill="#5D606F"/>
<path d="M84.6489 15.5802C84.5197 15.5403 84.4447 15.4692 84.4936 15.3217C84.5467 15.3385 84.5918 15.3741 84.6204 15.4217C84.6491 15.4693 84.6592 15.5257 84.6489 15.5802Z" fill="#5D606F"/>
<path d="M78.5742 27.5347C78.5428 27.4167 78.5742 27.3768 78.6998 27.4237L78.5742 27.5347Z" fill="#5D606F"/>
<path d="M71.0897 27.2555C71.2067 27.2069 71.2416 27.2451 71.1979 27.3613C71.1707 27.3578 71.1455 27.3456 71.1259 27.3265C71.1064 27.3074 71.0937 27.2824 71.0897 27.2555Z" fill="#5D606F"/>
<path d="M57.4941 12.8533C57.447 12.737 57.4836 12.7023 57.6005 12.7474C57.5972 12.7744 57.5849 12.7994 57.5656 12.8186C57.5463 12.8378 57.5212 12.85 57.4941 12.8533Z" fill="#5D606F"/>
<path d="M92.2468 14.5486C92.1927 14.6353 92.1333 14.6509 92.0723 14.5607L92.2468 14.5486Z" fill="#5D606F"/>
<path d="M57.3195 13.0265C57.2724 12.9103 57.309 12.8756 57.4277 12.9207C57.4234 12.9475 57.4106 12.9723 57.3911 12.9914C57.3717 13.0104 57.3465 13.0227 57.3195 13.0265Z" fill="#5D606F"/>
<path d="M42.3679 14.1464C42.436 14.0649 42.4953 14.0805 42.5424 14.1603L42.3679 14.1464Z" fill="#5D606F"/>
<path d="M22.8758 16.0931L25.0083 16.159C24.3469 16.3637 23.6803 16.5528 23.1254 16.9951C22.813 17.2467 22.4413 17.2484 22.0557 17.2484C17.6581 17.2484 13.2594 17.2484 8.85959 17.2484C8.48615 17.2484 8.10398 17.1981 7.74625 17.356L7.47925 16.7558C7.55429 16.185 7.99231 16.2353 8.39018 16.2353C10.2993 16.2353 12.2066 16.2353 14.1139 16.2353C14.4263 16.2353 14.7544 16.3047 15.0441 16.1156L15.0772 16.0827L15.1243 16.0948L22.8758 16.0931Z" fill="#5D606F"/>
<path d="M15.1242 16.1022L15.0771 16.0901L15.044 16.123C12.8662 16.123 10.6813 16.123 8.51224 16.0935C8.31854 16.0935 7.76885 16.4301 7.91718 15.7466C8.19638 15.9547 8.52446 15.9062 8.84031 15.9062H15.1923L15.1242 16.1022Z" fill="#5D606F"/>
<path d="M15.3109 2.72568L15.1626 2.95465L15.3109 2.72568Z" fill="#5D606F"/>
<path d="M27.3641 28.6544L29.8071 28.644C30.6692 29.7466 30.5645 31.8563 29.6047 32.7439C29.1021 33.2085 28.4826 33.1929 28.3832 32.6191C28.2087 31.5235 27.1232 31.0051 26.8737 29.9962C26.7428 29.4762 26.1757 29.1502 26.1512 28.5712H27.2436C27.2505 28.597 27.2664 28.6195 27.2885 28.6348C27.3105 28.65 27.3373 28.657 27.3641 28.6544Z" fill="#5D606F"/>
<path d="M8.21724 28.4724L11.3758 28.5694C11.5252 28.6559 11.695 28.7015 11.8679 28.7015C12.0408 28.7015 12.2106 28.6559 12.36 28.5694H12.7282C11.2414 29.5073 10.8313 31.2148 9.85582 32.5202C9.33231 33.2136 8.97284 33.2934 8.39 32.5635C7.44244 31.3812 7.51747 30.0898 8.06018 28.7723C8.10206 28.6717 8.16489 28.5746 8.21724 28.4724Z" fill="#5D606F"/>
<path d="M27.3639 28.6543C27.3359 28.658 27.3074 28.6512 27.2842 28.6352C27.2609 28.6191 27.2446 28.595 27.2383 28.5676C27.3325 28.5225 27.3482 28.5884 27.3639 28.6543Z" fill="#5D606F"/>
<path d="M12.3602 28.5731C12.2108 28.6596 12.041 28.7052 11.8681 28.7052C11.6952 28.7052 11.5254 28.6596 11.376 28.5731H12.3602Z" fill="#5D606F"/>
<path d="M21.4816 13.4964C20.5951 12.1442 19.9703 10.6395 19.0071 9.33584C19.5009 7.84326 21.4048 6.92967 23.2196 7.31452C25.0083 7.69243 25.1182 7.83458 24.0922 9.39478C23.2109 10.7435 22.6682 12.3227 21.4816 13.4964Z" fill="#5D606F"/>
</g>
<defs>
<clipPath id="clip0_154_7735">
<rect width="181" height="32.9773" fill="white" transform="translate(0 0.713135)"/>
</clipPath>
</defs>
</svg>
